<?xml version="1.0" encoding="UTF-8" standalone="no"?>
<!DOCTYPE svg PUBLIC "-//W3C//DTD SVG 1.1//EN"
 "http://www.w3.org/Graphics/SVG/1.1/DTD/svg11.dtd">
<!-- Generated by graphviz version 2.40.1 (20161225.0304)
 -->
<!-- Title: DimAccount Pages: 1 -->
<svg width="360pt" height="832pt"
 viewBox="0.00 0.00 360.00 832.00" xmlns="http://www.w3.org/2000/svg" xmlns:xlink="http://www.w3.org/1999/xlink">
<g id="graph0" class="graph" transform="scale(1 1) rotate(0) translate(4 828)">
<title>DimAccount</title>
<polygon fill="#ffffff" stroke="transparent" points="-4,4 -4,-828 356,-828 356,4 -4,4"/>
<!-- DimAccount -->
<g id="node1" class="node">
<title>DimAccount</title>
<polygon fill="#efefef" stroke="transparent" points="46,-345.5 46,-380.5 306,-380.5 306,-345.5 46,-345.5"/>
<polygon fill="none" stroke="#000000" points="46,-345.5 46,-380.5 306,-380.5 306,-345.5 46,-345.5"/>
<text text-anchor="start" x="61.3829" y="-358.3" font-family="Arial Bold" font-size="18.00" fill="#000000">DimAccount</text>
<text text-anchor="start" x="158.3885" y="-358.3" font-family="Arial" font-size="14.00" fill="#000000">    </text>
<text text-anchor="start" x="192.5933" y="-358.3" font-family="Arial" font-size="14.00" fill="#666666">[BASIC TABLE]</text>
<polygon fill="none" stroke="#000000" points="46,-315.5 46,-345.5 306,-345.5 306,-315.5 46,-315.5"/>
<text text-anchor="start" x="53" y="-326.9" font-family="Arial" font-size="14.00" fill="#000000">AccountKey </text>
<text text-anchor="start" x="131.5848" y="-326.9" font-family="Arial" font-size="14.00" fill="#666666">[int]</text>
<polygon fill="none" stroke="#000000" points="46,-285.5 46,-315.5 306,-315.5 306,-285.5 46,-285.5"/>
<text text-anchor="start" x="53" y="-296.9" font-family="Arial" font-size="14.00" fill="#000000">ParentAccountKey </text>
<text text-anchor="start" x="172.8204" y="-296.9" font-family="Arial" font-size="14.00" fill="#666666">[int]</text>
<polygon fill="none" stroke="#000000" points="46,-255.5 46,-285.5 306,-285.5 306,-255.5 46,-255.5"/>
<text text-anchor="start" x="53" y="-266.9" font-family="Arial" font-size="14.00" fill="#000000">AccountCodeAlternateKey </text>
<text text-anchor="start" x="221.0546" y="-266.9" font-family="Arial" font-size="14.00" fill="#666666">[int]</text>
<polygon fill="none" stroke="#000000" points="46,-225.5 46,-255.5 306,-255.5 306,-225.5 46,-225.5"/>
<text text-anchor="start" x="53" y="-236.9" font-family="Arial" font-size="14.00" fill="#000000">ParentAccountCodeAlternateKey </text>
<text text-anchor="start" x="262.2902" y="-236.9" font-family="Arial" font-size="14.00" fill="#666666">[int]</text>
<polygon fill="none" stroke="#000000" points="46,-195.5 46,-225.5 306,-225.5 306,-195.5 46,-195.5"/>
<text text-anchor="start" x="53" y="-206.9" font-family="Arial" font-size="14.00" fill="#000000">AccountDescription </text>
<text text-anchor="start" x="177.467" y="-206.9" font-family="Arial" font-size="14.00" fill="#666666">[nvarchar(50)]</text>
<polygon fill="none" stroke="#000000" points="46,-165.5 46,-195.5 306,-195.5 306,-165.5 46,-165.5"/>
<text text-anchor="start" x="53" y="-176.9" font-family="Arial" font-size="14.00" fill="#000000">AccountType </text>
<text text-anchor="start" x="138.5834" y="-176.9" font-family="Arial" font-size="14.00" fill="#666666">[nvarchar(50)]</text>
<polygon fill="none" stroke="#000000" points="46,-135.5 46,-165.5 306,-165.5 306,-135.5 46,-135.5"/>
<text text-anchor="start" x="53" y="-146.9" font-family="Arial" font-size="14.00" fill="#000000">Operator </text>
<text text-anchor="start" x="112.1234" y="-146.9" font-family="Arial" font-size="14.00" fill="#666666">[nvarchar(50)]</text>
<polygon fill="none" stroke="#000000" points="46,-105.5 46,-135.5 306,-135.5 306,-105.5 46,-105.5"/>
<text text-anchor="start" x="53" y="-116.9" font-family="Arial" font-size="14.00" fill="#000000">CustomMembers </text>
<text text-anchor="start" x="163.4432" y="-116.9" font-family="Arial" font-size="14.00" fill="#666666">[nvarchar(300)]</text>
<polygon fill="none" stroke="#000000" points="46,-75.5 46,-105.5 306,-105.5 306,-75.5 46,-75.5"/>
<text text-anchor="start" x="53" y="-86.9" font-family="Arial" font-size="14.00" fill="#000000">ValueType </text>
<text text-anchor="start" x="123.7994" y="-86.9" font-family="Arial" font-size="14.00" fill="#666666">[nvarchar(50)]</text>
<polygon fill="none" stroke="#000000" points="46,-45.5 46,-75.5 306,-75.5 306,-45.5 46,-45.5"/>
<text text-anchor="start" x="52.7097" y="-56.9" font-family="Arial" font-size="14.00" fill="#000000">CustomMemberOptions </text>
<text text-anchor="start" x="204.3885" y="-56.9" font-family="Arial" font-size="14.00" fill="#666666">[nvarchar(200)]</text>
<polygon fill="none" stroke="#000000" stroke-width="3" points="44.5,-44.5 44.5,-382.5 307.5,-382.5 307.5,-44.5 44.5,-44.5"/>
</g>
<!-- DimAccount&#45;&gt;DimAccount -->
<g id="edge1" class="edge">
<title>DimAccount:ParentAccountKey&#45;&gt;DimAccount:AccountKey</title>
<path fill="none" stroke="#000000" d="M177.4697,-325.7643C184.97,-465.6242 184.4801,-642 176,-642 167.3164,-642 167.0111,-484.9842 175.0842,-345.6518"/>
<polygon fill="#000000" stroke="#000000" points="177.4687,-325.7451 181.409,-315.5116 177.1923,-320.7528 176.9158,-315.7604 176.9158,-315.7604 176.9158,-315.7604 177.1923,-320.7528 172.4227,-316.0092 177.4687,-325.7451 177.4687,-325.7451"/>
</g>
<!-- FactFinance -->
<g id="node2" class="node">
<title>FactFinance</title>
<polygon fill="#efefef" stroke="transparent" points="53,-745.5 53,-780.5 298,-780.5 298,-745.5 53,-745.5"/>
<polygon fill="none" stroke="#000000" points="53,-745.5 53,-780.5 298,-780.5 298,-745.5 53,-745.5"/>
<text text-anchor="start" x="59.8758" y="-758.3" font-family="Arial Bold" font-size="18.00" fill="#000000">FactFinance</text>
<text text-anchor="start" x="158.8956" y="-758.3" font-family="Arial" font-size="14.00" fill="#000000">    </text>
<text text-anchor="start" x="193.1004" y="-758.3" font-family="Arial" font-size="14.00" fill="#666666">[BASIC TABLE]</text>
<polygon fill="none" stroke="#000000" points="53,-715.5 53,-745.5 298,-745.5 298,-715.5 53,-715.5"/>
<text text-anchor="start" x="60" y="-726.9" font-family="Arial" font-size="14.00" fill="#000000">FinanceKey    </text>
<text text-anchor="start" x="168.1136" y="-726.9" font-family="Arial" font-size="14.00" fill="#666666">[int]</text>
<polygon fill="none" stroke="#000000" points="53,-685.5 53,-715.5 298,-715.5 298,-685.5 53,-685.5"/>
<text text-anchor="start" x="60" y="-696.9" font-family="Arial" font-size="14.00" fill="#000000">DateKey    </text>
<text text-anchor="start" x="147.8864" y="-696.9" font-family="Arial" font-size="14.00" fill="#666666">[int]</text>
<polygon fill="none" stroke="#000000" points="53,-655.5 53,-685.5 298,-685.5 298,-655.5 53,-655.5"/>
<text text-anchor="start" x="60" y="-666.9" font-family="Arial" font-size="14.00" fill="#000000">OrganizationKey    </text>
<text text-anchor="start" x="197.6746" y="-666.9" font-family="Arial" font-size="14.00" fill="#666666">[int]</text>
<polygon fill="none" stroke="#000000" points="53,-625.5 53,-655.5 298,-655.5 298,-625.5 53,-625.5"/>
<text text-anchor="start" x="60" y="-636.9" font-family="Arial" font-size="14.00" fill="#000000">DepartmentGroupKey    </text>
<text text-anchor="start" x="230.345" y="-636.9" font-family="Arial" font-size="14.00" fill="#666666">[int]</text>
<polygon fill="none" stroke="#000000" points="53,-595.5 53,-625.5 298,-625.5 298,-595.5 53,-595.5"/>
<text text-anchor="start" x="60" y="-606.9" font-family="Arial" font-size="14.00" fill="#000000">ScenarioKey    </text>
<text text-anchor="start" x="173.5582" y="-606.9" font-family="Arial" font-size="14.00" fill="#666666">[int]</text>
<polygon fill="none" stroke="#000000" points="53,-565.5 53,-595.5 298,-595.5 298,-565.5 53,-565.5"/>
<text text-anchor="start" x="60" y="-576.9" font-family="Arial" font-size="14.00" fill="#000000">AccountKey    </text>
<text text-anchor="start" x="168.899" y="-576.9" font-family="Arial" font-size="14.00" fill="#666666">[int]</text>
<polygon fill="none" stroke="#000000" points="53,-535.5 53,-565.5 298,-565.5 298,-535.5 53,-535.5"/>
<text text-anchor="start" x="60" y="-546.9" font-family="Arial" font-size="14.00" fill="#000000">Amount    </text>
<text text-anchor="start" x="142.4404" y="-546.9" font-family="Arial" font-size="14.00" fill="#666666">[float]</text>
<polygon fill="none" stroke="#000000" points="53,-505.5 53,-535.5 298,-535.5 298,-505.5 53,-505.5"/>
<text text-anchor="start" x="60" y="-516.9" font-family="Arial" font-size="14.00" fill="#000000">Date    </text>
<text text-anchor="start" x="123.7672" y="-516.9" font-family="Arial" font-size="14.00" fill="#666666">[datetime]</text>
</g>
<!-- FactFinance&#45;&gt;DimAccount -->
<g id="edge2" class="edge">
<title>FactFinance:AccountKey&#45;&gt;DimAccount:AccountKey</title>
<path fill="none" stroke="#000000" d="M307.9928,-579.383C347.61,-569.7152 329.8103,-499.6776 298,-463 223.8724,-377.5301 120.1276,-512.4699 46,-427 17.8991,-394.5994 3.1111,-330.5 46,-330.5"/>
<polygon fill="#000000" stroke="#000000" points="307.9381,-579.389 297.5,-576.0279 302.9691,-579.9445 298,-580.5 298,-580.5 298,-580.5 302.9691,-579.9445 298.5,-584.9721 307.9381,-579.389 307.9381,-579.389"/>
</g>
</g>
</svg>
