<?xml version="1.0" encoding="UTF-8" standalone="no"?>
<!DOCTYPE svg PUBLIC "-//W3C//DTD SVG 1.1//EN"
 "http://www.w3.org/Graphics/SVG/1.1/DTD/svg11.dtd">
<!-- Generated by graphviz version 2.40.1 (20161225.0304)
 -->
<!-- Title: DimCurrency Pages: 1 -->
<svg width="1566pt" height="1192pt"
 viewBox="0.00 0.00 1566.00 1192.00" xmlns="http://www.w3.org/2000/svg" xmlns:xlink="http://www.w3.org/1999/xlink">
<g id="graph0" class="graph" transform="scale(1 1) rotate(0) translate(4 1188)">
<title>DimCurrency</title>
<polygon fill="#ffffff" stroke="transparent" points="-4,4 -4,-1188 1562,-1188 1562,4 -4,4"/>
<!-- DimCurrency -->
<g id="node1" class="node">
<title>DimCurrency</title>
<polygon fill="#efefef" stroke="transparent" points="652,-135.5 652,-170.5 903,-170.5 903,-135.5 652,-135.5"/>
<polygon fill="none" stroke="#000000" points="652,-135.5 652,-170.5 903,-170.5 903,-135.5 652,-135.5"/>
<text text-anchor="start" x="658.8968" y="-148.3" font-family="Arial Bold" font-size="18.00" fill="#000000">DimCurrency</text>
<text text-anchor="start" x="763.8746" y="-148.3" font-family="Arial" font-size="14.00" fill="#000000">    </text>
<text text-anchor="start" x="798.0794" y="-148.3" font-family="Arial" font-size="14.00" fill="#666666">[BASIC TABLE]</text>
<polygon fill="none" stroke="#000000" points="652,-105.5 652,-135.5 903,-135.5 903,-105.5 652,-105.5"/>
<text text-anchor="start" x="659" y="-116.9" font-family="Arial" font-size="14.00" fill="#000000">CurrencyKey </text>
<text text-anchor="start" x="743.7854" y="-116.9" font-family="Arial" font-size="14.00" fill="#666666">[int]</text>
<polygon fill="none" stroke="#000000" points="652,-75.5 652,-105.5 903,-105.5 903,-75.5 652,-75.5"/>
<text text-anchor="start" x="659" y="-86.9" font-family="Arial" font-size="14.00" fill="#000000">CurrencyAlternateKey </text>
<text text-anchor="start" x="799.8008" y="-86.9" font-family="Arial" font-size="14.00" fill="#666666">[nchar]</text>
<polygon fill="none" stroke="#000000" points="652,-45.5 652,-75.5 903,-75.5 903,-45.5 652,-45.5"/>
<text text-anchor="start" x="659" y="-56.9" font-family="Arial" font-size="14.00" fill="#000000">CurrencyName </text>
<text text-anchor="start" x="756.9986" y="-56.9" font-family="Arial" font-size="14.00" fill="#666666">[nvarchar(50)]</text>
<polygon fill="none" stroke="#000000" stroke-width="3" points="650,-44.5 650,-172.5 904,-172.5 904,-44.5 650,-44.5"/>
</g>
<!-- DimOrganization -->
<g id="node2" class="node">
<title>DimOrganization</title>
<polygon fill="#efefef" stroke="transparent" points="43,-775.5 43,-810.5 331,-810.5 331,-775.5 43,-775.5"/>
<polygon fill="none" stroke="#000000" points="43,-775.5 43,-810.5 331,-810.5 331,-775.5 43,-775.5"/>
<text text-anchor="start" x="53.8843" y="-788.3" font-family="Arial Bold" font-size="18.00" fill="#000000">DimOrganization</text>
<text text-anchor="start" x="187.8871" y="-788.3" font-family="Arial" font-size="14.00" fill="#000000">    </text>
<text text-anchor="start" x="222.0919" y="-788.3" font-family="Arial" font-size="14.00" fill="#666666">[BASIC TABLE]</text>
<polygon fill="none" stroke="#000000" points="43,-745.5 43,-775.5 331,-775.5 331,-745.5 43,-745.5"/>
<text text-anchor="start" x="50" y="-756.9" font-family="Arial" font-size="14.00" fill="#000000">OrganizationKey    </text>
<text text-anchor="start" x="187.6746" y="-756.9" font-family="Arial" font-size="14.00" fill="#666666">[int]</text>
<polygon fill="none" stroke="#000000" points="43,-715.5 43,-745.5 331,-745.5 331,-715.5 43,-715.5"/>
<text text-anchor="start" x="50" y="-726.9" font-family="Arial" font-size="14.00" fill="#000000">ParentOrganizationKey    </text>
<text text-anchor="start" x="228.9102" y="-726.9" font-family="Arial" font-size="14.00" fill="#666666">[int]</text>
<polygon fill="none" stroke="#000000" points="43,-685.5 43,-715.5 331,-715.5 331,-685.5 43,-685.5"/>
<text text-anchor="start" x="49.7083" y="-696.9" font-family="Arial" font-size="14.00" fill="#000000">PercentageOfOwnership    </text>
<text text-anchor="start" x="237.1725" y="-696.9" font-family="Arial" font-size="14.00" fill="#666666">[nvarchar(16)]</text>
<polygon fill="none" stroke="#000000" points="43,-655.5 43,-685.5 331,-685.5 331,-655.5 43,-655.5"/>
<text text-anchor="start" x="50" y="-666.9" font-family="Arial" font-size="14.00" fill="#000000">OrganizationName    </text>
<text text-anchor="start" x="200.8878" y="-666.9" font-family="Arial" font-size="14.00" fill="#666666">[nvarchar(50)]</text>
<polygon fill="none" stroke="#000000" points="43,-625.5 43,-655.5 331,-655.5 331,-625.5 43,-625.5"/>
<text text-anchor="start" x="50" y="-636.9" font-family="Arial" font-size="14.00" fill="#000000">CurrencyKey    </text>
<text text-anchor="start" x="165.0996" y="-636.9" font-family="Arial" font-size="14.00" fill="#666666">[int]</text>
</g>
<!-- DimOrganization&#45;&gt;DimCurrency -->
<g id="edge1" class="edge">
<title>DimOrganization:CurrencyKey&#45;&gt;DimCurrency:CurrencyKey</title>
<path fill="none" stroke="#000000" d="M341.2689,-638.7891C410.7788,-613.7168 334.467,-320.5161 383,-253 460.7884,-144.7854 518.728,-120.5 652,-120.5"/>
<polygon fill="#000000" stroke="#000000" points="340.864,-638.8565 330.2604,-636.0612 335.932,-639.6782 331,-640.5 331,-640.5 331,-640.5 335.932,-639.6782 331.7396,-644.9388 340.864,-638.8565 340.864,-638.8565"/>
</g>
<!-- FactCurrencyRate -->
<g id="node3" class="node">
<title>FactCurrencyRate</title>
<polygon fill="#efefef" stroke="transparent" points="435,-775.5 435,-810.5 727,-810.5 727,-775.5 435,-775.5"/>
<polygon fill="none" stroke="#000000" points="435,-775.5 435,-810.5 727,-810.5 727,-775.5 435,-775.5"/>
<text text-anchor="start" x="441.8804" y="-788.3" font-family="Arial Bold" font-size="18.00" fill="#000000">FactCurrencyRate</text>
<text text-anchor="start" x="587.891" y="-788.3" font-family="Arial" font-size="14.00" fill="#000000">    </text>
<text text-anchor="start" x="622.0958" y="-788.3" font-family="Arial" font-size="14.00" fill="#666666">[BASIC TABLE]</text>
<polygon fill="none" stroke="#000000" points="435,-745.5 435,-775.5 727,-775.5 727,-745.5 435,-745.5"/>
<text text-anchor="start" x="442" y="-756.9" font-family="Arial" font-size="14.00" fill="#000000">CurrencyKey    </text>
<text text-anchor="start" x="557.0996" y="-756.9" font-family="Arial" font-size="14.00" fill="#666666">[int]</text>
<polygon fill="none" stroke="#000000" points="435,-715.5 435,-745.5 727,-745.5 727,-715.5 435,-715.5"/>
<text text-anchor="start" x="442" y="-726.9" font-family="Arial" font-size="14.00" fill="#000000">DateKey    </text>
<text text-anchor="start" x="529.8864" y="-726.9" font-family="Arial" font-size="14.00" fill="#666666">[int]</text>
<polygon fill="none" stroke="#000000" points="435,-685.5 435,-715.5 727,-715.5 727,-685.5 435,-685.5"/>
<text text-anchor="start" x="442" y="-696.9" font-family="Arial" font-size="14.00" fill="#000000">AverageRate    </text>
<text text-anchor="start" x="557.8948" y="-696.9" font-family="Arial" font-size="14.00" fill="#666666">[float]</text>
<polygon fill="none" stroke="#000000" points="435,-655.5 435,-685.5 727,-685.5 727,-655.5 435,-655.5"/>
<text text-anchor="start" x="442" y="-666.9" font-family="Arial" font-size="14.00" fill="#000000">EndOfDayRate    </text>
<text text-anchor="start" x="570.3394" y="-666.9" font-family="Arial" font-size="14.00" fill="#666666">[float]</text>
<polygon fill="none" stroke="#000000" points="435,-625.5 435,-655.5 727,-655.5 727,-625.5 435,-625.5"/>
<text text-anchor="start" x="442" y="-636.9" font-family="Arial" font-size="14.00" fill="#000000">Date    </text>
<text text-anchor="start" x="505.7672" y="-636.9" font-family="Arial" font-size="14.00" fill="#666666">[datetime]</text>
</g>
<!-- FactCurrencyRate&#45;&gt;DimCurrency -->
<g id="edge2" class="edge">
<title>FactCurrencyRate:CurrencyKey&#45;&gt;DimCurrency:CurrencyKey</title>
<path fill="none" stroke="#000000" d="M736.9481,-759.2832C852.1689,-728.4126 512.4404,-120.5 652,-120.5"/>
<polygon fill="#000000" stroke="#000000" points="736.926,-759.2858 726.4536,-756.0333 731.963,-759.8929 727,-760.5 727,-760.5 727,-760.5 731.963,-759.8929 727.5464,-764.9667 736.926,-759.2858 736.926,-759.2858"/>
</g>
<!-- FactInternetSales -->
<g id="node4" class="node">
<title>FactInternetSales</title>
<polygon fill="#efefef" stroke="transparent" points="832,-1090.5 832,-1125.5 1119,-1125.5 1119,-1090.5 832,-1090.5"/>
<polygon fill="none" stroke="#000000" points="832,-1090.5 832,-1125.5 1119,-1125.5 1119,-1090.5 832,-1090.5"/>
<text text-anchor="start" x="838.8662" y="-1103.3" font-family="Arial Bold" font-size="18.00" fill="#000000">FactInternetSales</text>
<text text-anchor="start" x="979.9052" y="-1103.3" font-family="Arial" font-size="14.00" fill="#000000">    </text>
<text text-anchor="start" x="1014.11" y="-1103.3" font-family="Arial" font-size="14.00" fill="#666666">[BASIC TABLE]</text>
<polygon fill="none" stroke="#000000" points="832,-1060.5 832,-1090.5 1119,-1090.5 1119,-1060.5 832,-1060.5"/>
<text text-anchor="start" x="839" y="-1071.9" font-family="Arial" font-size="14.00" fill="#000000">ProductKey    </text>
<text text-anchor="start" x="945.5596" y="-1071.9" font-family="Arial" font-size="14.00" fill="#666666">[int]</text>
<polygon fill="none" stroke="#000000" points="832,-1030.5 832,-1060.5 1119,-1060.5 1119,-1030.5 832,-1030.5"/>
<text text-anchor="start" x="839" y="-1041.9" font-family="Arial" font-size="14.00" fill="#000000">OrderDateKey    </text>
<text text-anchor="start" x="962.6634" y="-1041.9" font-family="Arial" font-size="14.00" fill="#666666">[int]</text>
<polygon fill="none" stroke="#000000" points="832,-1000.5 832,-1030.5 1119,-1030.5 1119,-1000.5 832,-1000.5"/>
<text text-anchor="start" x="839" y="-1011.9" font-family="Arial" font-size="14.00" fill="#000000">DueDateKey    </text>
<text text-anchor="start" x="952.5582" y="-1011.9" font-family="Arial" font-size="14.00" fill="#666666">[int]</text>
<polygon fill="none" stroke="#000000" points="832,-970.5 832,-1000.5 1119,-1000.5 1119,-970.5 832,-970.5"/>
<text text-anchor="start" x="839" y="-981.9" font-family="Arial" font-size="14.00" fill="#000000">ShipDateKey    </text>
<text text-anchor="start" x="954.8948" y="-981.9" font-family="Arial" font-size="14.00" fill="#666666">[int]</text>
<polygon fill="none" stroke="#000000" points="832,-940.5 832,-970.5 1119,-970.5 1119,-940.5 832,-940.5"/>
<text text-anchor="start" x="839" y="-951.9" font-family="Arial" font-size="14.00" fill="#000000">CustomerKey    </text>
<text text-anchor="start" x="957.9902" y="-951.9" font-family="Arial" font-size="14.00" fill="#666666">[int]</text>
<polygon fill="none" stroke="#000000" points="832,-910.5 832,-940.5 1119,-940.5 1119,-910.5 832,-910.5"/>
<text text-anchor="start" x="839" y="-921.9" font-family="Arial" font-size="14.00" fill="#000000">PromotionKey    </text>
<text text-anchor="start" x="961.1094" y="-921.9" font-family="Arial" font-size="14.00" fill="#666666">[int]</text>
<polygon fill="none" stroke="#000000" points="832,-880.5 832,-910.5 1119,-910.5 1119,-880.5 832,-880.5"/>
<text text-anchor="start" x="839" y="-891.9" font-family="Arial" font-size="14.00" fill="#000000">CurrencyKey    </text>
<text text-anchor="start" x="954.0996" y="-891.9" font-family="Arial" font-size="14.00" fill="#666666">[int]</text>
<polygon fill="none" stroke="#000000" points="832,-850.5 832,-880.5 1119,-880.5 1119,-850.5 832,-850.5"/>
<text text-anchor="start" x="839" y="-861.9" font-family="Arial" font-size="14.00" fill="#000000">SalesTerritoryKey    </text>
<text text-anchor="start" x="984.4292" y="-861.9" font-family="Arial" font-size="14.00" fill="#666666">[int]</text>
<polygon fill="none" stroke="#000000" points="832,-820.5 832,-850.5 1119,-850.5 1119,-820.5 832,-820.5"/>
<text text-anchor="start" x="839" y="-831.9" font-family="Arial" font-size="14.00" fill="#000000">SalesOrderNumber    </text>
<text text-anchor="start" x="993.7658" y="-831.9" font-family="Arial" font-size="14.00" fill="#666666">[nvarchar(20)]</text>
<polygon fill="none" stroke="#000000" points="832,-790.5 832,-820.5 1119,-820.5 1119,-790.5 832,-790.5"/>
<text text-anchor="start" x="839" y="-801.9" font-family="Arial" font-size="14.00" fill="#000000">SalesOrderLineNumber    </text>
<text text-anchor="start" x="1020.2202" y="-801.9" font-family="Arial" font-size="14.00" fill="#666666">[tinyint]</text>
<polygon fill="none" stroke="#000000" points="832,-760.5 832,-790.5 1119,-790.5 1119,-760.5 832,-760.5"/>
<text text-anchor="start" x="839" y="-771.9" font-family="Arial" font-size="14.00" fill="#000000">RevisionNumber    </text>
<text text-anchor="start" x="976.648" y="-771.9" font-family="Arial" font-size="14.00" fill="#666666">[tinyint]</text>
<polygon fill="none" stroke="#000000" points="832,-730.5 832,-760.5 1119,-760.5 1119,-730.5 832,-730.5"/>
<text text-anchor="start" x="839" y="-741.9" font-family="Arial" font-size="14.00" fill="#000000">OrderQuantity    </text>
<text text-anchor="start" x="961.108" y="-741.9" font-family="Arial" font-size="14.00" fill="#666666">[smallint]</text>
<polygon fill="none" stroke="#000000" points="832,-700.5 832,-730.5 1119,-730.5 1119,-700.5 832,-700.5"/>
<text text-anchor="start" x="839" y="-711.9" font-family="Arial" font-size="14.00" fill="#000000">UnitPrice    </text>
<text text-anchor="start" x="929.9776" y="-711.9" font-family="Arial" font-size="14.00" fill="#666666">[money]</text>
<polygon fill="none" stroke="#000000" points="832,-670.5 832,-700.5 1119,-700.5 1119,-670.5 832,-670.5"/>
<text text-anchor="start" x="839" y="-681.9" font-family="Arial" font-size="14.00" fill="#000000">ExtendedAmount    </text>
<text text-anchor="start" x="980.5806" y="-681.9" font-family="Arial" font-size="14.00" fill="#666666">[money]</text>
<polygon fill="none" stroke="#000000" points="832,-640.5 832,-670.5 1119,-670.5 1119,-640.5 832,-640.5"/>
<text text-anchor="start" x="839" y="-651.9" font-family="Arial" font-size="14.00" fill="#000000">UnitPriceDiscountPct    </text>
<text text-anchor="start" x="1004.6564" y="-651.9" font-family="Arial" font-size="14.00" fill="#666666">[float]</text>
<polygon fill="none" stroke="#000000" points="832,-610.5 832,-640.5 1119,-640.5 1119,-610.5 832,-610.5"/>
<text text-anchor="start" x="839" y="-621.9" font-family="Arial" font-size="14.00" fill="#000000">DiscountAmount    </text>
<text text-anchor="start" x="975.892" y="-621.9" font-family="Arial" font-size="14.00" fill="#666666">[float]</text>
<polygon fill="none" stroke="#000000" points="832,-580.5 832,-610.5 1119,-610.5 1119,-580.5 832,-580.5"/>
<text text-anchor="start" x="839" y="-591.9" font-family="Arial" font-size="14.00" fill="#000000">ProductStandardCost    </text>
<text text-anchor="start" x="1007.021" y="-591.9" font-family="Arial" font-size="14.00" fill="#666666">[money]</text>
<polygon fill="none" stroke="#000000" points="832,-550.5 832,-580.5 1119,-580.5 1119,-550.5 832,-550.5"/>
<text text-anchor="start" x="839" y="-561.9" font-family="Arial" font-size="14.00" fill="#000000">TotalProductCost    </text>
<text text-anchor="start" x="981.3352" y="-561.9" font-family="Arial" font-size="14.00" fill="#666666">[money]</text>
<polygon fill="none" stroke="#000000" points="832,-520.5 832,-550.5 1119,-550.5 1119,-520.5 832,-520.5"/>
<text text-anchor="start" x="839" y="-531.9" font-family="Arial" font-size="14.00" fill="#000000">SalesAmount    </text>
<text text-anchor="start" x="956.4488" y="-531.9" font-family="Arial" font-size="14.00" fill="#666666">[money]</text>
<polygon fill="none" stroke="#000000" points="832,-490.5 832,-520.5 1119,-520.5 1119,-490.5 832,-490.5"/>
<text text-anchor="start" x="839" y="-501.9" font-family="Arial" font-size="14.00" fill="#000000">TaxAmt    </text>
<text text-anchor="start" x="921.4278" y="-501.9" font-family="Arial" font-size="14.00" fill="#666666">[money]</text>
<polygon fill="none" stroke="#000000" points="832,-460.5 832,-490.5 1119,-490.5 1119,-460.5 832,-460.5"/>
<text text-anchor="start" x="839" y="-471.9" font-family="Arial" font-size="14.00" fill="#000000">Freight    </text>
<text text-anchor="start" x="916.763" y="-471.9" font-family="Arial" font-size="14.00" fill="#666666">[money]</text>
<polygon fill="none" stroke="#000000" points="832,-430.5 832,-460.5 1119,-460.5 1119,-430.5 832,-430.5"/>
<text text-anchor="start" x="839" y="-441.9" font-family="Arial" font-size="14.00" fill="#000000">CarrierTrackingNumber    </text>
<text text-anchor="start" x="1019.4082" y="-441.9" font-family="Arial" font-size="14.00" fill="#666666">[nvarchar(25)]</text>
<polygon fill="none" stroke="#000000" points="832,-400.5 832,-430.5 1119,-430.5 1119,-400.5 832,-400.5"/>
<text text-anchor="start" x="839" y="-411.9" font-family="Arial" font-size="14.00" fill="#000000">CustomerPONumber    </text>
<text text-anchor="start" x="1003.8738" y="-411.9" font-family="Arial" font-size="14.00" fill="#666666">[nvarchar(25)]</text>
<polygon fill="none" stroke="#000000" points="832,-370.5 832,-400.5 1119,-400.5 1119,-370.5 832,-370.5"/>
<text text-anchor="start" x="839" y="-381.9" font-family="Arial" font-size="14.00" fill="#000000">OrderDate    </text>
<text text-anchor="start" x="938.5442" y="-381.9" font-family="Arial" font-size="14.00" fill="#666666">[datetime]</text>
<polygon fill="none" stroke="#000000" points="832,-340.5 832,-370.5 1119,-370.5 1119,-340.5 832,-340.5"/>
<text text-anchor="start" x="839" y="-351.9" font-family="Arial" font-size="14.00" fill="#000000">DueDate    </text>
<text text-anchor="start" x="928.439" y="-351.9" font-family="Arial" font-size="14.00" fill="#666666">[datetime]</text>
<polygon fill="none" stroke="#000000" points="832,-310.5 832,-340.5 1119,-340.5 1119,-310.5 832,-310.5"/>
<text text-anchor="start" x="839" y="-321.9" font-family="Arial" font-size="14.00" fill="#000000">ShipDate    </text>
<text text-anchor="start" x="930.7756" y="-321.9" font-family="Arial" font-size="14.00" fill="#666666">[datetime]</text>
</g>
<!-- FactInternetSales&#45;&gt;DimCurrency -->
<g id="edge3" class="edge">
<title>FactInternetSales:CurrencyKey&#45;&gt;DimCurrency:CurrencyKey</title>
<path fill="none" stroke="#000000" d="M822.5433,-891.5799C765.9646,-841.4793 801.7326,-327.008 832,-268 849.7323,-233.4298 885.2677,-251.5702 903,-217 922.5744,-178.8385 945.8889,-120.5 903,-120.5"/>
<polygon fill="#000000" stroke="#000000" points="822.7622,-891.6706 830.2768,-899.657 827.3811,-893.5853 832,-895.5 832,-895.5 832,-895.5 827.3811,-893.5853 833.7232,-891.343 822.7622,-891.6706 822.7622,-891.6706"/>
</g>
<!-- FactResellerSales -->
<g id="node5" class="node">
<title>FactResellerSales</title>
<polygon fill="#efefef" stroke="transparent" points="1223,-1105.5 1223,-1140.5 1515,-1140.5 1515,-1105.5 1223,-1105.5"/>
<polygon fill="none" stroke="#000000" points="1223,-1105.5 1223,-1140.5 1515,-1140.5 1515,-1105.5 1223,-1105.5"/>
<text text-anchor="start" x="1229.8813" y="-1118.3" font-family="Arial Bold" font-size="18.00" fill="#000000">FactResellerSales</text>
<text text-anchor="start" x="1375.8901" y="-1118.3" font-family="Arial" font-size="14.00" fill="#000000">    </text>
<text text-anchor="start" x="1410.0949" y="-1118.3" font-family="Arial" font-size="14.00" fill="#666666">[BASIC TABLE]</text>
<polygon fill="none" stroke="#000000" points="1223,-1075.5 1223,-1105.5 1515,-1105.5 1515,-1075.5 1223,-1075.5"/>
<text text-anchor="start" x="1230" y="-1086.9" font-family="Arial" font-size="14.00" fill="#000000">ProductKey    </text>
<text text-anchor="start" x="1336.5596" y="-1086.9" font-family="Arial" font-size="14.00" fill="#666666">[int]</text>
<polygon fill="none" stroke="#000000" points="1223,-1045.5 1223,-1075.5 1515,-1075.5 1515,-1045.5 1223,-1045.5"/>
<text text-anchor="start" x="1230" y="-1056.9" font-family="Arial" font-size="14.00" fill="#000000">OrderDateKey    </text>
<text text-anchor="start" x="1353.6634" y="-1056.9" font-family="Arial" font-size="14.00" fill="#666666">[int]</text>
<polygon fill="none" stroke="#000000" points="1223,-1015.5 1223,-1045.5 1515,-1045.5 1515,-1015.5 1223,-1015.5"/>
<text text-anchor="start" x="1230" y="-1026.9" font-family="Arial" font-size="14.00" fill="#000000">DueDateKey    </text>
<text text-anchor="start" x="1343.5582" y="-1026.9" font-family="Arial" font-size="14.00" fill="#666666">[int]</text>
<polygon fill="none" stroke="#000000" points="1223,-985.5 1223,-1015.5 1515,-1015.5 1515,-985.5 1223,-985.5"/>
<text text-anchor="start" x="1230" y="-996.9" font-family="Arial" font-size="14.00" fill="#000000">ShipDateKey    </text>
<text text-anchor="start" x="1345.8948" y="-996.9" font-family="Arial" font-size="14.00" fill="#666666">[int]</text>
<polygon fill="none" stroke="#000000" points="1223,-955.5 1223,-985.5 1515,-985.5 1515,-955.5 1223,-955.5"/>
<text text-anchor="start" x="1230" y="-966.9" font-family="Arial" font-size="14.00" fill="#000000">ResellerKey    </text>
<text text-anchor="start" x="1339.6522" y="-966.9" font-family="Arial" font-size="14.00" fill="#666666">[int]</text>
<polygon fill="none" stroke="#000000" points="1223,-925.5 1223,-955.5 1515,-955.5 1515,-925.5 1223,-925.5"/>
<text text-anchor="start" x="1230" y="-936.9" font-family="Arial" font-size="14.00" fill="#000000">EmployeeKey    </text>
<text text-anchor="start" x="1350.5582" y="-936.9" font-family="Arial" font-size="14.00" fill="#666666">[int]</text>
<polygon fill="none" stroke="#000000" points="1223,-895.5 1223,-925.5 1515,-925.5 1515,-895.5 1223,-895.5"/>
<text text-anchor="start" x="1230" y="-906.9" font-family="Arial" font-size="14.00" fill="#000000">PromotionKey    </text>
<text text-anchor="start" x="1352.1094" y="-906.9" font-family="Arial" font-size="14.00" fill="#666666">[int]</text>
<polygon fill="none" stroke="#000000" points="1223,-865.5 1223,-895.5 1515,-895.5 1515,-865.5 1223,-865.5"/>
<text text-anchor="start" x="1230" y="-876.9" font-family="Arial" font-size="14.00" fill="#000000">CurrencyKey    </text>
<text text-anchor="start" x="1345.0996" y="-876.9" font-family="Arial" font-size="14.00" fill="#666666">[int]</text>
<polygon fill="none" stroke="#000000" points="1223,-835.5 1223,-865.5 1515,-865.5 1515,-835.5 1223,-835.5"/>
<text text-anchor="start" x="1230" y="-846.9" font-family="Arial" font-size="14.00" fill="#000000">SalesTerritoryKey    </text>
<text text-anchor="start" x="1375.4292" y="-846.9" font-family="Arial" font-size="14.00" fill="#666666">[int]</text>
<polygon fill="none" stroke="#000000" points="1223,-805.5 1223,-835.5 1515,-835.5 1515,-805.5 1223,-805.5"/>
<text text-anchor="start" x="1230" y="-816.9" font-family="Arial" font-size="14.00" fill="#000000">SalesOrderNumber    </text>
<text text-anchor="start" x="1384.7658" y="-816.9" font-family="Arial" font-size="14.00" fill="#666666">[nvarchar(20)]</text>
<polygon fill="none" stroke="#000000" points="1223,-775.5 1223,-805.5 1515,-805.5 1515,-775.5 1223,-775.5"/>
<text text-anchor="start" x="1230" y="-786.9" font-family="Arial" font-size="14.00" fill="#000000">SalesOrderLineNumber    </text>
<text text-anchor="start" x="1411.2202" y="-786.9" font-family="Arial" font-size="14.00" fill="#666666">[tinyint]</text>
<polygon fill="none" stroke="#000000" points="1223,-745.5 1223,-775.5 1515,-775.5 1515,-745.5 1223,-745.5"/>
<text text-anchor="start" x="1230" y="-756.9" font-family="Arial" font-size="14.00" fill="#000000">RevisionNumber    </text>
<text text-anchor="start" x="1367.648" y="-756.9" font-family="Arial" font-size="14.00" fill="#666666">[tinyint]</text>
<polygon fill="none" stroke="#000000" points="1223,-715.5 1223,-745.5 1515,-745.5 1515,-715.5 1223,-715.5"/>
<text text-anchor="start" x="1230" y="-726.9" font-family="Arial" font-size="14.00" fill="#000000">OrderQuantity    </text>
<text text-anchor="start" x="1352.108" y="-726.9" font-family="Arial" font-size="14.00" fill="#666666">[smallint]</text>
<polygon fill="none" stroke="#000000" points="1223,-685.5 1223,-715.5 1515,-715.5 1515,-685.5 1223,-685.5"/>
<text text-anchor="start" x="1230" y="-696.9" font-family="Arial" font-size="14.00" fill="#000000">UnitPrice    </text>
<text text-anchor="start" x="1320.9776" y="-696.9" font-family="Arial" font-size="14.00" fill="#666666">[money]</text>
<polygon fill="none" stroke="#000000" points="1223,-655.5 1223,-685.5 1515,-685.5 1515,-655.5 1223,-655.5"/>
<text text-anchor="start" x="1230" y="-666.9" font-family="Arial" font-size="14.00" fill="#000000">ExtendedAmount    </text>
<text text-anchor="start" x="1371.5806" y="-666.9" font-family="Arial" font-size="14.00" fill="#666666">[money]</text>
<polygon fill="none" stroke="#000000" points="1223,-625.5 1223,-655.5 1515,-655.5 1515,-625.5 1223,-625.5"/>
<text text-anchor="start" x="1230" y="-636.9" font-family="Arial" font-size="14.00" fill="#000000">UnitPriceDiscountPct    </text>
<text text-anchor="start" x="1395.6564" y="-636.9" font-family="Arial" font-size="14.00" fill="#666666">[float]</text>
<polygon fill="none" stroke="#000000" points="1223,-595.5 1223,-625.5 1515,-625.5 1515,-595.5 1223,-595.5"/>
<text text-anchor="start" x="1230" y="-606.9" font-family="Arial" font-size="14.00" fill="#000000">DiscountAmount    </text>
<text text-anchor="start" x="1366.892" y="-606.9" font-family="Arial" font-size="14.00" fill="#666666">[float]</text>
<polygon fill="none" stroke="#000000" points="1223,-565.5 1223,-595.5 1515,-595.5 1515,-565.5 1223,-565.5"/>
<text text-anchor="start" x="1230" y="-576.9" font-family="Arial" font-size="14.00" fill="#000000">ProductStandardCost    </text>
<text text-anchor="start" x="1398.021" y="-576.9" font-family="Arial" font-size="14.00" fill="#666666">[money]</text>
<polygon fill="none" stroke="#000000" points="1223,-535.5 1223,-565.5 1515,-565.5 1515,-535.5 1223,-535.5"/>
<text text-anchor="start" x="1230" y="-546.9" font-family="Arial" font-size="14.00" fill="#000000">TotalProductCost    </text>
<text text-anchor="start" x="1372.3352" y="-546.9" font-family="Arial" font-size="14.00" fill="#666666">[money]</text>
<polygon fill="none" stroke="#000000" points="1223,-505.5 1223,-535.5 1515,-535.5 1515,-505.5 1223,-505.5"/>
<text text-anchor="start" x="1230" y="-516.9" font-family="Arial" font-size="14.00" fill="#000000">SalesAmount    </text>
<text text-anchor="start" x="1347.4488" y="-516.9" font-family="Arial" font-size="14.00" fill="#666666">[money]</text>
<polygon fill="none" stroke="#000000" points="1223,-475.5 1223,-505.5 1515,-505.5 1515,-475.5 1223,-475.5"/>
<text text-anchor="start" x="1230" y="-486.9" font-family="Arial" font-size="14.00" fill="#000000">TaxAmt    </text>
<text text-anchor="start" x="1312.4278" y="-486.9" font-family="Arial" font-size="14.00" fill="#666666">[money]</text>
<polygon fill="none" stroke="#000000" points="1223,-445.5 1223,-475.5 1515,-475.5 1515,-445.5 1223,-445.5"/>
<text text-anchor="start" x="1230" y="-456.9" font-family="Arial" font-size="14.00" fill="#000000">Freight    </text>
<text text-anchor="start" x="1307.763" y="-456.9" font-family="Arial" font-size="14.00" fill="#666666">[money]</text>
<polygon fill="none" stroke="#000000" points="1223,-415.5 1223,-445.5 1515,-445.5 1515,-415.5 1223,-415.5"/>
<text text-anchor="start" x="1230" y="-426.9" font-family="Arial" font-size="14.00" fill="#000000">CarrierTrackingNumber    </text>
<text text-anchor="start" x="1410.4082" y="-426.9" font-family="Arial" font-size="14.00" fill="#666666">[nvarchar(25)]</text>
<polygon fill="none" stroke="#000000" points="1223,-385.5 1223,-415.5 1515,-415.5 1515,-385.5 1223,-385.5"/>
<text text-anchor="start" x="1230" y="-396.9" font-family="Arial" font-size="14.00" fill="#000000">CustomerPONumber    </text>
<text text-anchor="start" x="1394.8738" y="-396.9" font-family="Arial" font-size="14.00" fill="#666666">[nvarchar(25)]</text>
<polygon fill="none" stroke="#000000" points="1223,-355.5 1223,-385.5 1515,-385.5 1515,-355.5 1223,-355.5"/>
<text text-anchor="start" x="1230" y="-366.9" font-family="Arial" font-size="14.00" fill="#000000">OrderDate    </text>
<text text-anchor="start" x="1329.5442" y="-366.9" font-family="Arial" font-size="14.00" fill="#666666">[datetime]</text>
<polygon fill="none" stroke="#000000" points="1223,-325.5 1223,-355.5 1515,-355.5 1515,-325.5 1223,-325.5"/>
<text text-anchor="start" x="1230" y="-336.9" font-family="Arial" font-size="14.00" fill="#000000">DueDate    </text>
<text text-anchor="start" x="1319.439" y="-336.9" font-family="Arial" font-size="14.00" fill="#666666">[datetime]</text>
<polygon fill="none" stroke="#000000" points="1223,-295.5 1223,-325.5 1515,-325.5 1515,-295.5 1223,-295.5"/>
<text text-anchor="start" x="1230" y="-306.9" font-family="Arial" font-size="14.00" fill="#000000">ShipDate    </text>
<text text-anchor="start" x="1321.7756" y="-306.9" font-family="Arial" font-size="14.00" fill="#666666">[datetime]</text>
</g>
<!-- FactResellerSales&#45;&gt;DimCurrency -->
<g id="edge4" class="edge">
<title>FactResellerSales:CurrencyKey&#45;&gt;DimCurrency:CurrencyKey</title>
<path fill="none" stroke="#000000" d="M1213.636,-876.5515C1158.4041,-826.0907 1208.418,-308.0286 1171,-253 1096.286,-143.122 1035.8735,-120.5 903,-120.5"/>
<polygon fill="#000000" stroke="#000000" points="1213.7857,-876.6145 1221.2515,-884.6464 1218.3928,-878.5573 1223,-880.5 1223,-880.5 1223,-880.5 1218.3928,-878.5573 1224.7485,-876.3536 1213.7857,-876.6145 1213.7857,-876.6145"/>
</g>
</g>
</svg>
