<?xml version="1.0" encoding="UTF-8" standalone="no"?>
<!DOCTYPE svg PUBLIC "-//W3C//DTD SVG 1.1//EN"
 "http://www.w3.org/Graphics/SVG/1.1/DTD/svg11.dtd">
<!-- Generated by graphviz version 2.40.1 (20161225.0304)
 -->
<!-- Title: DimCustomer Pages: 1 -->
<svg width="830pt" height="2429pt"
 viewBox="0.00 0.00 830.00 2429.00" xmlns="http://www.w3.org/2000/svg" xmlns:xlink="http://www.w3.org/1999/xlink">
<g id="graph0" class="graph" transform="scale(1 1) rotate(0) translate(4 2425)">
<title>DimCustomer</title>
<polygon fill="#ffffff" stroke="transparent" points="-4,4 -4,-2425 826,-2425 826,4 -4,4"/>
<!-- DimCustomer -->
<g id="node1" class="node">
<title>DimCustomer</title>
<polygon fill="#efefef" stroke="transparent" points="269.5,-1402.5 269.5,-1437.5 525.5,-1437.5 525.5,-1402.5 269.5,-1402.5"/>
<polygon fill="none" stroke="#000000" points="269.5,-1402.5 269.5,-1437.5 525.5,-1437.5 525.5,-1402.5 269.5,-1402.5"/>
<text text-anchor="start" x="276.3957" y="-1415.3" font-family="Arial Bold" font-size="18.00" fill="#000000">DimCustomer</text>
<text text-anchor="start" x="386.3757" y="-1415.3" font-family="Arial" font-size="14.00" fill="#000000">    </text>
<text text-anchor="start" x="420.5805" y="-1415.3" font-family="Arial" font-size="14.00" fill="#666666">[BASIC TABLE]</text>
<polygon fill="none" stroke="#000000" points="269.5,-1372.5 269.5,-1402.5 525.5,-1402.5 525.5,-1372.5 269.5,-1372.5"/>
<text text-anchor="start" x="276.5" y="-1383.9" font-family="Arial" font-size="14.00" fill="#000000">CustomerKey </text>
<text text-anchor="start" x="365.176" y="-1383.9" font-family="Arial" font-size="14.00" fill="#666666">[int]</text>
<polygon fill="none" stroke="#000000" points="269.5,-1342.5 269.5,-1372.5 525.5,-1372.5 525.5,-1342.5 269.5,-1342.5"/>
<text text-anchor="start" x="276.5" y="-1353.9" font-family="Arial" font-size="14.00" fill="#000000">GeographyKey </text>
<text text-anchor="start" x="373.7566" y="-1353.9" font-family="Arial" font-size="14.00" fill="#666666">[int]</text>
<polygon fill="none" stroke="#000000" points="269.5,-1312.5 269.5,-1342.5 525.5,-1342.5 525.5,-1312.5 269.5,-1312.5"/>
<text text-anchor="start" x="276.5" y="-1323.9" font-family="Arial" font-size="14.00" fill="#000000">CustomerAlternateKey </text>
<text text-anchor="start" x="421.1914" y="-1323.9" font-family="Arial" font-size="14.00" fill="#666666">[nvarchar(15)]</text>
<polygon fill="none" stroke="#000000" points="269.5,-1282.5 269.5,-1312.5 525.5,-1312.5 525.5,-1282.5 269.5,-1282.5"/>
<text text-anchor="start" x="276.5" y="-1293.9" font-family="Arial" font-size="14.00" fill="#000000">Title </text>
<text text-anchor="start" x="306.8296" y="-1293.9" font-family="Arial" font-size="14.00" fill="#666666">[nvarchar(8)]</text>
<polygon fill="none" stroke="#000000" points="269.5,-1252.5 269.5,-1282.5 525.5,-1282.5 525.5,-1252.5 269.5,-1252.5"/>
<text text-anchor="start" x="276.5" y="-1263.9" font-family="Arial" font-size="14.00" fill="#000000">FirstName </text>
<text text-anchor="start" x="344.9334" y="-1263.9" font-family="Arial" font-size="14.00" fill="#666666">[nvarchar(50)]</text>
<polygon fill="none" stroke="#000000" points="269.5,-1222.5 269.5,-1252.5 525.5,-1252.5 525.5,-1222.5 269.5,-1222.5"/>
<text text-anchor="start" x="276.5" y="-1233.9" font-family="Arial" font-size="14.00" fill="#000000">MiddleName </text>
<text text-anchor="start" x="358.9446" y="-1233.9" font-family="Arial" font-size="14.00" fill="#666666">[nvarchar(50)]</text>
<polygon fill="none" stroke="#000000" points="269.5,-1192.5 269.5,-1222.5 525.5,-1222.5 525.5,-1192.5 269.5,-1192.5"/>
<text text-anchor="start" x="276.5" y="-1203.9" font-family="Arial" font-size="14.00" fill="#000000">LastName </text>
<text text-anchor="start" x="344.1788" y="-1203.9" font-family="Arial" font-size="14.00" fill="#666666">[nvarchar(50)]</text>
<polygon fill="none" stroke="#000000" points="269.5,-1162.5 269.5,-1192.5 525.5,-1192.5 525.5,-1162.5 269.5,-1162.5"/>
<text text-anchor="start" x="276.5" y="-1173.9" font-family="Arial" font-size="14.00" fill="#000000">NameStyle </text>
<text text-anchor="start" x="348.8394" y="-1173.9" font-family="Arial" font-size="14.00" fill="#666666">[bit]</text>
<polygon fill="none" stroke="#000000" points="269.5,-1132.5 269.5,-1162.5 525.5,-1162.5 525.5,-1132.5 269.5,-1132.5"/>
<text text-anchor="start" x="276.5" y="-1143.9" font-family="Arial" font-size="14.00" fill="#000000">BirthDate </text>
<text text-anchor="start" x="338.73" y="-1143.9" font-family="Arial" font-size="14.00" fill="#666666">[date]</text>
<polygon fill="none" stroke="#000000" points="269.5,-1102.5 269.5,-1132.5 525.5,-1132.5 525.5,-1102.5 269.5,-1102.5"/>
<text text-anchor="start" x="276.5" y="-1113.9" font-family="Arial" font-size="14.00" fill="#000000">MaritalStatus </text>
<text text-anchor="start" x="362.0638" y="-1113.9" font-family="Arial" font-size="14.00" fill="#666666">[nchar]</text>
<polygon fill="none" stroke="#000000" points="269.5,-1072.5 269.5,-1102.5 525.5,-1102.5 525.5,-1072.5 269.5,-1072.5"/>
<text text-anchor="start" x="276.5" y="-1083.9" font-family="Arial" font-size="14.00" fill="#000000">Suffix </text>
<text text-anchor="start" x="315.3976" y="-1083.9" font-family="Arial" font-size="14.00" fill="#666666">[nvarchar(10)]</text>
<polygon fill="none" stroke="#000000" points="269.5,-1042.5 269.5,-1072.5 525.5,-1072.5 525.5,-1042.5 269.5,-1042.5"/>
<text text-anchor="start" x="276.5" y="-1053.9" font-family="Arial" font-size="14.00" fill="#000000">Gender </text>
<text text-anchor="start" x="327.0722" y="-1053.9" font-family="Arial" font-size="14.00" fill="#666666">[nvarchar(1)]</text>
<polygon fill="none" stroke="#000000" points="269.5,-1012.5 269.5,-1042.5 525.5,-1042.5 525.5,-1012.5 269.5,-1012.5"/>
<text text-anchor="start" x="276.5" y="-1023.9" font-family="Arial" font-size="14.00" fill="#000000">EmailAddress </text>
<text text-anchor="start" x="366.7286" y="-1023.9" font-family="Arial" font-size="14.00" fill="#666666">[nvarchar(50)]</text>
<polygon fill="none" stroke="#000000" points="269.5,-982.5 269.5,-1012.5 525.5,-1012.5 525.5,-982.5 269.5,-982.5"/>
<text text-anchor="start" x="276.5" y="-993.9" font-family="Arial" font-size="14.00" fill="#000000">YearlyIncome </text>
<text text-anchor="start" x="365.9586" y="-993.9" font-family="Arial" font-size="14.00" fill="#666666">[money]</text>
<polygon fill="none" stroke="#000000" points="269.5,-952.5 269.5,-982.5 525.5,-982.5 525.5,-952.5 269.5,-952.5"/>
<text text-anchor="start" x="276.5" y="-963.9" font-family="Arial" font-size="14.00" fill="#000000">TotalChildren </text>
<text text-anchor="start" x="363.6164" y="-963.9" font-family="Arial" font-size="14.00" fill="#666666">[tinyint]</text>
<polygon fill="none" stroke="#000000" points="269.5,-922.5 269.5,-952.5 525.5,-952.5 525.5,-922.5 269.5,-922.5"/>
<text text-anchor="start" x="276.5" y="-933.9" font-family="Arial" font-size="14.00" fill="#000000">NumberChildrenAtHome </text>
<text text-anchor="start" x="432.8366" y="-933.9" font-family="Arial" font-size="14.00" fill="#666666">[tinyint]</text>
<polygon fill="none" stroke="#000000" points="269.5,-892.5 269.5,-922.5 525.5,-922.5 525.5,-892.5 269.5,-892.5"/>
<text text-anchor="start" x="276.5" y="-903.9" font-family="Arial" font-size="14.00" fill="#000000">EnglishEducation </text>
<text text-anchor="start" x="388.535" y="-903.9" font-family="Arial" font-size="14.00" fill="#666666">[nvarchar(40)]</text>
<polygon fill="none" stroke="#000000" points="269.5,-862.5 269.5,-892.5 525.5,-892.5 525.5,-862.5 269.5,-862.5"/>
<text text-anchor="start" x="276.5" y="-873.9" font-family="Arial" font-size="14.00" fill="#000000">SpanishEducation </text>
<text text-anchor="start" x="393.211" y="-873.9" font-family="Arial" font-size="14.00" fill="#666666">[nvarchar(40)]</text>
<polygon fill="none" stroke="#000000" points="269.5,-832.5 269.5,-862.5 525.5,-862.5 525.5,-832.5 269.5,-832.5"/>
<text text-anchor="start" x="276.5" y="-843.9" font-family="Arial" font-size="14.00" fill="#000000">FrenchEducation </text>
<text text-anchor="start" x="386.1984" y="-843.9" font-family="Arial" font-size="14.00" fill="#666666">[nvarchar(40)]</text>
<polygon fill="none" stroke="#000000" points="269.5,-802.5 269.5,-832.5 525.5,-832.5 525.5,-802.5 269.5,-802.5"/>
<text text-anchor="start" x="276.5" y="-813.9" font-family="Arial" font-size="14.00" fill="#000000">EnglishOccupation </text>
<text text-anchor="start" x="397.089" y="-813.9" font-family="Arial" font-size="14.00" fill="#666666">[nvarchar(100)]</text>
<polygon fill="none" stroke="#000000" points="269.5,-772.5 269.5,-802.5 525.5,-802.5 525.5,-772.5 269.5,-772.5"/>
<text text-anchor="start" x="276.5" y="-783.9" font-family="Arial" font-size="14.00" fill="#000000">SpanishOccupation </text>
<text text-anchor="start" x="401.765" y="-783.9" font-family="Arial" font-size="14.00" fill="#666666">[nvarchar(100)]</text>
<polygon fill="none" stroke="#000000" points="269.5,-742.5 269.5,-772.5 525.5,-772.5 525.5,-742.5 269.5,-742.5"/>
<text text-anchor="start" x="276.5" y="-753.9" font-family="Arial" font-size="14.00" fill="#000000">FrenchOccupation </text>
<text text-anchor="start" x="394.7524" y="-753.9" font-family="Arial" font-size="14.00" fill="#666666">[nvarchar(100)]</text>
<polygon fill="none" stroke="#000000" points="269.5,-712.5 269.5,-742.5 525.5,-742.5 525.5,-712.5 269.5,-712.5"/>
<text text-anchor="start" x="276.5" y="-723.9" font-family="Arial" font-size="14.00" fill="#000000">HouseOwnerFlag </text>
<text text-anchor="start" x="389.2924" y="-723.9" font-family="Arial" font-size="14.00" fill="#666666">[nchar]</text>
<polygon fill="none" stroke="#000000" points="269.5,-682.5 269.5,-712.5 525.5,-712.5 525.5,-682.5 269.5,-682.5"/>
<text text-anchor="start" x="276.5" y="-693.9" font-family="Arial" font-size="14.00" fill="#000000">NumberCarsOwned </text>
<text text-anchor="start" x="404.061" y="-693.9" font-family="Arial" font-size="14.00" fill="#666666">[tinyint]</text>
<polygon fill="none" stroke="#000000" points="269.5,-652.5 269.5,-682.5 525.5,-682.5 525.5,-652.5 269.5,-652.5"/>
<text text-anchor="start" x="276.5" y="-663.9" font-family="Arial" font-size="14.00" fill="#000000">AddressLine1 </text>
<text text-anchor="start" x="365.9726" y="-663.9" font-family="Arial" font-size="14.00" fill="#666666">[nvarchar(120)]</text>
<polygon fill="none" stroke="#000000" points="269.5,-622.5 269.5,-652.5 525.5,-652.5 525.5,-622.5 269.5,-622.5"/>
<text text-anchor="start" x="276.5" y="-633.9" font-family="Arial" font-size="14.00" fill="#000000">AddressLine2 </text>
<text text-anchor="start" x="365.9726" y="-633.9" font-family="Arial" font-size="14.00" fill="#666666">[nvarchar(120)]</text>
<polygon fill="none" stroke="#000000" points="269.5,-592.5 269.5,-622.5 525.5,-622.5 525.5,-592.5 269.5,-592.5"/>
<text text-anchor="start" x="276.5" y="-603.9" font-family="Arial" font-size="14.00" fill="#000000">Phone </text>
<text text-anchor="start" x="320.8576" y="-603.9" font-family="Arial" font-size="14.00" fill="#666666">[nvarchar(20)]</text>
<polygon fill="none" stroke="#000000" points="269.5,-562.5 269.5,-592.5 525.5,-592.5 525.5,-562.5 269.5,-562.5"/>
<text text-anchor="start" x="276.5" y="-573.9" font-family="Arial" font-size="14.00" fill="#000000">DateFirstPurchase </text>
<text text-anchor="start" x="396.291" y="-573.9" font-family="Arial" font-size="14.00" fill="#666666">[date]</text>
<polygon fill="none" stroke="#000000" points="269.5,-532.5 269.5,-562.5 525.5,-562.5 525.5,-532.5 269.5,-532.5"/>
<text text-anchor="start" x="276.5" y="-543.9" font-family="Arial" font-size="14.00" fill="#000000">CommuteDistance </text>
<text text-anchor="start" x="395.5084" y="-543.9" font-family="Arial" font-size="14.00" fill="#666666">[nvarchar(15)]</text>
<polygon fill="none" stroke="#000000" stroke-width="3" points="268,-531.5 268,-1439.5 527,-1439.5 527,-531.5 268,-531.5"/>
</g>
<!-- DimGeography -->
<g id="node4" class="node">
<title>DimGeography</title>
<polygon fill="#efefef" stroke="transparent" points="239.5,-372.5 239.5,-407.5 555.5,-407.5 555.5,-372.5 239.5,-372.5"/>
<polygon fill="none" stroke="#000000" points="239.5,-372.5 239.5,-407.5 555.5,-407.5 555.5,-372.5 239.5,-372.5"/>
<text text-anchor="start" x="270.8796" y="-385.3" font-family="Arial Bold" font-size="18.00" fill="#000000">DimGeography</text>
<text text-anchor="start" x="391.8918" y="-385.3" font-family="Arial" font-size="14.00" fill="#000000">    </text>
<text text-anchor="start" x="426.0966" y="-385.3" font-family="Arial" font-size="14.00" fill="#666666">[BASIC TABLE]</text>
<polygon fill="none" stroke="#000000" points="239.5,-342.5 239.5,-372.5 555.5,-372.5 555.5,-342.5 239.5,-342.5"/>
<text text-anchor="start" x="246.5" y="-353.9" font-family="Arial" font-size="14.00" fill="#000000">GeographyKey    </text>
<text text-anchor="start" x="374.0708" y="-353.9" font-family="Arial" font-size="14.00" fill="#666666">[int]</text>
<polygon fill="none" stroke="#000000" points="239.5,-312.5 239.5,-342.5 555.5,-342.5 555.5,-312.5 239.5,-312.5"/>
<text text-anchor="start" x="246.5" y="-323.9" font-family="Arial" font-size="14.00" fill="#000000">City    </text>
<text text-anchor="start" x="304.8086" y="-323.9" font-family="Arial" font-size="14.00" fill="#666666">[nvarchar(30)]</text>
<polygon fill="none" stroke="#000000" points="239.5,-282.5 239.5,-312.5 555.5,-312.5 555.5,-282.5 239.5,-282.5"/>
<text text-anchor="start" x="246.5" y="-293.9" font-family="Arial" font-size="14.00" fill="#000000">StateProvinceCode    </text>
<text text-anchor="start" x="401.2938" y="-293.9" font-family="Arial" font-size="14.00" fill="#666666">[nvarchar(3)]</text>
<polygon fill="none" stroke="#000000" points="239.5,-252.5 239.5,-282.5 555.5,-282.5 555.5,-252.5 239.5,-252.5"/>
<text text-anchor="start" x="246.5" y="-263.9" font-family="Arial" font-size="14.00" fill="#000000">StateProvinceName    </text>
<text text-anchor="start" x="405.1718" y="-263.9" font-family="Arial" font-size="14.00" fill="#666666">[nvarchar(50)]</text>
<polygon fill="none" stroke="#000000" points="239.5,-222.5 239.5,-252.5 555.5,-252.5 555.5,-222.5 239.5,-222.5"/>
<text text-anchor="start" x="246.5" y="-233.9" font-family="Arial" font-size="14.00" fill="#000000">CountryRegionCode    </text>
<text text-anchor="start" x="407.5084" y="-233.9" font-family="Arial" font-size="14.00" fill="#666666">[nvarchar(3)]</text>
<polygon fill="none" stroke="#000000" points="239.5,-192.5 239.5,-222.5 555.5,-222.5 555.5,-192.5 239.5,-192.5"/>
<text text-anchor="start" x="246.5" y="-203.9" font-family="Arial" font-size="14.00" fill="#000000">EnglishCountryRegionName    </text>
<text text-anchor="start" x="457.284" y="-203.9" font-family="Arial" font-size="14.00" fill="#666666">[nvarchar(50)]</text>
<polygon fill="none" stroke="#000000" points="239.5,-162.5 239.5,-192.5 555.5,-192.5 555.5,-162.5 239.5,-162.5"/>
<text text-anchor="start" x="246.2104" y="-173.9" font-family="Arial" font-size="14.00" fill="#000000">SpanishCountryRegionName    </text>
<text text-anchor="start" x="461.6704" y="-173.9" font-family="Arial" font-size="14.00" fill="#666666">[nvarchar(50)]</text>
<polygon fill="none" stroke="#000000" points="239.5,-132.5 239.5,-162.5 555.5,-162.5 555.5,-132.5 239.5,-132.5"/>
<text text-anchor="start" x="246.5" y="-143.9" font-family="Arial" font-size="14.00" fill="#000000">FrenchCountryRegionName    </text>
<text text-anchor="start" x="454.9474" y="-143.9" font-family="Arial" font-size="14.00" fill="#666666">[nvarchar(50)]</text>
<polygon fill="none" stroke="#000000" points="239.5,-102.5 239.5,-132.5 555.5,-132.5 555.5,-102.5 239.5,-102.5"/>
<text text-anchor="start" x="246.5" y="-113.9" font-family="Arial" font-size="14.00" fill="#000000">PostalCode    </text>
<text text-anchor="start" x="353.0582" y="-113.9" font-family="Arial" font-size="14.00" fill="#666666">[nvarchar(15)]</text>
<polygon fill="none" stroke="#000000" points="239.5,-72.5 239.5,-102.5 555.5,-102.5 555.5,-72.5 239.5,-72.5"/>
<text text-anchor="start" x="246.5" y="-83.9" font-family="Arial" font-size="14.00" fill="#000000">SalesTerritoryKey    </text>
<text text-anchor="start" x="391.9292" y="-83.9" font-family="Arial" font-size="14.00" fill="#666666">[int]</text>
<polygon fill="none" stroke="#000000" points="239.5,-42.5 239.5,-72.5 555.5,-72.5 555.5,-42.5 239.5,-42.5"/>
<text text-anchor="start" x="246.5" y="-53.9" font-family="Arial" font-size="14.00" fill="#000000">IpAddressLocator    </text>
<text text-anchor="start" x="390.4046" y="-53.9" font-family="Arial" font-size="14.00" fill="#666666">[nvarchar(15)]</text>
</g>
<!-- DimCustomer&#45;&gt;DimGeography -->
<g id="edge3" class="edge">
<title>DimCustomer:GeographyKey&#45;&gt;DimGeography:GeographyKey</title>
<path fill="none" stroke="#000000" d="M535.7803,-1356.7752C748.6981,-1326.4941 774.3484,-357.5 555.5,-357.5"/>
<polygon fill="#000000" stroke="#000000" points="535.4752,-1356.7966 525.1835,-1353.0111 530.4876,-1357.1483 525.5,-1357.5 525.5,-1357.5 525.5,-1357.5 530.4876,-1357.1483 525.8165,-1361.9889 535.4752,-1356.7966 535.4752,-1356.7966"/>
</g>
<!-- FactInternetSales -->
<g id="node2" class="node">
<title>FactInternetSales</title>
<polygon fill="#efefef" stroke="transparent" points="43.5,-2342.5 43.5,-2377.5 330.5,-2377.5 330.5,-2342.5 43.5,-2342.5"/>
<polygon fill="none" stroke="#000000" points="43.5,-2342.5 43.5,-2377.5 330.5,-2377.5 330.5,-2342.5 43.5,-2342.5"/>
<text text-anchor="start" x="50.3662" y="-2355.3" font-family="Arial Bold" font-size="18.00" fill="#000000">FactInternetSales</text>
<text text-anchor="start" x="191.4052" y="-2355.3" font-family="Arial" font-size="14.00" fill="#000000">    </text>
<text text-anchor="start" x="225.61" y="-2355.3" font-family="Arial" font-size="14.00" fill="#666666">[BASIC TABLE]</text>
<polygon fill="none" stroke="#000000" points="43.5,-2312.5 43.5,-2342.5 330.5,-2342.5 330.5,-2312.5 43.5,-2312.5"/>
<text text-anchor="start" x="50.5" y="-2323.9" font-family="Arial" font-size="14.00" fill="#000000">ProductKey    </text>
<text text-anchor="start" x="157.0596" y="-2323.9" font-family="Arial" font-size="14.00" fill="#666666">[int]</text>
<polygon fill="none" stroke="#000000" points="43.5,-2282.5 43.5,-2312.5 330.5,-2312.5 330.5,-2282.5 43.5,-2282.5"/>
<text text-anchor="start" x="50.5" y="-2293.9" font-family="Arial" font-size="14.00" fill="#000000">OrderDateKey    </text>
<text text-anchor="start" x="174.1634" y="-2293.9" font-family="Arial" font-size="14.00" fill="#666666">[int]</text>
<polygon fill="none" stroke="#000000" points="43.5,-2252.5 43.5,-2282.5 330.5,-2282.5 330.5,-2252.5 43.5,-2252.5"/>
<text text-anchor="start" x="50.5" y="-2263.9" font-family="Arial" font-size="14.00" fill="#000000">DueDateKey    </text>
<text text-anchor="start" x="164.0582" y="-2263.9" font-family="Arial" font-size="14.00" fill="#666666">[int]</text>
<polygon fill="none" stroke="#000000" points="43.5,-2222.5 43.5,-2252.5 330.5,-2252.5 330.5,-2222.5 43.5,-2222.5"/>
<text text-anchor="start" x="50.5" y="-2233.9" font-family="Arial" font-size="14.00" fill="#000000">ShipDateKey    </text>
<text text-anchor="start" x="166.3948" y="-2233.9" font-family="Arial" font-size="14.00" fill="#666666">[int]</text>
<polygon fill="none" stroke="#000000" points="43.5,-2192.5 43.5,-2222.5 330.5,-2222.5 330.5,-2192.5 43.5,-2192.5"/>
<text text-anchor="start" x="50.5" y="-2203.9" font-family="Arial" font-size="14.00" fill="#000000">CustomerKey    </text>
<text text-anchor="start" x="169.4902" y="-2203.9" font-family="Arial" font-size="14.00" fill="#666666">[int]</text>
<polygon fill="none" stroke="#000000" points="43.5,-2162.5 43.5,-2192.5 330.5,-2192.5 330.5,-2162.5 43.5,-2162.5"/>
<text text-anchor="start" x="50.5" y="-2173.9" font-family="Arial" font-size="14.00" fill="#000000">PromotionKey    </text>
<text text-anchor="start" x="172.6094" y="-2173.9" font-family="Arial" font-size="14.00" fill="#666666">[int]</text>
<polygon fill="none" stroke="#000000" points="43.5,-2132.5 43.5,-2162.5 330.5,-2162.5 330.5,-2132.5 43.5,-2132.5"/>
<text text-anchor="start" x="50.5" y="-2143.9" font-family="Arial" font-size="14.00" fill="#000000">CurrencyKey    </text>
<text text-anchor="start" x="165.5996" y="-2143.9" font-family="Arial" font-size="14.00" fill="#666666">[int]</text>
<polygon fill="none" stroke="#000000" points="43.5,-2102.5 43.5,-2132.5 330.5,-2132.5 330.5,-2102.5 43.5,-2102.5"/>
<text text-anchor="start" x="50.5" y="-2113.9" font-family="Arial" font-size="14.00" fill="#000000">SalesTerritoryKey    </text>
<text text-anchor="start" x="195.9292" y="-2113.9" font-family="Arial" font-size="14.00" fill="#666666">[int]</text>
<polygon fill="none" stroke="#000000" points="43.5,-2072.5 43.5,-2102.5 330.5,-2102.5 330.5,-2072.5 43.5,-2072.5"/>
<text text-anchor="start" x="50.5" y="-2083.9" font-family="Arial" font-size="14.00" fill="#000000">SalesOrderNumber    </text>
<text text-anchor="start" x="205.2658" y="-2083.9" font-family="Arial" font-size="14.00" fill="#666666">[nvarchar(20)]</text>
<polygon fill="none" stroke="#000000" points="43.5,-2042.5 43.5,-2072.5 330.5,-2072.5 330.5,-2042.5 43.5,-2042.5"/>
<text text-anchor="start" x="50.5" y="-2053.9" font-family="Arial" font-size="14.00" fill="#000000">SalesOrderLineNumber    </text>
<text text-anchor="start" x="231.7202" y="-2053.9" font-family="Arial" font-size="14.00" fill="#666666">[tinyint]</text>
<polygon fill="none" stroke="#000000" points="43.5,-2012.5 43.5,-2042.5 330.5,-2042.5 330.5,-2012.5 43.5,-2012.5"/>
<text text-anchor="start" x="50.5" y="-2023.9" font-family="Arial" font-size="14.00" fill="#000000">RevisionNumber    </text>
<text text-anchor="start" x="188.148" y="-2023.9" font-family="Arial" font-size="14.00" fill="#666666">[tinyint]</text>
<polygon fill="none" stroke="#000000" points="43.5,-1982.5 43.5,-2012.5 330.5,-2012.5 330.5,-1982.5 43.5,-1982.5"/>
<text text-anchor="start" x="50.5" y="-1993.9" font-family="Arial" font-size="14.00" fill="#000000">OrderQuantity    </text>
<text text-anchor="start" x="172.608" y="-1993.9" font-family="Arial" font-size="14.00" fill="#666666">[smallint]</text>
<polygon fill="none" stroke="#000000" points="43.5,-1952.5 43.5,-1982.5 330.5,-1982.5 330.5,-1952.5 43.5,-1952.5"/>
<text text-anchor="start" x="50.5" y="-1963.9" font-family="Arial" font-size="14.00" fill="#000000">UnitPrice    </text>
<text text-anchor="start" x="141.4776" y="-1963.9" font-family="Arial" font-size="14.00" fill="#666666">[money]</text>
<polygon fill="none" stroke="#000000" points="43.5,-1922.5 43.5,-1952.5 330.5,-1952.5 330.5,-1922.5 43.5,-1922.5"/>
<text text-anchor="start" x="50.5" y="-1933.9" font-family="Arial" font-size="14.00" fill="#000000">ExtendedAmount    </text>
<text text-anchor="start" x="192.0806" y="-1933.9" font-family="Arial" font-size="14.00" fill="#666666">[money]</text>
<polygon fill="none" stroke="#000000" points="43.5,-1892.5 43.5,-1922.5 330.5,-1922.5 330.5,-1892.5 43.5,-1892.5"/>
<text text-anchor="start" x="50.5" y="-1903.9" font-family="Arial" font-size="14.00" fill="#000000">UnitPriceDiscountPct    </text>
<text text-anchor="start" x="216.1564" y="-1903.9" font-family="Arial" font-size="14.00" fill="#666666">[float]</text>
<polygon fill="none" stroke="#000000" points="43.5,-1862.5 43.5,-1892.5 330.5,-1892.5 330.5,-1862.5 43.5,-1862.5"/>
<text text-anchor="start" x="50.5" y="-1873.9" font-family="Arial" font-size="14.00" fill="#000000">DiscountAmount    </text>
<text text-anchor="start" x="187.392" y="-1873.9" font-family="Arial" font-size="14.00" fill="#666666">[float]</text>
<polygon fill="none" stroke="#000000" points="43.5,-1832.5 43.5,-1862.5 330.5,-1862.5 330.5,-1832.5 43.5,-1832.5"/>
<text text-anchor="start" x="50.5" y="-1843.9" font-family="Arial" font-size="14.00" fill="#000000">ProductStandardCost    </text>
<text text-anchor="start" x="218.521" y="-1843.9" font-family="Arial" font-size="14.00" fill="#666666">[money]</text>
<polygon fill="none" stroke="#000000" points="43.5,-1802.5 43.5,-1832.5 330.5,-1832.5 330.5,-1802.5 43.5,-1802.5"/>
<text text-anchor="start" x="50.5" y="-1813.9" font-family="Arial" font-size="14.00" fill="#000000">TotalProductCost    </text>
<text text-anchor="start" x="192.8352" y="-1813.9" font-family="Arial" font-size="14.00" fill="#666666">[money]</text>
<polygon fill="none" stroke="#000000" points="43.5,-1772.5 43.5,-1802.5 330.5,-1802.5 330.5,-1772.5 43.5,-1772.5"/>
<text text-anchor="start" x="50.5" y="-1783.9" font-family="Arial" font-size="14.00" fill="#000000">SalesAmount    </text>
<text text-anchor="start" x="167.9488" y="-1783.9" font-family="Arial" font-size="14.00" fill="#666666">[money]</text>
<polygon fill="none" stroke="#000000" points="43.5,-1742.5 43.5,-1772.5 330.5,-1772.5 330.5,-1742.5 43.5,-1742.5"/>
<text text-anchor="start" x="50.5" y="-1753.9" font-family="Arial" font-size="14.00" fill="#000000">TaxAmt    </text>
<text text-anchor="start" x="132.9278" y="-1753.9" font-family="Arial" font-size="14.00" fill="#666666">[money]</text>
<polygon fill="none" stroke="#000000" points="43.5,-1712.5 43.5,-1742.5 330.5,-1742.5 330.5,-1712.5 43.5,-1712.5"/>
<text text-anchor="start" x="50.5" y="-1723.9" font-family="Arial" font-size="14.00" fill="#000000">Freight    </text>
<text text-anchor="start" x="128.263" y="-1723.9" font-family="Arial" font-size="14.00" fill="#666666">[money]</text>
<polygon fill="none" stroke="#000000" points="43.5,-1682.5 43.5,-1712.5 330.5,-1712.5 330.5,-1682.5 43.5,-1682.5"/>
<text text-anchor="start" x="50.5" y="-1693.9" font-family="Arial" font-size="14.00" fill="#000000">CarrierTrackingNumber    </text>
<text text-anchor="start" x="230.9082" y="-1693.9" font-family="Arial" font-size="14.00" fill="#666666">[nvarchar(25)]</text>
<polygon fill="none" stroke="#000000" points="43.5,-1652.5 43.5,-1682.5 330.5,-1682.5 330.5,-1652.5 43.5,-1652.5"/>
<text text-anchor="start" x="50.5" y="-1663.9" font-family="Arial" font-size="14.00" fill="#000000">CustomerPONumber    </text>
<text text-anchor="start" x="215.3738" y="-1663.9" font-family="Arial" font-size="14.00" fill="#666666">[nvarchar(25)]</text>
<polygon fill="none" stroke="#000000" points="43.5,-1622.5 43.5,-1652.5 330.5,-1652.5 330.5,-1622.5 43.5,-1622.5"/>
<text text-anchor="start" x="50.5" y="-1633.9" font-family="Arial" font-size="14.00" fill="#000000">OrderDate    </text>
<text text-anchor="start" x="150.0442" y="-1633.9" font-family="Arial" font-size="14.00" fill="#666666">[datetime]</text>
<polygon fill="none" stroke="#000000" points="43.5,-1592.5 43.5,-1622.5 330.5,-1622.5 330.5,-1592.5 43.5,-1592.5"/>
<text text-anchor="start" x="50.5" y="-1603.9" font-family="Arial" font-size="14.00" fill="#000000">DueDate    </text>
<text text-anchor="start" x="139.939" y="-1603.9" font-family="Arial" font-size="14.00" fill="#666666">[datetime]</text>
<polygon fill="none" stroke="#000000" points="43.5,-1562.5 43.5,-1592.5 330.5,-1592.5 330.5,-1562.5 43.5,-1562.5"/>
<text text-anchor="start" x="50.5" y="-1573.9" font-family="Arial" font-size="14.00" fill="#000000">ShipDate    </text>
<text text-anchor="start" x="142.2756" y="-1573.9" font-family="Arial" font-size="14.00" fill="#666666">[datetime]</text>
</g>
<!-- FactInternetSales&#45;&gt;DimCustomer -->
<g id="edge1" class="edge">
<title>FactInternetSales:CustomerKey&#45;&gt;DimCustomer:CustomerKey</title>
<path fill="none" stroke="#000000" d="M340.1095,-2203.8461C403.4302,-2152.812 366.6763,-1583.3565 330.5,-1520 314.8903,-1492.6623 285.1097,-1511.3377 269.5,-1484 248.2333,-1446.7551 226.6111,-1387.5 269.5,-1387.5"/>
<polygon fill="#000000" stroke="#000000" points="339.8471,-2203.9458 328.9006,-2203.2938 335.1736,-2205.7229 330.5,-2207.5 330.5,-2207.5 330.5,-2207.5 335.1736,-2205.7229 332.0994,-2211.7062 339.8471,-2203.9458 339.8471,-2203.9458"/>
</g>
<!-- FactSurveyResponse -->
<g id="node3" class="node">
<title>FactSurveyResponse</title>
<polygon fill="#efefef" stroke="transparent" points="434.5,-2072.5 434.5,-2107.5 779.5,-2107.5 779.5,-2072.5 434.5,-2072.5"/>
<polygon fill="none" stroke="#000000" points="434.5,-2072.5 434.5,-2107.5 779.5,-2107.5 779.5,-2072.5 434.5,-2072.5"/>
<text text-anchor="start" x="454.8664" y="-2085.3" font-family="Arial Bold" font-size="18.00" fill="#000000">FactSurveyResponse</text>
<text text-anchor="start" x="626.905" y="-2085.3" font-family="Arial" font-size="14.00" fill="#000000">    </text>
<text text-anchor="start" x="661.1098" y="-2085.3" font-family="Arial" font-size="14.00" fill="#666666">[BASIC TABLE]</text>
<polygon fill="none" stroke="#000000" points="434.5,-2042.5 434.5,-2072.5 779.5,-2072.5 779.5,-2042.5 434.5,-2042.5"/>
<text text-anchor="start" x="441.5" y="-2053.9" font-family="Arial" font-size="14.00" fill="#000000">SurveyResponseKey    </text>
<text text-anchor="start" x="606.406" y="-2053.9" font-family="Arial" font-size="14.00" fill="#666666">[int]</text>
<polygon fill="none" stroke="#000000" points="434.5,-2012.5 434.5,-2042.5 779.5,-2042.5 779.5,-2012.5 434.5,-2012.5"/>
<text text-anchor="start" x="441.5" y="-2023.9" font-family="Arial" font-size="14.00" fill="#000000">DateKey    </text>
<text text-anchor="start" x="529.3864" y="-2023.9" font-family="Arial" font-size="14.00" fill="#666666">[int]</text>
<polygon fill="none" stroke="#000000" points="434.5,-1982.5 434.5,-2012.5 779.5,-2012.5 779.5,-1982.5 434.5,-1982.5"/>
<text text-anchor="start" x="441.5" y="-1993.9" font-family="Arial" font-size="14.00" fill="#000000">CustomerKey    </text>
<text text-anchor="start" x="560.4902" y="-1993.9" font-family="Arial" font-size="14.00" fill="#666666">[int]</text>
<polygon fill="none" stroke="#000000" points="434.5,-1952.5 434.5,-1982.5 779.5,-1982.5 779.5,-1952.5 434.5,-1952.5"/>
<text text-anchor="start" x="441.5" y="-1963.9" font-family="Arial" font-size="14.00" fill="#000000">ProductCategoryKey    </text>
<text text-anchor="start" x="604.8478" y="-1963.9" font-family="Arial" font-size="14.00" fill="#666666">[int]</text>
<polygon fill="none" stroke="#000000" points="434.5,-1922.5 434.5,-1952.5 779.5,-1952.5 779.5,-1922.5 434.5,-1922.5"/>
<text text-anchor="start" x="441.5" y="-1933.9" font-family="Arial" font-size="14.00" fill="#000000">EnglishProductCategoryName    </text>
<text text-anchor="start" x="663.9586" y="-1933.9" font-family="Arial" font-size="14.00" fill="#666666">[nvarchar(50)]</text>
<polygon fill="none" stroke="#000000" points="434.5,-1892.5 434.5,-1922.5 779.5,-1922.5 779.5,-1892.5 434.5,-1892.5"/>
<text text-anchor="start" x="441.5" y="-1903.9" font-family="Arial" font-size="14.00" fill="#000000">ProductSubcategoryKey    </text>
<text text-anchor="start" x="626.643" y="-1903.9" font-family="Arial" font-size="14.00" fill="#666666">[int]</text>
<polygon fill="none" stroke="#000000" points="434.5,-1862.5 434.5,-1892.5 779.5,-1892.5 779.5,-1862.5 434.5,-1862.5"/>
<text text-anchor="start" x="441.3135" y="-1873.9" font-family="Arial" font-size="14.00" fill="#000000">EnglishProductSubcategoryName    </text>
<text text-anchor="start" x="685.5673" y="-1873.9" font-family="Arial" font-size="14.00" fill="#666666">[nvarchar(50)]</text>
<polygon fill="none" stroke="#000000" points="434.5,-1832.5 434.5,-1862.5 779.5,-1862.5 779.5,-1832.5 434.5,-1832.5"/>
<text text-anchor="start" x="441.5" y="-1843.9" font-family="Arial" font-size="14.00" fill="#000000">Date    </text>
<text text-anchor="start" x="505.2672" y="-1843.9" font-family="Arial" font-size="14.00" fill="#666666">[datetime]</text>
</g>
<!-- FactSurveyResponse&#45;&gt;DimCustomer -->
<g id="edge2" class="edge">
<title>FactSurveyResponse:CustomerKey&#45;&gt;DimCustomer:CustomerKey</title>
<path fill="none" stroke="#000000" d="M424.4927,-1996.3111C336.3327,-1973.44 504.7369,-1626.6597 525.5,-1484 531.6771,-1441.5583 568.3889,-1387.5 525.5,-1387.5"/>
<polygon fill="#000000" stroke="#000000" points="424.5698,-1996.3202 433.9691,-2001.9686 429.5349,-1996.9101 434.5,-1997.5 434.5,-1997.5 434.5,-1997.5 429.5349,-1996.9101 435.0309,-1993.0314 424.5698,-1996.3202 424.5698,-1996.3202"/>
</g>
</g>
</svg>
