<?xml version="1.0" encoding="UTF-8" standalone="no"?>
<!DOCTYPE svg PUBLIC "-//W3C//DTD SVG 1.1//EN"
 "http://www.w3.org/Graphics/SVG/1.1/DTD/svg11.dtd">
<!-- Generated by graphviz version 2.40.1 (20161225.0304)
 -->
<!-- Title: DimDepartmentGroup Pages: 1 -->
<svg width="422pt" height="622pt"
 viewBox="0.00 0.00 422.00 622.00" xmlns="http://www.w3.org/2000/svg" xmlns:xlink="http://www.w3.org/1999/xlink">
<g id="graph0" class="graph" transform="scale(1 1) rotate(0) translate(4 618)">
<title>DimDepartmentGroup</title>
<polygon fill="#ffffff" stroke="transparent" points="-4,4 -4,-618 418,-618 418,4 -4,4"/>
<!-- DimDepartmentGroup -->
<g id="node1" class="node">
<title>DimDepartmentGroup</title>
<polygon fill="#efefef" stroke="transparent" points="46,-135.5 46,-170.5 368,-170.5 368,-135.5 46,-135.5"/>
<polygon fill="none" stroke="#000000" points="46,-135.5 46,-170.5 368,-170.5 368,-135.5 46,-135.5"/>
<text text-anchor="start" x="52.8819" y="-148.3" font-family="Arial Bold" font-size="18.00" fill="#000000">DimDepartmentGroup</text>
<text text-anchor="start" x="228.8895" y="-148.3" font-family="Arial" font-size="14.00" fill="#000000">    </text>
<text text-anchor="start" x="263.0943" y="-148.3" font-family="Arial" font-size="14.00" fill="#666666">[BASIC TABLE]</text>
<polygon fill="none" stroke="#000000" points="46,-105.5 46,-135.5 368,-135.5 368,-105.5 46,-105.5"/>
<text text-anchor="start" x="53" y="-116.9" font-family="Arial" font-size="14.00" fill="#000000">DepartmentGroupKey </text>
<text text-anchor="start" x="193.0308" y="-116.9" font-family="Arial" font-size="14.00" fill="#666666">[int]</text>
<polygon fill="none" stroke="#000000" points="46,-75.5 46,-105.5 368,-105.5 368,-75.5 46,-75.5"/>
<text text-anchor="start" x="53" y="-86.9" font-family="Arial" font-size="14.00" fill="#000000">ParentDepartmentGroupKey </text>
<text text-anchor="start" x="234.2664" y="-86.9" font-family="Arial" font-size="14.00" fill="#666666">[int]</text>
<polygon fill="none" stroke="#000000" points="46,-45.5 46,-75.5 368,-75.5 368,-45.5 46,-45.5"/>
<text text-anchor="start" x="53" y="-56.9" font-family="Arial" font-size="14.00" fill="#000000">DepartmentGroupName </text>
<text text-anchor="start" x="206.244" y="-56.9" font-family="Arial" font-size="14.00" fill="#666666">[nvarchar(50)]</text>
<polygon fill="none" stroke="#000000" stroke-width="3" points="44.5,-44.5 44.5,-172.5 369.5,-172.5 369.5,-44.5 44.5,-44.5"/>
</g>
<!-- DimDepartmentGroup&#45;&gt;DimDepartmentGroup -->
<g id="edge1" class="edge">
<title>DimDepartmentGroup:ParentDepartmentGroupKey&#45;&gt;DimDepartmentGroup:DepartmentGroupKey</title>
<path fill="none" stroke="#000000" d="M209.1024,-115.6844C215.9348,-212.9909 215.234,-379 207,-379 198.4834,-379 198.026,-228.2637 205.6277,-135.6671"/>
<polygon fill="#000000" stroke="#000000" points="209.0958,-115.5942 212.8362,-105.2859 208.7223,-110.6081 208.3487,-105.6221 208.3487,-105.6221 208.3487,-105.6221 208.7223,-110.6081 203.8613,-105.9583 209.0958,-115.5942 209.0958,-115.5942"/>
</g>
<!-- FactFinance -->
<g id="node2" class="node">
<title>FactFinance</title>
<polygon fill="#efefef" stroke="transparent" points="84,-535.5 84,-570.5 329,-570.5 329,-535.5 84,-535.5"/>
<polygon fill="none" stroke="#000000" points="84,-535.5 84,-570.5 329,-570.5 329,-535.5 84,-535.5"/>
<text text-anchor="start" x="90.8758" y="-548.3" font-family="Arial Bold" font-size="18.00" fill="#000000">FactFinance</text>
<text text-anchor="start" x="189.8956" y="-548.3" font-family="Arial" font-size="14.00" fill="#000000">    </text>
<text text-anchor="start" x="224.1004" y="-548.3" font-family="Arial" font-size="14.00" fill="#666666">[BASIC TABLE]</text>
<polygon fill="none" stroke="#000000" points="84,-505.5 84,-535.5 329,-535.5 329,-505.5 84,-505.5"/>
<text text-anchor="start" x="91" y="-516.9" font-family="Arial" font-size="14.00" fill="#000000">FinanceKey    </text>
<text text-anchor="start" x="199.1136" y="-516.9" font-family="Arial" font-size="14.00" fill="#666666">[int]</text>
<polygon fill="none" stroke="#000000" points="84,-475.5 84,-505.5 329,-505.5 329,-475.5 84,-475.5"/>
<text text-anchor="start" x="91" y="-486.9" font-family="Arial" font-size="14.00" fill="#000000">DateKey    </text>
<text text-anchor="start" x="178.8864" y="-486.9" font-family="Arial" font-size="14.00" fill="#666666">[int]</text>
<polygon fill="none" stroke="#000000" points="84,-445.5 84,-475.5 329,-475.5 329,-445.5 84,-445.5"/>
<text text-anchor="start" x="91" y="-456.9" font-family="Arial" font-size="14.00" fill="#000000">OrganizationKey    </text>
<text text-anchor="start" x="228.6746" y="-456.9" font-family="Arial" font-size="14.00" fill="#666666">[int]</text>
<polygon fill="none" stroke="#000000" points="84,-415.5 84,-445.5 329,-445.5 329,-415.5 84,-415.5"/>
<text text-anchor="start" x="91" y="-426.9" font-family="Arial" font-size="14.00" fill="#000000">DepartmentGroupKey    </text>
<text text-anchor="start" x="261.345" y="-426.9" font-family="Arial" font-size="14.00" fill="#666666">[int]</text>
<polygon fill="none" stroke="#000000" points="84,-385.5 84,-415.5 329,-415.5 329,-385.5 84,-385.5"/>
<text text-anchor="start" x="91" y="-396.9" font-family="Arial" font-size="14.00" fill="#000000">ScenarioKey    </text>
<text text-anchor="start" x="204.5582" y="-396.9" font-family="Arial" font-size="14.00" fill="#666666">[int]</text>
<polygon fill="none" stroke="#000000" points="84,-355.5 84,-385.5 329,-385.5 329,-355.5 84,-355.5"/>
<text text-anchor="start" x="91" y="-366.9" font-family="Arial" font-size="14.00" fill="#000000">AccountKey    </text>
<text text-anchor="start" x="199.899" y="-366.9" font-family="Arial" font-size="14.00" fill="#666666">[int]</text>
<polygon fill="none" stroke="#000000" points="84,-325.5 84,-355.5 329,-355.5 329,-325.5 84,-325.5"/>
<text text-anchor="start" x="91" y="-336.9" font-family="Arial" font-size="14.00" fill="#000000">Amount    </text>
<text text-anchor="start" x="173.4404" y="-336.9" font-family="Arial" font-size="14.00" fill="#666666">[float]</text>
<polygon fill="none" stroke="#000000" points="84,-295.5 84,-325.5 329,-325.5 329,-295.5 84,-295.5"/>
<text text-anchor="start" x="91" y="-306.9" font-family="Arial" font-size="14.00" fill="#000000">Date    </text>
<text text-anchor="start" x="154.7672" y="-306.9" font-family="Arial" font-size="14.00" fill="#666666">[datetime]</text>
</g>
<!-- FactFinance&#45;&gt;DimDepartmentGroup -->
<g id="edge2" class="edge">
<title>FactFinance:DepartmentGroupKey&#45;&gt;DimDepartmentGroup:DepartmentGroupKey</title>
<path fill="none" stroke="#000000" d="M338.9993,-429.7999C405.4348,-419.9906 378.8021,-309.5387 329,-253 245.1925,-157.8561 129.8075,-312.1439 46,-217 17.651,-184.8163 3.1111,-120.5 46,-120.5"/>
<polygon fill="#000000" stroke="#000000" points="338.9756,-429.8015 328.6857,-426.011 333.9878,-430.1507 329,-430.5 329,-430.5 329,-430.5 333.9878,-430.1507 329.3143,-434.989 338.9756,-429.8015 338.9756,-429.8015"/>
</g>
</g>
</svg>
