<?xml version="1.0" encoding="UTF-8" standalone="no"?>
<!DOCTYPE svg PUBLIC "-//W3C//DTD SVG 1.1//EN"
 "http://www.w3.org/Graphics/SVG/1.1/DTD/svg11.dtd">
<!-- Generated by graphviz version 2.40.1 (20161225.0304)
 -->
<!-- Title: DimEmployee Pages: 1 -->
<svg width="803pt" height="2369pt"
 viewBox="0.00 0.00 803.03 2369.00" xmlns="http://www.w3.org/2000/svg" xmlns:xlink="http://www.w3.org/1999/xlink">
<g id="graph0" class="graph" transform="scale(1 1) rotate(0) translate(4 2365)">
<title>DimEmployee</title>
<polygon fill="#ffffff" stroke="transparent" points="-4,4 -4,-2365 799.0307,-2365 799.0307,4 -4,4"/>
<!-- DimEmployee -->
<g id="node1" class="node">
<title>DimEmployee</title>
<polygon fill="#efefef" stroke="transparent" points="206,-1312.5 206,-1347.5 559,-1347.5 559,-1312.5 206,-1312.5"/>
<polygon fill="none" stroke="#000000" points="206,-1312.5 206,-1347.5 559,-1347.5 559,-1312.5 206,-1312.5"/>
<text text-anchor="start" x="260.3877" y="-1325.3" font-family="Arial Bold" font-size="18.00" fill="#000000">DimEmployee</text>
<text text-anchor="start" x="372.3837" y="-1325.3" font-family="Arial" font-size="14.00" fill="#000000">    </text>
<text text-anchor="start" x="406.5885" y="-1325.3" font-family="Arial" font-size="14.00" fill="#666666">[BASIC TABLE]</text>
<polygon fill="none" stroke="#000000" points="206,-1282.5 206,-1312.5 559,-1312.5 559,-1282.5 206,-1282.5"/>
<text text-anchor="start" x="213" y="-1293.9" font-family="Arial" font-size="14.00" fill="#000000">EmployeeKey </text>
<text text-anchor="start" x="303.244" y="-1293.9" font-family="Arial" font-size="14.00" fill="#666666">[int]</text>
<polygon fill="none" stroke="#000000" points="206,-1252.5 206,-1282.5 559,-1282.5 559,-1252.5 206,-1252.5"/>
<text text-anchor="start" x="213" y="-1263.9" font-family="Arial" font-size="14.00" fill="#000000">ParentEmployeeKey </text>
<text text-anchor="start" x="344.4796" y="-1263.9" font-family="Arial" font-size="14.00" fill="#666666">[int]</text>
<polygon fill="none" stroke="#000000" points="206,-1222.5 206,-1252.5 559,-1252.5 559,-1222.5 206,-1222.5"/>
<text text-anchor="start" x="213" y="-1233.9" font-family="Arial" font-size="14.00" fill="#000000">EmployeeNationalIDAlternateKey </text>
<text text-anchor="start" x="424.5974" y="-1233.9" font-family="Arial" font-size="14.00" fill="#666666">[nvarchar(15)]</text>
<polygon fill="none" stroke="#000000" points="206,-1192.5 206,-1222.5 559,-1222.5 559,-1192.5 206,-1192.5"/>
<text text-anchor="start" x="212.5239" y="-1203.9" font-family="Arial" font-size="14.00" fill="#000000">ParentEmployeeNationalIDAlternateKey </text>
<text text-anchor="start" x="465.3569" y="-1203.9" font-family="Arial" font-size="14.00" fill="#666666">[nvarchar(15)]</text>
<polygon fill="none" stroke="#000000" points="206,-1162.5 206,-1192.5 559,-1192.5 559,-1162.5 206,-1162.5"/>
<text text-anchor="start" x="213" y="-1173.9" font-family="Arial" font-size="14.00" fill="#000000">SalesTerritoryKey </text>
<text text-anchor="start" x="328.115" y="-1173.9" font-family="Arial" font-size="14.00" fill="#666666">[int]</text>
<polygon fill="none" stroke="#000000" points="206,-1132.5 206,-1162.5 559,-1162.5 559,-1132.5 206,-1132.5"/>
<text text-anchor="start" x="213" y="-1143.9" font-family="Arial" font-size="14.00" fill="#000000">FirstName </text>
<text text-anchor="start" x="281.4334" y="-1143.9" font-family="Arial" font-size="14.00" fill="#666666">[nvarchar(50)]</text>
<polygon fill="none" stroke="#000000" points="206,-1102.5 206,-1132.5 559,-1132.5 559,-1102.5 206,-1102.5"/>
<text text-anchor="start" x="213" y="-1113.9" font-family="Arial" font-size="14.00" fill="#000000">LastName </text>
<text text-anchor="start" x="280.6788" y="-1113.9" font-family="Arial" font-size="14.00" fill="#666666">[nvarchar(50)]</text>
<polygon fill="none" stroke="#000000" points="206,-1072.5 206,-1102.5 559,-1102.5 559,-1072.5 206,-1072.5"/>
<text text-anchor="start" x="213" y="-1083.9" font-family="Arial" font-size="14.00" fill="#000000">MiddleName </text>
<text text-anchor="start" x="295.4446" y="-1083.9" font-family="Arial" font-size="14.00" fill="#666666">[nvarchar(50)]</text>
<polygon fill="none" stroke="#000000" points="206,-1042.5 206,-1072.5 559,-1072.5 559,-1042.5 206,-1042.5"/>
<text text-anchor="start" x="213" y="-1053.9" font-family="Arial" font-size="14.00" fill="#000000">NameStyle </text>
<text text-anchor="start" x="285.3394" y="-1053.9" font-family="Arial" font-size="14.00" fill="#666666">[bit]</text>
<polygon fill="none" stroke="#000000" points="206,-1012.5 206,-1042.5 559,-1042.5 559,-1012.5 206,-1012.5"/>
<text text-anchor="start" x="213" y="-1023.9" font-family="Arial" font-size="14.00" fill="#000000">Title </text>
<text text-anchor="start" x="243.3296" y="-1023.9" font-family="Arial" font-size="14.00" fill="#666666">[nvarchar(50)]</text>
<polygon fill="none" stroke="#000000" points="206,-982.5 206,-1012.5 559,-1012.5 559,-982.5 206,-982.5"/>
<text text-anchor="start" x="213" y="-993.9" font-family="Arial" font-size="14.00" fill="#000000">HireDate </text>
<text text-anchor="start" x="272.1094" y="-993.9" font-family="Arial" font-size="14.00" fill="#666666">[date]</text>
<polygon fill="none" stroke="#000000" points="206,-952.5 206,-982.5 559,-982.5 559,-952.5 206,-952.5"/>
<text text-anchor="start" x="213" y="-963.9" font-family="Arial" font-size="14.00" fill="#000000">BirthDate </text>
<text text-anchor="start" x="275.23" y="-963.9" font-family="Arial" font-size="14.00" fill="#666666">[date]</text>
<polygon fill="none" stroke="#000000" points="206,-922.5 206,-952.5 559,-952.5 559,-922.5 206,-922.5"/>
<text text-anchor="start" x="213" y="-933.9" font-family="Arial" font-size="14.00" fill="#000000">LoginID </text>
<text text-anchor="start" x="265.1248" y="-933.9" font-family="Arial" font-size="14.00" fill="#666666">[nvarchar(256)]</text>
<polygon fill="none" stroke="#000000" points="206,-892.5 206,-922.5 559,-922.5 559,-892.5 206,-892.5"/>
<text text-anchor="start" x="213" y="-903.9" font-family="Arial" font-size="14.00" fill="#000000">EmailAddress </text>
<text text-anchor="start" x="303.2286" y="-903.9" font-family="Arial" font-size="14.00" fill="#666666">[nvarchar(50)]</text>
<polygon fill="none" stroke="#000000" points="206,-862.5 206,-892.5 559,-892.5 559,-862.5 206,-862.5"/>
<text text-anchor="start" x="213" y="-873.9" font-family="Arial" font-size="14.00" fill="#000000">Phone </text>
<text text-anchor="start" x="257.3576" y="-873.9" font-family="Arial" font-size="14.00" fill="#666666">[nvarchar(25)]</text>
<polygon fill="none" stroke="#000000" points="206,-832.5 206,-862.5 559,-862.5 559,-832.5 206,-832.5"/>
<text text-anchor="start" x="213" y="-843.9" font-family="Arial" font-size="14.00" fill="#000000">MaritalStatus </text>
<text text-anchor="start" x="298.5638" y="-843.9" font-family="Arial" font-size="14.00" fill="#666666">[nchar]</text>
<polygon fill="none" stroke="#000000" points="206,-802.5 206,-832.5 559,-832.5 559,-802.5 206,-802.5"/>
<text text-anchor="start" x="213" y="-813.9" font-family="Arial" font-size="14.00" fill="#000000">EmergencyContactName </text>
<text text-anchor="start" x="373.2468" y="-813.9" font-family="Arial" font-size="14.00" fill="#666666">[nvarchar(50)]</text>
<polygon fill="none" stroke="#000000" points="206,-772.5 206,-802.5 559,-802.5 559,-772.5 206,-772.5"/>
<text text-anchor="start" x="213" y="-783.9" font-family="Arial" font-size="14.00" fill="#000000">EmergencyContactPhone </text>
<text text-anchor="start" x="376.3814" y="-783.9" font-family="Arial" font-size="14.00" fill="#666666">[nvarchar(25)]</text>
<polygon fill="none" stroke="#000000" points="206,-742.5 206,-772.5 559,-772.5 559,-742.5 206,-742.5"/>
<text text-anchor="start" x="213" y="-753.9" font-family="Arial" font-size="14.00" fill="#000000">SalariedFlag </text>
<text text-anchor="start" x="295.4558" y="-753.9" font-family="Arial" font-size="14.00" fill="#666666">[bit]</text>
<polygon fill="none" stroke="#000000" points="206,-712.5 206,-742.5 559,-742.5 559,-712.5 206,-712.5"/>
<text text-anchor="start" x="213" y="-723.9" font-family="Arial" font-size="14.00" fill="#000000">Gender </text>
<text text-anchor="start" x="263.5722" y="-723.9" font-family="Arial" font-size="14.00" fill="#666666">[nchar]</text>
<polygon fill="none" stroke="#000000" points="206,-682.5 206,-712.5 559,-712.5 559,-682.5 206,-682.5"/>
<text text-anchor="start" x="213" y="-693.9" font-family="Arial" font-size="14.00" fill="#000000">PayFrequency </text>
<text text-anchor="start" x="307.136" y="-693.9" font-family="Arial" font-size="14.00" fill="#666666">[tinyint]</text>
<polygon fill="none" stroke="#000000" points="206,-652.5 206,-682.5 559,-682.5 559,-652.5 206,-652.5"/>
<text text-anchor="start" x="213" y="-663.9" font-family="Arial" font-size="14.00" fill="#000000">BaseRate </text>
<text text-anchor="start" x="278.3548" y="-663.9" font-family="Arial" font-size="14.00" fill="#666666">[money]</text>
<polygon fill="none" stroke="#000000" points="206,-622.5 206,-652.5 559,-652.5 559,-622.5 206,-622.5"/>
<text text-anchor="start" x="213" y="-633.9" font-family="Arial" font-size="14.00" fill="#000000">VacationHours </text>
<text text-anchor="start" x="308.6872" y="-633.9" font-family="Arial" font-size="14.00" fill="#666666">[smallint]</text>
<polygon fill="none" stroke="#000000" points="206,-592.5 206,-622.5 559,-622.5 559,-592.5 206,-592.5"/>
<text text-anchor="start" x="213" y="-603.9" font-family="Arial" font-size="14.00" fill="#000000">SickLeaveHours </text>
<text text-anchor="start" x="318.7966" y="-603.9" font-family="Arial" font-size="14.00" fill="#666666">[smallint]</text>
<polygon fill="none" stroke="#000000" points="206,-562.5 206,-592.5 559,-592.5 559,-562.5 206,-562.5"/>
<text text-anchor="start" x="213" y="-573.9" font-family="Arial" font-size="14.00" fill="#000000">CurrentFlag </text>
<text text-anchor="start" x="290.7812" y="-573.9" font-family="Arial" font-size="14.00" fill="#666666">[bit]</text>
<polygon fill="none" stroke="#000000" points="206,-532.5 206,-562.5 559,-562.5 559,-532.5 206,-532.5"/>
<text text-anchor="start" x="213" y="-543.9" font-family="Arial" font-size="14.00" fill="#000000">SalesPersonFlag </text>
<text text-anchor="start" x="323.4684" y="-543.9" font-family="Arial" font-size="14.00" fill="#666666">[bit]</text>
<polygon fill="none" stroke="#000000" points="206,-502.5 206,-532.5 559,-532.5 559,-502.5 206,-502.5"/>
<text text-anchor="start" x="213" y="-513.9" font-family="Arial" font-size="14.00" fill="#000000">DepartmentName </text>
<text text-anchor="start" x="327.345" y="-513.9" font-family="Arial" font-size="14.00" fill="#666666">[nvarchar(50)]</text>
<polygon fill="none" stroke="#000000" points="206,-472.5 206,-502.5 559,-502.5 559,-472.5 206,-472.5"/>
<text text-anchor="start" x="213" y="-483.9" font-family="Arial" font-size="14.00" fill="#000000">StartDate </text>
<text text-anchor="start" x="276.014" y="-483.9" font-family="Arial" font-size="14.00" fill="#666666">[date]</text>
<polygon fill="none" stroke="#000000" points="206,-442.5 206,-472.5 559,-472.5 559,-442.5 206,-442.5"/>
<text text-anchor="start" x="213" y="-453.9" font-family="Arial" font-size="14.00" fill="#000000">EndDate </text>
<text text-anchor="start" x="271.3548" y="-453.9" font-family="Arial" font-size="14.00" fill="#666666">[date]</text>
<polygon fill="none" stroke="#000000" points="206,-412.5 206,-442.5 559,-442.5 559,-412.5 206,-412.5"/>
<text text-anchor="start" x="213" y="-423.9" font-family="Arial" font-size="14.00" fill="#000000">Status </text>
<text text-anchor="start" x="256.5736" y="-423.9" font-family="Arial" font-size="14.00" fill="#666666">[nvarchar(50)]</text>
<polygon fill="none" stroke="#000000" points="206,-382.5 206,-412.5 559,-412.5 559,-382.5 206,-382.5"/>
<text text-anchor="start" x="213" y="-393.9" font-family="Arial" font-size="14.00" fill="#000000">EmployeePhoto </text>
<text text-anchor="start" x="315.6998" y="-393.9" font-family="Arial" font-size="14.00" fill="#666666">[varbinary(MAX)]</text>
<polygon fill="none" stroke="#000000" stroke-width="3" points="204,-381.5 204,-1349.5 560,-1349.5 560,-381.5 204,-381.5"/>
</g>
<!-- DimEmployee&#45;&gt;DimEmployee -->
<g id="edge1" class="edge">
<title>DimEmployee:ParentEmployeeKey&#45;&gt;DimEmployee:EmployeeKey</title>
<path fill="none" stroke="#000000" d="M383.8963,-1292.7831C391.9894,-1529.0825 391.6906,-1751 383,-1751 374.2109,-1751 374.0049,-1524.0255 382.382,-1312.6861"/>
<polygon fill="#000000" stroke="#000000" points="383.8896,-1292.5865 388.0396,-1282.4363 383.716,-1287.5895 383.5424,-1282.5926 383.5424,-1282.5926 383.5424,-1282.5926 383.716,-1287.5895 379.0451,-1282.7488 383.8896,-1292.5865 383.8896,-1292.5865"/>
</g>
<!-- DimSalesTerritory -->
<g id="node4" class="node">
<title>DimSalesTerritory</title>
<polygon fill="#efefef" stroke="transparent" points="238,-222.5 238,-257.5 528,-257.5 528,-222.5 238,-222.5"/>
<polygon fill="none" stroke="#000000" points="238,-222.5 238,-257.5 528,-257.5 528,-222.5 238,-222.5"/>
<text text-anchor="start" x="244.8992" y="-235.3" font-family="Arial Bold" font-size="18.00" fill="#000000">DimSalesTerritory</text>
<text text-anchor="start" x="388.8722" y="-235.3" font-family="Arial" font-size="14.00" fill="#000000">    </text>
<text text-anchor="start" x="423.077" y="-235.3" font-family="Arial" font-size="14.00" fill="#666666">[BASIC TABLE]</text>
<polygon fill="none" stroke="#000000" points="238,-192.5 238,-222.5 528,-222.5 528,-192.5 238,-192.5"/>
<text text-anchor="start" x="245" y="-203.9" font-family="Arial" font-size="14.00" fill="#000000">SalesTerritoryKey    </text>
<text text-anchor="start" x="390.4292" y="-203.9" font-family="Arial" font-size="14.00" fill="#666666">[int]</text>
<polygon fill="none" stroke="#000000" points="238,-162.5 238,-192.5 528,-192.5 528,-162.5 238,-162.5"/>
<text text-anchor="start" x="245" y="-173.9" font-family="Arial" font-size="14.00" fill="#000000">SalesTerritoryAlternateKey    </text>
<text text-anchor="start" x="446.4446" y="-173.9" font-family="Arial" font-size="14.00" fill="#666666">[int]</text>
<polygon fill="none" stroke="#000000" points="238,-132.5 238,-162.5 528,-162.5 528,-132.5 238,-132.5"/>
<text text-anchor="start" x="245" y="-143.9" font-family="Arial" font-size="14.00" fill="#000000">SalesTerritoryRegion    </text>
<text text-anchor="start" x="410.6536" y="-143.9" font-family="Arial" font-size="14.00" fill="#666666">[nvarchar(50)]</text>
<polygon fill="none" stroke="#000000" points="238,-102.5 238,-132.5 528,-132.5 528,-102.5 238,-102.5"/>
<text text-anchor="start" x="245" y="-113.9" font-family="Arial" font-size="14.00" fill="#000000">SalesTerritoryCountry    </text>
<text text-anchor="start" x="415.3156" y="-113.9" font-family="Arial" font-size="14.00" fill="#666666">[nvarchar(50)]</text>
<polygon fill="none" stroke="#000000" points="238,-72.5 238,-102.5 528,-102.5 528,-72.5 238,-72.5"/>
<text text-anchor="start" x="245" y="-83.9" font-family="Arial" font-size="14.00" fill="#000000">SalesTerritoryGroup    </text>
<text text-anchor="start" x="405.209" y="-83.9" font-family="Arial" font-size="14.00" fill="#666666">[nvarchar(50)]</text>
<polygon fill="none" stroke="#000000" points="238,-42.5 238,-72.5 528,-72.5 528,-42.5 238,-42.5"/>
<text text-anchor="start" x="245" y="-53.9" font-family="Arial" font-size="14.00" fill="#000000">SalesTerritoryImage    </text>
<text text-anchor="start" x="405.209" y="-53.9" font-family="Arial" font-size="14.00" fill="#666666">[varbinary(MAX)]</text>
</g>
<!-- DimEmployee&#45;&gt;DimSalesTerritory -->
<g id="edge4" class="edge">
<title>DimEmployee:SalesTerritoryKey&#45;&gt;DimSalesTerritory:SalesTerritoryKey</title>
<path fill="none" stroke="#000000" d="M569.0015,-1177.363C930.2949,-1167.3694 805.7403,-612.9589 559,-337 463.3109,-229.9795 333.6891,-408.0205 238,-301 210.3016,-270.0216 196.4444,-207.5 238,-207.5"/>
<polygon fill="#000000" stroke="#000000" points="568.9991,-1177.363 558.9383,-1173.0004 563.9995,-1177.4315 559,-1177.5 559,-1177.5 559,-1177.5 563.9995,-1177.4315 559.0617,-1181.9996 568.9991,-1177.363 568.9991,-1177.363"/>
</g>
<!-- FactResellerSales -->
<g id="node2" class="node">
<title>FactResellerSales</title>
<polygon fill="#efefef" stroke="transparent" points="43,-2282.5 43,-2317.5 335,-2317.5 335,-2282.5 43,-2282.5"/>
<polygon fill="none" stroke="#000000" points="43,-2282.5 43,-2317.5 335,-2317.5 335,-2282.5 43,-2282.5"/>
<text text-anchor="start" x="49.8813" y="-2295.3" font-family="Arial Bold" font-size="18.00" fill="#000000">FactResellerSales</text>
<text text-anchor="start" x="195.8901" y="-2295.3" font-family="Arial" font-size="14.00" fill="#000000">    </text>
<text text-anchor="start" x="230.0949" y="-2295.3" font-family="Arial" font-size="14.00" fill="#666666">[BASIC TABLE]</text>
<polygon fill="none" stroke="#000000" points="43,-2252.5 43,-2282.5 335,-2282.5 335,-2252.5 43,-2252.5"/>
<text text-anchor="start" x="50" y="-2263.9" font-family="Arial" font-size="14.00" fill="#000000">ProductKey    </text>
<text text-anchor="start" x="156.5596" y="-2263.9" font-family="Arial" font-size="14.00" fill="#666666">[int]</text>
<polygon fill="none" stroke="#000000" points="43,-2222.5 43,-2252.5 335,-2252.5 335,-2222.5 43,-2222.5"/>
<text text-anchor="start" x="50" y="-2233.9" font-family="Arial" font-size="14.00" fill="#000000">OrderDateKey    </text>
<text text-anchor="start" x="173.6634" y="-2233.9" font-family="Arial" font-size="14.00" fill="#666666">[int]</text>
<polygon fill="none" stroke="#000000" points="43,-2192.5 43,-2222.5 335,-2222.5 335,-2192.5 43,-2192.5"/>
<text text-anchor="start" x="50" y="-2203.9" font-family="Arial" font-size="14.00" fill="#000000">DueDateKey    </text>
<text text-anchor="start" x="163.5582" y="-2203.9" font-family="Arial" font-size="14.00" fill="#666666">[int]</text>
<polygon fill="none" stroke="#000000" points="43,-2162.5 43,-2192.5 335,-2192.5 335,-2162.5 43,-2162.5"/>
<text text-anchor="start" x="50" y="-2173.9" font-family="Arial" font-size="14.00" fill="#000000">ShipDateKey    </text>
<text text-anchor="start" x="165.8948" y="-2173.9" font-family="Arial" font-size="14.00" fill="#666666">[int]</text>
<polygon fill="none" stroke="#000000" points="43,-2132.5 43,-2162.5 335,-2162.5 335,-2132.5 43,-2132.5"/>
<text text-anchor="start" x="50" y="-2143.9" font-family="Arial" font-size="14.00" fill="#000000">ResellerKey    </text>
<text text-anchor="start" x="159.6522" y="-2143.9" font-family="Arial" font-size="14.00" fill="#666666">[int]</text>
<polygon fill="none" stroke="#000000" points="43,-2102.5 43,-2132.5 335,-2132.5 335,-2102.5 43,-2102.5"/>
<text text-anchor="start" x="50" y="-2113.9" font-family="Arial" font-size="14.00" fill="#000000">EmployeeKey    </text>
<text text-anchor="start" x="170.5582" y="-2113.9" font-family="Arial" font-size="14.00" fill="#666666">[int]</text>
<polygon fill="none" stroke="#000000" points="43,-2072.5 43,-2102.5 335,-2102.5 335,-2072.5 43,-2072.5"/>
<text text-anchor="start" x="50" y="-2083.9" font-family="Arial" font-size="14.00" fill="#000000">PromotionKey    </text>
<text text-anchor="start" x="172.1094" y="-2083.9" font-family="Arial" font-size="14.00" fill="#666666">[int]</text>
<polygon fill="none" stroke="#000000" points="43,-2042.5 43,-2072.5 335,-2072.5 335,-2042.5 43,-2042.5"/>
<text text-anchor="start" x="50" y="-2053.9" font-family="Arial" font-size="14.00" fill="#000000">CurrencyKey    </text>
<text text-anchor="start" x="165.0996" y="-2053.9" font-family="Arial" font-size="14.00" fill="#666666">[int]</text>
<polygon fill="none" stroke="#000000" points="43,-2012.5 43,-2042.5 335,-2042.5 335,-2012.5 43,-2012.5"/>
<text text-anchor="start" x="50" y="-2023.9" font-family="Arial" font-size="14.00" fill="#000000">SalesTerritoryKey    </text>
<text text-anchor="start" x="195.4292" y="-2023.9" font-family="Arial" font-size="14.00" fill="#666666">[int]</text>
<polygon fill="none" stroke="#000000" points="43,-1982.5 43,-2012.5 335,-2012.5 335,-1982.5 43,-1982.5"/>
<text text-anchor="start" x="50" y="-1993.9" font-family="Arial" font-size="14.00" fill="#000000">SalesOrderNumber    </text>
<text text-anchor="start" x="204.7658" y="-1993.9" font-family="Arial" font-size="14.00" fill="#666666">[nvarchar(20)]</text>
<polygon fill="none" stroke="#000000" points="43,-1952.5 43,-1982.5 335,-1982.5 335,-1952.5 43,-1952.5"/>
<text text-anchor="start" x="50" y="-1963.9" font-family="Arial" font-size="14.00" fill="#000000">SalesOrderLineNumber    </text>
<text text-anchor="start" x="231.2202" y="-1963.9" font-family="Arial" font-size="14.00" fill="#666666">[tinyint]</text>
<polygon fill="none" stroke="#000000" points="43,-1922.5 43,-1952.5 335,-1952.5 335,-1922.5 43,-1922.5"/>
<text text-anchor="start" x="50" y="-1933.9" font-family="Arial" font-size="14.00" fill="#000000">RevisionNumber    </text>
<text text-anchor="start" x="187.648" y="-1933.9" font-family="Arial" font-size="14.00" fill="#666666">[tinyint]</text>
<polygon fill="none" stroke="#000000" points="43,-1892.5 43,-1922.5 335,-1922.5 335,-1892.5 43,-1892.5"/>
<text text-anchor="start" x="50" y="-1903.9" font-family="Arial" font-size="14.00" fill="#000000">OrderQuantity    </text>
<text text-anchor="start" x="172.108" y="-1903.9" font-family="Arial" font-size="14.00" fill="#666666">[smallint]</text>
<polygon fill="none" stroke="#000000" points="43,-1862.5 43,-1892.5 335,-1892.5 335,-1862.5 43,-1862.5"/>
<text text-anchor="start" x="50" y="-1873.9" font-family="Arial" font-size="14.00" fill="#000000">UnitPrice    </text>
<text text-anchor="start" x="140.9776" y="-1873.9" font-family="Arial" font-size="14.00" fill="#666666">[money]</text>
<polygon fill="none" stroke="#000000" points="43,-1832.5 43,-1862.5 335,-1862.5 335,-1832.5 43,-1832.5"/>
<text text-anchor="start" x="50" y="-1843.9" font-family="Arial" font-size="14.00" fill="#000000">ExtendedAmount    </text>
<text text-anchor="start" x="191.5806" y="-1843.9" font-family="Arial" font-size="14.00" fill="#666666">[money]</text>
<polygon fill="none" stroke="#000000" points="43,-1802.5 43,-1832.5 335,-1832.5 335,-1802.5 43,-1802.5"/>
<text text-anchor="start" x="50" y="-1813.9" font-family="Arial" font-size="14.00" fill="#000000">UnitPriceDiscountPct    </text>
<text text-anchor="start" x="215.6564" y="-1813.9" font-family="Arial" font-size="14.00" fill="#666666">[float]</text>
<polygon fill="none" stroke="#000000" points="43,-1772.5 43,-1802.5 335,-1802.5 335,-1772.5 43,-1772.5"/>
<text text-anchor="start" x="50" y="-1783.9" font-family="Arial" font-size="14.00" fill="#000000">DiscountAmount    </text>
<text text-anchor="start" x="186.892" y="-1783.9" font-family="Arial" font-size="14.00" fill="#666666">[float]</text>
<polygon fill="none" stroke="#000000" points="43,-1742.5 43,-1772.5 335,-1772.5 335,-1742.5 43,-1742.5"/>
<text text-anchor="start" x="50" y="-1753.9" font-family="Arial" font-size="14.00" fill="#000000">ProductStandardCost    </text>
<text text-anchor="start" x="218.021" y="-1753.9" font-family="Arial" font-size="14.00" fill="#666666">[money]</text>
<polygon fill="none" stroke="#000000" points="43,-1712.5 43,-1742.5 335,-1742.5 335,-1712.5 43,-1712.5"/>
<text text-anchor="start" x="50" y="-1723.9" font-family="Arial" font-size="14.00" fill="#000000">TotalProductCost    </text>
<text text-anchor="start" x="192.3352" y="-1723.9" font-family="Arial" font-size="14.00" fill="#666666">[money]</text>
<polygon fill="none" stroke="#000000" points="43,-1682.5 43,-1712.5 335,-1712.5 335,-1682.5 43,-1682.5"/>
<text text-anchor="start" x="50" y="-1693.9" font-family="Arial" font-size="14.00" fill="#000000">SalesAmount    </text>
<text text-anchor="start" x="167.4488" y="-1693.9" font-family="Arial" font-size="14.00" fill="#666666">[money]</text>
<polygon fill="none" stroke="#000000" points="43,-1652.5 43,-1682.5 335,-1682.5 335,-1652.5 43,-1652.5"/>
<text text-anchor="start" x="50" y="-1663.9" font-family="Arial" font-size="14.00" fill="#000000">TaxAmt    </text>
<text text-anchor="start" x="132.4278" y="-1663.9" font-family="Arial" font-size="14.00" fill="#666666">[money]</text>
<polygon fill="none" stroke="#000000" points="43,-1622.5 43,-1652.5 335,-1652.5 335,-1622.5 43,-1622.5"/>
<text text-anchor="start" x="50" y="-1633.9" font-family="Arial" font-size="14.00" fill="#000000">Freight    </text>
<text text-anchor="start" x="127.763" y="-1633.9" font-family="Arial" font-size="14.00" fill="#666666">[money]</text>
<polygon fill="none" stroke="#000000" points="43,-1592.5 43,-1622.5 335,-1622.5 335,-1592.5 43,-1592.5"/>
<text text-anchor="start" x="50" y="-1603.9" font-family="Arial" font-size="14.00" fill="#000000">CarrierTrackingNumber    </text>
<text text-anchor="start" x="230.4082" y="-1603.9" font-family="Arial" font-size="14.00" fill="#666666">[nvarchar(25)]</text>
<polygon fill="none" stroke="#000000" points="43,-1562.5 43,-1592.5 335,-1592.5 335,-1562.5 43,-1562.5"/>
<text text-anchor="start" x="50" y="-1573.9" font-family="Arial" font-size="14.00" fill="#000000">CustomerPONumber    </text>
<text text-anchor="start" x="214.8738" y="-1573.9" font-family="Arial" font-size="14.00" fill="#666666">[nvarchar(25)]</text>
<polygon fill="none" stroke="#000000" points="43,-1532.5 43,-1562.5 335,-1562.5 335,-1532.5 43,-1532.5"/>
<text text-anchor="start" x="50" y="-1543.9" font-family="Arial" font-size="14.00" fill="#000000">OrderDate    </text>
<text text-anchor="start" x="149.5442" y="-1543.9" font-family="Arial" font-size="14.00" fill="#666666">[datetime]</text>
<polygon fill="none" stroke="#000000" points="43,-1502.5 43,-1532.5 335,-1532.5 335,-1502.5 43,-1502.5"/>
<text text-anchor="start" x="50" y="-1513.9" font-family="Arial" font-size="14.00" fill="#000000">DueDate    </text>
<text text-anchor="start" x="139.439" y="-1513.9" font-family="Arial" font-size="14.00" fill="#666666">[datetime]</text>
<polygon fill="none" stroke="#000000" points="43,-1472.5 43,-1502.5 335,-1502.5 335,-1472.5 43,-1472.5"/>
<text text-anchor="start" x="50" y="-1483.9" font-family="Arial" font-size="14.00" fill="#000000">ShipDate    </text>
<text text-anchor="start" x="141.7756" y="-1483.9" font-family="Arial" font-size="14.00" fill="#666666">[datetime]</text>
</g>
<!-- FactResellerSales&#45;&gt;DimEmployee -->
<g id="edge2" class="edge">
<title>FactResellerSales:EmployeeKey&#45;&gt;DimEmployee:EmployeeKey</title>
<path fill="none" stroke="#000000" d="M344.6575,-2113.8144C408.6433,-2062.3406 379.1136,-1488.1099 335,-1430 299.0088,-1382.5896 241.9912,-1441.4104 206,-1394 180.0673,-1359.8393 163.1111,-1297.5 206,-1297.5"/>
<polygon fill="#000000" stroke="#000000" points="344.3428,-2113.9344 333.3955,-2113.2958 339.6714,-2115.7172 335,-2117.5 335,-2117.5 335,-2117.5 339.6714,-2115.7172 336.6045,-2121.7042 344.3428,-2113.9344 344.3428,-2113.9344"/>
</g>
<!-- FactSalesQuota -->
<g id="node3" class="node">
<title>FactSalesQuota</title>
<polygon fill="#efefef" stroke="transparent" points="440,-1982.5 440,-2017.5 715,-2017.5 715,-1982.5 440,-1982.5"/>
<polygon fill="none" stroke="#000000" points="440,-1982.5 440,-2017.5 715,-2017.5 715,-1982.5 440,-1982.5"/>
<text text-anchor="start" x="446.8665" y="-1995.3" font-family="Arial Bold" font-size="18.00" fill="#000000">FactSalesQuota</text>
<text text-anchor="start" x="575.9049" y="-1995.3" font-family="Arial" font-size="14.00" fill="#000000">    </text>
<text text-anchor="start" x="610.1097" y="-1995.3" font-family="Arial" font-size="14.00" fill="#666666">[BASIC TABLE]</text>
<polygon fill="none" stroke="#000000" points="440,-1952.5 440,-1982.5 715,-1982.5 715,-1952.5 440,-1952.5"/>
<text text-anchor="start" x="447" y="-1963.9" font-family="Arial" font-size="14.00" fill="#000000">SalesQuotaKey    </text>
<text text-anchor="start" x="578.4614" y="-1963.9" font-family="Arial" font-size="14.00" fill="#666666">[int]</text>
<polygon fill="none" stroke="#000000" points="440,-1922.5 440,-1952.5 715,-1952.5 715,-1922.5 440,-1922.5"/>
<text text-anchor="start" x="447" y="-1933.9" font-family="Arial" font-size="14.00" fill="#000000">EmployeeKey    </text>
<text text-anchor="start" x="567.5582" y="-1933.9" font-family="Arial" font-size="14.00" fill="#666666">[int]</text>
<polygon fill="none" stroke="#000000" points="440,-1892.5 440,-1922.5 715,-1922.5 715,-1892.5 440,-1892.5"/>
<text text-anchor="start" x="447" y="-1903.9" font-family="Arial" font-size="14.00" fill="#000000">DateKey    </text>
<text text-anchor="start" x="534.8864" y="-1903.9" font-family="Arial" font-size="14.00" fill="#666666">[int]</text>
<polygon fill="none" stroke="#000000" points="440,-1862.5 440,-1892.5 715,-1892.5 715,-1862.5 440,-1862.5"/>
<text text-anchor="start" x="447" y="-1873.9" font-family="Arial" font-size="14.00" fill="#000000">CalendarYear    </text>
<text text-anchor="start" x="567.554" y="-1873.9" font-family="Arial" font-size="14.00" fill="#666666">[smallint]</text>
<polygon fill="none" stroke="#000000" points="440,-1832.5 440,-1862.5 715,-1862.5 715,-1832.5 440,-1832.5"/>
<text text-anchor="start" x="447" y="-1843.9" font-family="Arial" font-size="14.00" fill="#000000">CalendarQuarter    </text>
<text text-anchor="start" x="585.4418" y="-1843.9" font-family="Arial" font-size="14.00" fill="#666666">[tinyint]</text>
<polygon fill="none" stroke="#000000" points="440,-1802.5 440,-1832.5 715,-1832.5 715,-1802.5 440,-1802.5"/>
<text text-anchor="start" x="447" y="-1813.9" font-family="Arial" font-size="14.00" fill="#000000">SalesAmountQuota    </text>
<text text-anchor="start" x="602.5778" y="-1813.9" font-family="Arial" font-size="14.00" fill="#666666">[money]</text>
<polygon fill="none" stroke="#000000" points="440,-1772.5 440,-1802.5 715,-1802.5 715,-1772.5 440,-1772.5"/>
<text text-anchor="start" x="447" y="-1783.9" font-family="Arial" font-size="14.00" fill="#000000">Date    </text>
<text text-anchor="start" x="510.7672" y="-1783.9" font-family="Arial" font-size="14.00" fill="#666666">[datetime]</text>
</g>
<!-- FactSalesQuota&#45;&gt;DimEmployee -->
<g id="edge3" class="edge">
<title>FactSalesQuota:EmployeeKey&#45;&gt;DimEmployee:EmployeeKey</title>
<path fill="none" stroke="#000000" d="M429.9518,-1936.9747C353.6693,-1928.4291 424.9904,-1817.3395 440,-1730 466.8321,-1573.8663 532.1679,-1550.1337 559,-1394 566.2641,-1351.7308 601.8889,-1297.5 559,-1297.5"/>
<polygon fill="#000000" stroke="#000000" points="430.0136,-1936.9778 439.765,-1941.9939 435.0068,-1937.2389 440,-1937.5 440,-1937.5 440,-1937.5 435.0068,-1937.2389 440.235,-1933.0061 430.0136,-1936.9778 430.0136,-1936.9778"/>
</g>
</g>
</svg>
