<?xml version="1.0" encoding="UTF-8" standalone="no"?>
<!DOCTYPE svg PUBLIC "-//W3C//DTD SVG 1.1//EN"
 "http://www.w3.org/Graphics/SVG/1.1/DTD/svg11.dtd">
<!-- Generated by graphviz version 2.40.1 (20161225.0304)
 -->
<!-- Title: DimGeography Pages: 1 -->
<svg width="740pt" height="1829pt"
 viewBox="0.00 0.00 740.00 1829.00" xmlns="http://www.w3.org/2000/svg" xmlns:xlink="http://www.w3.org/1999/xlink">
<g id="graph0" class="graph" transform="scale(1 1) rotate(0) translate(4 1825)">
<title>DimGeography</title>
<polygon fill="#ffffff" stroke="transparent" points="-4,4 -4,-1825 736,-1825 736,4 -4,4"/>
<!-- DimGeography -->
<g id="node1" class="node">
<title>DimGeography</title>
<polygon fill="#efefef" stroke="transparent" points="225,-712.5 225,-747.5 511,-747.5 511,-712.5 225,-712.5"/>
<polygon fill="none" stroke="#000000" points="225,-712.5 225,-747.5 511,-747.5 511,-712.5 225,-712.5"/>
<text text-anchor="start" x="241.3796" y="-725.3" font-family="Arial Bold" font-size="18.00" fill="#000000">DimGeography</text>
<text text-anchor="start" x="362.3918" y="-725.3" font-family="Arial" font-size="14.00" fill="#000000">    </text>
<text text-anchor="start" x="396.5966" y="-725.3" font-family="Arial" font-size="14.00" fill="#666666">[BASIC TABLE]</text>
<polygon fill="none" stroke="#000000" points="225,-682.5 225,-712.5 511,-712.5 511,-682.5 225,-682.5"/>
<text text-anchor="start" x="232" y="-693.9" font-family="Arial" font-size="14.00" fill="#000000">GeographyKey </text>
<text text-anchor="start" x="329.2566" y="-693.9" font-family="Arial" font-size="14.00" fill="#666666">[int]</text>
<polygon fill="none" stroke="#000000" points="225,-652.5 225,-682.5 511,-682.5 511,-652.5 225,-652.5"/>
<text text-anchor="start" x="232" y="-663.9" font-family="Arial" font-size="14.00" fill="#000000">City </text>
<text text-anchor="start" x="259.9944" y="-663.9" font-family="Arial" font-size="14.00" fill="#666666">[nvarchar(30)]</text>
<polygon fill="none" stroke="#000000" points="225,-622.5 225,-652.5 511,-652.5 511,-622.5 225,-622.5"/>
<text text-anchor="start" x="232" y="-633.9" font-family="Arial" font-size="14.00" fill="#000000">StateProvinceCode </text>
<text text-anchor="start" x="356.4796" y="-633.9" font-family="Arial" font-size="14.00" fill="#666666">[nvarchar(3)]</text>
<polygon fill="none" stroke="#000000" points="225,-592.5 225,-622.5 511,-622.5 511,-592.5 225,-592.5"/>
<text text-anchor="start" x="232" y="-603.9" font-family="Arial" font-size="14.00" fill="#000000">StateProvinceName </text>
<text text-anchor="start" x="360.3576" y="-603.9" font-family="Arial" font-size="14.00" fill="#666666">[nvarchar(50)]</text>
<polygon fill="none" stroke="#000000" points="225,-562.5 225,-592.5 511,-592.5 511,-562.5 225,-562.5"/>
<text text-anchor="start" x="232" y="-573.9" font-family="Arial" font-size="14.00" fill="#000000">CountryRegionCode </text>
<text text-anchor="start" x="362.6942" y="-573.9" font-family="Arial" font-size="14.00" fill="#666666">[nvarchar(3)]</text>
<polygon fill="none" stroke="#000000" points="225,-532.5 225,-562.5 511,-562.5 511,-532.5 225,-532.5"/>
<text text-anchor="start" x="232" y="-543.9" font-family="Arial" font-size="14.00" fill="#000000">EnglishCountryRegionName </text>
<text text-anchor="start" x="412.4698" y="-543.9" font-family="Arial" font-size="14.00" fill="#666666">[nvarchar(50)]</text>
<polygon fill="none" stroke="#000000" points="225,-502.5 225,-532.5 511,-532.5 511,-502.5 225,-502.5"/>
<text text-anchor="start" x="231.8675" y="-513.9" font-family="Arial" font-size="14.00" fill="#000000">SpanishCountryRegionName </text>
<text text-anchor="start" x="417.0133" y="-513.9" font-family="Arial" font-size="14.00" fill="#666666">[nvarchar(50)]</text>
<polygon fill="none" stroke="#000000" points="225,-472.5 225,-502.5 511,-502.5 511,-472.5 225,-472.5"/>
<text text-anchor="start" x="232" y="-483.9" font-family="Arial" font-size="14.00" fill="#000000">FrenchCountryRegionName </text>
<text text-anchor="start" x="410.1332" y="-483.9" font-family="Arial" font-size="14.00" fill="#666666">[nvarchar(50)]</text>
<polygon fill="none" stroke="#000000" points="225,-442.5 225,-472.5 511,-472.5 511,-442.5 225,-442.5"/>
<text text-anchor="start" x="232" y="-453.9" font-family="Arial" font-size="14.00" fill="#000000">PostalCode </text>
<text text-anchor="start" x="308.244" y="-453.9" font-family="Arial" font-size="14.00" fill="#666666">[nvarchar(15)]</text>
<polygon fill="none" stroke="#000000" points="225,-412.5 225,-442.5 511,-442.5 511,-412.5 225,-412.5"/>
<text text-anchor="start" x="232" y="-423.9" font-family="Arial" font-size="14.00" fill="#000000">SalesTerritoryKey </text>
<text text-anchor="start" x="347.115" y="-423.9" font-family="Arial" font-size="14.00" fill="#666666">[int]</text>
<polygon fill="none" stroke="#000000" points="225,-382.5 225,-412.5 511,-412.5 511,-382.5 225,-382.5"/>
<text text-anchor="start" x="232" y="-393.9" font-family="Arial" font-size="14.00" fill="#000000">IpAddressLocator </text>
<text text-anchor="start" x="345.5904" y="-393.9" font-family="Arial" font-size="14.00" fill="#666666">[nvarchar(15)]</text>
<polygon fill="none" stroke="#000000" stroke-width="3" points="223.5,-381.5 223.5,-749.5 512.5,-749.5 512.5,-381.5 223.5,-381.5"/>
</g>
<!-- DimSalesTerritory -->
<g id="node4" class="node">
<title>DimSalesTerritory</title>
<polygon fill="#efefef" stroke="transparent" points="223,-222.5 223,-257.5 513,-257.5 513,-222.5 223,-222.5"/>
<polygon fill="none" stroke="#000000" points="223,-222.5 223,-257.5 513,-257.5 513,-222.5 223,-222.5"/>
<text text-anchor="start" x="229.8992" y="-235.3" font-family="Arial Bold" font-size="18.00" fill="#000000">DimSalesTerritory</text>
<text text-anchor="start" x="373.8722" y="-235.3" font-family="Arial" font-size="14.00" fill="#000000">    </text>
<text text-anchor="start" x="408.077" y="-235.3" font-family="Arial" font-size="14.00" fill="#666666">[BASIC TABLE]</text>
<polygon fill="none" stroke="#000000" points="223,-192.5 223,-222.5 513,-222.5 513,-192.5 223,-192.5"/>
<text text-anchor="start" x="230" y="-203.9" font-family="Arial" font-size="14.00" fill="#000000">SalesTerritoryKey    </text>
<text text-anchor="start" x="375.4292" y="-203.9" font-family="Arial" font-size="14.00" fill="#666666">[int]</text>
<polygon fill="none" stroke="#000000" points="223,-162.5 223,-192.5 513,-192.5 513,-162.5 223,-162.5"/>
<text text-anchor="start" x="230" y="-173.9" font-family="Arial" font-size="14.00" fill="#000000">SalesTerritoryAlternateKey    </text>
<text text-anchor="start" x="431.4446" y="-173.9" font-family="Arial" font-size="14.00" fill="#666666">[int]</text>
<polygon fill="none" stroke="#000000" points="223,-132.5 223,-162.5 513,-162.5 513,-132.5 223,-132.5"/>
<text text-anchor="start" x="230" y="-143.9" font-family="Arial" font-size="14.00" fill="#000000">SalesTerritoryRegion    </text>
<text text-anchor="start" x="395.6536" y="-143.9" font-family="Arial" font-size="14.00" fill="#666666">[nvarchar(50)]</text>
<polygon fill="none" stroke="#000000" points="223,-102.5 223,-132.5 513,-132.5 513,-102.5 223,-102.5"/>
<text text-anchor="start" x="230" y="-113.9" font-family="Arial" font-size="14.00" fill="#000000">SalesTerritoryCountry    </text>
<text text-anchor="start" x="400.3156" y="-113.9" font-family="Arial" font-size="14.00" fill="#666666">[nvarchar(50)]</text>
<polygon fill="none" stroke="#000000" points="223,-72.5 223,-102.5 513,-102.5 513,-72.5 223,-72.5"/>
<text text-anchor="start" x="230" y="-83.9" font-family="Arial" font-size="14.00" fill="#000000">SalesTerritoryGroup    </text>
<text text-anchor="start" x="390.209" y="-83.9" font-family="Arial" font-size="14.00" fill="#666666">[nvarchar(50)]</text>
<polygon fill="none" stroke="#000000" points="223,-42.5 223,-72.5 513,-72.5 513,-42.5 223,-42.5"/>
<text text-anchor="start" x="230" y="-53.9" font-family="Arial" font-size="14.00" fill="#000000">SalesTerritoryImage    </text>
<text text-anchor="start" x="390.209" y="-53.9" font-family="Arial" font-size="14.00" fill="#666666">[varbinary(MAX)]</text>
</g>
<!-- DimGeography&#45;&gt;DimSalesTerritory -->
<g id="edge3" class="edge">
<title>DimGeography:SalesTerritoryKey&#45;&gt;DimSalesTerritory:SalesTerritoryKey</title>
<path fill="none" stroke="#000000" d="M521.2241,-426.6591C608.7961,-411.8888 607.2487,-207.5 513,-207.5"/>
<polygon fill="#000000" stroke="#000000" points="520.9663,-426.6802 510.6311,-423.0151 515.9832,-427.0901 511,-427.5 511,-427.5 511,-427.5 515.9832,-427.0901 511.3689,-431.9849 520.9663,-426.6802 520.9663,-426.6802"/>
</g>
<!-- DimCustomer -->
<g id="node2" class="node">
<title>DimCustomer</title>
<polygon fill="#efefef" stroke="transparent" points="43,-1742.5 43,-1777.5 319,-1777.5 319,-1742.5 43,-1742.5"/>
<polygon fill="none" stroke="#000000" points="43,-1742.5 43,-1777.5 319,-1777.5 319,-1742.5 43,-1742.5"/>
<text text-anchor="start" x="59.8957" y="-1755.3" font-family="Arial Bold" font-size="18.00" fill="#000000">DimCustomer</text>
<text text-anchor="start" x="169.8757" y="-1755.3" font-family="Arial" font-size="14.00" fill="#000000">    </text>
<text text-anchor="start" x="204.0805" y="-1755.3" font-family="Arial" font-size="14.00" fill="#666666">[BASIC TABLE]</text>
<polygon fill="none" stroke="#000000" points="43,-1712.5 43,-1742.5 319,-1742.5 319,-1712.5 43,-1712.5"/>
<text text-anchor="start" x="50" y="-1723.9" font-family="Arial" font-size="14.00" fill="#000000">CustomerKey    </text>
<text text-anchor="start" x="168.9902" y="-1723.9" font-family="Arial" font-size="14.00" fill="#666666">[int]</text>
<polygon fill="none" stroke="#000000" points="43,-1682.5 43,-1712.5 319,-1712.5 319,-1682.5 43,-1682.5"/>
<text text-anchor="start" x="50" y="-1693.9" font-family="Arial" font-size="14.00" fill="#000000">GeographyKey    </text>
<text text-anchor="start" x="177.5708" y="-1693.9" font-family="Arial" font-size="14.00" fill="#666666">[int]</text>
<polygon fill="none" stroke="#000000" points="43,-1652.5 43,-1682.5 319,-1682.5 319,-1652.5 43,-1652.5"/>
<text text-anchor="start" x="49.9376" y="-1663.9" font-family="Arial" font-size="14.00" fill="#000000">CustomerAlternateKey    </text>
<text text-anchor="start" x="224.9432" y="-1663.9" font-family="Arial" font-size="14.00" fill="#666666">[nvarchar(15)]</text>
<polygon fill="none" stroke="#000000" points="43,-1622.5 43,-1652.5 319,-1652.5 319,-1622.5 43,-1622.5"/>
<text text-anchor="start" x="50" y="-1633.9" font-family="Arial" font-size="14.00" fill="#000000">Title    </text>
<text text-anchor="start" x="110.6438" y="-1633.9" font-family="Arial" font-size="14.00" fill="#666666">[nvarchar(8)]</text>
<polygon fill="none" stroke="#000000" points="43,-1592.5 43,-1622.5 319,-1622.5 319,-1592.5 43,-1592.5"/>
<text text-anchor="start" x="50" y="-1603.9" font-family="Arial" font-size="14.00" fill="#000000">FirstName    </text>
<text text-anchor="start" x="148.7476" y="-1603.9" font-family="Arial" font-size="14.00" fill="#666666">[nvarchar(50)]</text>
<polygon fill="none" stroke="#000000" points="43,-1562.5 43,-1592.5 319,-1592.5 319,-1562.5 43,-1562.5"/>
<text text-anchor="start" x="50" y="-1573.9" font-family="Arial" font-size="14.00" fill="#000000">MiddleName    </text>
<text text-anchor="start" x="162.7588" y="-1573.9" font-family="Arial" font-size="14.00" fill="#666666">[nvarchar(50)]</text>
<polygon fill="none" stroke="#000000" points="43,-1532.5 43,-1562.5 319,-1562.5 319,-1532.5 43,-1532.5"/>
<text text-anchor="start" x="50" y="-1543.9" font-family="Arial" font-size="14.00" fill="#000000">LastName    </text>
<text text-anchor="start" x="147.993" y="-1543.9" font-family="Arial" font-size="14.00" fill="#666666">[nvarchar(50)]</text>
<polygon fill="none" stroke="#000000" points="43,-1502.5 43,-1532.5 319,-1532.5 319,-1502.5 43,-1502.5"/>
<text text-anchor="start" x="50" y="-1513.9" font-family="Arial" font-size="14.00" fill="#000000">NameStyle    </text>
<text text-anchor="start" x="152.6536" y="-1513.9" font-family="Arial" font-size="14.00" fill="#666666">[bit]</text>
<polygon fill="none" stroke="#000000" points="43,-1472.5 43,-1502.5 319,-1502.5 319,-1472.5 43,-1472.5"/>
<text text-anchor="start" x="50" y="-1483.9" font-family="Arial" font-size="14.00" fill="#000000">BirthDate    </text>
<text text-anchor="start" x="142.5442" y="-1483.9" font-family="Arial" font-size="14.00" fill="#666666">[date]</text>
<polygon fill="none" stroke="#000000" points="43,-1442.5 43,-1472.5 319,-1472.5 319,-1442.5 43,-1442.5"/>
<text text-anchor="start" x="50" y="-1453.9" font-family="Arial" font-size="14.00" fill="#000000">MaritalStatus    </text>
<text text-anchor="start" x="165.878" y="-1453.9" font-family="Arial" font-size="14.00" fill="#666666">[nchar]</text>
<polygon fill="none" stroke="#000000" points="43,-1412.5 43,-1442.5 319,-1442.5 319,-1412.5 43,-1412.5"/>
<text text-anchor="start" x="50" y="-1423.9" font-family="Arial" font-size="14.00" fill="#000000">Suffix    </text>
<text text-anchor="start" x="119.2118" y="-1423.9" font-family="Arial" font-size="14.00" fill="#666666">[nvarchar(10)]</text>
<polygon fill="none" stroke="#000000" points="43,-1382.5 43,-1412.5 319,-1412.5 319,-1382.5 43,-1382.5"/>
<text text-anchor="start" x="50" y="-1393.9" font-family="Arial" font-size="14.00" fill="#000000">Gender    </text>
<text text-anchor="start" x="130.8864" y="-1393.9" font-family="Arial" font-size="14.00" fill="#666666">[nvarchar(1)]</text>
<polygon fill="none" stroke="#000000" points="43,-1352.5 43,-1382.5 319,-1382.5 319,-1352.5 43,-1352.5"/>
<text text-anchor="start" x="50" y="-1363.9" font-family="Arial" font-size="14.00" fill="#000000">EmailAddress    </text>
<text text-anchor="start" x="170.5428" y="-1363.9" font-family="Arial" font-size="14.00" fill="#666666">[nvarchar(50)]</text>
<polygon fill="none" stroke="#000000" points="43,-1322.5 43,-1352.5 319,-1352.5 319,-1322.5 43,-1322.5"/>
<text text-anchor="start" x="50" y="-1333.9" font-family="Arial" font-size="14.00" fill="#000000">YearlyIncome    </text>
<text text-anchor="start" x="169.7728" y="-1333.9" font-family="Arial" font-size="14.00" fill="#666666">[money]</text>
<polygon fill="none" stroke="#000000" points="43,-1292.5 43,-1322.5 319,-1322.5 319,-1292.5 43,-1292.5"/>
<text text-anchor="start" x="50" y="-1303.9" font-family="Arial" font-size="14.00" fill="#000000">TotalChildren    </text>
<text text-anchor="start" x="167.4306" y="-1303.9" font-family="Arial" font-size="14.00" fill="#666666">[tinyint]</text>
<polygon fill="none" stroke="#000000" points="43,-1262.5 43,-1292.5 319,-1292.5 319,-1262.5 43,-1262.5"/>
<text text-anchor="start" x="50" y="-1273.9" font-family="Arial" font-size="14.00" fill="#000000">NumberChildrenAtHome    </text>
<text text-anchor="start" x="236.6508" y="-1273.9" font-family="Arial" font-size="14.00" fill="#666666">[tinyint]</text>
<polygon fill="none" stroke="#000000" points="43,-1232.5 43,-1262.5 319,-1262.5 319,-1232.5 43,-1232.5"/>
<text text-anchor="start" x="50" y="-1243.9" font-family="Arial" font-size="14.00" fill="#000000">EnglishEducation    </text>
<text text-anchor="start" x="192.3492" y="-1243.9" font-family="Arial" font-size="14.00" fill="#666666">[nvarchar(40)]</text>
<polygon fill="none" stroke="#000000" points="43,-1202.5 43,-1232.5 319,-1232.5 319,-1202.5 43,-1202.5"/>
<text text-anchor="start" x="50" y="-1213.9" font-family="Arial" font-size="14.00" fill="#000000">SpanishEducation    </text>
<text text-anchor="start" x="197.0252" y="-1213.9" font-family="Arial" font-size="14.00" fill="#666666">[nvarchar(40)]</text>
<polygon fill="none" stroke="#000000" points="43,-1172.5 43,-1202.5 319,-1202.5 319,-1172.5 43,-1172.5"/>
<text text-anchor="start" x="50" y="-1183.9" font-family="Arial" font-size="14.00" fill="#000000">FrenchEducation    </text>
<text text-anchor="start" x="190.0126" y="-1183.9" font-family="Arial" font-size="14.00" fill="#666666">[nvarchar(40)]</text>
<polygon fill="none" stroke="#000000" points="43,-1142.5 43,-1172.5 319,-1172.5 319,-1142.5 43,-1142.5"/>
<text text-anchor="start" x="50" y="-1153.9" font-family="Arial" font-size="14.00" fill="#000000">EnglishOccupation    </text>
<text text-anchor="start" x="200.9032" y="-1153.9" font-family="Arial" font-size="14.00" fill="#666666">[nvarchar(100)]</text>
<polygon fill="none" stroke="#000000" points="43,-1112.5 43,-1142.5 319,-1142.5 319,-1112.5 43,-1112.5"/>
<text text-anchor="start" x="50" y="-1123.9" font-family="Arial" font-size="14.00" fill="#000000">SpanishOccupation    </text>
<text text-anchor="start" x="205.5792" y="-1123.9" font-family="Arial" font-size="14.00" fill="#666666">[nvarchar(100)]</text>
<polygon fill="none" stroke="#000000" points="43,-1082.5 43,-1112.5 319,-1112.5 319,-1082.5 43,-1082.5"/>
<text text-anchor="start" x="50" y="-1093.9" font-family="Arial" font-size="14.00" fill="#000000">FrenchOccupation    </text>
<text text-anchor="start" x="198.5666" y="-1093.9" font-family="Arial" font-size="14.00" fill="#666666">[nvarchar(100)]</text>
<polygon fill="none" stroke="#000000" points="43,-1052.5 43,-1082.5 319,-1082.5 319,-1052.5 43,-1052.5"/>
<text text-anchor="start" x="50" y="-1063.9" font-family="Arial" font-size="14.00" fill="#000000">HouseOwnerFlag    </text>
<text text-anchor="start" x="193.1066" y="-1063.9" font-family="Arial" font-size="14.00" fill="#666666">[nchar]</text>
<polygon fill="none" stroke="#000000" points="43,-1022.5 43,-1052.5 319,-1052.5 319,-1022.5 43,-1022.5"/>
<text text-anchor="start" x="50" y="-1033.9" font-family="Arial" font-size="14.00" fill="#000000">NumberCarsOwned    </text>
<text text-anchor="start" x="207.8752" y="-1033.9" font-family="Arial" font-size="14.00" fill="#666666">[tinyint]</text>
<polygon fill="none" stroke="#000000" points="43,-992.5 43,-1022.5 319,-1022.5 319,-992.5 43,-992.5"/>
<text text-anchor="start" x="50" y="-1003.9" font-family="Arial" font-size="14.00" fill="#000000">AddressLine1    </text>
<text text-anchor="start" x="169.7868" y="-1003.9" font-family="Arial" font-size="14.00" fill="#666666">[nvarchar(120)]</text>
<polygon fill="none" stroke="#000000" points="43,-962.5 43,-992.5 319,-992.5 319,-962.5 43,-962.5"/>
<text text-anchor="start" x="50" y="-973.9" font-family="Arial" font-size="14.00" fill="#000000">AddressLine2    </text>
<text text-anchor="start" x="169.7868" y="-973.9" font-family="Arial" font-size="14.00" fill="#666666">[nvarchar(120)]</text>
<polygon fill="none" stroke="#000000" points="43,-932.5 43,-962.5 319,-962.5 319,-932.5 43,-932.5"/>
<text text-anchor="start" x="50" y="-943.9" font-family="Arial" font-size="14.00" fill="#000000">Phone    </text>
<text text-anchor="start" x="124.6718" y="-943.9" font-family="Arial" font-size="14.00" fill="#666666">[nvarchar(20)]</text>
<polygon fill="none" stroke="#000000" points="43,-902.5 43,-932.5 319,-932.5 319,-902.5 43,-902.5"/>
<text text-anchor="start" x="50" y="-913.9" font-family="Arial" font-size="14.00" fill="#000000">DateFirstPurchase    </text>
<text text-anchor="start" x="200.1052" y="-913.9" font-family="Arial" font-size="14.00" fill="#666666">[date]</text>
<polygon fill="none" stroke="#000000" points="43,-872.5 43,-902.5 319,-902.5 319,-872.5 43,-872.5"/>
<text text-anchor="start" x="50" y="-883.9" font-family="Arial" font-size="14.00" fill="#000000">CommuteDistance    </text>
<text text-anchor="start" x="199.3226" y="-883.9" font-family="Arial" font-size="14.00" fill="#666666">[nvarchar(15)]</text>
</g>
<!-- DimCustomer&#45;&gt;DimGeography -->
<g id="edge1" class="edge">
<title>DimCustomer:GeographyKey&#45;&gt;DimGeography:GeographyKey</title>
<path fill="none" stroke="#000000" d="M326.2974,-1690.3372C364.8913,-1609.3172 344.8193,-867.5362 319,-830 293.6466,-793.141 250.3534,-830.859 225,-794 200.6938,-758.6635 182.1111,-697.5 225,-697.5"/>
<polygon fill="#000000" stroke="#000000" points="326.1366,-1690.495 315.8478,-1694.2885 322.5683,-1693.9975 319,-1697.5 319,-1697.5 319,-1697.5 322.5683,-1693.9975 322.1522,-1700.7115 326.1366,-1690.495 326.1366,-1690.495"/>
</g>
<!-- DimReseller -->
<g id="node3" class="node">
<title>DimReseller</title>
<polygon fill="#efefef" stroke="transparent" points="423,-1607.5 423,-1642.5 689,-1642.5 689,-1607.5 423,-1607.5"/>
<polygon fill="none" stroke="#000000" points="423,-1607.5 423,-1642.5 689,-1642.5 689,-1607.5 423,-1607.5"/>
<text text-anchor="start" x="440.8987" y="-1620.3" font-family="Arial Bold" font-size="18.00" fill="#000000">DimReseller</text>
<text text-anchor="start" x="538.8727" y="-1620.3" font-family="Arial" font-size="14.00" fill="#000000">    </text>
<text text-anchor="start" x="573.0775" y="-1620.3" font-family="Arial" font-size="14.00" fill="#666666">[BASIC TABLE]</text>
<polygon fill="none" stroke="#000000" points="423,-1577.5 423,-1607.5 689,-1607.5 689,-1577.5 423,-1577.5"/>
<text text-anchor="start" x="430" y="-1588.9" font-family="Arial" font-size="14.00" fill="#000000">ResellerKey    </text>
<text text-anchor="start" x="539.6522" y="-1588.9" font-family="Arial" font-size="14.00" fill="#666666">[int]</text>
<polygon fill="none" stroke="#000000" points="423,-1547.5 423,-1577.5 689,-1577.5 689,-1547.5 423,-1547.5"/>
<text text-anchor="start" x="430" y="-1558.9" font-family="Arial" font-size="14.00" fill="#000000">GeographyKey    </text>
<text text-anchor="start" x="557.5708" y="-1558.9" font-family="Arial" font-size="14.00" fill="#666666">[int]</text>
<polygon fill="none" stroke="#000000" points="423,-1517.5 423,-1547.5 689,-1547.5 689,-1517.5 423,-1517.5"/>
<text text-anchor="start" x="429.6066" y="-1528.9" font-family="Arial" font-size="14.00" fill="#000000">ResellerAlternateKey    </text>
<text text-anchor="start" x="595.2742" y="-1528.9" font-family="Arial" font-size="14.00" fill="#666666">[nvarchar(15)]</text>
<polygon fill="none" stroke="#000000" points="423,-1487.5 423,-1517.5 689,-1517.5 689,-1487.5 423,-1487.5"/>
<text text-anchor="start" x="430" y="-1498.9" font-family="Arial" font-size="14.00" fill="#000000">Phone    </text>
<text text-anchor="start" x="504.6718" y="-1498.9" font-family="Arial" font-size="14.00" fill="#666666">[nvarchar(25)]</text>
<polygon fill="none" stroke="#000000" points="423,-1457.5 423,-1487.5 689,-1487.5 689,-1457.5 423,-1457.5"/>
<text text-anchor="start" x="430" y="-1468.9" font-family="Arial" font-size="14.00" fill="#000000">BusinessType    </text>
<text text-anchor="start" x="552.1136" y="-1468.9" font-family="Arial" font-size="14.00" fill="#666666">[varchar(20)]</text>
<polygon fill="none" stroke="#000000" points="423,-1427.5 423,-1457.5 689,-1457.5 689,-1427.5 423,-1427.5"/>
<text text-anchor="start" x="430" y="-1438.9" font-family="Arial" font-size="14.00" fill="#000000">ResellerName    </text>
<text text-anchor="start" x="552.8654" y="-1438.9" font-family="Arial" font-size="14.00" fill="#666666">[nvarchar(50)]</text>
<polygon fill="none" stroke="#000000" points="423,-1397.5 423,-1427.5 689,-1427.5 689,-1397.5 423,-1397.5"/>
<text text-anchor="start" x="430" y="-1408.9" font-family="Arial" font-size="14.00" fill="#000000">NumberEmployees    </text>
<text text-anchor="start" x="583.2146" y="-1408.9" font-family="Arial" font-size="14.00" fill="#666666">[int]</text>
<polygon fill="none" stroke="#000000" points="423,-1367.5 423,-1397.5 689,-1397.5 689,-1367.5 423,-1367.5"/>
<text text-anchor="start" x="430" y="-1378.9" font-family="Arial" font-size="14.00" fill="#000000">OrderFrequency    </text>
<text text-anchor="start" x="566.108" y="-1378.9" font-family="Arial" font-size="14.00" fill="#666666">[char]</text>
<polygon fill="none" stroke="#000000" points="423,-1337.5 423,-1367.5 689,-1367.5 689,-1337.5 423,-1337.5"/>
<text text-anchor="start" x="430" y="-1348.9" font-family="Arial" font-size="14.00" fill="#000000">OrderMonth    </text>
<text text-anchor="start" x="538.8808" y="-1348.9" font-family="Arial" font-size="14.00" fill="#666666">[tinyint]</text>
<polygon fill="none" stroke="#000000" points="423,-1307.5 423,-1337.5 689,-1337.5 689,-1307.5 423,-1307.5"/>
<text text-anchor="start" x="430" y="-1318.9" font-family="Arial" font-size="14.00" fill="#000000">FirstOrderYear    </text>
<text text-anchor="start" x="556.7546" y="-1318.9" font-family="Arial" font-size="14.00" fill="#666666">[int]</text>
<polygon fill="none" stroke="#000000" points="423,-1277.5 423,-1307.5 689,-1307.5 689,-1277.5 423,-1277.5"/>
<text text-anchor="start" x="430" y="-1288.9" font-family="Arial" font-size="14.00" fill="#000000">LastOrderYear    </text>
<text text-anchor="start" x="556" y="-1288.9" font-family="Arial" font-size="14.00" fill="#666666">[int]</text>
<polygon fill="none" stroke="#000000" points="423,-1247.5 423,-1277.5 689,-1277.5 689,-1247.5 423,-1247.5"/>
<text text-anchor="start" x="430" y="-1258.9" font-family="Arial" font-size="14.00" fill="#000000">ProductLine    </text>
<text text-anchor="start" x="538.8948" y="-1258.9" font-family="Arial" font-size="14.00" fill="#666666">[nvarchar(50)]</text>
<polygon fill="none" stroke="#000000" points="423,-1217.5 423,-1247.5 689,-1247.5 689,-1217.5 423,-1217.5"/>
<text text-anchor="start" x="430" y="-1228.9" font-family="Arial" font-size="14.00" fill="#000000">AddressLine1    </text>
<text text-anchor="start" x="549.7868" y="-1228.9" font-family="Arial" font-size="14.00" fill="#666666">[nvarchar(60)]</text>
<polygon fill="none" stroke="#000000" points="423,-1187.5 423,-1217.5 689,-1217.5 689,-1187.5 423,-1187.5"/>
<text text-anchor="start" x="430" y="-1198.9" font-family="Arial" font-size="14.00" fill="#000000">AddressLine2    </text>
<text text-anchor="start" x="549.7868" y="-1198.9" font-family="Arial" font-size="14.00" fill="#666666">[nvarchar(60)]</text>
<polygon fill="none" stroke="#000000" points="423,-1157.5 423,-1187.5 689,-1187.5 689,-1157.5 423,-1157.5"/>
<text text-anchor="start" x="430" y="-1168.9" font-family="Arial" font-size="14.00" fill="#000000">AnnualSales    </text>
<text text-anchor="start" x="542.7868" y="-1168.9" font-family="Arial" font-size="14.00" fill="#666666">[money]</text>
<polygon fill="none" stroke="#000000" points="423,-1127.5 423,-1157.5 689,-1157.5 689,-1127.5 423,-1127.5"/>
<text text-anchor="start" x="430" y="-1138.9" font-family="Arial" font-size="14.00" fill="#000000">BankName    </text>
<text text-anchor="start" x="533.439" y="-1138.9" font-family="Arial" font-size="14.00" fill="#666666">[nvarchar(50)]</text>
<polygon fill="none" stroke="#000000" points="423,-1097.5 423,-1127.5 689,-1127.5 689,-1097.5 423,-1097.5"/>
<text text-anchor="start" x="430" y="-1108.9" font-family="Arial" font-size="14.00" fill="#000000">MinPaymentType    </text>
<text text-anchor="start" x="573.108" y="-1108.9" font-family="Arial" font-size="14.00" fill="#666666">[tinyint]</text>
<polygon fill="none" stroke="#000000" points="423,-1067.5 423,-1097.5 689,-1097.5 689,-1067.5 423,-1067.5"/>
<text text-anchor="start" x="430" y="-1078.9" font-family="Arial" font-size="14.00" fill="#000000">MinPaymentAmount    </text>
<text text-anchor="start" x="590.2258" y="-1078.9" font-family="Arial" font-size="14.00" fill="#666666">[money]</text>
<polygon fill="none" stroke="#000000" points="423,-1037.5 423,-1067.5 689,-1067.5 689,-1037.5 423,-1037.5"/>
<text text-anchor="start" x="430" y="-1048.9" font-family="Arial" font-size="14.00" fill="#000000">AnnualRevenue    </text>
<text text-anchor="start" x="563.798" y="-1048.9" font-family="Arial" font-size="14.00" fill="#666666">[money]</text>
<polygon fill="none" stroke="#000000" points="423,-1007.5 423,-1037.5 689,-1037.5 689,-1007.5 423,-1007.5"/>
<text text-anchor="start" x="430" y="-1018.9" font-family="Arial" font-size="14.00" fill="#000000">YearOpened    </text>
<text text-anchor="start" x="543.5708" y="-1018.9" font-family="Arial" font-size="14.00" fill="#666666">[int]</text>
</g>
<!-- DimReseller&#45;&gt;DimGeography -->
<g id="edge2" class="edge">
<title>DimReseller:GeographyKey&#45;&gt;DimGeography:GeographyKey</title>
<path fill="none" stroke="#000000" d="M413.7724,-1558.5079C361.6759,-1509.5776 408.1652,-1026.2466 423,-965 452.4628,-843.3604 636.1569,-697.5 511,-697.5"/>
<polygon fill="#000000" stroke="#000000" points="413.8221,-1558.5293 421.2132,-1566.6301 418.411,-1560.5147 423,-1562.5 423,-1562.5 423,-1562.5 418.411,-1560.5147 424.7868,-1558.3699 413.8221,-1558.5293 413.8221,-1558.5293"/>
</g>
</g>
</svg>
