<?xml version="1.0" encoding="UTF-8" standalone="no"?>
<!DOCTYPE svg PUBLIC "-//W3C//DTD SVG 1.1//EN"
 "http://www.w3.org/Graphics/SVG/1.1/DTD/svg11.dtd">
<!-- Generated by graphviz version 2.40.1 (20161225.0304)
 -->
<!-- Title: DimOrganization Pages: 1 -->
<svg width="380pt" height="929pt"
 viewBox="0.00 0.00 380.00 929.00" xmlns="http://www.w3.org/2000/svg" xmlns:xlink="http://www.w3.org/1999/xlink">
<g id="graph0" class="graph" transform="scale(1 1) rotate(0) translate(4 925)">
<title>DimOrganization</title>
<polygon fill="#ffffff" stroke="transparent" points="-4,4 -4,-925 376,-925 376,4 -4,4"/>
<!-- DimOrganization -->
<g id="node1" class="node">
<title>DimOrganization</title>
<polygon fill="#efefef" stroke="transparent" points="46,-442.5 46,-477.5 326,-477.5 326,-442.5 46,-442.5"/>
<polygon fill="none" stroke="#000000" points="46,-442.5 46,-477.5 326,-477.5 326,-442.5 46,-442.5"/>
<text text-anchor="start" x="52.8843" y="-455.3" font-family="Arial Bold" font-size="18.00" fill="#000000">DimOrganization</text>
<text text-anchor="start" x="186.8871" y="-455.3" font-family="Arial" font-size="14.00" fill="#000000">    </text>
<text text-anchor="start" x="221.0919" y="-455.3" font-family="Arial" font-size="14.00" fill="#666666">[BASIC TABLE]</text>
<polygon fill="none" stroke="#000000" points="46,-412.5 46,-442.5 326,-442.5 326,-412.5 46,-412.5"/>
<text text-anchor="start" x="53" y="-423.9" font-family="Arial" font-size="14.00" fill="#000000">OrganizationKey </text>
<text text-anchor="start" x="160.3604" y="-423.9" font-family="Arial" font-size="14.00" fill="#666666">[int]</text>
<polygon fill="none" stroke="#000000" points="46,-382.5 46,-412.5 326,-412.5 326,-382.5 46,-382.5"/>
<text text-anchor="start" x="53" y="-393.9" font-family="Arial" font-size="14.00" fill="#000000">ParentOrganizationKey </text>
<text text-anchor="start" x="201.596" y="-393.9" font-family="Arial" font-size="14.00" fill="#666666">[int]</text>
<polygon fill="none" stroke="#000000" points="46,-352.5 46,-382.5 326,-382.5 326,-352.5 46,-352.5"/>
<text text-anchor="start" x="53" y="-363.9" font-family="Arial" font-size="14.00" fill="#000000">PercentageOfOwnership </text>
<text text-anchor="start" x="210.15" y="-363.9" font-family="Arial" font-size="14.00" fill="#666666">[nvarchar(16)]</text>
<polygon fill="none" stroke="#000000" points="46,-322.5 46,-352.5 326,-352.5 326,-322.5 46,-322.5"/>
<text text-anchor="start" x="53" y="-333.9" font-family="Arial" font-size="14.00" fill="#000000">OrganizationName </text>
<text text-anchor="start" x="173.5736" y="-333.9" font-family="Arial" font-size="14.00" fill="#666666">[nvarchar(50)]</text>
<polygon fill="none" stroke="#000000" points="46,-292.5 46,-322.5 326,-322.5 326,-292.5 46,-292.5"/>
<text text-anchor="start" x="53" y="-303.9" font-family="Arial" font-size="14.00" fill="#000000">CurrencyKey </text>
<text text-anchor="start" x="137.7854" y="-303.9" font-family="Arial" font-size="14.00" fill="#666666">[int]</text>
<polygon fill="none" stroke="#000000" stroke-width="3" points="44.5,-291.5 44.5,-479.5 327.5,-479.5 327.5,-291.5 44.5,-291.5"/>
</g>
<!-- DimOrganization&#45;&gt;DimOrganization -->
<g id="edge1" class="edge">
<title>DimOrganization:ParentOrganizationKey&#45;&gt;DimOrganization:OrganizationKey</title>
<path fill="none" stroke="#000000" d="M188.0813,-422.5071C194.9362,-518.3375 194.2425,-664 186,-664 177.4746,-664 177.025,-535.0862 184.6513,-442.5821"/>
<polygon fill="#000000" stroke="#000000" points="188.0808,-422.5003 191.8123,-412.1888 187.703,-417.5146 187.3251,-412.5289 187.3251,-412.5289 187.3251,-412.5289 187.703,-417.5146 182.838,-412.869 188.0808,-422.5003 188.0808,-422.5003"/>
</g>
<!-- DimCurrency -->
<g id="node3" class="node">
<title>DimCurrency</title>
<polygon fill="#efefef" stroke="transparent" points="60,-132.5 60,-167.5 311,-167.5 311,-132.5 60,-132.5"/>
<polygon fill="none" stroke="#000000" points="60,-132.5 60,-167.5 311,-167.5 311,-132.5 60,-132.5"/>
<text text-anchor="start" x="66.8968" y="-145.3" font-family="Arial Bold" font-size="18.00" fill="#000000">DimCurrency</text>
<text text-anchor="start" x="171.8746" y="-145.3" font-family="Arial" font-size="14.00" fill="#000000">    </text>
<text text-anchor="start" x="206.0794" y="-145.3" font-family="Arial" font-size="14.00" fill="#666666">[BASIC TABLE]</text>
<polygon fill="none" stroke="#000000" points="60,-102.5 60,-132.5 311,-132.5 311,-102.5 60,-102.5"/>
<text text-anchor="start" x="67" y="-113.9" font-family="Arial" font-size="14.00" fill="#000000">CurrencyKey    </text>
<text text-anchor="start" x="182.0996" y="-113.9" font-family="Arial" font-size="14.00" fill="#666666">[int]</text>
<polygon fill="none" stroke="#000000" points="60,-72.5 60,-102.5 311,-102.5 311,-72.5 60,-72.5"/>
<text text-anchor="start" x="67" y="-83.9" font-family="Arial" font-size="14.00" fill="#000000">CurrencyAlternateKey    </text>
<text text-anchor="start" x="238.115" y="-83.9" font-family="Arial" font-size="14.00" fill="#666666">[nchar]</text>
<polygon fill="none" stroke="#000000" points="60,-42.5 60,-72.5 311,-72.5 311,-42.5 60,-42.5"/>
<text text-anchor="start" x="67" y="-53.9" font-family="Arial" font-size="14.00" fill="#000000">CurrencyName    </text>
<text text-anchor="start" x="195.3128" y="-53.9" font-family="Arial" font-size="14.00" fill="#666666">[nvarchar(50)]</text>
</g>
<!-- DimOrganization&#45;&gt;DimCurrency -->
<g id="edge3" class="edge">
<title>DimOrganization:CurrencyKey&#45;&gt;DimCurrency:CurrencyKey</title>
<path fill="none" stroke="#000000" d="M186.8708,-282.2457C196.383,-230.7398 281.1969,-266.0099 311,-211 330.7953,-174.4622 352.5556,-117.5 311,-117.5"/>
<polygon fill="#000000" stroke="#000000" points="186.8462,-282.5359 181.5161,-292.1192 186.4231,-287.5179 186,-292.5 186,-292.5 186,-292.5 186.4231,-287.5179 190.4839,-292.8808 186.8462,-282.5359 186.8462,-282.5359"/>
</g>
<!-- FactFinance -->
<g id="node2" class="node">
<title>FactFinance</title>
<polygon fill="#efefef" stroke="transparent" points="63,-842.5 63,-877.5 308,-877.5 308,-842.5 63,-842.5"/>
<polygon fill="none" stroke="#000000" points="63,-842.5 63,-877.5 308,-877.5 308,-842.5 63,-842.5"/>
<text text-anchor="start" x="69.8758" y="-855.3" font-family="Arial Bold" font-size="18.00" fill="#000000">FactFinance</text>
<text text-anchor="start" x="168.8956" y="-855.3" font-family="Arial" font-size="14.00" fill="#000000">    </text>
<text text-anchor="start" x="203.1004" y="-855.3" font-family="Arial" font-size="14.00" fill="#666666">[BASIC TABLE]</text>
<polygon fill="none" stroke="#000000" points="63,-812.5 63,-842.5 308,-842.5 308,-812.5 63,-812.5"/>
<text text-anchor="start" x="70" y="-823.9" font-family="Arial" font-size="14.00" fill="#000000">FinanceKey    </text>
<text text-anchor="start" x="178.1136" y="-823.9" font-family="Arial" font-size="14.00" fill="#666666">[int]</text>
<polygon fill="none" stroke="#000000" points="63,-782.5 63,-812.5 308,-812.5 308,-782.5 63,-782.5"/>
<text text-anchor="start" x="70" y="-793.9" font-family="Arial" font-size="14.00" fill="#000000">DateKey    </text>
<text text-anchor="start" x="157.8864" y="-793.9" font-family="Arial" font-size="14.00" fill="#666666">[int]</text>
<polygon fill="none" stroke="#000000" points="63,-752.5 63,-782.5 308,-782.5 308,-752.5 63,-752.5"/>
<text text-anchor="start" x="70" y="-763.9" font-family="Arial" font-size="14.00" fill="#000000">OrganizationKey    </text>
<text text-anchor="start" x="207.6746" y="-763.9" font-family="Arial" font-size="14.00" fill="#666666">[int]</text>
<polygon fill="none" stroke="#000000" points="63,-722.5 63,-752.5 308,-752.5 308,-722.5 63,-722.5"/>
<text text-anchor="start" x="70" y="-733.9" font-family="Arial" font-size="14.00" fill="#000000">DepartmentGroupKey    </text>
<text text-anchor="start" x="240.345" y="-733.9" font-family="Arial" font-size="14.00" fill="#666666">[int]</text>
<polygon fill="none" stroke="#000000" points="63,-692.5 63,-722.5 308,-722.5 308,-692.5 63,-692.5"/>
<text text-anchor="start" x="70" y="-703.9" font-family="Arial" font-size="14.00" fill="#000000">ScenarioKey    </text>
<text text-anchor="start" x="183.5582" y="-703.9" font-family="Arial" font-size="14.00" fill="#666666">[int]</text>
<polygon fill="none" stroke="#000000" points="63,-662.5 63,-692.5 308,-692.5 308,-662.5 63,-662.5"/>
<text text-anchor="start" x="70" y="-673.9" font-family="Arial" font-size="14.00" fill="#000000">AccountKey    </text>
<text text-anchor="start" x="178.899" y="-673.9" font-family="Arial" font-size="14.00" fill="#666666">[int]</text>
<polygon fill="none" stroke="#000000" points="63,-632.5 63,-662.5 308,-662.5 308,-632.5 63,-632.5"/>
<text text-anchor="start" x="70" y="-643.9" font-family="Arial" font-size="14.00" fill="#000000">Amount    </text>
<text text-anchor="start" x="152.4404" y="-643.9" font-family="Arial" font-size="14.00" fill="#666666">[float]</text>
<polygon fill="none" stroke="#000000" points="63,-602.5 63,-632.5 308,-632.5 308,-602.5 63,-602.5"/>
<text text-anchor="start" x="70" y="-613.9" font-family="Arial" font-size="14.00" fill="#000000">Date    </text>
<text text-anchor="start" x="133.7672" y="-613.9" font-family="Arial" font-size="14.00" fill="#666666">[datetime]</text>
</g>
<!-- FactFinance&#45;&gt;DimOrganization -->
<g id="edge2" class="edge">
<title>FactFinance:OrganizationKey&#45;&gt;DimOrganization:OrganizationKey</title>
<path fill="none" stroke="#000000" d="M318.2461,-766.8806C397.7083,-756.8239 366.2426,-626.7927 308,-560 230.7514,-471.4113 123.2486,-612.5887 46,-524 17.8126,-491.6747 3.1111,-427.5 46,-427.5"/>
<polygon fill="#000000" stroke="#000000" points="317.9818,-766.8965 307.7284,-763.0082 312.9909,-767.1983 308,-767.5 308,-767.5 308,-767.5 312.9909,-767.1983 308.2716,-771.9918 317.9818,-766.8965 317.9818,-766.8965"/>
</g>
</g>
</svg>
