<?xml version="1.0" encoding="UTF-8" standalone="no"?>
<!DOCTYPE svg PUBLIC "-//W3C//DTD SVG 1.1//EN"
 "http://www.w3.org/Graphics/SVG/1.1/DTD/svg11.dtd">
<!-- Generated by graphviz version 2.40.1 (20161225.0304)
 -->
<!-- Title: DimPromotion Pages: 1 -->
<svg width="778pt" height="1582pt"
 viewBox="0.00 0.00 777.50 1582.00" xmlns="http://www.w3.org/2000/svg" xmlns:xlink="http://www.w3.org/1999/xlink">
<g id="graph0" class="graph" transform="scale(1 1) rotate(0) translate(4 1578)">
<title>DimPromotion</title>
<polygon fill="#ffffff" stroke="transparent" points="-4,4 -4,-1578 773.5,-1578 773.5,4 -4,4"/>
<!-- DimPromotion -->
<g id="node1" class="node">
<title>DimPromotion</title>
<polygon fill="#efefef" stroke="transparent" points="245.5,-525.5 245.5,-560.5 521.5,-560.5 521.5,-525.5 245.5,-525.5"/>
<polygon fill="none" stroke="#000000" points="245.5,-525.5 245.5,-560.5 521.5,-560.5 521.5,-525.5 245.5,-525.5"/>
<text text-anchor="start" x="260.3905" y="-538.3" font-family="Arial Bold" font-size="18.00" fill="#000000">DimPromotion</text>
<text text-anchor="start" x="374.3809" y="-538.3" font-family="Arial" font-size="14.00" fill="#000000">    </text>
<text text-anchor="start" x="408.5857" y="-538.3" font-family="Arial" font-size="14.00" fill="#666666">[BASIC TABLE]</text>
<polygon fill="none" stroke="#000000" points="245.5,-495.5 245.5,-525.5 521.5,-525.5 521.5,-495.5 245.5,-495.5"/>
<text text-anchor="start" x="252.5" y="-506.9" font-family="Arial" font-size="14.00" fill="#000000">PromotionKey </text>
<text text-anchor="start" x="344.2952" y="-506.9" font-family="Arial" font-size="14.00" fill="#666666">[int]</text>
<polygon fill="none" stroke="#000000" points="245.5,-465.5 245.5,-495.5 521.5,-495.5 521.5,-465.5 245.5,-465.5"/>
<text text-anchor="start" x="252.5" y="-476.9" font-family="Arial" font-size="14.00" fill="#000000">PromotionAlternateKey </text>
<text text-anchor="start" x="400.3106" y="-476.9" font-family="Arial" font-size="14.00" fill="#666666">[int]</text>
<polygon fill="none" stroke="#000000" points="245.5,-435.5 245.5,-465.5 521.5,-465.5 521.5,-435.5 245.5,-435.5"/>
<text text-anchor="start" x="252.5" y="-446.9" font-family="Arial" font-size="14.00" fill="#000000">EnglishPromotionName </text>
<text text-anchor="start" x="403.406" y="-446.9" font-family="Arial" font-size="14.00" fill="#666666">[nvarchar(255)]</text>
<polygon fill="none" stroke="#000000" points="245.5,-405.5 245.5,-435.5 521.5,-435.5 521.5,-405.5 245.5,-405.5"/>
<text text-anchor="start" x="252.5" y="-416.9" font-family="Arial" font-size="14.00" fill="#000000">SpanishPromotionName </text>
<text text-anchor="start" x="408.082" y="-416.9" font-family="Arial" font-size="14.00" fill="#666666">[nvarchar(255)]</text>
<polygon fill="none" stroke="#000000" points="245.5,-375.5 245.5,-405.5 521.5,-405.5 521.5,-375.5 245.5,-375.5"/>
<text text-anchor="start" x="252.5" y="-386.9" font-family="Arial" font-size="14.00" fill="#000000">FrenchPromotionName </text>
<text text-anchor="start" x="401.0694" y="-386.9" font-family="Arial" font-size="14.00" fill="#666666">[nvarchar(255)]</text>
<polygon fill="none" stroke="#000000" points="245.5,-345.5 245.5,-375.5 521.5,-375.5 521.5,-345.5 245.5,-345.5"/>
<text text-anchor="start" x="252.5" y="-356.9" font-family="Arial" font-size="14.00" fill="#000000">DiscountPct </text>
<text text-anchor="start" x="331.0694" y="-356.9" font-family="Arial" font-size="14.00" fill="#666666">[float]</text>
<polygon fill="none" stroke="#000000" points="245.5,-315.5 245.5,-345.5 521.5,-345.5 521.5,-315.5 245.5,-315.5"/>
<text text-anchor="start" x="252.5" y="-326.9" font-family="Arial" font-size="14.00" fill="#000000">EnglishPromotionType </text>
<text text-anchor="start" x="397.1914" y="-326.9" font-family="Arial" font-size="14.00" fill="#666666">[nvarchar(50)]</text>
<polygon fill="none" stroke="#000000" points="245.5,-285.5 245.5,-315.5 521.5,-315.5 521.5,-285.5 245.5,-285.5"/>
<text text-anchor="start" x="252.5" y="-296.9" font-family="Arial" font-size="14.00" fill="#000000">SpanishPromotionType </text>
<text text-anchor="start" x="401.8674" y="-296.9" font-family="Arial" font-size="14.00" fill="#666666">[nvarchar(50)]</text>
<polygon fill="none" stroke="#000000" points="245.5,-255.5 245.5,-285.5 521.5,-285.5 521.5,-255.5 245.5,-255.5"/>
<text text-anchor="start" x="252.5" y="-266.9" font-family="Arial" font-size="14.00" fill="#000000">FrenchPromotionType </text>
<text text-anchor="start" x="394.8548" y="-266.9" font-family="Arial" font-size="14.00" fill="#666666">[nvarchar(50)]</text>
<polygon fill="none" stroke="#000000" points="245.5,-225.5 245.5,-255.5 521.5,-255.5 521.5,-225.5 245.5,-225.5"/>
<text text-anchor="start" x="252.5" y="-236.9" font-family="Arial" font-size="14.00" fill="#000000">EnglishPromotionCategory </text>
<text text-anchor="start" x="422.8618" y="-236.9" font-family="Arial" font-size="14.00" fill="#666666">[nvarchar(50)]</text>
<polygon fill="none" stroke="#000000" points="245.5,-195.5 245.5,-225.5 521.5,-225.5 521.5,-195.5 245.5,-195.5"/>
<text text-anchor="start" x="252.4215" y="-206.9" font-family="Arial" font-size="14.00" fill="#000000">SpanishPromotionCategory </text>
<text text-anchor="start" x="427.4593" y="-206.9" font-family="Arial" font-size="14.00" fill="#666666">[nvarchar(50)]</text>
<polygon fill="none" stroke="#000000" points="245.5,-165.5 245.5,-195.5 521.5,-195.5 521.5,-165.5 245.5,-165.5"/>
<text text-anchor="start" x="252.5" y="-176.9" font-family="Arial" font-size="14.00" fill="#000000">FrenchPromotionCategory </text>
<text text-anchor="start" x="420.5252" y="-176.9" font-family="Arial" font-size="14.00" fill="#666666">[nvarchar(50)]</text>
<polygon fill="none" stroke="#000000" points="245.5,-135.5 245.5,-165.5 521.5,-165.5 521.5,-135.5 245.5,-135.5"/>
<text text-anchor="start" x="252.5" y="-146.9" font-family="Arial" font-size="14.00" fill="#000000">StartDate </text>
<text text-anchor="start" x="315.514" y="-146.9" font-family="Arial" font-size="14.00" fill="#666666">[datetime]</text>
<polygon fill="none" stroke="#000000" points="245.5,-105.5 245.5,-135.5 521.5,-135.5 521.5,-105.5 245.5,-105.5"/>
<text text-anchor="start" x="252.5" y="-116.9" font-family="Arial" font-size="14.00" fill="#000000">EndDate </text>
<text text-anchor="start" x="310.8548" y="-116.9" font-family="Arial" font-size="14.00" fill="#666666">[datetime]</text>
<polygon fill="none" stroke="#000000" points="245.5,-75.5 245.5,-105.5 521.5,-105.5 521.5,-75.5 245.5,-75.5"/>
<text text-anchor="start" x="252.5" y="-86.9" font-family="Arial" font-size="14.00" fill="#000000">MinQty </text>
<text text-anchor="start" x="300.7216" y="-86.9" font-family="Arial" font-size="14.00" fill="#666666">[int]</text>
<polygon fill="none" stroke="#000000" points="245.5,-45.5 245.5,-75.5 521.5,-75.5 521.5,-45.5 245.5,-45.5"/>
<text text-anchor="start" x="252.5" y="-56.9" font-family="Arial" font-size="14.00" fill="#000000">MaxQty </text>
<text text-anchor="start" x="304.615" y="-56.9" font-family="Arial" font-size="14.00" fill="#666666">[int]</text>
<polygon fill="none" stroke="#000000" stroke-width="3" points="244,-44.5 244,-562.5 523,-562.5 523,-44.5 244,-44.5"/>
</g>
<!-- FactInternetSales -->
<g id="node2" class="node">
<title>FactInternetSales</title>
<polygon fill="#efefef" stroke="transparent" points="43.5,-1480.5 43.5,-1515.5 330.5,-1515.5 330.5,-1480.5 43.5,-1480.5"/>
<polygon fill="none" stroke="#000000" points="43.5,-1480.5 43.5,-1515.5 330.5,-1515.5 330.5,-1480.5 43.5,-1480.5"/>
<text text-anchor="start" x="50.3662" y="-1493.3" font-family="Arial Bold" font-size="18.00" fill="#000000">FactInternetSales</text>
<text text-anchor="start" x="191.4052" y="-1493.3" font-family="Arial" font-size="14.00" fill="#000000">    </text>
<text text-anchor="start" x="225.61" y="-1493.3" font-family="Arial" font-size="14.00" fill="#666666">[BASIC TABLE]</text>
<polygon fill="none" stroke="#000000" points="43.5,-1450.5 43.5,-1480.5 330.5,-1480.5 330.5,-1450.5 43.5,-1450.5"/>
<text text-anchor="start" x="50.5" y="-1461.9" font-family="Arial" font-size="14.00" fill="#000000">ProductKey    </text>
<text text-anchor="start" x="157.0596" y="-1461.9" font-family="Arial" font-size="14.00" fill="#666666">[int]</text>
<polygon fill="none" stroke="#000000" points="43.5,-1420.5 43.5,-1450.5 330.5,-1450.5 330.5,-1420.5 43.5,-1420.5"/>
<text text-anchor="start" x="50.5" y="-1431.9" font-family="Arial" font-size="14.00" fill="#000000">OrderDateKey    </text>
<text text-anchor="start" x="174.1634" y="-1431.9" font-family="Arial" font-size="14.00" fill="#666666">[int]</text>
<polygon fill="none" stroke="#000000" points="43.5,-1390.5 43.5,-1420.5 330.5,-1420.5 330.5,-1390.5 43.5,-1390.5"/>
<text text-anchor="start" x="50.5" y="-1401.9" font-family="Arial" font-size="14.00" fill="#000000">DueDateKey    </text>
<text text-anchor="start" x="164.0582" y="-1401.9" font-family="Arial" font-size="14.00" fill="#666666">[int]</text>
<polygon fill="none" stroke="#000000" points="43.5,-1360.5 43.5,-1390.5 330.5,-1390.5 330.5,-1360.5 43.5,-1360.5"/>
<text text-anchor="start" x="50.5" y="-1371.9" font-family="Arial" font-size="14.00" fill="#000000">ShipDateKey    </text>
<text text-anchor="start" x="166.3948" y="-1371.9" font-family="Arial" font-size="14.00" fill="#666666">[int]</text>
<polygon fill="none" stroke="#000000" points="43.5,-1330.5 43.5,-1360.5 330.5,-1360.5 330.5,-1330.5 43.5,-1330.5"/>
<text text-anchor="start" x="50.5" y="-1341.9" font-family="Arial" font-size="14.00" fill="#000000">CustomerKey    </text>
<text text-anchor="start" x="169.4902" y="-1341.9" font-family="Arial" font-size="14.00" fill="#666666">[int]</text>
<polygon fill="none" stroke="#000000" points="43.5,-1300.5 43.5,-1330.5 330.5,-1330.5 330.5,-1300.5 43.5,-1300.5"/>
<text text-anchor="start" x="50.5" y="-1311.9" font-family="Arial" font-size="14.00" fill="#000000">PromotionKey    </text>
<text text-anchor="start" x="172.6094" y="-1311.9" font-family="Arial" font-size="14.00" fill="#666666">[int]</text>
<polygon fill="none" stroke="#000000" points="43.5,-1270.5 43.5,-1300.5 330.5,-1300.5 330.5,-1270.5 43.5,-1270.5"/>
<text text-anchor="start" x="50.5" y="-1281.9" font-family="Arial" font-size="14.00" fill="#000000">CurrencyKey    </text>
<text text-anchor="start" x="165.5996" y="-1281.9" font-family="Arial" font-size="14.00" fill="#666666">[int]</text>
<polygon fill="none" stroke="#000000" points="43.5,-1240.5 43.5,-1270.5 330.5,-1270.5 330.5,-1240.5 43.5,-1240.5"/>
<text text-anchor="start" x="50.5" y="-1251.9" font-family="Arial" font-size="14.00" fill="#000000">SalesTerritoryKey    </text>
<text text-anchor="start" x="195.9292" y="-1251.9" font-family="Arial" font-size="14.00" fill="#666666">[int]</text>
<polygon fill="none" stroke="#000000" points="43.5,-1210.5 43.5,-1240.5 330.5,-1240.5 330.5,-1210.5 43.5,-1210.5"/>
<text text-anchor="start" x="50.5" y="-1221.9" font-family="Arial" font-size="14.00" fill="#000000">SalesOrderNumber    </text>
<text text-anchor="start" x="205.2658" y="-1221.9" font-family="Arial" font-size="14.00" fill="#666666">[nvarchar(20)]</text>
<polygon fill="none" stroke="#000000" points="43.5,-1180.5 43.5,-1210.5 330.5,-1210.5 330.5,-1180.5 43.5,-1180.5"/>
<text text-anchor="start" x="50.5" y="-1191.9" font-family="Arial" font-size="14.00" fill="#000000">SalesOrderLineNumber    </text>
<text text-anchor="start" x="231.7202" y="-1191.9" font-family="Arial" font-size="14.00" fill="#666666">[tinyint]</text>
<polygon fill="none" stroke="#000000" points="43.5,-1150.5 43.5,-1180.5 330.5,-1180.5 330.5,-1150.5 43.5,-1150.5"/>
<text text-anchor="start" x="50.5" y="-1161.9" font-family="Arial" font-size="14.00" fill="#000000">RevisionNumber    </text>
<text text-anchor="start" x="188.148" y="-1161.9" font-family="Arial" font-size="14.00" fill="#666666">[tinyint]</text>
<polygon fill="none" stroke="#000000" points="43.5,-1120.5 43.5,-1150.5 330.5,-1150.5 330.5,-1120.5 43.5,-1120.5"/>
<text text-anchor="start" x="50.5" y="-1131.9" font-family="Arial" font-size="14.00" fill="#000000">OrderQuantity    </text>
<text text-anchor="start" x="172.608" y="-1131.9" font-family="Arial" font-size="14.00" fill="#666666">[smallint]</text>
<polygon fill="none" stroke="#000000" points="43.5,-1090.5 43.5,-1120.5 330.5,-1120.5 330.5,-1090.5 43.5,-1090.5"/>
<text text-anchor="start" x="50.5" y="-1101.9" font-family="Arial" font-size="14.00" fill="#000000">UnitPrice    </text>
<text text-anchor="start" x="141.4776" y="-1101.9" font-family="Arial" font-size="14.00" fill="#666666">[money]</text>
<polygon fill="none" stroke="#000000" points="43.5,-1060.5 43.5,-1090.5 330.5,-1090.5 330.5,-1060.5 43.5,-1060.5"/>
<text text-anchor="start" x="50.5" y="-1071.9" font-family="Arial" font-size="14.00" fill="#000000">ExtendedAmount    </text>
<text text-anchor="start" x="192.0806" y="-1071.9" font-family="Arial" font-size="14.00" fill="#666666">[money]</text>
<polygon fill="none" stroke="#000000" points="43.5,-1030.5 43.5,-1060.5 330.5,-1060.5 330.5,-1030.5 43.5,-1030.5"/>
<text text-anchor="start" x="50.5" y="-1041.9" font-family="Arial" font-size="14.00" fill="#000000">UnitPriceDiscountPct    </text>
<text text-anchor="start" x="216.1564" y="-1041.9" font-family="Arial" font-size="14.00" fill="#666666">[float]</text>
<polygon fill="none" stroke="#000000" points="43.5,-1000.5 43.5,-1030.5 330.5,-1030.5 330.5,-1000.5 43.5,-1000.5"/>
<text text-anchor="start" x="50.5" y="-1011.9" font-family="Arial" font-size="14.00" fill="#000000">DiscountAmount    </text>
<text text-anchor="start" x="187.392" y="-1011.9" font-family="Arial" font-size="14.00" fill="#666666">[float]</text>
<polygon fill="none" stroke="#000000" points="43.5,-970.5 43.5,-1000.5 330.5,-1000.5 330.5,-970.5 43.5,-970.5"/>
<text text-anchor="start" x="50.5" y="-981.9" font-family="Arial" font-size="14.00" fill="#000000">ProductStandardCost    </text>
<text text-anchor="start" x="218.521" y="-981.9" font-family="Arial" font-size="14.00" fill="#666666">[money]</text>
<polygon fill="none" stroke="#000000" points="43.5,-940.5 43.5,-970.5 330.5,-970.5 330.5,-940.5 43.5,-940.5"/>
<text text-anchor="start" x="50.5" y="-951.9" font-family="Arial" font-size="14.00" fill="#000000">TotalProductCost    </text>
<text text-anchor="start" x="192.8352" y="-951.9" font-family="Arial" font-size="14.00" fill="#666666">[money]</text>
<polygon fill="none" stroke="#000000" points="43.5,-910.5 43.5,-940.5 330.5,-940.5 330.5,-910.5 43.5,-910.5"/>
<text text-anchor="start" x="50.5" y="-921.9" font-family="Arial" font-size="14.00" fill="#000000">SalesAmount    </text>
<text text-anchor="start" x="167.9488" y="-921.9" font-family="Arial" font-size="14.00" fill="#666666">[money]</text>
<polygon fill="none" stroke="#000000" points="43.5,-880.5 43.5,-910.5 330.5,-910.5 330.5,-880.5 43.5,-880.5"/>
<text text-anchor="start" x="50.5" y="-891.9" font-family="Arial" font-size="14.00" fill="#000000">TaxAmt    </text>
<text text-anchor="start" x="132.9278" y="-891.9" font-family="Arial" font-size="14.00" fill="#666666">[money]</text>
<polygon fill="none" stroke="#000000" points="43.5,-850.5 43.5,-880.5 330.5,-880.5 330.5,-850.5 43.5,-850.5"/>
<text text-anchor="start" x="50.5" y="-861.9" font-family="Arial" font-size="14.00" fill="#000000">Freight    </text>
<text text-anchor="start" x="128.263" y="-861.9" font-family="Arial" font-size="14.00" fill="#666666">[money]</text>
<polygon fill="none" stroke="#000000" points="43.5,-820.5 43.5,-850.5 330.5,-850.5 330.5,-820.5 43.5,-820.5"/>
<text text-anchor="start" x="50.5" y="-831.9" font-family="Arial" font-size="14.00" fill="#000000">CarrierTrackingNumber    </text>
<text text-anchor="start" x="230.9082" y="-831.9" font-family="Arial" font-size="14.00" fill="#666666">[nvarchar(25)]</text>
<polygon fill="none" stroke="#000000" points="43.5,-790.5 43.5,-820.5 330.5,-820.5 330.5,-790.5 43.5,-790.5"/>
<text text-anchor="start" x="50.5" y="-801.9" font-family="Arial" font-size="14.00" fill="#000000">CustomerPONumber    </text>
<text text-anchor="start" x="215.3738" y="-801.9" font-family="Arial" font-size="14.00" fill="#666666">[nvarchar(25)]</text>
<polygon fill="none" stroke="#000000" points="43.5,-760.5 43.5,-790.5 330.5,-790.5 330.5,-760.5 43.5,-760.5"/>
<text text-anchor="start" x="50.5" y="-771.9" font-family="Arial" font-size="14.00" fill="#000000">OrderDate    </text>
<text text-anchor="start" x="150.0442" y="-771.9" font-family="Arial" font-size="14.00" fill="#666666">[datetime]</text>
<polygon fill="none" stroke="#000000" points="43.5,-730.5 43.5,-760.5 330.5,-760.5 330.5,-730.5 43.5,-730.5"/>
<text text-anchor="start" x="50.5" y="-741.9" font-family="Arial" font-size="14.00" fill="#000000">DueDate    </text>
<text text-anchor="start" x="139.939" y="-741.9" font-family="Arial" font-size="14.00" fill="#666666">[datetime]</text>
<polygon fill="none" stroke="#000000" points="43.5,-700.5 43.5,-730.5 330.5,-730.5 330.5,-700.5 43.5,-700.5"/>
<text text-anchor="start" x="50.5" y="-711.9" font-family="Arial" font-size="14.00" fill="#000000">ShipDate    </text>
<text text-anchor="start" x="142.2756" y="-711.9" font-family="Arial" font-size="14.00" fill="#666666">[datetime]</text>
</g>
<!-- FactInternetSales&#45;&gt;DimPromotion -->
<g id="edge1" class="edge">
<title>FactInternetSales:PromotionKey&#45;&gt;DimPromotion:PromotionKey</title>
<path fill="none" stroke="#000000" d="M340.059,-1311.7008C400.0834,-1260.9847 364.8071,-718.593 330.5,-658 308.7936,-619.6624 267.2064,-645.3376 245.5,-607 224.3687,-569.6781 202.6111,-510.5 245.5,-510.5"/>
<polygon fill="#000000" stroke="#000000" points="339.7929,-1311.8065 328.8379,-1311.3182 335.1465,-1313.6532 330.5,-1315.5 330.5,-1315.5 330.5,-1315.5 335.1465,-1313.6532 332.1621,-1319.6818 339.7929,-1311.8065 339.7929,-1311.8065"/>
</g>
<!-- FactResellerSales -->
<g id="node3" class="node">
<title>FactResellerSales</title>
<polygon fill="#efefef" stroke="transparent" points="434.5,-1495.5 434.5,-1530.5 726.5,-1530.5 726.5,-1495.5 434.5,-1495.5"/>
<polygon fill="none" stroke="#000000" points="434.5,-1495.5 434.5,-1530.5 726.5,-1530.5 726.5,-1495.5 434.5,-1495.5"/>
<text text-anchor="start" x="441.3813" y="-1508.3" font-family="Arial Bold" font-size="18.00" fill="#000000">FactResellerSales</text>
<text text-anchor="start" x="587.3901" y="-1508.3" font-family="Arial" font-size="14.00" fill="#000000">    </text>
<text text-anchor="start" x="621.5949" y="-1508.3" font-family="Arial" font-size="14.00" fill="#666666">[BASIC TABLE]</text>
<polygon fill="none" stroke="#000000" points="434.5,-1465.5 434.5,-1495.5 726.5,-1495.5 726.5,-1465.5 434.5,-1465.5"/>
<text text-anchor="start" x="441.5" y="-1476.9" font-family="Arial" font-size="14.00" fill="#000000">ProductKey    </text>
<text text-anchor="start" x="548.0596" y="-1476.9" font-family="Arial" font-size="14.00" fill="#666666">[int]</text>
<polygon fill="none" stroke="#000000" points="434.5,-1435.5 434.5,-1465.5 726.5,-1465.5 726.5,-1435.5 434.5,-1435.5"/>
<text text-anchor="start" x="441.5" y="-1446.9" font-family="Arial" font-size="14.00" fill="#000000">OrderDateKey    </text>
<text text-anchor="start" x="565.1634" y="-1446.9" font-family="Arial" font-size="14.00" fill="#666666">[int]</text>
<polygon fill="none" stroke="#000000" points="434.5,-1405.5 434.5,-1435.5 726.5,-1435.5 726.5,-1405.5 434.5,-1405.5"/>
<text text-anchor="start" x="441.5" y="-1416.9" font-family="Arial" font-size="14.00" fill="#000000">DueDateKey    </text>
<text text-anchor="start" x="555.0582" y="-1416.9" font-family="Arial" font-size="14.00" fill="#666666">[int]</text>
<polygon fill="none" stroke="#000000" points="434.5,-1375.5 434.5,-1405.5 726.5,-1405.5 726.5,-1375.5 434.5,-1375.5"/>
<text text-anchor="start" x="441.5" y="-1386.9" font-family="Arial" font-size="14.00" fill="#000000">ShipDateKey    </text>
<text text-anchor="start" x="557.3948" y="-1386.9" font-family="Arial" font-size="14.00" fill="#666666">[int]</text>
<polygon fill="none" stroke="#000000" points="434.5,-1345.5 434.5,-1375.5 726.5,-1375.5 726.5,-1345.5 434.5,-1345.5"/>
<text text-anchor="start" x="441.5" y="-1356.9" font-family="Arial" font-size="14.00" fill="#000000">ResellerKey    </text>
<text text-anchor="start" x="551.1522" y="-1356.9" font-family="Arial" font-size="14.00" fill="#666666">[int]</text>
<polygon fill="none" stroke="#000000" points="434.5,-1315.5 434.5,-1345.5 726.5,-1345.5 726.5,-1315.5 434.5,-1315.5"/>
<text text-anchor="start" x="441.5" y="-1326.9" font-family="Arial" font-size="14.00" fill="#000000">EmployeeKey    </text>
<text text-anchor="start" x="562.0582" y="-1326.9" font-family="Arial" font-size="14.00" fill="#666666">[int]</text>
<polygon fill="none" stroke="#000000" points="434.5,-1285.5 434.5,-1315.5 726.5,-1315.5 726.5,-1285.5 434.5,-1285.5"/>
<text text-anchor="start" x="441.5" y="-1296.9" font-family="Arial" font-size="14.00" fill="#000000">PromotionKey    </text>
<text text-anchor="start" x="563.6094" y="-1296.9" font-family="Arial" font-size="14.00" fill="#666666">[int]</text>
<polygon fill="none" stroke="#000000" points="434.5,-1255.5 434.5,-1285.5 726.5,-1285.5 726.5,-1255.5 434.5,-1255.5"/>
<text text-anchor="start" x="441.5" y="-1266.9" font-family="Arial" font-size="14.00" fill="#000000">CurrencyKey    </text>
<text text-anchor="start" x="556.5996" y="-1266.9" font-family="Arial" font-size="14.00" fill="#666666">[int]</text>
<polygon fill="none" stroke="#000000" points="434.5,-1225.5 434.5,-1255.5 726.5,-1255.5 726.5,-1225.5 434.5,-1225.5"/>
<text text-anchor="start" x="441.5" y="-1236.9" font-family="Arial" font-size="14.00" fill="#000000">SalesTerritoryKey    </text>
<text text-anchor="start" x="586.9292" y="-1236.9" font-family="Arial" font-size="14.00" fill="#666666">[int]</text>
<polygon fill="none" stroke="#000000" points="434.5,-1195.5 434.5,-1225.5 726.5,-1225.5 726.5,-1195.5 434.5,-1195.5"/>
<text text-anchor="start" x="441.5" y="-1206.9" font-family="Arial" font-size="14.00" fill="#000000">SalesOrderNumber    </text>
<text text-anchor="start" x="596.2658" y="-1206.9" font-family="Arial" font-size="14.00" fill="#666666">[nvarchar(20)]</text>
<polygon fill="none" stroke="#000000" points="434.5,-1165.5 434.5,-1195.5 726.5,-1195.5 726.5,-1165.5 434.5,-1165.5"/>
<text text-anchor="start" x="441.5" y="-1176.9" font-family="Arial" font-size="14.00" fill="#000000">SalesOrderLineNumber    </text>
<text text-anchor="start" x="622.7202" y="-1176.9" font-family="Arial" font-size="14.00" fill="#666666">[tinyint]</text>
<polygon fill="none" stroke="#000000" points="434.5,-1135.5 434.5,-1165.5 726.5,-1165.5 726.5,-1135.5 434.5,-1135.5"/>
<text text-anchor="start" x="441.5" y="-1146.9" font-family="Arial" font-size="14.00" fill="#000000">RevisionNumber    </text>
<text text-anchor="start" x="579.148" y="-1146.9" font-family="Arial" font-size="14.00" fill="#666666">[tinyint]</text>
<polygon fill="none" stroke="#000000" points="434.5,-1105.5 434.5,-1135.5 726.5,-1135.5 726.5,-1105.5 434.5,-1105.5"/>
<text text-anchor="start" x="441.5" y="-1116.9" font-family="Arial" font-size="14.00" fill="#000000">OrderQuantity    </text>
<text text-anchor="start" x="563.608" y="-1116.9" font-family="Arial" font-size="14.00" fill="#666666">[smallint]</text>
<polygon fill="none" stroke="#000000" points="434.5,-1075.5 434.5,-1105.5 726.5,-1105.5 726.5,-1075.5 434.5,-1075.5"/>
<text text-anchor="start" x="441.5" y="-1086.9" font-family="Arial" font-size="14.00" fill="#000000">UnitPrice    </text>
<text text-anchor="start" x="532.4776" y="-1086.9" font-family="Arial" font-size="14.00" fill="#666666">[money]</text>
<polygon fill="none" stroke="#000000" points="434.5,-1045.5 434.5,-1075.5 726.5,-1075.5 726.5,-1045.5 434.5,-1045.5"/>
<text text-anchor="start" x="441.5" y="-1056.9" font-family="Arial" font-size="14.00" fill="#000000">ExtendedAmount    </text>
<text text-anchor="start" x="583.0806" y="-1056.9" font-family="Arial" font-size="14.00" fill="#666666">[money]</text>
<polygon fill="none" stroke="#000000" points="434.5,-1015.5 434.5,-1045.5 726.5,-1045.5 726.5,-1015.5 434.5,-1015.5"/>
<text text-anchor="start" x="441.5" y="-1026.9" font-family="Arial" font-size="14.00" fill="#000000">UnitPriceDiscountPct    </text>
<text text-anchor="start" x="607.1564" y="-1026.9" font-family="Arial" font-size="14.00" fill="#666666">[float]</text>
<polygon fill="none" stroke="#000000" points="434.5,-985.5 434.5,-1015.5 726.5,-1015.5 726.5,-985.5 434.5,-985.5"/>
<text text-anchor="start" x="441.5" y="-996.9" font-family="Arial" font-size="14.00" fill="#000000">DiscountAmount    </text>
<text text-anchor="start" x="578.392" y="-996.9" font-family="Arial" font-size="14.00" fill="#666666">[float]</text>
<polygon fill="none" stroke="#000000" points="434.5,-955.5 434.5,-985.5 726.5,-985.5 726.5,-955.5 434.5,-955.5"/>
<text text-anchor="start" x="441.5" y="-966.9" font-family="Arial" font-size="14.00" fill="#000000">ProductStandardCost    </text>
<text text-anchor="start" x="609.521" y="-966.9" font-family="Arial" font-size="14.00" fill="#666666">[money]</text>
<polygon fill="none" stroke="#000000" points="434.5,-925.5 434.5,-955.5 726.5,-955.5 726.5,-925.5 434.5,-925.5"/>
<text text-anchor="start" x="441.5" y="-936.9" font-family="Arial" font-size="14.00" fill="#000000">TotalProductCost    </text>
<text text-anchor="start" x="583.8352" y="-936.9" font-family="Arial" font-size="14.00" fill="#666666">[money]</text>
<polygon fill="none" stroke="#000000" points="434.5,-895.5 434.5,-925.5 726.5,-925.5 726.5,-895.5 434.5,-895.5"/>
<text text-anchor="start" x="441.5" y="-906.9" font-family="Arial" font-size="14.00" fill="#000000">SalesAmount    </text>
<text text-anchor="start" x="558.9488" y="-906.9" font-family="Arial" font-size="14.00" fill="#666666">[money]</text>
<polygon fill="none" stroke="#000000" points="434.5,-865.5 434.5,-895.5 726.5,-895.5 726.5,-865.5 434.5,-865.5"/>
<text text-anchor="start" x="441.5" y="-876.9" font-family="Arial" font-size="14.00" fill="#000000">TaxAmt    </text>
<text text-anchor="start" x="523.9278" y="-876.9" font-family="Arial" font-size="14.00" fill="#666666">[money]</text>
<polygon fill="none" stroke="#000000" points="434.5,-835.5 434.5,-865.5 726.5,-865.5 726.5,-835.5 434.5,-835.5"/>
<text text-anchor="start" x="441.5" y="-846.9" font-family="Arial" font-size="14.00" fill="#000000">Freight    </text>
<text text-anchor="start" x="519.263" y="-846.9" font-family="Arial" font-size="14.00" fill="#666666">[money]</text>
<polygon fill="none" stroke="#000000" points="434.5,-805.5 434.5,-835.5 726.5,-835.5 726.5,-805.5 434.5,-805.5"/>
<text text-anchor="start" x="441.5" y="-816.9" font-family="Arial" font-size="14.00" fill="#000000">CarrierTrackingNumber    </text>
<text text-anchor="start" x="621.9082" y="-816.9" font-family="Arial" font-size="14.00" fill="#666666">[nvarchar(25)]</text>
<polygon fill="none" stroke="#000000" points="434.5,-775.5 434.5,-805.5 726.5,-805.5 726.5,-775.5 434.5,-775.5"/>
<text text-anchor="start" x="441.5" y="-786.9" font-family="Arial" font-size="14.00" fill="#000000">CustomerPONumber    </text>
<text text-anchor="start" x="606.3738" y="-786.9" font-family="Arial" font-size="14.00" fill="#666666">[nvarchar(25)]</text>
<polygon fill="none" stroke="#000000" points="434.5,-745.5 434.5,-775.5 726.5,-775.5 726.5,-745.5 434.5,-745.5"/>
<text text-anchor="start" x="441.5" y="-756.9" font-family="Arial" font-size="14.00" fill="#000000">OrderDate    </text>
<text text-anchor="start" x="541.0442" y="-756.9" font-family="Arial" font-size="14.00" fill="#666666">[datetime]</text>
<polygon fill="none" stroke="#000000" points="434.5,-715.5 434.5,-745.5 726.5,-745.5 726.5,-715.5 434.5,-715.5"/>
<text text-anchor="start" x="441.5" y="-726.9" font-family="Arial" font-size="14.00" fill="#000000">DueDate    </text>
<text text-anchor="start" x="530.939" y="-726.9" font-family="Arial" font-size="14.00" fill="#666666">[datetime]</text>
<polygon fill="none" stroke="#000000" points="434.5,-685.5 434.5,-715.5 726.5,-715.5 726.5,-685.5 434.5,-685.5"/>
<text text-anchor="start" x="441.5" y="-696.9" font-family="Arial" font-size="14.00" fill="#000000">ShipDate    </text>
<text text-anchor="start" x="533.2756" y="-696.9" font-family="Arial" font-size="14.00" fill="#666666">[datetime]</text>
</g>
<!-- FactResellerSales&#45;&gt;DimPromotion -->
<g id="edge2" class="edge">
<title>FactResellerSales:PromotionKey&#45;&gt;DimPromotion:PromotionKey</title>
<path fill="none" stroke="#000000" d="M424.9121,-1296.6829C364.5052,-1245.7312 395.8047,-700.8892 434.5,-643 457.7548,-608.2103 498.2452,-641.7897 521.5,-607 545.3342,-571.3435 564.3889,-510.5 521.5,-510.5"/>
<polygon fill="#000000" stroke="#000000" points="425.2092,-1296.8012 432.8355,-1304.6809 429.8546,-1298.6506 434.5,-1300.5 434.5,-1300.5 434.5,-1300.5 429.8546,-1298.6506 436.1645,-1296.3191 425.2092,-1296.8012 425.2092,-1296.8012"/>
</g>
</g>
</svg>
