<?xml version="1.0" encoding="UTF-8" standalone="no"?>
<!DOCTYPE svg PUBLIC "-//W3C//DTD SVG 1.1//EN"
 "http://www.w3.org/Graphics/SVG/1.1/DTD/svg11.dtd">
<!-- Generated by graphviz version 2.40.1 (20161225.0304)
 -->
<!-- Title: DimProductSubcategory Pages: 1 -->
<svg width="441pt" height="1859pt"
 viewBox="0.00 0.00 441.00 1859.00" xmlns="http://www.w3.org/2000/svg" xmlns:xlink="http://www.w3.org/1999/xlink">
<g id="graph0" class="graph" transform="scale(1 1) rotate(0) translate(4 1855)">
<title>DimProductSubcategory</title>
<polygon fill="#ffffff" stroke="transparent" points="-4,4 -4,-1855 437,-1855 437,4 -4,4"/>
<!-- DimProductSubcategory -->
<g id="node1" class="node">
<title>DimProductSubcategory</title>
<polygon fill="#efefef" stroke="transparent" points="46.5,-532.5 46.5,-567.5 387.5,-567.5 387.5,-532.5 46.5,-532.5"/>
<polygon fill="none" stroke="#000000" points="46.5,-532.5 46.5,-567.5 387.5,-567.5 387.5,-532.5 46.5,-532.5"/>
<text text-anchor="start" x="53.3689" y="-545.3" font-family="Arial Bold" font-size="18.00" fill="#000000">DimProductSubcategory</text>
<text text-anchor="start" x="248.4025" y="-545.3" font-family="Arial" font-size="14.00" fill="#000000">    </text>
<text text-anchor="start" x="282.6073" y="-545.3" font-family="Arial" font-size="14.00" fill="#666666">[BASIC TABLE]</text>
<polygon fill="none" stroke="#000000" points="46.5,-502.5 46.5,-532.5 387.5,-532.5 387.5,-502.5 46.5,-502.5"/>
<text text-anchor="start" x="53.5" y="-513.9" font-family="Arial" font-size="14.00" fill="#000000">ProductSubcategoryKey </text>
<text text-anchor="start" x="208.3288" y="-513.9" font-family="Arial" font-size="14.00" fill="#666666">[int]</text>
<polygon fill="none" stroke="#000000" points="46.5,-472.5 46.5,-502.5 387.5,-502.5 387.5,-472.5 46.5,-472.5"/>
<text text-anchor="start" x="53.5" y="-483.9" font-family="Arial" font-size="14.00" fill="#000000">ProductSubcategoryAlternateKey </text>
<text text-anchor="start" x="264.3442" y="-483.9" font-family="Arial" font-size="14.00" fill="#666666">[int]</text>
<polygon fill="none" stroke="#000000" points="46.5,-442.5 46.5,-472.5 387.5,-472.5 387.5,-442.5 46.5,-442.5"/>
<text text-anchor="start" x="53.5" y="-453.9" font-family="Arial" font-size="14.00" fill="#000000">EnglishProductSubcategoryName </text>
<text text-anchor="start" x="267.4396" y="-453.9" font-family="Arial" font-size="14.00" fill="#666666">[nvarchar(50)]</text>
<polygon fill="none" stroke="#000000" points="46.5,-412.5 46.5,-442.5 387.5,-442.5 387.5,-412.5 46.5,-412.5"/>
<text text-anchor="start" x="53.5" y="-423.9" font-family="Arial" font-size="14.00" fill="#000000">SpanishProductSubcategoryName </text>
<text text-anchor="start" x="272.1156" y="-423.9" font-family="Arial" font-size="14.00" fill="#666666">[nvarchar(50)]</text>
<polygon fill="none" stroke="#000000" points="46.5,-382.5 46.5,-412.5 387.5,-412.5 387.5,-382.5 46.5,-382.5"/>
<text text-anchor="start" x="53.5" y="-393.9" font-family="Arial" font-size="14.00" fill="#000000">FrenchProductSubcategoryName </text>
<text text-anchor="start" x="265.103" y="-393.9" font-family="Arial" font-size="14.00" fill="#666666">[nvarchar(50)]</text>
<polygon fill="none" stroke="#000000" points="46.5,-352.5 46.5,-382.5 387.5,-382.5 387.5,-352.5 46.5,-352.5"/>
<text text-anchor="start" x="53.5" y="-363.9" font-family="Arial" font-size="14.00" fill="#000000">ProductCategoryKey </text>
<text text-anchor="start" x="186.5336" y="-363.9" font-family="Arial" font-size="14.00" fill="#666666">[int]</text>
<polygon fill="none" stroke="#000000" stroke-width="3" points="44.5,-351.5 44.5,-569.5 388.5,-569.5 388.5,-351.5 44.5,-351.5"/>
</g>
<!-- DimProductCategory -->
<g id="node3" class="node">
<title>DimProductCategory</title>
<polygon fill="#efefef" stroke="transparent" points="53.5,-192.5 53.5,-227.5 381.5,-227.5 381.5,-192.5 53.5,-192.5"/>
<polygon fill="none" stroke="#000000" points="53.5,-192.5 53.5,-227.5 381.5,-227.5 381.5,-192.5 53.5,-192.5"/>
<text text-anchor="start" x="67.8801" y="-205.3" font-family="Arial Bold" font-size="18.00" fill="#000000">DimProductCategory</text>
<text text-anchor="start" x="234.8913" y="-205.3" font-family="Arial" font-size="14.00" fill="#000000">    </text>
<text text-anchor="start" x="269.0961" y="-205.3" font-family="Arial" font-size="14.00" fill="#666666">[BASIC TABLE]</text>
<polygon fill="none" stroke="#000000" points="53.5,-162.5 53.5,-192.5 381.5,-192.5 381.5,-162.5 53.5,-162.5"/>
<text text-anchor="start" x="60.5" y="-173.9" font-family="Arial" font-size="14.00" fill="#000000">ProductCategoryKey    </text>
<text text-anchor="start" x="223.8478" y="-173.9" font-family="Arial" font-size="14.00" fill="#666666">[int]</text>
<polygon fill="none" stroke="#000000" points="53.5,-132.5 53.5,-162.5 381.5,-162.5 381.5,-132.5 53.5,-132.5"/>
<text text-anchor="start" x="60.5" y="-143.9" font-family="Arial" font-size="14.00" fill="#000000">ProductCategoryAlternateKey    </text>
<text text-anchor="start" x="279.8632" y="-143.9" font-family="Arial" font-size="14.00" fill="#666666">[int]</text>
<polygon fill="none" stroke="#000000" points="53.5,-102.5 53.5,-132.5 381.5,-132.5 381.5,-102.5 53.5,-102.5"/>
<text text-anchor="start" x="60.5" y="-113.9" font-family="Arial" font-size="14.00" fill="#000000">EnglishProductCategoryName    </text>
<text text-anchor="start" x="282.9586" y="-113.9" font-family="Arial" font-size="14.00" fill="#666666">[nvarchar(50)]</text>
<polygon fill="none" stroke="#000000" points="53.5,-72.5 53.5,-102.5 381.5,-102.5 381.5,-72.5 53.5,-72.5"/>
<text text-anchor="start" x="60.3731" y="-83.9" font-family="Arial" font-size="14.00" fill="#000000">SpanishProductCategoryName    </text>
<text text-anchor="start" x="287.5077" y="-83.9" font-family="Arial" font-size="14.00" fill="#666666">[nvarchar(50)]</text>
<polygon fill="none" stroke="#000000" points="53.5,-42.5 53.5,-72.5 381.5,-72.5 381.5,-42.5 53.5,-42.5"/>
<text text-anchor="start" x="60.5" y="-53.9" font-family="Arial" font-size="14.00" fill="#000000">FrenchProductCategoryName    </text>
<text text-anchor="start" x="280.622" y="-53.9" font-family="Arial" font-size="14.00" fill="#666666">[nvarchar(50)]</text>
</g>
<!-- DimProductSubcategory&#45;&gt;DimProductCategory -->
<g id="edge2" class="edge">
<title>DimProductSubcategory:ProductCategoryKey&#45;&gt;DimProductCategory:ProductCategoryKey</title>
<path fill="none" stroke="#000000" d="M216.7848,-342.4158C206.7756,-277.0341 94.4494,-337.0769 53.5,-271 31.6098,-235.6774 11.9444,-177.5 53.5,-177.5"/>
<polygon fill="#000000" stroke="#000000" points="216.7925,-342.5251 213.0113,-352.8184 217.1462,-347.5125 217.5,-352.5 217.5,-352.5 217.5,-352.5 217.1462,-347.5125 221.9887,-352.1816 216.7925,-342.5251 216.7925,-342.5251"/>
</g>
<!-- DimProduct -->
<g id="node2" class="node">
<title>DimProduct</title>
<polygon fill="#efefef" stroke="transparent" points="80.5,-1772.5 80.5,-1807.5 353.5,-1807.5 353.5,-1772.5 80.5,-1772.5"/>
<polygon fill="none" stroke="#000000" points="80.5,-1772.5 80.5,-1807.5 353.5,-1807.5 353.5,-1772.5 80.5,-1772.5"/>
<text text-anchor="start" x="103.8868" y="-1785.3" font-family="Arial Bold" font-size="18.00" fill="#000000">DimProduct</text>
<text text-anchor="start" x="197.8846" y="-1785.3" font-family="Arial" font-size="14.00" fill="#000000">    </text>
<text text-anchor="start" x="232.0894" y="-1785.3" font-family="Arial" font-size="14.00" fill="#666666">[BASIC TABLE]</text>
<polygon fill="none" stroke="#000000" points="80.5,-1742.5 80.5,-1772.5 353.5,-1772.5 353.5,-1742.5 80.5,-1742.5"/>
<text text-anchor="start" x="87.5" y="-1753.9" font-family="Arial" font-size="14.00" fill="#000000">ProductKey    </text>
<text text-anchor="start" x="194.0596" y="-1753.9" font-family="Arial" font-size="14.00" fill="#666666">[int]</text>
<polygon fill="none" stroke="#000000" points="80.5,-1712.5 80.5,-1742.5 353.5,-1742.5 353.5,-1712.5 80.5,-1712.5"/>
<text text-anchor="start" x="87.5" y="-1723.9" font-family="Arial" font-size="14.00" fill="#000000">ProductAlternateKey    </text>
<text text-anchor="start" x="250.075" y="-1723.9" font-family="Arial" font-size="14.00" fill="#666666">[nvarchar(25)]</text>
<polygon fill="none" stroke="#000000" points="80.5,-1682.5 80.5,-1712.5 353.5,-1712.5 353.5,-1682.5 80.5,-1682.5"/>
<text text-anchor="start" x="87.5" y="-1693.9" font-family="Arial" font-size="14.00" fill="#000000">ProductSubcategoryKey    </text>
<text text-anchor="start" x="272.643" y="-1693.9" font-family="Arial" font-size="14.00" fill="#666666">[int]</text>
<polygon fill="none" stroke="#000000" points="80.5,-1652.5 80.5,-1682.5 353.5,-1682.5 353.5,-1652.5 80.5,-1652.5"/>
<text text-anchor="start" x="87.5" y="-1663.9" font-family="Arial" font-size="14.00" fill="#000000">WeightUnitMeasureCode    </text>
<text text-anchor="start" x="278.0568" y="-1663.9" font-family="Arial" font-size="14.00" fill="#666666">[nchar]</text>
<polygon fill="none" stroke="#000000" points="80.5,-1622.5 80.5,-1652.5 353.5,-1652.5 353.5,-1622.5 80.5,-1622.5"/>
<text text-anchor="start" x="87.5" y="-1633.9" font-family="Arial" font-size="14.00" fill="#000000">SizeUnitMeasureCode    </text>
<text text-anchor="start" x="261.723" y="-1633.9" font-family="Arial" font-size="14.00" fill="#666666">[nchar]</text>
<polygon fill="none" stroke="#000000" points="80.5,-1592.5 80.5,-1622.5 353.5,-1622.5 353.5,-1592.5 80.5,-1592.5"/>
<text text-anchor="start" x="87.5" y="-1603.9" font-family="Arial" font-size="14.00" fill="#000000">EnglishProductName    </text>
<text text-anchor="start" x="253.1704" y="-1603.9" font-family="Arial" font-size="14.00" fill="#666666">[nvarchar(50)]</text>
<polygon fill="none" stroke="#000000" points="80.5,-1562.5 80.5,-1592.5 353.5,-1592.5 353.5,-1562.5 80.5,-1562.5"/>
<text text-anchor="start" x="87.5" y="-1573.9" font-family="Arial" font-size="14.00" fill="#000000">SpanishProductName    </text>
<text text-anchor="start" x="257.8464" y="-1573.9" font-family="Arial" font-size="14.00" fill="#666666">[nvarchar(50)]</text>
<polygon fill="none" stroke="#000000" points="80.5,-1532.5 80.5,-1562.5 353.5,-1562.5 353.5,-1532.5 80.5,-1532.5"/>
<text text-anchor="start" x="87.5" y="-1543.9" font-family="Arial" font-size="14.00" fill="#000000">FrenchProductName    </text>
<text text-anchor="start" x="250.8338" y="-1543.9" font-family="Arial" font-size="14.00" fill="#666666">[nvarchar(50)]</text>
<polygon fill="none" stroke="#000000" points="80.5,-1502.5 80.5,-1532.5 353.5,-1532.5 353.5,-1502.5 80.5,-1502.5"/>
<text text-anchor="start" x="87.5" y="-1513.9" font-family="Arial" font-size="14.00" fill="#000000">StandardCost    </text>
<text text-anchor="start" x="207.2854" y="-1513.9" font-family="Arial" font-size="14.00" fill="#666666">[money]</text>
<polygon fill="none" stroke="#000000" points="80.5,-1472.5 80.5,-1502.5 353.5,-1502.5 353.5,-1472.5 80.5,-1472.5"/>
<text text-anchor="start" x="87.5" y="-1483.9" font-family="Arial" font-size="14.00" fill="#000000">FinishedGoodsFlag    </text>
<text text-anchor="start" x="243.0638" y="-1483.9" font-family="Arial" font-size="14.00" fill="#666666">[bit]</text>
<polygon fill="none" stroke="#000000" points="80.5,-1442.5 80.5,-1472.5 353.5,-1472.5 353.5,-1442.5 80.5,-1442.5"/>
<text text-anchor="start" x="87.5" y="-1453.9" font-family="Arial" font-size="14.00" fill="#000000">Color    </text>
<text text-anchor="start" x="155.1438" y="-1453.9" font-family="Arial" font-size="14.00" fill="#666666">[nvarchar(15)]</text>
<polygon fill="none" stroke="#000000" points="80.5,-1412.5 80.5,-1442.5 353.5,-1442.5 353.5,-1412.5 80.5,-1412.5"/>
<text text-anchor="start" x="87.5" y="-1423.9" font-family="Arial" font-size="14.00" fill="#000000">SafetyStockLevel    </text>
<text text-anchor="start" x="229.852" y="-1423.9" font-family="Arial" font-size="14.00" fill="#666666">[smallint]</text>
<polygon fill="none" stroke="#000000" points="80.5,-1382.5 80.5,-1412.5 353.5,-1412.5 353.5,-1382.5 80.5,-1382.5"/>
<text text-anchor="start" x="87.5" y="-1393.9" font-family="Arial" font-size="14.00" fill="#000000">ReorderPoint    </text>
<text text-anchor="start" x="204.162" y="-1393.9" font-family="Arial" font-size="14.00" fill="#666666">[smallint]</text>
<polygon fill="none" stroke="#000000" points="80.5,-1352.5 80.5,-1382.5 353.5,-1382.5 353.5,-1352.5 80.5,-1352.5"/>
<text text-anchor="start" x="87.5" y="-1363.9" font-family="Arial" font-size="14.00" fill="#000000">ListPrice    </text>
<text text-anchor="start" x="175.371" y="-1363.9" font-family="Arial" font-size="14.00" fill="#666666">[money]</text>
<polygon fill="none" stroke="#000000" points="80.5,-1322.5 80.5,-1352.5 353.5,-1352.5 353.5,-1322.5 80.5,-1322.5"/>
<text text-anchor="start" x="87.5" y="-1333.9" font-family="Arial" font-size="14.00" fill="#000000">Size    </text>
<text text-anchor="start" x="148.9306" y="-1333.9" font-family="Arial" font-size="14.00" fill="#666666">[nvarchar(50)]</text>
<polygon fill="none" stroke="#000000" points="80.5,-1292.5 80.5,-1322.5 353.5,-1322.5 353.5,-1292.5 80.5,-1292.5"/>
<text text-anchor="start" x="87.5" y="-1303.9" font-family="Arial" font-size="14.00" fill="#000000">SizeRange    </text>
<text text-anchor="start" x="190.1676" y="-1303.9" font-family="Arial" font-size="14.00" fill="#666666">[nvarchar(50)]</text>
<polygon fill="none" stroke="#000000" points="80.5,-1262.5 80.5,-1292.5 353.5,-1292.5 353.5,-1262.5 80.5,-1262.5"/>
<text text-anchor="start" x="87.5" y="-1273.9" font-family="Arial" font-size="14.00" fill="#000000">Weight    </text>
<text text-anchor="start" x="165.2644" y="-1273.9" font-family="Arial" font-size="14.00" fill="#666666">[float]</text>
<polygon fill="none" stroke="#000000" points="80.5,-1232.5 80.5,-1262.5 353.5,-1262.5 353.5,-1232.5 80.5,-1232.5"/>
<text text-anchor="start" x="87.5" y="-1243.9" font-family="Arial" font-size="14.00" fill="#000000">DaysToManufacture    </text>
<text text-anchor="start" x="247.7272" y="-1243.9" font-family="Arial" font-size="14.00" fill="#666666">[int]</text>
<polygon fill="none" stroke="#000000" points="80.5,-1202.5 80.5,-1232.5 353.5,-1232.5 353.5,-1202.5 80.5,-1202.5"/>
<text text-anchor="start" x="87.5" y="-1213.9" font-family="Arial" font-size="14.00" fill="#000000">ProductLine    </text>
<text text-anchor="start" x="196.3948" y="-1213.9" font-family="Arial" font-size="14.00" fill="#666666">[nchar]</text>
<polygon fill="none" stroke="#000000" points="80.5,-1172.5 80.5,-1202.5 353.5,-1202.5 353.5,-1172.5 80.5,-1172.5"/>
<text text-anchor="start" x="87.5" y="-1183.9" font-family="Arial" font-size="14.00" fill="#000000">DealerPrice    </text>
<text text-anchor="start" x="194.8128" y="-1183.9" font-family="Arial" font-size="14.00" fill="#666666">[money]</text>
<polygon fill="none" stroke="#000000" points="80.5,-1142.5 80.5,-1172.5 353.5,-1172.5 353.5,-1142.5 80.5,-1142.5"/>
<text text-anchor="start" x="87.5" y="-1153.9" font-family="Arial" font-size="14.00" fill="#000000">Class    </text>
<text text-anchor="start" x="156.7006" y="-1153.9" font-family="Arial" font-size="14.00" fill="#666666">[nchar]</text>
<polygon fill="none" stroke="#000000" points="80.5,-1112.5 80.5,-1142.5 353.5,-1142.5 353.5,-1112.5 80.5,-1112.5"/>
<text text-anchor="start" x="87.5" y="-1123.9" font-family="Arial" font-size="14.00" fill="#000000">Style    </text>
<text text-anchor="start" x="152.8212" y="-1123.9" font-family="Arial" font-size="14.00" fill="#666666">[nchar]</text>
<polygon fill="none" stroke="#000000" points="80.5,-1082.5 80.5,-1112.5 353.5,-1112.5 353.5,-1082.5 80.5,-1082.5"/>
<text text-anchor="start" x="87.5" y="-1093.9" font-family="Arial" font-size="14.00" fill="#000000">ModelName    </text>
<text text-anchor="start" x="197.1522" y="-1093.9" font-family="Arial" font-size="14.00" fill="#666666">[nvarchar(50)]</text>
<polygon fill="none" stroke="#000000" points="80.5,-1052.5 80.5,-1082.5 353.5,-1082.5 353.5,-1052.5 80.5,-1052.5"/>
<text text-anchor="start" x="87.5" y="-1063.9" font-family="Arial" font-size="14.00" fill="#000000">LargePhoto    </text>
<text text-anchor="start" x="194.0708" y="-1063.9" font-family="Arial" font-size="14.00" fill="#666666">[varbinary(MAX)]</text>
<polygon fill="none" stroke="#000000" points="80.5,-1022.5 80.5,-1052.5 353.5,-1052.5 353.5,-1022.5 80.5,-1022.5"/>
<text text-anchor="start" x="87.5" y="-1033.9" font-family="Arial" font-size="14.00" fill="#000000">EnglishDescription    </text>
<text text-anchor="start" x="237.6038" y="-1033.9" font-family="Arial" font-size="14.00" fill="#666666">[nvarchar(400)]</text>
<polygon fill="none" stroke="#000000" points="80.5,-992.5 80.5,-1022.5 353.5,-1022.5 353.5,-992.5 80.5,-992.5"/>
<text text-anchor="start" x="87.5" y="-1003.9" font-family="Arial" font-size="14.00" fill="#000000">FrenchDescription    </text>
<text text-anchor="start" x="235.2672" y="-1003.9" font-family="Arial" font-size="14.00" fill="#666666">[nvarchar(400)]</text>
<polygon fill="none" stroke="#000000" points="80.5,-962.5 80.5,-992.5 353.5,-992.5 353.5,-962.5 80.5,-962.5"/>
<text text-anchor="start" x="87.5" y="-973.9" font-family="Arial" font-size="14.00" fill="#000000">ChineseDescription    </text>
<text text-anchor="start" x="243.0498" y="-973.9" font-family="Arial" font-size="14.00" fill="#666666">[nvarchar(400)]</text>
<polygon fill="none" stroke="#000000" points="80.5,-932.5 80.5,-962.5 353.5,-962.5 353.5,-932.5 80.5,-932.5"/>
<text text-anchor="start" x="87.5" y="-943.9" font-family="Arial" font-size="14.00" fill="#000000">ArabicDescription    </text>
<text text-anchor="start" x="231.3752" y="-943.9" font-family="Arial" font-size="14.00" fill="#666666">[nvarchar(400)]</text>
<polygon fill="none" stroke="#000000" points="80.5,-902.5 80.5,-932.5 353.5,-932.5 353.5,-902.5 80.5,-902.5"/>
<text text-anchor="start" x="87.5" y="-913.9" font-family="Arial" font-size="14.00" fill="#000000">HebrewDescription    </text>
<text text-anchor="start" x="239.9278" y="-913.9" font-family="Arial" font-size="14.00" fill="#666666">[nvarchar(400)]</text>
<polygon fill="none" stroke="#000000" points="80.5,-872.5 80.5,-902.5 353.5,-902.5 353.5,-872.5 80.5,-872.5"/>
<text text-anchor="start" x="87.5" y="-883.9" font-family="Arial" font-size="14.00" fill="#000000">ThaiDescription    </text>
<text text-anchor="start" x="218.9306" y="-883.9" font-family="Arial" font-size="14.00" fill="#666666">[nvarchar(400)]</text>
<polygon fill="none" stroke="#000000" points="80.5,-842.5 80.5,-872.5 353.5,-872.5 353.5,-842.5 80.5,-842.5"/>
<text text-anchor="start" x="87.5" y="-853.9" font-family="Arial" font-size="14.00" fill="#000000">GermanDescription    </text>
<text text-anchor="start" x="242.2658" y="-853.9" font-family="Arial" font-size="14.00" fill="#666666">[nvarchar(400)]</text>
<polygon fill="none" stroke="#000000" points="80.5,-812.5 80.5,-842.5 353.5,-842.5 353.5,-812.5 80.5,-812.5"/>
<text text-anchor="start" x="87.0982" y="-823.9" font-family="Arial" font-size="14.00" fill="#000000">JapaneseDescription    </text>
<text text-anchor="start" x="252" y="-823.9" font-family="Arial" font-size="14.00" fill="#666666">[nvarchar(400)]</text>
<polygon fill="none" stroke="#000000" points="80.5,-782.5 80.5,-812.5 353.5,-812.5 353.5,-782.5 80.5,-782.5"/>
<text text-anchor="start" x="87.5" y="-793.9" font-family="Arial" font-size="14.00" fill="#000000">TurkishDescription    </text>
<text text-anchor="start" x="237.5912" y="-793.9" font-family="Arial" font-size="14.00" fill="#666666">[nvarchar(400)]</text>
<polygon fill="none" stroke="#000000" points="80.5,-752.5 80.5,-782.5 353.5,-782.5 353.5,-752.5 80.5,-752.5"/>
<text text-anchor="start" x="87.5" y="-763.9" font-family="Arial" font-size="14.00" fill="#000000">StartDate    </text>
<text text-anchor="start" x="180.8282" y="-763.9" font-family="Arial" font-size="14.00" fill="#666666">[datetime]</text>
<polygon fill="none" stroke="#000000" points="80.5,-722.5 80.5,-752.5 353.5,-752.5 353.5,-722.5 80.5,-722.5"/>
<text text-anchor="start" x="87.5" y="-733.9" font-family="Arial" font-size="14.00" fill="#000000">EndDate    </text>
<text text-anchor="start" x="176.169" y="-733.9" font-family="Arial" font-size="14.00" fill="#666666">[datetime]</text>
<polygon fill="none" stroke="#000000" points="80.5,-692.5 80.5,-722.5 353.5,-722.5 353.5,-692.5 80.5,-692.5"/>
<text text-anchor="start" x="87.5" y="-703.9" font-family="Arial" font-size="14.00" fill="#000000">Status    </text>
<text text-anchor="start" x="161.3878" y="-703.9" font-family="Arial" font-size="14.00" fill="#666666">[nvarchar(7)]</text>
</g>
<!-- DimProduct&#45;&gt;DimProductSubcategory -->
<g id="edge1" class="edge">
<title>DimProduct:ProductSubcategoryKey&#45;&gt;DimProductSubcategory:ProductSubcategoryKey</title>
<path fill="none" stroke="#000000" d="M72.4102,-1691.4325C12.2374,-1600.4792 -16.3288,-517.5 46.5,-517.5"/>
<polygon fill="#000000" stroke="#000000" points="72.5001,-1691.4999 77.7999,-1701.1 76.5,-1694.4999 80.5,-1697.5 80.5,-1697.5 80.5,-1697.5 76.5,-1694.4999 83.2001,-1693.9 72.5001,-1691.4999 72.5001,-1691.4999"/>
</g>
</g>
</svg>
