<?xml version="1.0" encoding="UTF-8" standalone="no"?>
<!DOCTYPE svg PUBLIC "-//W3C//DTD SVG 1.1//EN"
 "http://www.w3.org/Graphics/SVG/1.1/DTD/svg11.dtd">
<!-- Generated by graphviz version 2.40.1 (20161225.0304)
 -->
<!-- Title: DimProductCategory Pages: 1 -->
<svg width="444pt" height="622pt"
 viewBox="0.00 0.00 444.00 622.00" xmlns="http://www.w3.org/2000/svg" xmlns:xlink="http://www.w3.org/1999/xlink">
<g id="graph0" class="graph" transform="scale(1 1) rotate(0) translate(4 618)">
<title>DimProductCategory</title>
<polygon fill="#ffffff" stroke="transparent" points="-4,4 -4,-618 440,-618 440,4 -4,4"/>
<!-- DimProductCategory -->
<g id="node1" class="node">
<title>DimProductCategory</title>
<polygon fill="#efefef" stroke="transparent" points="61,-195.5 61,-230.5 374,-230.5 374,-195.5 61,-195.5"/>
<polygon fill="none" stroke="#000000" points="61,-195.5 61,-230.5 374,-230.5 374,-195.5 61,-195.5"/>
<text text-anchor="start" x="67.8801" y="-208.3" font-family="Arial Bold" font-size="18.00" fill="#000000">DimProductCategory</text>
<text text-anchor="start" x="234.8913" y="-208.3" font-family="Arial" font-size="14.00" fill="#000000">    </text>
<text text-anchor="start" x="269.0961" y="-208.3" font-family="Arial" font-size="14.00" fill="#666666">[BASIC TABLE]</text>
<polygon fill="none" stroke="#000000" points="61,-165.5 61,-195.5 374,-195.5 374,-165.5 61,-165.5"/>
<text text-anchor="start" x="68" y="-176.9" font-family="Arial" font-size="14.00" fill="#000000">ProductCategoryKey </text>
<text text-anchor="start" x="201.0336" y="-176.9" font-family="Arial" font-size="14.00" fill="#666666">[int]</text>
<polygon fill="none" stroke="#000000" points="61,-135.5 61,-165.5 374,-165.5 374,-135.5 61,-135.5"/>
<text text-anchor="start" x="68" y="-146.9" font-family="Arial" font-size="14.00" fill="#000000">ProductCategoryAlternateKey </text>
<text text-anchor="start" x="257.049" y="-146.9" font-family="Arial" font-size="14.00" fill="#666666">[int]</text>
<polygon fill="none" stroke="#000000" points="61,-105.5 61,-135.5 374,-135.5 374,-105.5 61,-105.5"/>
<text text-anchor="start" x="68" y="-116.9" font-family="Arial" font-size="14.00" fill="#000000">EnglishProductCategoryName </text>
<text text-anchor="start" x="260.1444" y="-116.9" font-family="Arial" font-size="14.00" fill="#666666">[nvarchar(50)]</text>
<polygon fill="none" stroke="#000000" points="61,-75.5 61,-105.5 374,-105.5 374,-75.5 61,-75.5"/>
<text text-anchor="start" x="68" y="-86.9" font-family="Arial" font-size="14.00" fill="#000000">SpanishProductCategoryName </text>
<text text-anchor="start" x="264.8204" y="-86.9" font-family="Arial" font-size="14.00" fill="#666666">[nvarchar(50)]</text>
<polygon fill="none" stroke="#000000" points="61,-45.5 61,-75.5 374,-75.5 374,-45.5 61,-45.5"/>
<text text-anchor="start" x="68" y="-56.9" font-family="Arial" font-size="14.00" fill="#000000">FrenchProductCategoryName </text>
<text text-anchor="start" x="257.8078" y="-56.9" font-family="Arial" font-size="14.00" fill="#666666">[nvarchar(50)]</text>
<polygon fill="none" stroke="#000000" stroke-width="3" points="59,-44.5 59,-232.5 375,-232.5 375,-44.5 59,-44.5"/>
</g>
<!-- DimProductSubcategory -->
<g id="node2" class="node">
<title>DimProductSubcategory</title>
<polygon fill="#efefef" stroke="transparent" points="43,-535.5 43,-570.5 393,-570.5 393,-535.5 43,-535.5"/>
<polygon fill="none" stroke="#000000" points="43,-535.5 43,-570.5 393,-570.5 393,-535.5 43,-535.5"/>
<text text-anchor="start" x="54.3689" y="-548.3" font-family="Arial Bold" font-size="18.00" fill="#000000">DimProductSubcategory</text>
<text text-anchor="start" x="249.4025" y="-548.3" font-family="Arial" font-size="14.00" fill="#000000">    </text>
<text text-anchor="start" x="283.6073" y="-548.3" font-family="Arial" font-size="14.00" fill="#666666">[BASIC TABLE]</text>
<polygon fill="none" stroke="#000000" points="43,-505.5 43,-535.5 393,-535.5 393,-505.5 43,-505.5"/>
<text text-anchor="start" x="50" y="-516.9" font-family="Arial" font-size="14.00" fill="#000000">ProductSubcategoryKey    </text>
<text text-anchor="start" x="235.143" y="-516.9" font-family="Arial" font-size="14.00" fill="#666666">[int]</text>
<polygon fill="none" stroke="#000000" points="43,-475.5 43,-505.5 393,-505.5 393,-475.5 43,-475.5"/>
<text text-anchor="start" x="50" y="-486.9" font-family="Arial" font-size="14.00" fill="#000000">ProductSubcategoryAlternateKey    </text>
<text text-anchor="start" x="291.1584" y="-486.9" font-family="Arial" font-size="14.00" fill="#666666">[int]</text>
<polygon fill="none" stroke="#000000" points="43,-445.5 43,-475.5 393,-475.5 393,-445.5 43,-445.5"/>
<text text-anchor="start" x="50" y="-456.9" font-family="Arial" font-size="14.00" fill="#000000">EnglishProductSubcategoryName    </text>
<text text-anchor="start" x="294.2538" y="-456.9" font-family="Arial" font-size="14.00" fill="#666666">[nvarchar(50)]</text>
<polygon fill="none" stroke="#000000" points="43,-415.5 43,-445.5 393,-445.5 393,-415.5 43,-415.5"/>
<text text-anchor="start" x="49.9755" y="-426.9" font-family="Arial" font-size="14.00" fill="#000000">SpanishProductSubcategoryName    </text>
<text text-anchor="start" x="298.9053" y="-426.9" font-family="Arial" font-size="14.00" fill="#666666">[nvarchar(50)]</text>
<polygon fill="none" stroke="#000000" points="43,-385.5 43,-415.5 393,-415.5 393,-385.5 43,-385.5"/>
<text text-anchor="start" x="50" y="-396.9" font-family="Arial" font-size="14.00" fill="#000000">FrenchProductSubcategoryName    </text>
<text text-anchor="start" x="291.9172" y="-396.9" font-family="Arial" font-size="14.00" fill="#666666">[nvarchar(50)]</text>
<polygon fill="none" stroke="#000000" points="43,-355.5 43,-385.5 393,-385.5 393,-355.5 43,-355.5"/>
<text text-anchor="start" x="50" y="-366.9" font-family="Arial" font-size="14.00" fill="#000000">ProductCategoryKey    </text>
<text text-anchor="start" x="213.3478" y="-366.9" font-family="Arial" font-size="14.00" fill="#666666">[int]</text>
</g>
<!-- DimProductSubcategory&#45;&gt;DimProductCategory -->
<g id="edge1" class="edge">
<title>DimProductSubcategory:ProductCategoryKey&#45;&gt;DimProductCategory:ProductCategoryKey</title>
<path fill="none" stroke="#000000" d="M218.7403,-345.4983C228.6436,-283.7068 335.1879,-339.9795 374,-277 396.5013,-240.4877 416.8889,-180.5 374,-180.5"/>
<polygon fill="#000000" stroke="#000000" points="218.7383,-345.5273 213.5123,-355.1678 218.3691,-350.5136 218,-355.5 218,-355.5 218,-355.5 218.3691,-350.5136 222.4877,-355.8322 218.7383,-345.5273 218.7383,-345.5273"/>
</g>
</g>
</svg>
