<?xml version="1.0" encoding="UTF-8" standalone="no"?>
<!DOCTYPE svg PUBLIC "-//W3C//DTD SVG 1.1//EN"
 "http://www.w3.org/Graphics/SVG/1.1/DTD/svg11.dtd">
<!-- Generated by graphviz version 2.40.1 (20161225.0304)
 -->
<!-- Title: DimProduct Pages: 1 -->
<svg width="1199pt" height="2519pt"
 viewBox="0.00 0.00 1198.50 2519.00" xmlns="http://www.w3.org/2000/svg" xmlns:xlink="http://www.w3.org/1999/xlink">
<g id="graph0" class="graph" transform="scale(1 1) rotate(0) translate(4 2515)">
<title>DimProduct</title>
<polygon fill="#ffffff" stroke="transparent" points="-4,4 -4,-2515 1194.5,-2515 1194.5,4 -4,4"/>
<!-- DimProduct -->
<g id="node1" class="node">
<title>DimProduct</title>
<polygon fill="#efefef" stroke="transparent" points="471.5,-1462.5 471.5,-1497.5 714.5,-1497.5 714.5,-1462.5 471.5,-1462.5"/>
<polygon fill="none" stroke="#000000" points="471.5,-1462.5 471.5,-1497.5 714.5,-1497.5 714.5,-1462.5 471.5,-1462.5"/>
<text text-anchor="start" x="479.8868" y="-1475.3" font-family="Arial Bold" font-size="18.00" fill="#000000">DimProduct</text>
<text text-anchor="start" x="573.8846" y="-1475.3" font-family="Arial" font-size="14.00" fill="#000000">    </text>
<text text-anchor="start" x="608.0894" y="-1475.3" font-family="Arial" font-size="14.00" fill="#666666">[BASIC TABLE]</text>
<polygon fill="none" stroke="#000000" points="471.5,-1432.5 471.5,-1462.5 714.5,-1462.5 714.5,-1432.5 471.5,-1432.5"/>
<text text-anchor="start" x="478.5" y="-1443.9" font-family="Arial" font-size="14.00" fill="#000000">ProductKey </text>
<text text-anchor="start" x="554.7454" y="-1443.9" font-family="Arial" font-size="14.00" fill="#666666">[int]</text>
<polygon fill="none" stroke="#000000" points="471.5,-1402.5 471.5,-1432.5 714.5,-1432.5 714.5,-1402.5 471.5,-1402.5"/>
<text text-anchor="start" x="478.5" y="-1413.9" font-family="Arial" font-size="14.00" fill="#000000">ProductAlternateKey </text>
<text text-anchor="start" x="610.7608" y="-1413.9" font-family="Arial" font-size="14.00" fill="#666666">[nvarchar(25)]</text>
<polygon fill="none" stroke="#000000" points="471.5,-1372.5 471.5,-1402.5 714.5,-1402.5 714.5,-1372.5 471.5,-1372.5"/>
<text text-anchor="start" x="478.5" y="-1383.9" font-family="Arial" font-size="14.00" fill="#000000">ProductSubcategoryKey </text>
<text text-anchor="start" x="633.3288" y="-1383.9" font-family="Arial" font-size="14.00" fill="#666666">[int]</text>
<polygon fill="none" stroke="#000000" points="471.5,-1342.5 471.5,-1372.5 714.5,-1372.5 714.5,-1342.5 471.5,-1342.5"/>
<text text-anchor="start" x="478.5" y="-1353.9" font-family="Arial" font-size="14.00" fill="#000000">WeightUnitMeasureCode </text>
<text text-anchor="start" x="638.7426" y="-1353.9" font-family="Arial" font-size="14.00" fill="#666666">[nchar]</text>
<polygon fill="none" stroke="#000000" points="471.5,-1312.5 471.5,-1342.5 714.5,-1342.5 714.5,-1312.5 471.5,-1312.5"/>
<text text-anchor="start" x="478.5" y="-1323.9" font-family="Arial" font-size="14.00" fill="#000000">SizeUnitMeasureCode </text>
<text text-anchor="start" x="622.4088" y="-1323.9" font-family="Arial" font-size="14.00" fill="#666666">[nchar]</text>
<polygon fill="none" stroke="#000000" points="471.5,-1282.5 471.5,-1312.5 714.5,-1312.5 714.5,-1282.5 471.5,-1282.5"/>
<text text-anchor="start" x="478.5" y="-1293.9" font-family="Arial" font-size="14.00" fill="#000000">EnglishProductName </text>
<text text-anchor="start" x="613.8562" y="-1293.9" font-family="Arial" font-size="14.00" fill="#666666">[nvarchar(50)]</text>
<polygon fill="none" stroke="#000000" points="471.5,-1252.5 471.5,-1282.5 714.5,-1282.5 714.5,-1252.5 471.5,-1252.5"/>
<text text-anchor="start" x="478.5" y="-1263.9" font-family="Arial" font-size="14.00" fill="#000000">SpanishProductName </text>
<text text-anchor="start" x="618.5322" y="-1263.9" font-family="Arial" font-size="14.00" fill="#666666">[nvarchar(50)]</text>
<polygon fill="none" stroke="#000000" points="471.5,-1222.5 471.5,-1252.5 714.5,-1252.5 714.5,-1222.5 471.5,-1222.5"/>
<text text-anchor="start" x="478.5" y="-1233.9" font-family="Arial" font-size="14.00" fill="#000000">FrenchProductName </text>
<text text-anchor="start" x="611.5196" y="-1233.9" font-family="Arial" font-size="14.00" fill="#666666">[nvarchar(50)]</text>
<polygon fill="none" stroke="#000000" points="471.5,-1192.5 471.5,-1222.5 714.5,-1222.5 714.5,-1192.5 471.5,-1192.5"/>
<text text-anchor="start" x="478.5" y="-1203.9" font-family="Arial" font-size="14.00" fill="#000000">StandardCost </text>
<text text-anchor="start" x="567.9712" y="-1203.9" font-family="Arial" font-size="14.00" fill="#666666">[money]</text>
<polygon fill="none" stroke="#000000" points="471.5,-1162.5 471.5,-1192.5 714.5,-1192.5 714.5,-1162.5 471.5,-1162.5"/>
<text text-anchor="start" x="478.5" y="-1173.9" font-family="Arial" font-size="14.00" fill="#000000">FinishedGoodsFlag </text>
<text text-anchor="start" x="603.7496" y="-1173.9" font-family="Arial" font-size="14.00" fill="#666666">[bit]</text>
<polygon fill="none" stroke="#000000" points="471.5,-1132.5 471.5,-1162.5 714.5,-1162.5 714.5,-1132.5 471.5,-1132.5"/>
<text text-anchor="start" x="478.5" y="-1143.9" font-family="Arial" font-size="14.00" fill="#000000">Color </text>
<text text-anchor="start" x="515.8296" y="-1143.9" font-family="Arial" font-size="14.00" fill="#666666">[nvarchar(15)]</text>
<polygon fill="none" stroke="#000000" points="471.5,-1102.5 471.5,-1132.5 714.5,-1132.5 714.5,-1102.5 471.5,-1102.5"/>
<text text-anchor="start" x="478.5" y="-1113.9" font-family="Arial" font-size="14.00" fill="#000000">SafetyStockLevel </text>
<text text-anchor="start" x="590.5378" y="-1113.9" font-family="Arial" font-size="14.00" fill="#666666">[smallint]</text>
<polygon fill="none" stroke="#000000" points="471.5,-1072.5 471.5,-1102.5 714.5,-1102.5 714.5,-1072.5 471.5,-1072.5"/>
<text text-anchor="start" x="478.5" y="-1083.9" font-family="Arial" font-size="14.00" fill="#000000">ReorderPoint </text>
<text text-anchor="start" x="564.8478" y="-1083.9" font-family="Arial" font-size="14.00" fill="#666666">[smallint]</text>
<polygon fill="none" stroke="#000000" points="471.5,-1042.5 471.5,-1072.5 714.5,-1072.5 714.5,-1042.5 471.5,-1042.5"/>
<text text-anchor="start" x="478.5" y="-1053.9" font-family="Arial" font-size="14.00" fill="#000000">ListPrice </text>
<text text-anchor="start" x="536.0568" y="-1053.9" font-family="Arial" font-size="14.00" fill="#666666">[money]</text>
<polygon fill="none" stroke="#000000" points="471.5,-1012.5 471.5,-1042.5 714.5,-1042.5 714.5,-1012.5 471.5,-1012.5"/>
<text text-anchor="start" x="478.5" y="-1023.9" font-family="Arial" font-size="14.00" fill="#000000">Size </text>
<text text-anchor="start" x="509.6164" y="-1023.9" font-family="Arial" font-size="14.00" fill="#666666">[nvarchar(50)]</text>
<polygon fill="none" stroke="#000000" points="471.5,-982.5 471.5,-1012.5 714.5,-1012.5 714.5,-982.5 471.5,-982.5"/>
<text text-anchor="start" x="478.5" y="-993.9" font-family="Arial" font-size="14.00" fill="#000000">SizeRange </text>
<text text-anchor="start" x="550.8534" y="-993.9" font-family="Arial" font-size="14.00" fill="#666666">[nvarchar(50)]</text>
<polygon fill="none" stroke="#000000" points="471.5,-952.5 471.5,-982.5 714.5,-982.5 714.5,-952.5 471.5,-952.5"/>
<text text-anchor="start" x="478.5" y="-963.9" font-family="Arial" font-size="14.00" fill="#000000">Weight </text>
<text text-anchor="start" x="525.9502" y="-963.9" font-family="Arial" font-size="14.00" fill="#666666">[float]</text>
<polygon fill="none" stroke="#000000" points="471.5,-922.5 471.5,-952.5 714.5,-952.5 714.5,-922.5 471.5,-922.5"/>
<text text-anchor="start" x="478.5" y="-933.9" font-family="Arial" font-size="14.00" fill="#000000">DaysToManufacture </text>
<text text-anchor="start" x="608.413" y="-933.9" font-family="Arial" font-size="14.00" fill="#666666">[int]</text>
<polygon fill="none" stroke="#000000" points="471.5,-892.5 471.5,-922.5 714.5,-922.5 714.5,-892.5 471.5,-892.5"/>
<text text-anchor="start" x="478.5" y="-903.9" font-family="Arial" font-size="14.00" fill="#000000">ProductLine </text>
<text text-anchor="start" x="557.0806" y="-903.9" font-family="Arial" font-size="14.00" fill="#666666">[nchar]</text>
<polygon fill="none" stroke="#000000" points="471.5,-862.5 471.5,-892.5 714.5,-892.5 714.5,-862.5 471.5,-862.5"/>
<text text-anchor="start" x="478.5" y="-873.9" font-family="Arial" font-size="14.00" fill="#000000">DealerPrice </text>
<text text-anchor="start" x="555.4986" y="-873.9" font-family="Arial" font-size="14.00" fill="#666666">[money]</text>
<polygon fill="none" stroke="#000000" points="471.5,-832.5 471.5,-862.5 714.5,-862.5 714.5,-832.5 471.5,-832.5"/>
<text text-anchor="start" x="478.5" y="-843.9" font-family="Arial" font-size="14.00" fill="#000000">Class </text>
<text text-anchor="start" x="517.3864" y="-843.9" font-family="Arial" font-size="14.00" fill="#666666">[nchar]</text>
<polygon fill="none" stroke="#000000" points="471.5,-802.5 471.5,-832.5 714.5,-832.5 714.5,-802.5 471.5,-802.5"/>
<text text-anchor="start" x="478.5" y="-813.9" font-family="Arial" font-size="14.00" fill="#000000">Style </text>
<text text-anchor="start" x="513.507" y="-813.9" font-family="Arial" font-size="14.00" fill="#666666">[nchar]</text>
<polygon fill="none" stroke="#000000" points="471.5,-772.5 471.5,-802.5 714.5,-802.5 714.5,-772.5 471.5,-772.5"/>
<text text-anchor="start" x="478.5" y="-783.9" font-family="Arial" font-size="14.00" fill="#000000">ModelName </text>
<text text-anchor="start" x="557.838" y="-783.9" font-family="Arial" font-size="14.00" fill="#666666">[nvarchar(50)]</text>
<polygon fill="none" stroke="#000000" points="471.5,-742.5 471.5,-772.5 714.5,-772.5 714.5,-742.5 471.5,-742.5"/>
<text text-anchor="start" x="478.5" y="-753.9" font-family="Arial" font-size="14.00" fill="#000000">LargePhoto </text>
<text text-anchor="start" x="554.7566" y="-753.9" font-family="Arial" font-size="14.00" fill="#666666">[varbinary(MAX)]</text>
<polygon fill="none" stroke="#000000" points="471.5,-712.5 471.5,-742.5 714.5,-742.5 714.5,-712.5 471.5,-712.5"/>
<text text-anchor="start" x="478.5" y="-723.9" font-family="Arial" font-size="14.00" fill="#000000">EnglishDescription </text>
<text text-anchor="start" x="598.2896" y="-723.9" font-family="Arial" font-size="14.00" fill="#666666">[nvarchar(400)]</text>
<polygon fill="none" stroke="#000000" points="471.5,-682.5 471.5,-712.5 714.5,-712.5 714.5,-682.5 471.5,-682.5"/>
<text text-anchor="start" x="478.5" y="-693.9" font-family="Arial" font-size="14.00" fill="#000000">FrenchDescription </text>
<text text-anchor="start" x="595.953" y="-693.9" font-family="Arial" font-size="14.00" fill="#666666">[nvarchar(400)]</text>
<polygon fill="none" stroke="#000000" points="471.5,-652.5 471.5,-682.5 714.5,-682.5 714.5,-652.5 471.5,-652.5"/>
<text text-anchor="start" x="478.5" y="-663.9" font-family="Arial" font-size="14.00" fill="#000000">ChineseDescription </text>
<text text-anchor="start" x="603.7356" y="-663.9" font-family="Arial" font-size="14.00" fill="#666666">[nvarchar(400)]</text>
<polygon fill="none" stroke="#000000" points="471.5,-622.5 471.5,-652.5 714.5,-652.5 714.5,-622.5 471.5,-622.5"/>
<text text-anchor="start" x="478.5" y="-633.9" font-family="Arial" font-size="14.00" fill="#000000">ArabicDescription </text>
<text text-anchor="start" x="592.061" y="-633.9" font-family="Arial" font-size="14.00" fill="#666666">[nvarchar(400)]</text>
<polygon fill="none" stroke="#000000" points="471.5,-592.5 471.5,-622.5 714.5,-622.5 714.5,-592.5 471.5,-592.5"/>
<text text-anchor="start" x="478.5" y="-603.9" font-family="Arial" font-size="14.00" fill="#000000">HebrewDescription </text>
<text text-anchor="start" x="600.6136" y="-603.9" font-family="Arial" font-size="14.00" fill="#666666">[nvarchar(400)]</text>
<polygon fill="none" stroke="#000000" points="471.5,-562.5 471.5,-592.5 714.5,-592.5 714.5,-562.5 471.5,-562.5"/>
<text text-anchor="start" x="478.5" y="-573.9" font-family="Arial" font-size="14.00" fill="#000000">ThaiDescription </text>
<text text-anchor="start" x="579.6164" y="-573.9" font-family="Arial" font-size="14.00" fill="#666666">[nvarchar(400)]</text>
<polygon fill="none" stroke="#000000" points="471.5,-532.5 471.5,-562.5 714.5,-562.5 714.5,-532.5 471.5,-532.5"/>
<text text-anchor="start" x="478.5" y="-543.9" font-family="Arial" font-size="14.00" fill="#000000">GermanDescription </text>
<text text-anchor="start" x="602.9516" y="-543.9" font-family="Arial" font-size="14.00" fill="#666666">[nvarchar(400)]</text>
<polygon fill="none" stroke="#000000" points="471.5,-502.5 471.5,-532.5 714.5,-532.5 714.5,-502.5 471.5,-502.5"/>
<text text-anchor="start" x="478.2553" y="-513.9" font-family="Arial" font-size="14.00" fill="#000000">JapaneseDescription </text>
<text text-anchor="start" x="612.8429" y="-513.9" font-family="Arial" font-size="14.00" fill="#666666">[nvarchar(400)]</text>
<polygon fill="none" stroke="#000000" points="471.5,-472.5 471.5,-502.5 714.5,-502.5 714.5,-472.5 471.5,-472.5"/>
<text text-anchor="start" x="478.5" y="-483.9" font-family="Arial" font-size="14.00" fill="#000000">TurkishDescription </text>
<text text-anchor="start" x="598.277" y="-483.9" font-family="Arial" font-size="14.00" fill="#666666">[nvarchar(400)]</text>
<polygon fill="none" stroke="#000000" points="471.5,-442.5 471.5,-472.5 714.5,-472.5 714.5,-442.5 471.5,-442.5"/>
<text text-anchor="start" x="478.5" y="-453.9" font-family="Arial" font-size="14.00" fill="#000000">StartDate </text>
<text text-anchor="start" x="541.514" y="-453.9" font-family="Arial" font-size="14.00" fill="#666666">[datetime]</text>
<polygon fill="none" stroke="#000000" points="471.5,-412.5 471.5,-442.5 714.5,-442.5 714.5,-412.5 471.5,-412.5"/>
<text text-anchor="start" x="478.5" y="-423.9" font-family="Arial" font-size="14.00" fill="#000000">EndDate </text>
<text text-anchor="start" x="536.8548" y="-423.9" font-family="Arial" font-size="14.00" fill="#666666">[datetime]</text>
<polygon fill="none" stroke="#000000" points="471.5,-382.5 471.5,-412.5 714.5,-412.5 714.5,-382.5 471.5,-382.5"/>
<text text-anchor="start" x="478.5" y="-393.9" font-family="Arial" font-size="14.00" fill="#000000">Status </text>
<text text-anchor="start" x="522.0736" y="-393.9" font-family="Arial" font-size="14.00" fill="#666666">[nvarchar(7)]</text>
<polygon fill="none" stroke="#000000" stroke-width="3" points="469.5,-381.5 469.5,-1499.5 715.5,-1499.5 715.5,-381.5 469.5,-381.5"/>
</g>
<!-- DimProductSubcategory -->
<g id="node5" class="node">
<title>DimProductSubcategory</title>
<polygon fill="#efefef" stroke="transparent" points="418.5,-222.5 418.5,-257.5 768.5,-257.5 768.5,-222.5 418.5,-222.5"/>
<polygon fill="none" stroke="#000000" points="418.5,-222.5 418.5,-257.5 768.5,-257.5 768.5,-222.5 418.5,-222.5"/>
<text text-anchor="start" x="429.8689" y="-235.3" font-family="Arial Bold" font-size="18.00" fill="#000000">DimProductSubcategory</text>
<text text-anchor="start" x="624.9025" y="-235.3" font-family="Arial" font-size="14.00" fill="#000000">    </text>
<text text-anchor="start" x="659.1073" y="-235.3" font-family="Arial" font-size="14.00" fill="#666666">[BASIC TABLE]</text>
<polygon fill="none" stroke="#000000" points="418.5,-192.5 418.5,-222.5 768.5,-222.5 768.5,-192.5 418.5,-192.5"/>
<text text-anchor="start" x="425.5" y="-203.9" font-family="Arial" font-size="14.00" fill="#000000">ProductSubcategoryKey    </text>
<text text-anchor="start" x="610.643" y="-203.9" font-family="Arial" font-size="14.00" fill="#666666">[int]</text>
<polygon fill="none" stroke="#000000" points="418.5,-162.5 418.5,-192.5 768.5,-192.5 768.5,-162.5 418.5,-162.5"/>
<text text-anchor="start" x="425.5" y="-173.9" font-family="Arial" font-size="14.00" fill="#000000">ProductSubcategoryAlternateKey    </text>
<text text-anchor="start" x="666.6584" y="-173.9" font-family="Arial" font-size="14.00" fill="#666666">[int]</text>
<polygon fill="none" stroke="#000000" points="418.5,-132.5 418.5,-162.5 768.5,-162.5 768.5,-132.5 418.5,-132.5"/>
<text text-anchor="start" x="425.5" y="-143.9" font-family="Arial" font-size="14.00" fill="#000000">EnglishProductSubcategoryName    </text>
<text text-anchor="start" x="669.7538" y="-143.9" font-family="Arial" font-size="14.00" fill="#666666">[nvarchar(50)]</text>
<polygon fill="none" stroke="#000000" points="418.5,-102.5 418.5,-132.5 768.5,-132.5 768.5,-102.5 418.5,-102.5"/>
<text text-anchor="start" x="425.4755" y="-113.9" font-family="Arial" font-size="14.00" fill="#000000">SpanishProductSubcategoryName    </text>
<text text-anchor="start" x="674.4053" y="-113.9" font-family="Arial" font-size="14.00" fill="#666666">[nvarchar(50)]</text>
<polygon fill="none" stroke="#000000" points="418.5,-72.5 418.5,-102.5 768.5,-102.5 768.5,-72.5 418.5,-72.5"/>
<text text-anchor="start" x="425.5" y="-83.9" font-family="Arial" font-size="14.00" fill="#000000">FrenchProductSubcategoryName    </text>
<text text-anchor="start" x="667.4172" y="-83.9" font-family="Arial" font-size="14.00" fill="#666666">[nvarchar(50)]</text>
<polygon fill="none" stroke="#000000" points="418.5,-42.5 418.5,-72.5 768.5,-72.5 768.5,-42.5 418.5,-42.5"/>
<text text-anchor="start" x="425.5" y="-53.9" font-family="Arial" font-size="14.00" fill="#000000">ProductCategoryKey    </text>
<text text-anchor="start" x="588.8478" y="-53.9" font-family="Arial" font-size="14.00" fill="#666666">[int]</text>
</g>
<!-- DimProduct&#45;&gt;DimProductSubcategory -->
<g id="edge4" class="edge">
<title>DimProduct:ProductSubcategoryKey&#45;&gt;DimProductSubcategory:ProductSubcategoryKey</title>
<path fill="none" stroke="#000000" d="M724.6585,-1387.3876C1179.0762,-1377.2503 1021.8029,-683.942 714.5,-337 626.6295,-237.795 506.3705,-400.205 418.5,-301 390.9466,-269.8925 376.9444,-207.5 418.5,-207.5"/>
<polygon fill="#000000" stroke="#000000" points="724.4994,-1387.3893 714.4502,-1383.0003 719.4997,-1387.4446 714.5,-1387.5 714.5,-1387.5 714.5,-1387.5 719.4997,-1387.4446 714.5498,-1391.9997 724.4994,-1387.3893 724.4994,-1387.3893"/>
</g>
<!-- FactInternetSales -->
<g id="node2" class="node">
<title>FactInternetSales</title>
<polygon fill="#efefef" stroke="transparent" points="43.5,-2417.5 43.5,-2452.5 330.5,-2452.5 330.5,-2417.5 43.5,-2417.5"/>
<polygon fill="none" stroke="#000000" points="43.5,-2417.5 43.5,-2452.5 330.5,-2452.5 330.5,-2417.5 43.5,-2417.5"/>
<text text-anchor="start" x="50.3662" y="-2430.3" font-family="Arial Bold" font-size="18.00" fill="#000000">FactInternetSales</text>
<text text-anchor="start" x="191.4052" y="-2430.3" font-family="Arial" font-size="14.00" fill="#000000">    </text>
<text text-anchor="start" x="225.61" y="-2430.3" font-family="Arial" font-size="14.00" fill="#666666">[BASIC TABLE]</text>
<polygon fill="none" stroke="#000000" points="43.5,-2387.5 43.5,-2417.5 330.5,-2417.5 330.5,-2387.5 43.5,-2387.5"/>
<text text-anchor="start" x="50.5" y="-2398.9" font-family="Arial" font-size="14.00" fill="#000000">ProductKey    </text>
<text text-anchor="start" x="157.0596" y="-2398.9" font-family="Arial" font-size="14.00" fill="#666666">[int]</text>
<polygon fill="none" stroke="#000000" points="43.5,-2357.5 43.5,-2387.5 330.5,-2387.5 330.5,-2357.5 43.5,-2357.5"/>
<text text-anchor="start" x="50.5" y="-2368.9" font-family="Arial" font-size="14.00" fill="#000000">OrderDateKey    </text>
<text text-anchor="start" x="174.1634" y="-2368.9" font-family="Arial" font-size="14.00" fill="#666666">[int]</text>
<polygon fill="none" stroke="#000000" points="43.5,-2327.5 43.5,-2357.5 330.5,-2357.5 330.5,-2327.5 43.5,-2327.5"/>
<text text-anchor="start" x="50.5" y="-2338.9" font-family="Arial" font-size="14.00" fill="#000000">DueDateKey    </text>
<text text-anchor="start" x="164.0582" y="-2338.9" font-family="Arial" font-size="14.00" fill="#666666">[int]</text>
<polygon fill="none" stroke="#000000" points="43.5,-2297.5 43.5,-2327.5 330.5,-2327.5 330.5,-2297.5 43.5,-2297.5"/>
<text text-anchor="start" x="50.5" y="-2308.9" font-family="Arial" font-size="14.00" fill="#000000">ShipDateKey    </text>
<text text-anchor="start" x="166.3948" y="-2308.9" font-family="Arial" font-size="14.00" fill="#666666">[int]</text>
<polygon fill="none" stroke="#000000" points="43.5,-2267.5 43.5,-2297.5 330.5,-2297.5 330.5,-2267.5 43.5,-2267.5"/>
<text text-anchor="start" x="50.5" y="-2278.9" font-family="Arial" font-size="14.00" fill="#000000">CustomerKey    </text>
<text text-anchor="start" x="169.4902" y="-2278.9" font-family="Arial" font-size="14.00" fill="#666666">[int]</text>
<polygon fill="none" stroke="#000000" points="43.5,-2237.5 43.5,-2267.5 330.5,-2267.5 330.5,-2237.5 43.5,-2237.5"/>
<text text-anchor="start" x="50.5" y="-2248.9" font-family="Arial" font-size="14.00" fill="#000000">PromotionKey    </text>
<text text-anchor="start" x="172.6094" y="-2248.9" font-family="Arial" font-size="14.00" fill="#666666">[int]</text>
<polygon fill="none" stroke="#000000" points="43.5,-2207.5 43.5,-2237.5 330.5,-2237.5 330.5,-2207.5 43.5,-2207.5"/>
<text text-anchor="start" x="50.5" y="-2218.9" font-family="Arial" font-size="14.00" fill="#000000">CurrencyKey    </text>
<text text-anchor="start" x="165.5996" y="-2218.9" font-family="Arial" font-size="14.00" fill="#666666">[int]</text>
<polygon fill="none" stroke="#000000" points="43.5,-2177.5 43.5,-2207.5 330.5,-2207.5 330.5,-2177.5 43.5,-2177.5"/>
<text text-anchor="start" x="50.5" y="-2188.9" font-family="Arial" font-size="14.00" fill="#000000">SalesTerritoryKey    </text>
<text text-anchor="start" x="195.9292" y="-2188.9" font-family="Arial" font-size="14.00" fill="#666666">[int]</text>
<polygon fill="none" stroke="#000000" points="43.5,-2147.5 43.5,-2177.5 330.5,-2177.5 330.5,-2147.5 43.5,-2147.5"/>
<text text-anchor="start" x="50.5" y="-2158.9" font-family="Arial" font-size="14.00" fill="#000000">SalesOrderNumber    </text>
<text text-anchor="start" x="205.2658" y="-2158.9" font-family="Arial" font-size="14.00" fill="#666666">[nvarchar(20)]</text>
<polygon fill="none" stroke="#000000" points="43.5,-2117.5 43.5,-2147.5 330.5,-2147.5 330.5,-2117.5 43.5,-2117.5"/>
<text text-anchor="start" x="50.5" y="-2128.9" font-family="Arial" font-size="14.00" fill="#000000">SalesOrderLineNumber    </text>
<text text-anchor="start" x="231.7202" y="-2128.9" font-family="Arial" font-size="14.00" fill="#666666">[tinyint]</text>
<polygon fill="none" stroke="#000000" points="43.5,-2087.5 43.5,-2117.5 330.5,-2117.5 330.5,-2087.5 43.5,-2087.5"/>
<text text-anchor="start" x="50.5" y="-2098.9" font-family="Arial" font-size="14.00" fill="#000000">RevisionNumber    </text>
<text text-anchor="start" x="188.148" y="-2098.9" font-family="Arial" font-size="14.00" fill="#666666">[tinyint]</text>
<polygon fill="none" stroke="#000000" points="43.5,-2057.5 43.5,-2087.5 330.5,-2087.5 330.5,-2057.5 43.5,-2057.5"/>
<text text-anchor="start" x="50.5" y="-2068.9" font-family="Arial" font-size="14.00" fill="#000000">OrderQuantity    </text>
<text text-anchor="start" x="172.608" y="-2068.9" font-family="Arial" font-size="14.00" fill="#666666">[smallint]</text>
<polygon fill="none" stroke="#000000" points="43.5,-2027.5 43.5,-2057.5 330.5,-2057.5 330.5,-2027.5 43.5,-2027.5"/>
<text text-anchor="start" x="50.5" y="-2038.9" font-family="Arial" font-size="14.00" fill="#000000">UnitPrice    </text>
<text text-anchor="start" x="141.4776" y="-2038.9" font-family="Arial" font-size="14.00" fill="#666666">[money]</text>
<polygon fill="none" stroke="#000000" points="43.5,-1997.5 43.5,-2027.5 330.5,-2027.5 330.5,-1997.5 43.5,-1997.5"/>
<text text-anchor="start" x="50.5" y="-2008.9" font-family="Arial" font-size="14.00" fill="#000000">ExtendedAmount    </text>
<text text-anchor="start" x="192.0806" y="-2008.9" font-family="Arial" font-size="14.00" fill="#666666">[money]</text>
<polygon fill="none" stroke="#000000" points="43.5,-1967.5 43.5,-1997.5 330.5,-1997.5 330.5,-1967.5 43.5,-1967.5"/>
<text text-anchor="start" x="50.5" y="-1978.9" font-family="Arial" font-size="14.00" fill="#000000">UnitPriceDiscountPct    </text>
<text text-anchor="start" x="216.1564" y="-1978.9" font-family="Arial" font-size="14.00" fill="#666666">[float]</text>
<polygon fill="none" stroke="#000000" points="43.5,-1937.5 43.5,-1967.5 330.5,-1967.5 330.5,-1937.5 43.5,-1937.5"/>
<text text-anchor="start" x="50.5" y="-1948.9" font-family="Arial" font-size="14.00" fill="#000000">DiscountAmount    </text>
<text text-anchor="start" x="187.392" y="-1948.9" font-family="Arial" font-size="14.00" fill="#666666">[float]</text>
<polygon fill="none" stroke="#000000" points="43.5,-1907.5 43.5,-1937.5 330.5,-1937.5 330.5,-1907.5 43.5,-1907.5"/>
<text text-anchor="start" x="50.5" y="-1918.9" font-family="Arial" font-size="14.00" fill="#000000">ProductStandardCost    </text>
<text text-anchor="start" x="218.521" y="-1918.9" font-family="Arial" font-size="14.00" fill="#666666">[money]</text>
<polygon fill="none" stroke="#000000" points="43.5,-1877.5 43.5,-1907.5 330.5,-1907.5 330.5,-1877.5 43.5,-1877.5"/>
<text text-anchor="start" x="50.5" y="-1888.9" font-family="Arial" font-size="14.00" fill="#000000">TotalProductCost    </text>
<text text-anchor="start" x="192.8352" y="-1888.9" font-family="Arial" font-size="14.00" fill="#666666">[money]</text>
<polygon fill="none" stroke="#000000" points="43.5,-1847.5 43.5,-1877.5 330.5,-1877.5 330.5,-1847.5 43.5,-1847.5"/>
<text text-anchor="start" x="50.5" y="-1858.9" font-family="Arial" font-size="14.00" fill="#000000">SalesAmount    </text>
<text text-anchor="start" x="167.9488" y="-1858.9" font-family="Arial" font-size="14.00" fill="#666666">[money]</text>
<polygon fill="none" stroke="#000000" points="43.5,-1817.5 43.5,-1847.5 330.5,-1847.5 330.5,-1817.5 43.5,-1817.5"/>
<text text-anchor="start" x="50.5" y="-1828.9" font-family="Arial" font-size="14.00" fill="#000000">TaxAmt    </text>
<text text-anchor="start" x="132.9278" y="-1828.9" font-family="Arial" font-size="14.00" fill="#666666">[money]</text>
<polygon fill="none" stroke="#000000" points="43.5,-1787.5 43.5,-1817.5 330.5,-1817.5 330.5,-1787.5 43.5,-1787.5"/>
<text text-anchor="start" x="50.5" y="-1798.9" font-family="Arial" font-size="14.00" fill="#000000">Freight    </text>
<text text-anchor="start" x="128.263" y="-1798.9" font-family="Arial" font-size="14.00" fill="#666666">[money]</text>
<polygon fill="none" stroke="#000000" points="43.5,-1757.5 43.5,-1787.5 330.5,-1787.5 330.5,-1757.5 43.5,-1757.5"/>
<text text-anchor="start" x="50.5" y="-1768.9" font-family="Arial" font-size="14.00" fill="#000000">CarrierTrackingNumber    </text>
<text text-anchor="start" x="230.9082" y="-1768.9" font-family="Arial" font-size="14.00" fill="#666666">[nvarchar(25)]</text>
<polygon fill="none" stroke="#000000" points="43.5,-1727.5 43.5,-1757.5 330.5,-1757.5 330.5,-1727.5 43.5,-1727.5"/>
<text text-anchor="start" x="50.5" y="-1738.9" font-family="Arial" font-size="14.00" fill="#000000">CustomerPONumber    </text>
<text text-anchor="start" x="215.3738" y="-1738.9" font-family="Arial" font-size="14.00" fill="#666666">[nvarchar(25)]</text>
<polygon fill="none" stroke="#000000" points="43.5,-1697.5 43.5,-1727.5 330.5,-1727.5 330.5,-1697.5 43.5,-1697.5"/>
<text text-anchor="start" x="50.5" y="-1708.9" font-family="Arial" font-size="14.00" fill="#000000">OrderDate    </text>
<text text-anchor="start" x="150.0442" y="-1708.9" font-family="Arial" font-size="14.00" fill="#666666">[datetime]</text>
<polygon fill="none" stroke="#000000" points="43.5,-1667.5 43.5,-1697.5 330.5,-1697.5 330.5,-1667.5 43.5,-1667.5"/>
<text text-anchor="start" x="50.5" y="-1678.9" font-family="Arial" font-size="14.00" fill="#000000">DueDate    </text>
<text text-anchor="start" x="139.939" y="-1678.9" font-family="Arial" font-size="14.00" fill="#666666">[datetime]</text>
<polygon fill="none" stroke="#000000" points="43.5,-1637.5 43.5,-1667.5 330.5,-1667.5 330.5,-1637.5 43.5,-1637.5"/>
<text text-anchor="start" x="50.5" y="-1648.9" font-family="Arial" font-size="14.00" fill="#000000">ShipDate    </text>
<text text-anchor="start" x="142.2756" y="-1648.9" font-family="Arial" font-size="14.00" fill="#666666">[datetime]</text>
</g>
<!-- FactInternetSales&#45;&gt;DimProduct -->
<g id="edge1" class="edge">
<title>FactInternetSales:ProductKey&#45;&gt;DimProduct:ProductKey</title>
<path fill="none" stroke="#000000" d="M340.5054,-2399.2141C416.7343,-2346.0019 353.047,-1663.2602 381.5,-1580 404.5208,-1512.6357 400.3108,-1447.5 471.5,-1447.5"/>
<polygon fill="#000000" stroke="#000000" points="340.0008,-2399.3797 329.0959,-2398.2247 335.2504,-2400.9399 330.5,-2402.5 330.5,-2402.5 330.5,-2402.5 335.2504,-2400.9399 331.9041,-2406.7753 340.0008,-2399.3797 340.0008,-2399.3797"/>
</g>
<!-- FactProductInventory -->
<g id="node3" class="node">
<title>FactProductInventory</title>
<polygon fill="#efefef" stroke="transparent" points="434.5,-2132.5 434.5,-2167.5 751.5,-2167.5 751.5,-2132.5 434.5,-2132.5"/>
<polygon fill="none" stroke="#000000" points="434.5,-2132.5 434.5,-2167.5 751.5,-2167.5 751.5,-2132.5 434.5,-2132.5"/>
<text text-anchor="start" x="441.3641" y="-2145.3" font-family="Arial Bold" font-size="18.00" fill="#000000">FactProductInventory</text>
<text text-anchor="start" x="612.4073" y="-2145.3" font-family="Arial" font-size="14.00" fill="#000000">    </text>
<text text-anchor="start" x="646.6121" y="-2145.3" font-family="Arial" font-size="14.00" fill="#666666">[BASIC TABLE]</text>
<polygon fill="none" stroke="#000000" points="434.5,-2102.5 434.5,-2132.5 751.5,-2132.5 751.5,-2102.5 434.5,-2102.5"/>
<text text-anchor="start" x="441.5" y="-2113.9" font-family="Arial" font-size="14.00" fill="#000000">ProductKey    </text>
<text text-anchor="start" x="548.0596" y="-2113.9" font-family="Arial" font-size="14.00" fill="#666666">[int]</text>
<polygon fill="none" stroke="#000000" points="434.5,-2072.5 434.5,-2102.5 751.5,-2102.5 751.5,-2072.5 434.5,-2072.5"/>
<text text-anchor="start" x="441.5" y="-2083.9" font-family="Arial" font-size="14.00" fill="#000000">DateKey    </text>
<text text-anchor="start" x="529.3864" y="-2083.9" font-family="Arial" font-size="14.00" fill="#666666">[int]</text>
<polygon fill="none" stroke="#000000" points="434.5,-2042.5 434.5,-2072.5 751.5,-2072.5 751.5,-2042.5 434.5,-2042.5"/>
<text text-anchor="start" x="441.5" y="-2053.9" font-family="Arial" font-size="14.00" fill="#000000">MovementDate    </text>
<text text-anchor="start" x="570.6094" y="-2053.9" font-family="Arial" font-size="14.00" fill="#666666">[date]</text>
<polygon fill="none" stroke="#000000" points="434.5,-2012.5 434.5,-2042.5 751.5,-2042.5 751.5,-2012.5 434.5,-2012.5"/>
<text text-anchor="start" x="441.5" y="-2023.9" font-family="Arial" font-size="14.00" fill="#000000">UnitCost    </text>
<text text-anchor="start" x="529.371" y="-2023.9" font-family="Arial" font-size="14.00" fill="#666666">[money]</text>
<polygon fill="none" stroke="#000000" points="434.5,-1982.5 434.5,-2012.5 751.5,-2012.5 751.5,-1982.5 434.5,-1982.5"/>
<text text-anchor="start" x="441.5" y="-1993.9" font-family="Arial" font-size="14.00" fill="#000000">UnitsIn    </text>
<text text-anchor="start" x="519.2644" y="-1993.9" font-family="Arial" font-size="14.00" fill="#666666">[int]</text>
<polygon fill="none" stroke="#000000" points="434.5,-1952.5 434.5,-1982.5 751.5,-1982.5 751.5,-1952.5 434.5,-1952.5"/>
<text text-anchor="start" x="441.5" y="-1963.9" font-family="Arial" font-size="14.00" fill="#000000">UnitsOut    </text>
<text text-anchor="start" x="530.155" y="-1963.9" font-family="Arial" font-size="14.00" fill="#666666">[int]</text>
<polygon fill="none" stroke="#000000" points="434.5,-1922.5 434.5,-1952.5 751.5,-1952.5 751.5,-1922.5 434.5,-1922.5"/>
<text text-anchor="start" x="441.5" y="-1933.9" font-family="Arial" font-size="14.00" fill="#000000">UnitsBalance    </text>
<text text-anchor="start" x="558.1648" y="-1933.9" font-family="Arial" font-size="14.00" fill="#666666">[int]</text>
</g>
<!-- FactProductInventory&#45;&gt;DimProduct -->
<g id="edge2" class="edge">
<title>FactProductInventory:ProductKey&#45;&gt;DimProduct:ProductKey</title>
<path fill="none" stroke="#000000" d="M425.1208,-2113.5653C363.3421,-2058.6567 400.2914,-1447.5 471.5,-1447.5"/>
<polygon fill="#000000" stroke="#000000" points="425.2786,-2113.6315 432.7592,-2121.6496 429.8893,-2115.5657 434.5,-2117.5 434.5,-2117.5 434.5,-2117.5 429.8893,-2115.5657 436.2408,-2113.3504 425.2786,-2113.6315 425.2786,-2113.6315"/>
</g>
<!-- FactResellerSales -->
<g id="node4" class="node">
<title>FactResellerSales</title>
<polygon fill="#efefef" stroke="transparent" points="855.5,-2432.5 855.5,-2467.5 1147.5,-2467.5 1147.5,-2432.5 855.5,-2432.5"/>
<polygon fill="none" stroke="#000000" points="855.5,-2432.5 855.5,-2467.5 1147.5,-2467.5 1147.5,-2432.5 855.5,-2432.5"/>
<text text-anchor="start" x="862.3813" y="-2445.3" font-family="Arial Bold" font-size="18.00" fill="#000000">FactResellerSales</text>
<text text-anchor="start" x="1008.3901" y="-2445.3" font-family="Arial" font-size="14.00" fill="#000000">    </text>
<text text-anchor="start" x="1042.5949" y="-2445.3" font-family="Arial" font-size="14.00" fill="#666666">[BASIC TABLE]</text>
<polygon fill="none" stroke="#000000" points="855.5,-2402.5 855.5,-2432.5 1147.5,-2432.5 1147.5,-2402.5 855.5,-2402.5"/>
<text text-anchor="start" x="862.5" y="-2413.9" font-family="Arial" font-size="14.00" fill="#000000">ProductKey    </text>
<text text-anchor="start" x="969.0596" y="-2413.9" font-family="Arial" font-size="14.00" fill="#666666">[int]</text>
<polygon fill="none" stroke="#000000" points="855.5,-2372.5 855.5,-2402.5 1147.5,-2402.5 1147.5,-2372.5 855.5,-2372.5"/>
<text text-anchor="start" x="862.5" y="-2383.9" font-family="Arial" font-size="14.00" fill="#000000">OrderDateKey    </text>
<text text-anchor="start" x="986.1634" y="-2383.9" font-family="Arial" font-size="14.00" fill="#666666">[int]</text>
<polygon fill="none" stroke="#000000" points="855.5,-2342.5 855.5,-2372.5 1147.5,-2372.5 1147.5,-2342.5 855.5,-2342.5"/>
<text text-anchor="start" x="862.5" y="-2353.9" font-family="Arial" font-size="14.00" fill="#000000">DueDateKey    </text>
<text text-anchor="start" x="976.0582" y="-2353.9" font-family="Arial" font-size="14.00" fill="#666666">[int]</text>
<polygon fill="none" stroke="#000000" points="855.5,-2312.5 855.5,-2342.5 1147.5,-2342.5 1147.5,-2312.5 855.5,-2312.5"/>
<text text-anchor="start" x="862.5" y="-2323.9" font-family="Arial" font-size="14.00" fill="#000000">ShipDateKey    </text>
<text text-anchor="start" x="978.3948" y="-2323.9" font-family="Arial" font-size="14.00" fill="#666666">[int]</text>
<polygon fill="none" stroke="#000000" points="855.5,-2282.5 855.5,-2312.5 1147.5,-2312.5 1147.5,-2282.5 855.5,-2282.5"/>
<text text-anchor="start" x="862.5" y="-2293.9" font-family="Arial" font-size="14.00" fill="#000000">ResellerKey    </text>
<text text-anchor="start" x="972.1522" y="-2293.9" font-family="Arial" font-size="14.00" fill="#666666">[int]</text>
<polygon fill="none" stroke="#000000" points="855.5,-2252.5 855.5,-2282.5 1147.5,-2282.5 1147.5,-2252.5 855.5,-2252.5"/>
<text text-anchor="start" x="862.5" y="-2263.9" font-family="Arial" font-size="14.00" fill="#000000">EmployeeKey    </text>
<text text-anchor="start" x="983.0582" y="-2263.9" font-family="Arial" font-size="14.00" fill="#666666">[int]</text>
<polygon fill="none" stroke="#000000" points="855.5,-2222.5 855.5,-2252.5 1147.5,-2252.5 1147.5,-2222.5 855.5,-2222.5"/>
<text text-anchor="start" x="862.5" y="-2233.9" font-family="Arial" font-size="14.00" fill="#000000">PromotionKey    </text>
<text text-anchor="start" x="984.6094" y="-2233.9" font-family="Arial" font-size="14.00" fill="#666666">[int]</text>
<polygon fill="none" stroke="#000000" points="855.5,-2192.5 855.5,-2222.5 1147.5,-2222.5 1147.5,-2192.5 855.5,-2192.5"/>
<text text-anchor="start" x="862.5" y="-2203.9" font-family="Arial" font-size="14.00" fill="#000000">CurrencyKey    </text>
<text text-anchor="start" x="977.5996" y="-2203.9" font-family="Arial" font-size="14.00" fill="#666666">[int]</text>
<polygon fill="none" stroke="#000000" points="855.5,-2162.5 855.5,-2192.5 1147.5,-2192.5 1147.5,-2162.5 855.5,-2162.5"/>
<text text-anchor="start" x="862.5" y="-2173.9" font-family="Arial" font-size="14.00" fill="#000000">SalesTerritoryKey    </text>
<text text-anchor="start" x="1007.9292" y="-2173.9" font-family="Arial" font-size="14.00" fill="#666666">[int]</text>
<polygon fill="none" stroke="#000000" points="855.5,-2132.5 855.5,-2162.5 1147.5,-2162.5 1147.5,-2132.5 855.5,-2132.5"/>
<text text-anchor="start" x="862.5" y="-2143.9" font-family="Arial" font-size="14.00" fill="#000000">SalesOrderNumber    </text>
<text text-anchor="start" x="1017.2658" y="-2143.9" font-family="Arial" font-size="14.00" fill="#666666">[nvarchar(20)]</text>
<polygon fill="none" stroke="#000000" points="855.5,-2102.5 855.5,-2132.5 1147.5,-2132.5 1147.5,-2102.5 855.5,-2102.5"/>
<text text-anchor="start" x="862.5" y="-2113.9" font-family="Arial" font-size="14.00" fill="#000000">SalesOrderLineNumber    </text>
<text text-anchor="start" x="1043.7202" y="-2113.9" font-family="Arial" font-size="14.00" fill="#666666">[tinyint]</text>
<polygon fill="none" stroke="#000000" points="855.5,-2072.5 855.5,-2102.5 1147.5,-2102.5 1147.5,-2072.5 855.5,-2072.5"/>
<text text-anchor="start" x="862.5" y="-2083.9" font-family="Arial" font-size="14.00" fill="#000000">RevisionNumber    </text>
<text text-anchor="start" x="1000.148" y="-2083.9" font-family="Arial" font-size="14.00" fill="#666666">[tinyint]</text>
<polygon fill="none" stroke="#000000" points="855.5,-2042.5 855.5,-2072.5 1147.5,-2072.5 1147.5,-2042.5 855.5,-2042.5"/>
<text text-anchor="start" x="862.5" y="-2053.9" font-family="Arial" font-size="14.00" fill="#000000">OrderQuantity    </text>
<text text-anchor="start" x="984.608" y="-2053.9" font-family="Arial" font-size="14.00" fill="#666666">[smallint]</text>
<polygon fill="none" stroke="#000000" points="855.5,-2012.5 855.5,-2042.5 1147.5,-2042.5 1147.5,-2012.5 855.5,-2012.5"/>
<text text-anchor="start" x="862.5" y="-2023.9" font-family="Arial" font-size="14.00" fill="#000000">UnitPrice    </text>
<text text-anchor="start" x="953.4776" y="-2023.9" font-family="Arial" font-size="14.00" fill="#666666">[money]</text>
<polygon fill="none" stroke="#000000" points="855.5,-1982.5 855.5,-2012.5 1147.5,-2012.5 1147.5,-1982.5 855.5,-1982.5"/>
<text text-anchor="start" x="862.5" y="-1993.9" font-family="Arial" font-size="14.00" fill="#000000">ExtendedAmount    </text>
<text text-anchor="start" x="1004.0806" y="-1993.9" font-family="Arial" font-size="14.00" fill="#666666">[money]</text>
<polygon fill="none" stroke="#000000" points="855.5,-1952.5 855.5,-1982.5 1147.5,-1982.5 1147.5,-1952.5 855.5,-1952.5"/>
<text text-anchor="start" x="862.5" y="-1963.9" font-family="Arial" font-size="14.00" fill="#000000">UnitPriceDiscountPct    </text>
<text text-anchor="start" x="1028.1564" y="-1963.9" font-family="Arial" font-size="14.00" fill="#666666">[float]</text>
<polygon fill="none" stroke="#000000" points="855.5,-1922.5 855.5,-1952.5 1147.5,-1952.5 1147.5,-1922.5 855.5,-1922.5"/>
<text text-anchor="start" x="862.5" y="-1933.9" font-family="Arial" font-size="14.00" fill="#000000">DiscountAmount    </text>
<text text-anchor="start" x="999.392" y="-1933.9" font-family="Arial" font-size="14.00" fill="#666666">[float]</text>
<polygon fill="none" stroke="#000000" points="855.5,-1892.5 855.5,-1922.5 1147.5,-1922.5 1147.5,-1892.5 855.5,-1892.5"/>
<text text-anchor="start" x="862.5" y="-1903.9" font-family="Arial" font-size="14.00" fill="#000000">ProductStandardCost    </text>
<text text-anchor="start" x="1030.521" y="-1903.9" font-family="Arial" font-size="14.00" fill="#666666">[money]</text>
<polygon fill="none" stroke="#000000" points="855.5,-1862.5 855.5,-1892.5 1147.5,-1892.5 1147.5,-1862.5 855.5,-1862.5"/>
<text text-anchor="start" x="862.5" y="-1873.9" font-family="Arial" font-size="14.00" fill="#000000">TotalProductCost    </text>
<text text-anchor="start" x="1004.8352" y="-1873.9" font-family="Arial" font-size="14.00" fill="#666666">[money]</text>
<polygon fill="none" stroke="#000000" points="855.5,-1832.5 855.5,-1862.5 1147.5,-1862.5 1147.5,-1832.5 855.5,-1832.5"/>
<text text-anchor="start" x="862.5" y="-1843.9" font-family="Arial" font-size="14.00" fill="#000000">SalesAmount    </text>
<text text-anchor="start" x="979.9488" y="-1843.9" font-family="Arial" font-size="14.00" fill="#666666">[money]</text>
<polygon fill="none" stroke="#000000" points="855.5,-1802.5 855.5,-1832.5 1147.5,-1832.5 1147.5,-1802.5 855.5,-1802.5"/>
<text text-anchor="start" x="862.5" y="-1813.9" font-family="Arial" font-size="14.00" fill="#000000">TaxAmt    </text>
<text text-anchor="start" x="944.9278" y="-1813.9" font-family="Arial" font-size="14.00" fill="#666666">[money]</text>
<polygon fill="none" stroke="#000000" points="855.5,-1772.5 855.5,-1802.5 1147.5,-1802.5 1147.5,-1772.5 855.5,-1772.5"/>
<text text-anchor="start" x="862.5" y="-1783.9" font-family="Arial" font-size="14.00" fill="#000000">Freight    </text>
<text text-anchor="start" x="940.263" y="-1783.9" font-family="Arial" font-size="14.00" fill="#666666">[money]</text>
<polygon fill="none" stroke="#000000" points="855.5,-1742.5 855.5,-1772.5 1147.5,-1772.5 1147.5,-1742.5 855.5,-1742.5"/>
<text text-anchor="start" x="862.5" y="-1753.9" font-family="Arial" font-size="14.00" fill="#000000">CarrierTrackingNumber    </text>
<text text-anchor="start" x="1042.9082" y="-1753.9" font-family="Arial" font-size="14.00" fill="#666666">[nvarchar(25)]</text>
<polygon fill="none" stroke="#000000" points="855.5,-1712.5 855.5,-1742.5 1147.5,-1742.5 1147.5,-1712.5 855.5,-1712.5"/>
<text text-anchor="start" x="862.5" y="-1723.9" font-family="Arial" font-size="14.00" fill="#000000">CustomerPONumber    </text>
<text text-anchor="start" x="1027.3738" y="-1723.9" font-family="Arial" font-size="14.00" fill="#666666">[nvarchar(25)]</text>
<polygon fill="none" stroke="#000000" points="855.5,-1682.5 855.5,-1712.5 1147.5,-1712.5 1147.5,-1682.5 855.5,-1682.5"/>
<text text-anchor="start" x="862.5" y="-1693.9" font-family="Arial" font-size="14.00" fill="#000000">OrderDate    </text>
<text text-anchor="start" x="962.0442" y="-1693.9" font-family="Arial" font-size="14.00" fill="#666666">[datetime]</text>
<polygon fill="none" stroke="#000000" points="855.5,-1652.5 855.5,-1682.5 1147.5,-1682.5 1147.5,-1652.5 855.5,-1652.5"/>
<text text-anchor="start" x="862.5" y="-1663.9" font-family="Arial" font-size="14.00" fill="#000000">DueDate    </text>
<text text-anchor="start" x="951.939" y="-1663.9" font-family="Arial" font-size="14.00" fill="#666666">[datetime]</text>
<polygon fill="none" stroke="#000000" points="855.5,-1622.5 855.5,-1652.5 1147.5,-1652.5 1147.5,-1622.5 855.5,-1622.5"/>
<text text-anchor="start" x="862.5" y="-1633.9" font-family="Arial" font-size="14.00" fill="#000000">ShipDate    </text>
<text text-anchor="start" x="954.2756" y="-1633.9" font-family="Arial" font-size="14.00" fill="#666666">[datetime]</text>
</g>
<!-- FactResellerSales&#45;&gt;DimProduct -->
<g id="edge3" class="edge">
<title>FactResellerSales:ProductKey&#45;&gt;DimProduct:ProductKey</title>
<path fill="none" stroke="#000000" d="M845.7859,-2414.4769C767.4074,-2362.8056 832.3142,-1665.0251 803.5,-1580 780.7309,-1512.8129 785.4404,-1447.5 714.5,-1447.5"/>
<polygon fill="#000000" stroke="#000000" points="845.9517,-2414.5284 854.1628,-2421.7967 850.7258,-2416.0142 855.5,-2417.5 855.5,-2417.5 855.5,-2417.5 850.7258,-2416.0142 856.8372,-2413.2033 845.9517,-2414.5284 845.9517,-2414.5284"/>
</g>
</g>
</svg>
