<?xml version="1.0" encoding="UTF-8" standalone="no"?>
<!DOCTYPE svg PUBLIC "-//W3C//DTD SVG 1.1//EN"
 "http://www.w3.org/Graphics/SVG/1.1/DTD/svg11.dtd">
<!-- Generated by graphviz version 2.40.1 (20161225.0304)
 -->
<!-- Title: DimReseller Pages: 1 -->
<svg width="415pt" height="2189pt"
 viewBox="0.00 0.00 415.47 2189.00" xmlns="http://www.w3.org/2000/svg" xmlns:xlink="http://www.w3.org/1999/xlink">
<g id="graph0" class="graph" transform="scale(1 1) rotate(0) translate(4 2185)">
<title>DimReseller</title>
<polygon fill="#ffffff" stroke="transparent" points="-4,4 -4,-2185 411.4716,-2185 411.4716,4 -4,4"/>
<!-- DimReseller -->
<g id="node1" class="node">
<title>DimReseller</title>
<polygon fill="#efefef" stroke="transparent" points="79,-1132.5 79,-1167.5 323,-1167.5 323,-1132.5 79,-1132.5"/>
<polygon fill="none" stroke="#000000" points="79,-1132.5 79,-1167.5 323,-1167.5 323,-1132.5 79,-1132.5"/>
<text text-anchor="start" x="85.8987" y="-1145.3" font-family="Arial Bold" font-size="18.00" fill="#000000">DimReseller</text>
<text text-anchor="start" x="183.8727" y="-1145.3" font-family="Arial" font-size="14.00" fill="#000000">    </text>
<text text-anchor="start" x="218.0775" y="-1145.3" font-family="Arial" font-size="14.00" fill="#666666">[BASIC TABLE]</text>
<polygon fill="none" stroke="#000000" points="79,-1102.5 79,-1132.5 323,-1132.5 323,-1102.5 79,-1102.5"/>
<text text-anchor="start" x="86" y="-1113.9" font-family="Arial" font-size="14.00" fill="#000000">ResellerKey </text>
<text text-anchor="start" x="165.338" y="-1113.9" font-family="Arial" font-size="14.00" fill="#666666">[int]</text>
<polygon fill="none" stroke="#000000" points="79,-1072.5 79,-1102.5 323,-1102.5 323,-1072.5 79,-1072.5"/>
<text text-anchor="start" x="86" y="-1083.9" font-family="Arial" font-size="14.00" fill="#000000">GeographyKey </text>
<text text-anchor="start" x="183.2566" y="-1083.9" font-family="Arial" font-size="14.00" fill="#666666">[int]</text>
<polygon fill="none" stroke="#000000" points="79,-1042.5 79,-1072.5 323,-1072.5 323,-1042.5 79,-1042.5"/>
<text text-anchor="start" x="86" y="-1053.9" font-family="Arial" font-size="14.00" fill="#000000">ResellerAlternateKey </text>
<text text-anchor="start" x="221.3534" y="-1053.9" font-family="Arial" font-size="14.00" fill="#666666">[nvarchar(15)]</text>
<polygon fill="none" stroke="#000000" points="79,-1012.5 79,-1042.5 323,-1042.5 323,-1012.5 79,-1012.5"/>
<text text-anchor="start" x="86" y="-1023.9" font-family="Arial" font-size="14.00" fill="#000000">Phone </text>
<text text-anchor="start" x="130.3576" y="-1023.9" font-family="Arial" font-size="14.00" fill="#666666">[nvarchar(25)]</text>
<polygon fill="none" stroke="#000000" points="79,-982.5 79,-1012.5 323,-1012.5 323,-982.5 79,-982.5"/>
<text text-anchor="start" x="86" y="-993.9" font-family="Arial" font-size="14.00" fill="#000000">BusinessType </text>
<text text-anchor="start" x="177.7994" y="-993.9" font-family="Arial" font-size="14.00" fill="#666666">[varchar(20)]</text>
<polygon fill="none" stroke="#000000" points="79,-952.5 79,-982.5 323,-982.5 323,-952.5 79,-952.5"/>
<text text-anchor="start" x="86" y="-963.9" font-family="Arial" font-size="14.00" fill="#000000">ResellerName </text>
<text text-anchor="start" x="178.5512" y="-963.9" font-family="Arial" font-size="14.00" fill="#666666">[nvarchar(50)]</text>
<polygon fill="none" stroke="#000000" points="79,-922.5 79,-952.5 323,-952.5 323,-922.5 79,-922.5"/>
<text text-anchor="start" x="86" y="-933.9" font-family="Arial" font-size="14.00" fill="#000000">NumberEmployees </text>
<text text-anchor="start" x="208.9004" y="-933.9" font-family="Arial" font-size="14.00" fill="#666666">[int]</text>
<polygon fill="none" stroke="#000000" points="79,-892.5 79,-922.5 323,-922.5 323,-892.5 79,-892.5"/>
<text text-anchor="start" x="86" y="-903.9" font-family="Arial" font-size="14.00" fill="#000000">OrderFrequency </text>
<text text-anchor="start" x="191.7938" y="-903.9" font-family="Arial" font-size="14.00" fill="#666666">[char]</text>
<polygon fill="none" stroke="#000000" points="79,-862.5 79,-892.5 323,-892.5 323,-862.5 79,-862.5"/>
<text text-anchor="start" x="86" y="-873.9" font-family="Arial" font-size="14.00" fill="#000000">OrderMonth </text>
<text text-anchor="start" x="164.5666" y="-873.9" font-family="Arial" font-size="14.00" fill="#666666">[tinyint]</text>
<polygon fill="none" stroke="#000000" points="79,-832.5 79,-862.5 323,-862.5 323,-832.5 79,-832.5"/>
<text text-anchor="start" x="86" y="-843.9" font-family="Arial" font-size="14.00" fill="#000000">FirstOrderYear </text>
<text text-anchor="start" x="182.4404" y="-843.9" font-family="Arial" font-size="14.00" fill="#666666">[int]</text>
<polygon fill="none" stroke="#000000" points="79,-802.5 79,-832.5 323,-832.5 323,-802.5 79,-802.5"/>
<text text-anchor="start" x="86" y="-813.9" font-family="Arial" font-size="14.00" fill="#000000">LastOrderYear </text>
<text text-anchor="start" x="181.6858" y="-813.9" font-family="Arial" font-size="14.00" fill="#666666">[int]</text>
<polygon fill="none" stroke="#000000" points="79,-772.5 79,-802.5 323,-802.5 323,-772.5 79,-772.5"/>
<text text-anchor="start" x="86" y="-783.9" font-family="Arial" font-size="14.00" fill="#000000">ProductLine </text>
<text text-anchor="start" x="164.5806" y="-783.9" font-family="Arial" font-size="14.00" fill="#666666">[nvarchar(50)]</text>
<polygon fill="none" stroke="#000000" points="79,-742.5 79,-772.5 323,-772.5 323,-742.5 79,-742.5"/>
<text text-anchor="start" x="86" y="-753.9" font-family="Arial" font-size="14.00" fill="#000000">AddressLine1 </text>
<text text-anchor="start" x="175.4726" y="-753.9" font-family="Arial" font-size="14.00" fill="#666666">[nvarchar(60)]</text>
<polygon fill="none" stroke="#000000" points="79,-712.5 79,-742.5 323,-742.5 323,-712.5 79,-712.5"/>
<text text-anchor="start" x="86" y="-723.9" font-family="Arial" font-size="14.00" fill="#000000">AddressLine2 </text>
<text text-anchor="start" x="175.4726" y="-723.9" font-family="Arial" font-size="14.00" fill="#666666">[nvarchar(60)]</text>
<polygon fill="none" stroke="#000000" points="79,-682.5 79,-712.5 323,-712.5 323,-682.5 79,-682.5"/>
<text text-anchor="start" x="86" y="-693.9" font-family="Arial" font-size="14.00" fill="#000000">AnnualSales </text>
<text text-anchor="start" x="168.4726" y="-693.9" font-family="Arial" font-size="14.00" fill="#666666">[money]</text>
<polygon fill="none" stroke="#000000" points="79,-652.5 79,-682.5 323,-682.5 323,-652.5 79,-652.5"/>
<text text-anchor="start" x="86" y="-663.9" font-family="Arial" font-size="14.00" fill="#000000">BankName </text>
<text text-anchor="start" x="159.1248" y="-663.9" font-family="Arial" font-size="14.00" fill="#666666">[nvarchar(50)]</text>
<polygon fill="none" stroke="#000000" points="79,-622.5 79,-652.5 323,-652.5 323,-622.5 79,-622.5"/>
<text text-anchor="start" x="86" y="-633.9" font-family="Arial" font-size="14.00" fill="#000000">MinPaymentType </text>
<text text-anchor="start" x="198.7938" y="-633.9" font-family="Arial" font-size="14.00" fill="#666666">[tinyint]</text>
<polygon fill="none" stroke="#000000" points="79,-592.5 79,-622.5 323,-622.5 323,-592.5 79,-592.5"/>
<text text-anchor="start" x="86" y="-603.9" font-family="Arial" font-size="14.00" fill="#000000">MinPaymentAmount </text>
<text text-anchor="start" x="215.9116" y="-603.9" font-family="Arial" font-size="14.00" fill="#666666">[money]</text>
<polygon fill="none" stroke="#000000" points="79,-562.5 79,-592.5 323,-592.5 323,-562.5 79,-562.5"/>
<text text-anchor="start" x="86" y="-573.9" font-family="Arial" font-size="14.00" fill="#000000">AnnualRevenue </text>
<text text-anchor="start" x="189.4838" y="-573.9" font-family="Arial" font-size="14.00" fill="#666666">[money]</text>
<polygon fill="none" stroke="#000000" points="79,-532.5 79,-562.5 323,-562.5 323,-532.5 79,-532.5"/>
<text text-anchor="start" x="86" y="-543.9" font-family="Arial" font-size="14.00" fill="#000000">YearOpened </text>
<text text-anchor="start" x="169.2566" y="-543.9" font-family="Arial" font-size="14.00" fill="#666666">[int]</text>
<polygon fill="none" stroke="#000000" stroke-width="3" points="77.5,-531.5 77.5,-1169.5 324.5,-1169.5 324.5,-531.5 77.5,-531.5"/>
</g>
<!-- DimGeography -->
<g id="node3" class="node">
<title>DimGeography</title>
<polygon fill="#efefef" stroke="transparent" points="43,-372.5 43,-407.5 359,-407.5 359,-372.5 43,-372.5"/>
<polygon fill="none" stroke="#000000" points="43,-372.5 43,-407.5 359,-407.5 359,-372.5 43,-372.5"/>
<text text-anchor="start" x="74.3796" y="-385.3" font-family="Arial Bold" font-size="18.00" fill="#000000">DimGeography</text>
<text text-anchor="start" x="195.3918" y="-385.3" font-family="Arial" font-size="14.00" fill="#000000">    </text>
<text text-anchor="start" x="229.5966" y="-385.3" font-family="Arial" font-size="14.00" fill="#666666">[BASIC TABLE]</text>
<polygon fill="none" stroke="#000000" points="43,-342.5 43,-372.5 359,-372.5 359,-342.5 43,-342.5"/>
<text text-anchor="start" x="50" y="-353.9" font-family="Arial" font-size="14.00" fill="#000000">GeographyKey    </text>
<text text-anchor="start" x="177.5708" y="-353.9" font-family="Arial" font-size="14.00" fill="#666666">[int]</text>
<polygon fill="none" stroke="#000000" points="43,-312.5 43,-342.5 359,-342.5 359,-312.5 43,-312.5"/>
<text text-anchor="start" x="50" y="-323.9" font-family="Arial" font-size="14.00" fill="#000000">City    </text>
<text text-anchor="start" x="108.3086" y="-323.9" font-family="Arial" font-size="14.00" fill="#666666">[nvarchar(30)]</text>
<polygon fill="none" stroke="#000000" points="43,-282.5 43,-312.5 359,-312.5 359,-282.5 43,-282.5"/>
<text text-anchor="start" x="50" y="-293.9" font-family="Arial" font-size="14.00" fill="#000000">StateProvinceCode    </text>
<text text-anchor="start" x="204.7938" y="-293.9" font-family="Arial" font-size="14.00" fill="#666666">[nvarchar(3)]</text>
<polygon fill="none" stroke="#000000" points="43,-252.5 43,-282.5 359,-282.5 359,-252.5 43,-252.5"/>
<text text-anchor="start" x="50" y="-263.9" font-family="Arial" font-size="14.00" fill="#000000">StateProvinceName    </text>
<text text-anchor="start" x="208.6718" y="-263.9" font-family="Arial" font-size="14.00" fill="#666666">[nvarchar(50)]</text>
<polygon fill="none" stroke="#000000" points="43,-222.5 43,-252.5 359,-252.5 359,-222.5 43,-222.5"/>
<text text-anchor="start" x="50" y="-233.9" font-family="Arial" font-size="14.00" fill="#000000">CountryRegionCode    </text>
<text text-anchor="start" x="211.0084" y="-233.9" font-family="Arial" font-size="14.00" fill="#666666">[nvarchar(3)]</text>
<polygon fill="none" stroke="#000000" points="43,-192.5 43,-222.5 359,-222.5 359,-192.5 43,-192.5"/>
<text text-anchor="start" x="50" y="-203.9" font-family="Arial" font-size="14.00" fill="#000000">EnglishCountryRegionName    </text>
<text text-anchor="start" x="260.784" y="-203.9" font-family="Arial" font-size="14.00" fill="#666666">[nvarchar(50)]</text>
<polygon fill="none" stroke="#000000" points="43,-162.5 43,-192.5 359,-192.5 359,-162.5 43,-162.5"/>
<text text-anchor="start" x="49.7104" y="-173.9" font-family="Arial" font-size="14.00" fill="#000000">SpanishCountryRegionName    </text>
<text text-anchor="start" x="265.1704" y="-173.9" font-family="Arial" font-size="14.00" fill="#666666">[nvarchar(50)]</text>
<polygon fill="none" stroke="#000000" points="43,-132.5 43,-162.5 359,-162.5 359,-132.5 43,-132.5"/>
<text text-anchor="start" x="50" y="-143.9" font-family="Arial" font-size="14.00" fill="#000000">FrenchCountryRegionName    </text>
<text text-anchor="start" x="258.4474" y="-143.9" font-family="Arial" font-size="14.00" fill="#666666">[nvarchar(50)]</text>
<polygon fill="none" stroke="#000000" points="43,-102.5 43,-132.5 359,-132.5 359,-102.5 43,-102.5"/>
<text text-anchor="start" x="50" y="-113.9" font-family="Arial" font-size="14.00" fill="#000000">PostalCode    </text>
<text text-anchor="start" x="156.5582" y="-113.9" font-family="Arial" font-size="14.00" fill="#666666">[nvarchar(15)]</text>
<polygon fill="none" stroke="#000000" points="43,-72.5 43,-102.5 359,-102.5 359,-72.5 43,-72.5"/>
<text text-anchor="start" x="50" y="-83.9" font-family="Arial" font-size="14.00" fill="#000000">SalesTerritoryKey    </text>
<text text-anchor="start" x="195.4292" y="-83.9" font-family="Arial" font-size="14.00" fill="#666666">[int]</text>
<polygon fill="none" stroke="#000000" points="43,-42.5 43,-72.5 359,-72.5 359,-42.5 43,-42.5"/>
<text text-anchor="start" x="50" y="-53.9" font-family="Arial" font-size="14.00" fill="#000000">IpAddressLocator    </text>
<text text-anchor="start" x="193.9046" y="-53.9" font-family="Arial" font-size="14.00" fill="#666666">[nvarchar(15)]</text>
</g>
<!-- DimReseller&#45;&gt;DimGeography -->
<g id="edge2" class="edge">
<title>DimReseller:GeographyKey&#45;&gt;DimGeography:GeographyKey</title>
<path fill="none" stroke="#000000" d="M332.7595,-1083.9165C406.9656,-1028.8453 436.8788,-357.5 359,-357.5"/>
<polygon fill="#000000" stroke="#000000" points="332.3872,-1084.0532 321.4489,-1083.2758 327.6936,-1085.7766 323,-1087.5 323,-1087.5 323,-1087.5 327.6936,-1085.7766 324.5511,-1091.7242 332.3872,-1084.0532 332.3872,-1084.0532"/>
</g>
<!-- FactResellerSales -->
<g id="node2" class="node">
<title>FactResellerSales</title>
<polygon fill="#efefef" stroke="transparent" points="55,-2102.5 55,-2137.5 347,-2137.5 347,-2102.5 55,-2102.5"/>
<polygon fill="none" stroke="#000000" points="55,-2102.5 55,-2137.5 347,-2137.5 347,-2102.5 55,-2102.5"/>
<text text-anchor="start" x="61.8813" y="-2115.3" font-family="Arial Bold" font-size="18.00" fill="#000000">FactResellerSales</text>
<text text-anchor="start" x="207.8901" y="-2115.3" font-family="Arial" font-size="14.00" fill="#000000">    </text>
<text text-anchor="start" x="242.0949" y="-2115.3" font-family="Arial" font-size="14.00" fill="#666666">[BASIC TABLE]</text>
<polygon fill="none" stroke="#000000" points="55,-2072.5 55,-2102.5 347,-2102.5 347,-2072.5 55,-2072.5"/>
<text text-anchor="start" x="62" y="-2083.9" font-family="Arial" font-size="14.00" fill="#000000">ProductKey    </text>
<text text-anchor="start" x="168.5596" y="-2083.9" font-family="Arial" font-size="14.00" fill="#666666">[int]</text>
<polygon fill="none" stroke="#000000" points="55,-2042.5 55,-2072.5 347,-2072.5 347,-2042.5 55,-2042.5"/>
<text text-anchor="start" x="62" y="-2053.9" font-family="Arial" font-size="14.00" fill="#000000">OrderDateKey    </text>
<text text-anchor="start" x="185.6634" y="-2053.9" font-family="Arial" font-size="14.00" fill="#666666">[int]</text>
<polygon fill="none" stroke="#000000" points="55,-2012.5 55,-2042.5 347,-2042.5 347,-2012.5 55,-2012.5"/>
<text text-anchor="start" x="62" y="-2023.9" font-family="Arial" font-size="14.00" fill="#000000">DueDateKey    </text>
<text text-anchor="start" x="175.5582" y="-2023.9" font-family="Arial" font-size="14.00" fill="#666666">[int]</text>
<polygon fill="none" stroke="#000000" points="55,-1982.5 55,-2012.5 347,-2012.5 347,-1982.5 55,-1982.5"/>
<text text-anchor="start" x="62" y="-1993.9" font-family="Arial" font-size="14.00" fill="#000000">ShipDateKey    </text>
<text text-anchor="start" x="177.8948" y="-1993.9" font-family="Arial" font-size="14.00" fill="#666666">[int]</text>
<polygon fill="none" stroke="#000000" points="55,-1952.5 55,-1982.5 347,-1982.5 347,-1952.5 55,-1952.5"/>
<text text-anchor="start" x="62" y="-1963.9" font-family="Arial" font-size="14.00" fill="#000000">ResellerKey    </text>
<text text-anchor="start" x="171.6522" y="-1963.9" font-family="Arial" font-size="14.00" fill="#666666">[int]</text>
<polygon fill="none" stroke="#000000" points="55,-1922.5 55,-1952.5 347,-1952.5 347,-1922.5 55,-1922.5"/>
<text text-anchor="start" x="62" y="-1933.9" font-family="Arial" font-size="14.00" fill="#000000">EmployeeKey    </text>
<text text-anchor="start" x="182.5582" y="-1933.9" font-family="Arial" font-size="14.00" fill="#666666">[int]</text>
<polygon fill="none" stroke="#000000" points="55,-1892.5 55,-1922.5 347,-1922.5 347,-1892.5 55,-1892.5"/>
<text text-anchor="start" x="62" y="-1903.9" font-family="Arial" font-size="14.00" fill="#000000">PromotionKey    </text>
<text text-anchor="start" x="184.1094" y="-1903.9" font-family="Arial" font-size="14.00" fill="#666666">[int]</text>
<polygon fill="none" stroke="#000000" points="55,-1862.5 55,-1892.5 347,-1892.5 347,-1862.5 55,-1862.5"/>
<text text-anchor="start" x="62" y="-1873.9" font-family="Arial" font-size="14.00" fill="#000000">CurrencyKey    </text>
<text text-anchor="start" x="177.0996" y="-1873.9" font-family="Arial" font-size="14.00" fill="#666666">[int]</text>
<polygon fill="none" stroke="#000000" points="55,-1832.5 55,-1862.5 347,-1862.5 347,-1832.5 55,-1832.5"/>
<text text-anchor="start" x="62" y="-1843.9" font-family="Arial" font-size="14.00" fill="#000000">SalesTerritoryKey    </text>
<text text-anchor="start" x="207.4292" y="-1843.9" font-family="Arial" font-size="14.00" fill="#666666">[int]</text>
<polygon fill="none" stroke="#000000" points="55,-1802.5 55,-1832.5 347,-1832.5 347,-1802.5 55,-1802.5"/>
<text text-anchor="start" x="62" y="-1813.9" font-family="Arial" font-size="14.00" fill="#000000">SalesOrderNumber    </text>
<text text-anchor="start" x="216.7658" y="-1813.9" font-family="Arial" font-size="14.00" fill="#666666">[nvarchar(20)]</text>
<polygon fill="none" stroke="#000000" points="55,-1772.5 55,-1802.5 347,-1802.5 347,-1772.5 55,-1772.5"/>
<text text-anchor="start" x="62" y="-1783.9" font-family="Arial" font-size="14.00" fill="#000000">SalesOrderLineNumber    </text>
<text text-anchor="start" x="243.2202" y="-1783.9" font-family="Arial" font-size="14.00" fill="#666666">[tinyint]</text>
<polygon fill="none" stroke="#000000" points="55,-1742.5 55,-1772.5 347,-1772.5 347,-1742.5 55,-1742.5"/>
<text text-anchor="start" x="62" y="-1753.9" font-family="Arial" font-size="14.00" fill="#000000">RevisionNumber    </text>
<text text-anchor="start" x="199.648" y="-1753.9" font-family="Arial" font-size="14.00" fill="#666666">[tinyint]</text>
<polygon fill="none" stroke="#000000" points="55,-1712.5 55,-1742.5 347,-1742.5 347,-1712.5 55,-1712.5"/>
<text text-anchor="start" x="62" y="-1723.9" font-family="Arial" font-size="14.00" fill="#000000">OrderQuantity    </text>
<text text-anchor="start" x="184.108" y="-1723.9" font-family="Arial" font-size="14.00" fill="#666666">[smallint]</text>
<polygon fill="none" stroke="#000000" points="55,-1682.5 55,-1712.5 347,-1712.5 347,-1682.5 55,-1682.5"/>
<text text-anchor="start" x="62" y="-1693.9" font-family="Arial" font-size="14.00" fill="#000000">UnitPrice    </text>
<text text-anchor="start" x="152.9776" y="-1693.9" font-family="Arial" font-size="14.00" fill="#666666">[money]</text>
<polygon fill="none" stroke="#000000" points="55,-1652.5 55,-1682.5 347,-1682.5 347,-1652.5 55,-1652.5"/>
<text text-anchor="start" x="62" y="-1663.9" font-family="Arial" font-size="14.00" fill="#000000">ExtendedAmount    </text>
<text text-anchor="start" x="203.5806" y="-1663.9" font-family="Arial" font-size="14.00" fill="#666666">[money]</text>
<polygon fill="none" stroke="#000000" points="55,-1622.5 55,-1652.5 347,-1652.5 347,-1622.5 55,-1622.5"/>
<text text-anchor="start" x="62" y="-1633.9" font-family="Arial" font-size="14.00" fill="#000000">UnitPriceDiscountPct    </text>
<text text-anchor="start" x="227.6564" y="-1633.9" font-family="Arial" font-size="14.00" fill="#666666">[float]</text>
<polygon fill="none" stroke="#000000" points="55,-1592.5 55,-1622.5 347,-1622.5 347,-1592.5 55,-1592.5"/>
<text text-anchor="start" x="62" y="-1603.9" font-family="Arial" font-size="14.00" fill="#000000">DiscountAmount    </text>
<text text-anchor="start" x="198.892" y="-1603.9" font-family="Arial" font-size="14.00" fill="#666666">[float]</text>
<polygon fill="none" stroke="#000000" points="55,-1562.5 55,-1592.5 347,-1592.5 347,-1562.5 55,-1562.5"/>
<text text-anchor="start" x="62" y="-1573.9" font-family="Arial" font-size="14.00" fill="#000000">ProductStandardCost    </text>
<text text-anchor="start" x="230.021" y="-1573.9" font-family="Arial" font-size="14.00" fill="#666666">[money]</text>
<polygon fill="none" stroke="#000000" points="55,-1532.5 55,-1562.5 347,-1562.5 347,-1532.5 55,-1532.5"/>
<text text-anchor="start" x="62" y="-1543.9" font-family="Arial" font-size="14.00" fill="#000000">TotalProductCost    </text>
<text text-anchor="start" x="204.3352" y="-1543.9" font-family="Arial" font-size="14.00" fill="#666666">[money]</text>
<polygon fill="none" stroke="#000000" points="55,-1502.5 55,-1532.5 347,-1532.5 347,-1502.5 55,-1502.5"/>
<text text-anchor="start" x="62" y="-1513.9" font-family="Arial" font-size="14.00" fill="#000000">SalesAmount    </text>
<text text-anchor="start" x="179.4488" y="-1513.9" font-family="Arial" font-size="14.00" fill="#666666">[money]</text>
<polygon fill="none" stroke="#000000" points="55,-1472.5 55,-1502.5 347,-1502.5 347,-1472.5 55,-1472.5"/>
<text text-anchor="start" x="62" y="-1483.9" font-family="Arial" font-size="14.00" fill="#000000">TaxAmt    </text>
<text text-anchor="start" x="144.4278" y="-1483.9" font-family="Arial" font-size="14.00" fill="#666666">[money]</text>
<polygon fill="none" stroke="#000000" points="55,-1442.5 55,-1472.5 347,-1472.5 347,-1442.5 55,-1442.5"/>
<text text-anchor="start" x="62" y="-1453.9" font-family="Arial" font-size="14.00" fill="#000000">Freight    </text>
<text text-anchor="start" x="139.763" y="-1453.9" font-family="Arial" font-size="14.00" fill="#666666">[money]</text>
<polygon fill="none" stroke="#000000" points="55,-1412.5 55,-1442.5 347,-1442.5 347,-1412.5 55,-1412.5"/>
<text text-anchor="start" x="62" y="-1423.9" font-family="Arial" font-size="14.00" fill="#000000">CarrierTrackingNumber    </text>
<text text-anchor="start" x="242.4082" y="-1423.9" font-family="Arial" font-size="14.00" fill="#666666">[nvarchar(25)]</text>
<polygon fill="none" stroke="#000000" points="55,-1382.5 55,-1412.5 347,-1412.5 347,-1382.5 55,-1382.5"/>
<text text-anchor="start" x="62" y="-1393.9" font-family="Arial" font-size="14.00" fill="#000000">CustomerPONumber    </text>
<text text-anchor="start" x="226.8738" y="-1393.9" font-family="Arial" font-size="14.00" fill="#666666">[nvarchar(25)]</text>
<polygon fill="none" stroke="#000000" points="55,-1352.5 55,-1382.5 347,-1382.5 347,-1352.5 55,-1352.5"/>
<text text-anchor="start" x="62" y="-1363.9" font-family="Arial" font-size="14.00" fill="#000000">OrderDate    </text>
<text text-anchor="start" x="161.5442" y="-1363.9" font-family="Arial" font-size="14.00" fill="#666666">[datetime]</text>
<polygon fill="none" stroke="#000000" points="55,-1322.5 55,-1352.5 347,-1352.5 347,-1322.5 55,-1322.5"/>
<text text-anchor="start" x="62" y="-1333.9" font-family="Arial" font-size="14.00" fill="#000000">DueDate    </text>
<text text-anchor="start" x="151.439" y="-1333.9" font-family="Arial" font-size="14.00" fill="#666666">[datetime]</text>
<polygon fill="none" stroke="#000000" points="55,-1292.5 55,-1322.5 347,-1322.5 347,-1292.5 55,-1292.5"/>
<text text-anchor="start" x="62" y="-1303.9" font-family="Arial" font-size="14.00" fill="#000000">ShipDate    </text>
<text text-anchor="start" x="153.7756" y="-1303.9" font-family="Arial" font-size="14.00" fill="#666666">[datetime]</text>
</g>
<!-- FactResellerSales&#45;&gt;DimReseller -->
<g id="edge1" class="edge">
<title>FactResellerSales:ResellerKey&#45;&gt;DimReseller:ResellerKey</title>
<path fill="none" stroke="#000000" d="M356.5277,-1964.4222C439.7075,-1908.7849 414.1604,-1117.5 323,-1117.5"/>
<polygon fill="#000000" stroke="#000000" points="356.5158,-1964.4259 345.6167,-1963.2179 351.7579,-1965.963 347,-1967.5 347,-1967.5 347,-1967.5 351.7579,-1965.963 348.3833,-1971.7821 356.5158,-1964.4259 356.5158,-1964.4259"/>
</g>
</g>
</svg>
