<?xml version="1.0" encoding="UTF-8" standalone="no"?>
<!DOCTYPE svg PUBLIC "-//W3C//DTD SVG 1.1//EN"
 "http://www.w3.org/Graphics/SVG/1.1/DTD/svg11.dtd">
<!-- Generated by graphviz version 2.40.1 (20161225.0304)
 -->
<!-- Title: DimSalesReason Pages: 1 -->
<svg width="443pt" height="502pt"
 viewBox="0.00 0.00 443.00 502.00" xmlns="http://www.w3.org/2000/svg" xmlns:xlink="http://www.w3.org/1999/xlink">
<g id="graph0" class="graph" transform="scale(1 1) rotate(0) translate(4 498)">
<title>DimSalesReason</title>
<polygon fill="#ffffff" stroke="transparent" points="-4,4 -4,-498 439,-498 439,4 -4,4"/>
<!-- DimSalesReason -->
<g id="node1" class="node">
<title>DimSalesReason</title>
<polygon fill="#efefef" stroke="transparent" points="75.5,-165.5 75.5,-200.5 360.5,-200.5 360.5,-165.5 75.5,-165.5"/>
<polygon fill="none" stroke="#000000" points="75.5,-165.5 75.5,-200.5 360.5,-200.5 360.5,-165.5 75.5,-165.5"/>
<text text-anchor="start" x="82.3805" y="-178.3" font-family="Arial Bold" font-size="18.00" fill="#000000">DimSalesReason</text>
<text text-anchor="start" x="221.3909" y="-178.3" font-family="Arial" font-size="14.00" fill="#000000">    </text>
<text text-anchor="start" x="255.5957" y="-178.3" font-family="Arial" font-size="14.00" fill="#666666">[BASIC TABLE]</text>
<polygon fill="none" stroke="#000000" points="75.5,-135.5 75.5,-165.5 360.5,-165.5 360.5,-135.5 75.5,-135.5"/>
<text text-anchor="start" x="82.5" y="-146.9" font-family="Arial" font-size="14.00" fill="#000000">SalesReasonKey </text>
<text text-anchor="start" x="193.7552" y="-146.9" font-family="Arial" font-size="14.00" fill="#666666">[int]</text>
<polygon fill="none" stroke="#000000" points="75.5,-105.5 75.5,-135.5 360.5,-135.5 360.5,-105.5 75.5,-105.5"/>
<text text-anchor="start" x="82.5" y="-116.9" font-family="Arial" font-size="14.00" fill="#000000">SalesReasonAlternateKey </text>
<text text-anchor="start" x="249.7706" y="-116.9" font-family="Arial" font-size="14.00" fill="#666666">[int]</text>
<polygon fill="none" stroke="#000000" points="75.5,-75.5 75.5,-105.5 360.5,-105.5 360.5,-75.5 75.5,-75.5"/>
<text text-anchor="start" x="82.5" y="-86.9" font-family="Arial" font-size="14.00" fill="#000000">SalesReasonName </text>
<text text-anchor="start" x="206.9684" y="-86.9" font-family="Arial" font-size="14.00" fill="#666666">[nvarchar(50)]</text>
<polygon fill="none" stroke="#000000" points="75.5,-45.5 75.5,-75.5 360.5,-75.5 360.5,-45.5 75.5,-45.5"/>
<text text-anchor="start" x="82.5" y="-56.9" font-family="Arial" font-size="14.00" fill="#000000">SalesReasonReasonType </text>
<text text-anchor="start" x="248.9908" y="-56.9" font-family="Arial" font-size="14.00" fill="#666666">[nvarchar(50)]</text>
<polygon fill="none" stroke="#000000" stroke-width="3" points="73.5,-44.5 73.5,-202.5 361.5,-202.5 361.5,-44.5 73.5,-44.5"/>
</g>
<!-- FactInternetSalesReason -->
<g id="node2" class="node">
<title>FactInternetSalesReason</title>
<polygon fill="#efefef" stroke="transparent" points="43.5,-415.5 43.5,-450.5 392.5,-450.5 392.5,-415.5 43.5,-415.5"/>
<polygon fill="none" stroke="#000000" points="43.5,-415.5 43.5,-450.5 392.5,-450.5 392.5,-415.5 43.5,-415.5"/>
<text text-anchor="start" x="50.3567" y="-428.3" font-family="Arial Bold" font-size="18.00" fill="#000000">FactInternetSalesReason</text>
<text text-anchor="start" x="253.4147" y="-428.3" font-family="Arial" font-size="14.00" fill="#000000">    </text>
<text text-anchor="start" x="287.6195" y="-428.3" font-family="Arial" font-size="14.00" fill="#666666">[BASIC TABLE]</text>
<polygon fill="none" stroke="#000000" points="43.5,-385.5 43.5,-415.5 392.5,-415.5 392.5,-385.5 43.5,-385.5"/>
<text text-anchor="start" x="50.5" y="-396.9" font-family="Arial" font-size="14.00" fill="#000000">SalesOrderNumber    </text>
<text text-anchor="start" x="205.2658" y="-396.9" font-family="Arial" font-size="14.00" fill="#666666">[nvarchar(20)]</text>
<polygon fill="none" stroke="#000000" points="43.5,-355.5 43.5,-385.5 392.5,-385.5 392.5,-355.5 43.5,-355.5"/>
<text text-anchor="start" x="50.5" y="-366.9" font-family="Arial" font-size="14.00" fill="#000000">SalesOrderLineNumber    </text>
<text text-anchor="start" x="231.7202" y="-366.9" font-family="Arial" font-size="14.00" fill="#666666">[tinyint]</text>
<polygon fill="none" stroke="#000000" points="43.5,-325.5 43.5,-355.5 392.5,-355.5 392.5,-325.5 43.5,-325.5"/>
<text text-anchor="start" x="50.5" y="-336.9" font-family="Arial" font-size="14.00" fill="#000000">SalesReasonKey    </text>
<text text-anchor="start" x="192.0694" y="-336.9" font-family="Arial" font-size="14.00" fill="#666666">[int]</text>
</g>
<!-- FactInternetSalesReason&#45;&gt;DimSalesReason -->
<g id="edge1" class="edge">
<title>FactInternetSalesReason:SalesReasonKey&#45;&gt;DimSalesReason:SalesReasonKey</title>
<path fill="none" stroke="#000000" d="M217.7023,-315.4195C207.9052,-258.4194 110.5507,-306.2257 75.5,-247 53.6564,-210.0905 32.6111,-150.5 75.5,-150.5"/>
<polygon fill="#000000" stroke="#000000" points="217.7111,-315.5312 214.014,-325.855 218.1055,-320.5156 218.5,-325.5 218.5,-325.5 218.5,-325.5 218.1055,-320.5156 222.986,-325.145 217.7111,-315.5312 217.7111,-315.5312"/>
</g>
</g>
</svg>
