<?xml version="1.0" encoding="UTF-8" standalone="no"?>
<!DOCTYPE svg PUBLIC "-//W3C//DTD SVG 1.1//EN"
 "http://www.w3.org/Graphics/SVG/1.1/DTD/svg11.dtd">
<!-- Generated by graphviz version 2.40.1 (20161225.0304)
 -->
<!-- Title: DimSalesTerritory Pages: 1 -->
<svg width="1686pt" height="1402pt"
 viewBox="0.00 0.00 1686.00 1402.00" xmlns="http://www.w3.org/2000/svg" xmlns:xlink="http://www.w3.org/1999/xlink">
<g id="graph0" class="graph" transform="scale(1 1) rotate(0) translate(4 1398)">
<title>DimSalesTerritory</title>
<polygon fill="#ffffff" stroke="transparent" points="-4,4 -4,-1398 1682,-1398 1682,4 -4,4"/>
<!-- DimSalesTerritory -->
<g id="node1" class="node">
<title>DimSalesTerritory</title>
<polygon fill="#efefef" stroke="transparent" points="747,-225.5 747,-260.5 1037,-260.5 1037,-225.5 747,-225.5"/>
<polygon fill="none" stroke="#000000" points="747,-225.5 747,-260.5 1037,-260.5 1037,-225.5 747,-225.5"/>
<text text-anchor="start" x="753.8992" y="-238.3" font-family="Arial Bold" font-size="18.00" fill="#000000">DimSalesTerritory</text>
<text text-anchor="start" x="897.8722" y="-238.3" font-family="Arial" font-size="14.00" fill="#000000">    </text>
<text text-anchor="start" x="932.077" y="-238.3" font-family="Arial" font-size="14.00" fill="#666666">[BASIC TABLE]</text>
<polygon fill="none" stroke="#000000" points="747,-195.5 747,-225.5 1037,-225.5 1037,-195.5 747,-195.5"/>
<text text-anchor="start" x="754" y="-206.9" font-family="Arial" font-size="14.00" fill="#000000">SalesTerritoryKey </text>
<text text-anchor="start" x="869.115" y="-206.9" font-family="Arial" font-size="14.00" fill="#666666">[int]</text>
<polygon fill="none" stroke="#000000" points="747,-165.5 747,-195.5 1037,-195.5 1037,-165.5 747,-165.5"/>
<text text-anchor="start" x="754" y="-176.9" font-family="Arial" font-size="14.00" fill="#000000">SalesTerritoryAlternateKey </text>
<text text-anchor="start" x="925.1304" y="-176.9" font-family="Arial" font-size="14.00" fill="#666666">[int]</text>
<polygon fill="none" stroke="#000000" points="747,-135.5 747,-165.5 1037,-165.5 1037,-135.5 747,-135.5"/>
<text text-anchor="start" x="754" y="-146.9" font-family="Arial" font-size="14.00" fill="#000000">SalesTerritoryRegion </text>
<text text-anchor="start" x="889.3394" y="-146.9" font-family="Arial" font-size="14.00" fill="#666666">[nvarchar(50)]</text>
<polygon fill="none" stroke="#000000" points="747,-105.5 747,-135.5 1037,-135.5 1037,-105.5 747,-105.5"/>
<text text-anchor="start" x="754" y="-116.9" font-family="Arial" font-size="14.00" fill="#000000">SalesTerritoryCountry </text>
<text text-anchor="start" x="894.0014" y="-116.9" font-family="Arial" font-size="14.00" fill="#666666">[nvarchar(50)]</text>
<polygon fill="none" stroke="#000000" points="747,-75.5 747,-105.5 1037,-105.5 1037,-75.5 747,-75.5"/>
<text text-anchor="start" x="754" y="-86.9" font-family="Arial" font-size="14.00" fill="#000000">SalesTerritoryGroup </text>
<text text-anchor="start" x="883.8948" y="-86.9" font-family="Arial" font-size="14.00" fill="#666666">[nvarchar(50)]</text>
<polygon fill="none" stroke="#000000" points="747,-45.5 747,-75.5 1037,-75.5 1037,-45.5 747,-45.5"/>
<text text-anchor="start" x="754" y="-56.9" font-family="Arial" font-size="14.00" fill="#000000">SalesTerritoryImage </text>
<text text-anchor="start" x="883.8948" y="-56.9" font-family="Arial" font-size="14.00" fill="#666666">[varbinary(MAX)]</text>
<polygon fill="none" stroke="#000000" stroke-width="3" points="745.5,-44.5 745.5,-262.5 1038.5,-262.5 1038.5,-44.5 745.5,-44.5"/>
</g>
<!-- DimEmployee -->
<g id="node2" class="node">
<title>DimEmployee</title>
<polygon fill="#efefef" stroke="transparent" points="43,-1315.5 43,-1350.5 427,-1350.5 427,-1315.5 43,-1315.5"/>
<polygon fill="none" stroke="#000000" points="43,-1315.5 43,-1350.5 427,-1350.5 427,-1315.5 43,-1315.5"/>
<text text-anchor="start" x="112.8877" y="-1328.3" font-family="Arial Bold" font-size="18.00" fill="#000000">DimEmployee</text>
<text text-anchor="start" x="224.8837" y="-1328.3" font-family="Arial" font-size="14.00" fill="#000000">    </text>
<text text-anchor="start" x="259.0885" y="-1328.3" font-family="Arial" font-size="14.00" fill="#666666">[BASIC TABLE]</text>
<polygon fill="none" stroke="#000000" points="43,-1285.5 43,-1315.5 427,-1315.5 427,-1285.5 43,-1285.5"/>
<text text-anchor="start" x="50" y="-1296.9" font-family="Arial" font-size="14.00" fill="#000000">EmployeeKey    </text>
<text text-anchor="start" x="170.5582" y="-1296.9" font-family="Arial" font-size="14.00" fill="#666666">[int]</text>
<polygon fill="none" stroke="#000000" points="43,-1255.5 43,-1285.5 427,-1285.5 427,-1255.5 43,-1255.5"/>
<text text-anchor="start" x="50" y="-1266.9" font-family="Arial" font-size="14.00" fill="#000000">ParentEmployeeKey    </text>
<text text-anchor="start" x="211.7938" y="-1266.9" font-family="Arial" font-size="14.00" fill="#666666">[int]</text>
<polygon fill="none" stroke="#000000" points="43,-1225.5 43,-1255.5 427,-1255.5 427,-1225.5 43,-1225.5"/>
<text text-anchor="start" x="50" y="-1236.9" font-family="Arial" font-size="14.00" fill="#000000">EmployeeNationalIDAlternateKey    </text>
<text text-anchor="start" x="291.9116" y="-1236.9" font-family="Arial" font-size="14.00" fill="#666666">[nvarchar(15)]</text>
<polygon fill="none" stroke="#000000" points="43,-1195.5 43,-1225.5 427,-1225.5 427,-1195.5 43,-1195.5"/>
<text text-anchor="start" x="49.8668" y="-1206.9" font-family="Arial" font-size="14.00" fill="#000000">ParentEmployeeNationalIDAlternateKey    </text>
<text text-anchor="start" x="333.014" y="-1206.9" font-family="Arial" font-size="14.00" fill="#666666">[nvarchar(15)]</text>
<polygon fill="none" stroke="#000000" points="43,-1165.5 43,-1195.5 427,-1195.5 427,-1165.5 43,-1165.5"/>
<text text-anchor="start" x="50" y="-1176.9" font-family="Arial" font-size="14.00" fill="#000000">SalesTerritoryKey    </text>
<text text-anchor="start" x="195.4292" y="-1176.9" font-family="Arial" font-size="14.00" fill="#666666">[int]</text>
<polygon fill="none" stroke="#000000" points="43,-1135.5 43,-1165.5 427,-1165.5 427,-1135.5 43,-1135.5"/>
<text text-anchor="start" x="50" y="-1146.9" font-family="Arial" font-size="14.00" fill="#000000">FirstName    </text>
<text text-anchor="start" x="148.7476" y="-1146.9" font-family="Arial" font-size="14.00" fill="#666666">[nvarchar(50)]</text>
<polygon fill="none" stroke="#000000" points="43,-1105.5 43,-1135.5 427,-1135.5 427,-1105.5 43,-1105.5"/>
<text text-anchor="start" x="50" y="-1116.9" font-family="Arial" font-size="14.00" fill="#000000">LastName    </text>
<text text-anchor="start" x="147.993" y="-1116.9" font-family="Arial" font-size="14.00" fill="#666666">[nvarchar(50)]</text>
<polygon fill="none" stroke="#000000" points="43,-1075.5 43,-1105.5 427,-1105.5 427,-1075.5 43,-1075.5"/>
<text text-anchor="start" x="50" y="-1086.9" font-family="Arial" font-size="14.00" fill="#000000">MiddleName    </text>
<text text-anchor="start" x="162.7588" y="-1086.9" font-family="Arial" font-size="14.00" fill="#666666">[nvarchar(50)]</text>
<polygon fill="none" stroke="#000000" points="43,-1045.5 43,-1075.5 427,-1075.5 427,-1045.5 43,-1045.5"/>
<text text-anchor="start" x="50" y="-1056.9" font-family="Arial" font-size="14.00" fill="#000000">NameStyle    </text>
<text text-anchor="start" x="152.6536" y="-1056.9" font-family="Arial" font-size="14.00" fill="#666666">[bit]</text>
<polygon fill="none" stroke="#000000" points="43,-1015.5 43,-1045.5 427,-1045.5 427,-1015.5 43,-1015.5"/>
<text text-anchor="start" x="50" y="-1026.9" font-family="Arial" font-size="14.00" fill="#000000">Title    </text>
<text text-anchor="start" x="110.6438" y="-1026.9" font-family="Arial" font-size="14.00" fill="#666666">[nvarchar(50)]</text>
<polygon fill="none" stroke="#000000" points="43,-985.5 43,-1015.5 427,-1015.5 427,-985.5 43,-985.5"/>
<text text-anchor="start" x="50" y="-996.9" font-family="Arial" font-size="14.00" fill="#000000">HireDate    </text>
<text text-anchor="start" x="139.4236" y="-996.9" font-family="Arial" font-size="14.00" fill="#666666">[date]</text>
<polygon fill="none" stroke="#000000" points="43,-955.5 43,-985.5 427,-985.5 427,-955.5 43,-955.5"/>
<text text-anchor="start" x="50" y="-966.9" font-family="Arial" font-size="14.00" fill="#000000">BirthDate    </text>
<text text-anchor="start" x="142.5442" y="-966.9" font-family="Arial" font-size="14.00" fill="#666666">[date]</text>
<polygon fill="none" stroke="#000000" points="43,-925.5 43,-955.5 427,-955.5 427,-925.5 43,-925.5"/>
<text text-anchor="start" x="50" y="-936.9" font-family="Arial" font-size="14.00" fill="#000000">LoginID    </text>
<text text-anchor="start" x="132.439" y="-936.9" font-family="Arial" font-size="14.00" fill="#666666">[nvarchar(256)]</text>
<polygon fill="none" stroke="#000000" points="43,-895.5 43,-925.5 427,-925.5 427,-895.5 43,-895.5"/>
<text text-anchor="start" x="50" y="-906.9" font-family="Arial" font-size="14.00" fill="#000000">EmailAddress    </text>
<text text-anchor="start" x="170.5428" y="-906.9" font-family="Arial" font-size="14.00" fill="#666666">[nvarchar(50)]</text>
<polygon fill="none" stroke="#000000" points="43,-865.5 43,-895.5 427,-895.5 427,-865.5 43,-865.5"/>
<text text-anchor="start" x="50" y="-876.9" font-family="Arial" font-size="14.00" fill="#000000">Phone    </text>
<text text-anchor="start" x="124.6718" y="-876.9" font-family="Arial" font-size="14.00" fill="#666666">[nvarchar(25)]</text>
<polygon fill="none" stroke="#000000" points="43,-835.5 43,-865.5 427,-865.5 427,-835.5 43,-835.5"/>
<text text-anchor="start" x="50" y="-846.9" font-family="Arial" font-size="14.00" fill="#000000">MaritalStatus    </text>
<text text-anchor="start" x="165.878" y="-846.9" font-family="Arial" font-size="14.00" fill="#666666">[nchar]</text>
<polygon fill="none" stroke="#000000" points="43,-805.5 43,-835.5 427,-835.5 427,-805.5 43,-805.5"/>
<text text-anchor="start" x="50" y="-816.9" font-family="Arial" font-size="14.00" fill="#000000">EmergencyContactName    </text>
<text text-anchor="start" x="240.561" y="-816.9" font-family="Arial" font-size="14.00" fill="#666666">[nvarchar(50)]</text>
<polygon fill="none" stroke="#000000" points="43,-775.5 43,-805.5 427,-805.5 427,-775.5 43,-775.5"/>
<text text-anchor="start" x="50" y="-786.9" font-family="Arial" font-size="14.00" fill="#000000">EmergencyContactPhone    </text>
<text text-anchor="start" x="243.6956" y="-786.9" font-family="Arial" font-size="14.00" fill="#666666">[nvarchar(25)]</text>
<polygon fill="none" stroke="#000000" points="43,-745.5 43,-775.5 427,-775.5 427,-745.5 43,-745.5"/>
<text text-anchor="start" x="50" y="-756.9" font-family="Arial" font-size="14.00" fill="#000000">SalariedFlag    </text>
<text text-anchor="start" x="162.77" y="-756.9" font-family="Arial" font-size="14.00" fill="#666666">[bit]</text>
<polygon fill="none" stroke="#000000" points="43,-715.5 43,-745.5 427,-745.5 427,-715.5 43,-715.5"/>
<text text-anchor="start" x="50" y="-726.9" font-family="Arial" font-size="14.00" fill="#000000">Gender    </text>
<text text-anchor="start" x="130.8864" y="-726.9" font-family="Arial" font-size="14.00" fill="#666666">[nchar]</text>
<polygon fill="none" stroke="#000000" points="43,-685.5 43,-715.5 427,-715.5 427,-685.5 43,-685.5"/>
<text text-anchor="start" x="50" y="-696.9" font-family="Arial" font-size="14.00" fill="#000000">PayFrequency    </text>
<text text-anchor="start" x="174.4502" y="-696.9" font-family="Arial" font-size="14.00" fill="#666666">[tinyint]</text>
<polygon fill="none" stroke="#000000" points="43,-655.5 43,-685.5 427,-685.5 427,-655.5 43,-655.5"/>
<text text-anchor="start" x="50" y="-666.9" font-family="Arial" font-size="14.00" fill="#000000">BaseRate    </text>
<text text-anchor="start" x="145.669" y="-666.9" font-family="Arial" font-size="14.00" fill="#666666">[money]</text>
<polygon fill="none" stroke="#000000" points="43,-625.5 43,-655.5 427,-655.5 427,-625.5 43,-625.5"/>
<text text-anchor="start" x="50" y="-636.9" font-family="Arial" font-size="14.00" fill="#000000">VacationHours    </text>
<text text-anchor="start" x="176.0014" y="-636.9" font-family="Arial" font-size="14.00" fill="#666666">[smallint]</text>
<polygon fill="none" stroke="#000000" points="43,-595.5 43,-625.5 427,-625.5 427,-595.5 43,-595.5"/>
<text text-anchor="start" x="50" y="-606.9" font-family="Arial" font-size="14.00" fill="#000000">SickLeaveHours    </text>
<text text-anchor="start" x="186.1108" y="-606.9" font-family="Arial" font-size="14.00" fill="#666666">[smallint]</text>
<polygon fill="none" stroke="#000000" points="43,-565.5 43,-595.5 427,-595.5 427,-565.5 43,-565.5"/>
<text text-anchor="start" x="50" y="-576.9" font-family="Arial" font-size="14.00" fill="#000000">CurrentFlag    </text>
<text text-anchor="start" x="158.0954" y="-576.9" font-family="Arial" font-size="14.00" fill="#666666">[bit]</text>
<polygon fill="none" stroke="#000000" points="43,-535.5 43,-565.5 427,-565.5 427,-535.5 43,-535.5"/>
<text text-anchor="start" x="50" y="-546.9" font-family="Arial" font-size="14.00" fill="#000000">SalesPersonFlag    </text>
<text text-anchor="start" x="190.7826" y="-546.9" font-family="Arial" font-size="14.00" fill="#666666">[bit]</text>
<polygon fill="none" stroke="#000000" points="43,-505.5 43,-535.5 427,-535.5 427,-505.5 43,-505.5"/>
<text text-anchor="start" x="50" y="-516.9" font-family="Arial" font-size="14.00" fill="#000000">DepartmentName    </text>
<text text-anchor="start" x="194.6592" y="-516.9" font-family="Arial" font-size="14.00" fill="#666666">[nvarchar(50)]</text>
<polygon fill="none" stroke="#000000" points="43,-475.5 43,-505.5 427,-505.5 427,-475.5 43,-475.5"/>
<text text-anchor="start" x="50" y="-486.9" font-family="Arial" font-size="14.00" fill="#000000">StartDate    </text>
<text text-anchor="start" x="143.3282" y="-486.9" font-family="Arial" font-size="14.00" fill="#666666">[date]</text>
<polygon fill="none" stroke="#000000" points="43,-445.5 43,-475.5 427,-475.5 427,-445.5 43,-445.5"/>
<text text-anchor="start" x="50" y="-456.9" font-family="Arial" font-size="14.00" fill="#000000">EndDate    </text>
<text text-anchor="start" x="138.669" y="-456.9" font-family="Arial" font-size="14.00" fill="#666666">[date]</text>
<polygon fill="none" stroke="#000000" points="43,-415.5 43,-445.5 427,-445.5 427,-415.5 43,-415.5"/>
<text text-anchor="start" x="50" y="-426.9" font-family="Arial" font-size="14.00" fill="#000000">Status    </text>
<text text-anchor="start" x="123.8878" y="-426.9" font-family="Arial" font-size="14.00" fill="#666666">[nvarchar(50)]</text>
<polygon fill="none" stroke="#000000" points="43,-385.5 43,-415.5 427,-415.5 427,-385.5 43,-385.5"/>
<text text-anchor="start" x="50" y="-396.9" font-family="Arial" font-size="14.00" fill="#000000">EmployeePhoto    </text>
<text text-anchor="start" x="183.014" y="-396.9" font-family="Arial" font-size="14.00" fill="#666666">[varbinary(MAX)]</text>
</g>
<!-- DimEmployee&#45;&gt;DimSalesTerritory -->
<g id="edge1" class="edge">
<title>DimEmployee:SalesTerritoryKey&#45;&gt;DimSalesTerritory:SalesTerritoryKey</title>
<path fill="none" stroke="#000000" d="M436.6277,-1177.4345C513.5417,-1125.0434 429.29,-417.7559 479,-343 552.5745,-232.3557 614.1265,-210.5 747,-210.5"/>
<polygon fill="#000000" stroke="#000000" points="436.5286,-1177.4659 425.6347,-1176.2121 431.7643,-1178.983 427,-1180.5 427,-1180.5 427,-1180.5 431.7643,-1178.983 428.3653,-1184.7879 436.5286,-1177.4659 436.5286,-1177.4659"/>
</g>
<!-- DimGeography -->
<g id="node3" class="node">
<title>DimGeography</title>
<polygon fill="#efefef" stroke="transparent" points="531,-1015.5 531,-1050.5 847,-1050.5 847,-1015.5 531,-1015.5"/>
<polygon fill="none" stroke="#000000" points="531,-1015.5 531,-1050.5 847,-1050.5 847,-1015.5 531,-1015.5"/>
<text text-anchor="start" x="562.3796" y="-1028.3" font-family="Arial Bold" font-size="18.00" fill="#000000">DimGeography</text>
<text text-anchor="start" x="683.3918" y="-1028.3" font-family="Arial" font-size="14.00" fill="#000000">    </text>
<text text-anchor="start" x="717.5966" y="-1028.3" font-family="Arial" font-size="14.00" fill="#666666">[BASIC TABLE]</text>
<polygon fill="none" stroke="#000000" points="531,-985.5 531,-1015.5 847,-1015.5 847,-985.5 531,-985.5"/>
<text text-anchor="start" x="538" y="-996.9" font-family="Arial" font-size="14.00" fill="#000000">GeographyKey    </text>
<text text-anchor="start" x="665.5708" y="-996.9" font-family="Arial" font-size="14.00" fill="#666666">[int]</text>
<polygon fill="none" stroke="#000000" points="531,-955.5 531,-985.5 847,-985.5 847,-955.5 531,-955.5"/>
<text text-anchor="start" x="538" y="-966.9" font-family="Arial" font-size="14.00" fill="#000000">City    </text>
<text text-anchor="start" x="596.3086" y="-966.9" font-family="Arial" font-size="14.00" fill="#666666">[nvarchar(30)]</text>
<polygon fill="none" stroke="#000000" points="531,-925.5 531,-955.5 847,-955.5 847,-925.5 531,-925.5"/>
<text text-anchor="start" x="538" y="-936.9" font-family="Arial" font-size="14.00" fill="#000000">StateProvinceCode    </text>
<text text-anchor="start" x="692.7938" y="-936.9" font-family="Arial" font-size="14.00" fill="#666666">[nvarchar(3)]</text>
<polygon fill="none" stroke="#000000" points="531,-895.5 531,-925.5 847,-925.5 847,-895.5 531,-895.5"/>
<text text-anchor="start" x="538" y="-906.9" font-family="Arial" font-size="14.00" fill="#000000">StateProvinceName    </text>
<text text-anchor="start" x="696.6718" y="-906.9" font-family="Arial" font-size="14.00" fill="#666666">[nvarchar(50)]</text>
<polygon fill="none" stroke="#000000" points="531,-865.5 531,-895.5 847,-895.5 847,-865.5 531,-865.5"/>
<text text-anchor="start" x="538" y="-876.9" font-family="Arial" font-size="14.00" fill="#000000">CountryRegionCode    </text>
<text text-anchor="start" x="699.0084" y="-876.9" font-family="Arial" font-size="14.00" fill="#666666">[nvarchar(3)]</text>
<polygon fill="none" stroke="#000000" points="531,-835.5 531,-865.5 847,-865.5 847,-835.5 531,-835.5"/>
<text text-anchor="start" x="538" y="-846.9" font-family="Arial" font-size="14.00" fill="#000000">EnglishCountryRegionName    </text>
<text text-anchor="start" x="748.784" y="-846.9" font-family="Arial" font-size="14.00" fill="#666666">[nvarchar(50)]</text>
<polygon fill="none" stroke="#000000" points="531,-805.5 531,-835.5 847,-835.5 847,-805.5 531,-805.5"/>
<text text-anchor="start" x="537.7104" y="-816.9" font-family="Arial" font-size="14.00" fill="#000000">SpanishCountryRegionName    </text>
<text text-anchor="start" x="753.1704" y="-816.9" font-family="Arial" font-size="14.00" fill="#666666">[nvarchar(50)]</text>
<polygon fill="none" stroke="#000000" points="531,-775.5 531,-805.5 847,-805.5 847,-775.5 531,-775.5"/>
<text text-anchor="start" x="538" y="-786.9" font-family="Arial" font-size="14.00" fill="#000000">FrenchCountryRegionName    </text>
<text text-anchor="start" x="746.4474" y="-786.9" font-family="Arial" font-size="14.00" fill="#666666">[nvarchar(50)]</text>
<polygon fill="none" stroke="#000000" points="531,-745.5 531,-775.5 847,-775.5 847,-745.5 531,-745.5"/>
<text text-anchor="start" x="538" y="-756.9" font-family="Arial" font-size="14.00" fill="#000000">PostalCode    </text>
<text text-anchor="start" x="644.5582" y="-756.9" font-family="Arial" font-size="14.00" fill="#666666">[nvarchar(15)]</text>
<polygon fill="none" stroke="#000000" points="531,-715.5 531,-745.5 847,-745.5 847,-715.5 531,-715.5"/>
<text text-anchor="start" x="538" y="-726.9" font-family="Arial" font-size="14.00" fill="#000000">SalesTerritoryKey    </text>
<text text-anchor="start" x="683.4292" y="-726.9" font-family="Arial" font-size="14.00" fill="#666666">[int]</text>
<polygon fill="none" stroke="#000000" points="531,-685.5 531,-715.5 847,-715.5 847,-685.5 531,-685.5"/>
<text text-anchor="start" x="538" y="-696.9" font-family="Arial" font-size="14.00" fill="#000000">IpAddressLocator    </text>
<text text-anchor="start" x="681.9046" y="-696.9" font-family="Arial" font-size="14.00" fill="#666666">[nvarchar(15)]</text>
</g>
<!-- DimGeography&#45;&gt;DimSalesTerritory -->
<g id="edge2" class="edge">
<title>DimGeography:SalesTerritoryKey&#45;&gt;DimSalesTerritory:SalesTerritoryKey</title>
<path fill="none" stroke="#000000" d="M856.9955,-728.9147C943.5293,-697.5244 633.1193,-210.5 747,-210.5"/>
<polygon fill="#000000" stroke="#000000" points="856.8765,-728.9334 846.295,-726.0556 851.9383,-729.7167 847,-730.5 847,-730.5 847,-730.5 851.9383,-729.7167 847.705,-734.9444 856.8765,-728.9334 856.8765,-728.9334"/>
</g>
<!-- FactInternetSales -->
<g id="node4" class="node">
<title>FactInternetSales</title>
<polygon fill="#efefef" stroke="transparent" points="952,-1240.5 952,-1275.5 1239,-1275.5 1239,-1240.5 952,-1240.5"/>
<polygon fill="none" stroke="#000000" points="952,-1240.5 952,-1275.5 1239,-1275.5 1239,-1240.5 952,-1240.5"/>
<text text-anchor="start" x="958.8662" y="-1253.3" font-family="Arial Bold" font-size="18.00" fill="#000000">FactInternetSales</text>
<text text-anchor="start" x="1099.9052" y="-1253.3" font-family="Arial" font-size="14.00" fill="#000000">    </text>
<text text-anchor="start" x="1134.11" y="-1253.3" font-family="Arial" font-size="14.00" fill="#666666">[BASIC TABLE]</text>
<polygon fill="none" stroke="#000000" points="952,-1210.5 952,-1240.5 1239,-1240.5 1239,-1210.5 952,-1210.5"/>
<text text-anchor="start" x="959" y="-1221.9" font-family="Arial" font-size="14.00" fill="#000000">ProductKey    </text>
<text text-anchor="start" x="1065.5596" y="-1221.9" font-family="Arial" font-size="14.00" fill="#666666">[int]</text>
<polygon fill="none" stroke="#000000" points="952,-1180.5 952,-1210.5 1239,-1210.5 1239,-1180.5 952,-1180.5"/>
<text text-anchor="start" x="959" y="-1191.9" font-family="Arial" font-size="14.00" fill="#000000">OrderDateKey    </text>
<text text-anchor="start" x="1082.6634" y="-1191.9" font-family="Arial" font-size="14.00" fill="#666666">[int]</text>
<polygon fill="none" stroke="#000000" points="952,-1150.5 952,-1180.5 1239,-1180.5 1239,-1150.5 952,-1150.5"/>
<text text-anchor="start" x="959" y="-1161.9" font-family="Arial" font-size="14.00" fill="#000000">DueDateKey    </text>
<text text-anchor="start" x="1072.5582" y="-1161.9" font-family="Arial" font-size="14.00" fill="#666666">[int]</text>
<polygon fill="none" stroke="#000000" points="952,-1120.5 952,-1150.5 1239,-1150.5 1239,-1120.5 952,-1120.5"/>
<text text-anchor="start" x="959" y="-1131.9" font-family="Arial" font-size="14.00" fill="#000000">ShipDateKey    </text>
<text text-anchor="start" x="1074.8948" y="-1131.9" font-family="Arial" font-size="14.00" fill="#666666">[int]</text>
<polygon fill="none" stroke="#000000" points="952,-1090.5 952,-1120.5 1239,-1120.5 1239,-1090.5 952,-1090.5"/>
<text text-anchor="start" x="959" y="-1101.9" font-family="Arial" font-size="14.00" fill="#000000">CustomerKey    </text>
<text text-anchor="start" x="1077.9902" y="-1101.9" font-family="Arial" font-size="14.00" fill="#666666">[int]</text>
<polygon fill="none" stroke="#000000" points="952,-1060.5 952,-1090.5 1239,-1090.5 1239,-1060.5 952,-1060.5"/>
<text text-anchor="start" x="959" y="-1071.9" font-family="Arial" font-size="14.00" fill="#000000">PromotionKey    </text>
<text text-anchor="start" x="1081.1094" y="-1071.9" font-family="Arial" font-size="14.00" fill="#666666">[int]</text>
<polygon fill="none" stroke="#000000" points="952,-1030.5 952,-1060.5 1239,-1060.5 1239,-1030.5 952,-1030.5"/>
<text text-anchor="start" x="959" y="-1041.9" font-family="Arial" font-size="14.00" fill="#000000">CurrencyKey    </text>
<text text-anchor="start" x="1074.0996" y="-1041.9" font-family="Arial" font-size="14.00" fill="#666666">[int]</text>
<polygon fill="none" stroke="#000000" points="952,-1000.5 952,-1030.5 1239,-1030.5 1239,-1000.5 952,-1000.5"/>
<text text-anchor="start" x="959" y="-1011.9" font-family="Arial" font-size="14.00" fill="#000000">SalesTerritoryKey    </text>
<text text-anchor="start" x="1104.4292" y="-1011.9" font-family="Arial" font-size="14.00" fill="#666666">[int]</text>
<polygon fill="none" stroke="#000000" points="952,-970.5 952,-1000.5 1239,-1000.5 1239,-970.5 952,-970.5"/>
<text text-anchor="start" x="959" y="-981.9" font-family="Arial" font-size="14.00" fill="#000000">SalesOrderNumber    </text>
<text text-anchor="start" x="1113.7658" y="-981.9" font-family="Arial" font-size="14.00" fill="#666666">[nvarchar(20)]</text>
<polygon fill="none" stroke="#000000" points="952,-940.5 952,-970.5 1239,-970.5 1239,-940.5 952,-940.5"/>
<text text-anchor="start" x="959" y="-951.9" font-family="Arial" font-size="14.00" fill="#000000">SalesOrderLineNumber    </text>
<text text-anchor="start" x="1140.2202" y="-951.9" font-family="Arial" font-size="14.00" fill="#666666">[tinyint]</text>
<polygon fill="none" stroke="#000000" points="952,-910.5 952,-940.5 1239,-940.5 1239,-910.5 952,-910.5"/>
<text text-anchor="start" x="959" y="-921.9" font-family="Arial" font-size="14.00" fill="#000000">RevisionNumber    </text>
<text text-anchor="start" x="1096.648" y="-921.9" font-family="Arial" font-size="14.00" fill="#666666">[tinyint]</text>
<polygon fill="none" stroke="#000000" points="952,-880.5 952,-910.5 1239,-910.5 1239,-880.5 952,-880.5"/>
<text text-anchor="start" x="959" y="-891.9" font-family="Arial" font-size="14.00" fill="#000000">OrderQuantity    </text>
<text text-anchor="start" x="1081.108" y="-891.9" font-family="Arial" font-size="14.00" fill="#666666">[smallint]</text>
<polygon fill="none" stroke="#000000" points="952,-850.5 952,-880.5 1239,-880.5 1239,-850.5 952,-850.5"/>
<text text-anchor="start" x="959" y="-861.9" font-family="Arial" font-size="14.00" fill="#000000">UnitPrice    </text>
<text text-anchor="start" x="1049.9776" y="-861.9" font-family="Arial" font-size="14.00" fill="#666666">[money]</text>
<polygon fill="none" stroke="#000000" points="952,-820.5 952,-850.5 1239,-850.5 1239,-820.5 952,-820.5"/>
<text text-anchor="start" x="959" y="-831.9" font-family="Arial" font-size="14.00" fill="#000000">ExtendedAmount    </text>
<text text-anchor="start" x="1100.5806" y="-831.9" font-family="Arial" font-size="14.00" fill="#666666">[money]</text>
<polygon fill="none" stroke="#000000" points="952,-790.5 952,-820.5 1239,-820.5 1239,-790.5 952,-790.5"/>
<text text-anchor="start" x="959" y="-801.9" font-family="Arial" font-size="14.00" fill="#000000">UnitPriceDiscountPct    </text>
<text text-anchor="start" x="1124.6564" y="-801.9" font-family="Arial" font-size="14.00" fill="#666666">[float]</text>
<polygon fill="none" stroke="#000000" points="952,-760.5 952,-790.5 1239,-790.5 1239,-760.5 952,-760.5"/>
<text text-anchor="start" x="959" y="-771.9" font-family="Arial" font-size="14.00" fill="#000000">DiscountAmount    </text>
<text text-anchor="start" x="1095.892" y="-771.9" font-family="Arial" font-size="14.00" fill="#666666">[float]</text>
<polygon fill="none" stroke="#000000" points="952,-730.5 952,-760.5 1239,-760.5 1239,-730.5 952,-730.5"/>
<text text-anchor="start" x="959" y="-741.9" font-family="Arial" font-size="14.00" fill="#000000">ProductStandardCost    </text>
<text text-anchor="start" x="1127.021" y="-741.9" font-family="Arial" font-size="14.00" fill="#666666">[money]</text>
<polygon fill="none" stroke="#000000" points="952,-700.5 952,-730.5 1239,-730.5 1239,-700.5 952,-700.5"/>
<text text-anchor="start" x="959" y="-711.9" font-family="Arial" font-size="14.00" fill="#000000">TotalProductCost    </text>
<text text-anchor="start" x="1101.3352" y="-711.9" font-family="Arial" font-size="14.00" fill="#666666">[money]</text>
<polygon fill="none" stroke="#000000" points="952,-670.5 952,-700.5 1239,-700.5 1239,-670.5 952,-670.5"/>
<text text-anchor="start" x="959" y="-681.9" font-family="Arial" font-size="14.00" fill="#000000">SalesAmount    </text>
<text text-anchor="start" x="1076.4488" y="-681.9" font-family="Arial" font-size="14.00" fill="#666666">[money]</text>
<polygon fill="none" stroke="#000000" points="952,-640.5 952,-670.5 1239,-670.5 1239,-640.5 952,-640.5"/>
<text text-anchor="start" x="959" y="-651.9" font-family="Arial" font-size="14.00" fill="#000000">TaxAmt    </text>
<text text-anchor="start" x="1041.4278" y="-651.9" font-family="Arial" font-size="14.00" fill="#666666">[money]</text>
<polygon fill="none" stroke="#000000" points="952,-610.5 952,-640.5 1239,-640.5 1239,-610.5 952,-610.5"/>
<text text-anchor="start" x="959" y="-621.9" font-family="Arial" font-size="14.00" fill="#000000">Freight    </text>
<text text-anchor="start" x="1036.763" y="-621.9" font-family="Arial" font-size="14.00" fill="#666666">[money]</text>
<polygon fill="none" stroke="#000000" points="952,-580.5 952,-610.5 1239,-610.5 1239,-580.5 952,-580.5"/>
<text text-anchor="start" x="959" y="-591.9" font-family="Arial" font-size="14.00" fill="#000000">CarrierTrackingNumber    </text>
<text text-anchor="start" x="1139.4082" y="-591.9" font-family="Arial" font-size="14.00" fill="#666666">[nvarchar(25)]</text>
<polygon fill="none" stroke="#000000" points="952,-550.5 952,-580.5 1239,-580.5 1239,-550.5 952,-550.5"/>
<text text-anchor="start" x="959" y="-561.9" font-family="Arial" font-size="14.00" fill="#000000">CustomerPONumber    </text>
<text text-anchor="start" x="1123.8738" y="-561.9" font-family="Arial" font-size="14.00" fill="#666666">[nvarchar(25)]</text>
<polygon fill="none" stroke="#000000" points="952,-520.5 952,-550.5 1239,-550.5 1239,-520.5 952,-520.5"/>
<text text-anchor="start" x="959" y="-531.9" font-family="Arial" font-size="14.00" fill="#000000">OrderDate    </text>
<text text-anchor="start" x="1058.5442" y="-531.9" font-family="Arial" font-size="14.00" fill="#666666">[datetime]</text>
<polygon fill="none" stroke="#000000" points="952,-490.5 952,-520.5 1239,-520.5 1239,-490.5 952,-490.5"/>
<text text-anchor="start" x="959" y="-501.9" font-family="Arial" font-size="14.00" fill="#000000">DueDate    </text>
<text text-anchor="start" x="1048.439" y="-501.9" font-family="Arial" font-size="14.00" fill="#666666">[datetime]</text>
<polygon fill="none" stroke="#000000" points="952,-460.5 952,-490.5 1239,-490.5 1239,-460.5 952,-460.5"/>
<text text-anchor="start" x="959" y="-471.9" font-family="Arial" font-size="14.00" fill="#000000">ShipDate    </text>
<text text-anchor="start" x="1050.7756" y="-471.9" font-family="Arial" font-size="14.00" fill="#666666">[datetime]</text>
</g>
<!-- FactInternetSales&#45;&gt;DimSalesTerritory -->
<g id="edge3" class="edge">
<title>FactInternetSales:SalesTerritoryKey&#45;&gt;DimSalesTerritory:SalesTerritoryKey</title>
<path fill="none" stroke="#000000" d="M942.7307,-1011.4958C890.1282,-962.4188 931.773,-477.6832 952,-418 971.9442,-359.1513 1017.0558,-365.8487 1037,-307 1050.7662,-266.3804 1079.8889,-210.5 1037,-210.5"/>
<polygon fill="#000000" stroke="#000000" points="942.8199,-1011.5343 950.2154,-1019.631 947.41,-1013.5172 952,-1015.5 952,-1015.5 952,-1015.5 947.41,-1013.5172 953.7846,-1011.369 942.8199,-1011.5343 942.8199,-1011.5343"/>
</g>
<!-- FactResellerSales -->
<g id="node5" class="node">
<title>FactResellerSales</title>
<polygon fill="#efefef" stroke="transparent" points="1343,-1255.5 1343,-1290.5 1635,-1290.5 1635,-1255.5 1343,-1255.5"/>
<polygon fill="none" stroke="#000000" points="1343,-1255.5 1343,-1290.5 1635,-1290.5 1635,-1255.5 1343,-1255.5"/>
<text text-anchor="start" x="1349.8813" y="-1268.3" font-family="Arial Bold" font-size="18.00" fill="#000000">FactResellerSales</text>
<text text-anchor="start" x="1495.8901" y="-1268.3" font-family="Arial" font-size="14.00" fill="#000000">    </text>
<text text-anchor="start" x="1530.0949" y="-1268.3" font-family="Arial" font-size="14.00" fill="#666666">[BASIC TABLE]</text>
<polygon fill="none" stroke="#000000" points="1343,-1225.5 1343,-1255.5 1635,-1255.5 1635,-1225.5 1343,-1225.5"/>
<text text-anchor="start" x="1350" y="-1236.9" font-family="Arial" font-size="14.00" fill="#000000">ProductKey    </text>
<text text-anchor="start" x="1456.5596" y="-1236.9" font-family="Arial" font-size="14.00" fill="#666666">[int]</text>
<polygon fill="none" stroke="#000000" points="1343,-1195.5 1343,-1225.5 1635,-1225.5 1635,-1195.5 1343,-1195.5"/>
<text text-anchor="start" x="1350" y="-1206.9" font-family="Arial" font-size="14.00" fill="#000000">OrderDateKey    </text>
<text text-anchor="start" x="1473.6634" y="-1206.9" font-family="Arial" font-size="14.00" fill="#666666">[int]</text>
<polygon fill="none" stroke="#000000" points="1343,-1165.5 1343,-1195.5 1635,-1195.5 1635,-1165.5 1343,-1165.5"/>
<text text-anchor="start" x="1350" y="-1176.9" font-family="Arial" font-size="14.00" fill="#000000">DueDateKey    </text>
<text text-anchor="start" x="1463.5582" y="-1176.9" font-family="Arial" font-size="14.00" fill="#666666">[int]</text>
<polygon fill="none" stroke="#000000" points="1343,-1135.5 1343,-1165.5 1635,-1165.5 1635,-1135.5 1343,-1135.5"/>
<text text-anchor="start" x="1350" y="-1146.9" font-family="Arial" font-size="14.00" fill="#000000">ShipDateKey    </text>
<text text-anchor="start" x="1465.8948" y="-1146.9" font-family="Arial" font-size="14.00" fill="#666666">[int]</text>
<polygon fill="none" stroke="#000000" points="1343,-1105.5 1343,-1135.5 1635,-1135.5 1635,-1105.5 1343,-1105.5"/>
<text text-anchor="start" x="1350" y="-1116.9" font-family="Arial" font-size="14.00" fill="#000000">ResellerKey    </text>
<text text-anchor="start" x="1459.6522" y="-1116.9" font-family="Arial" font-size="14.00" fill="#666666">[int]</text>
<polygon fill="none" stroke="#000000" points="1343,-1075.5 1343,-1105.5 1635,-1105.5 1635,-1075.5 1343,-1075.5"/>
<text text-anchor="start" x="1350" y="-1086.9" font-family="Arial" font-size="14.00" fill="#000000">EmployeeKey    </text>
<text text-anchor="start" x="1470.5582" y="-1086.9" font-family="Arial" font-size="14.00" fill="#666666">[int]</text>
<polygon fill="none" stroke="#000000" points="1343,-1045.5 1343,-1075.5 1635,-1075.5 1635,-1045.5 1343,-1045.5"/>
<text text-anchor="start" x="1350" y="-1056.9" font-family="Arial" font-size="14.00" fill="#000000">PromotionKey    </text>
<text text-anchor="start" x="1472.1094" y="-1056.9" font-family="Arial" font-size="14.00" fill="#666666">[int]</text>
<polygon fill="none" stroke="#000000" points="1343,-1015.5 1343,-1045.5 1635,-1045.5 1635,-1015.5 1343,-1015.5"/>
<text text-anchor="start" x="1350" y="-1026.9" font-family="Arial" font-size="14.00" fill="#000000">CurrencyKey    </text>
<text text-anchor="start" x="1465.0996" y="-1026.9" font-family="Arial" font-size="14.00" fill="#666666">[int]</text>
<polygon fill="none" stroke="#000000" points="1343,-985.5 1343,-1015.5 1635,-1015.5 1635,-985.5 1343,-985.5"/>
<text text-anchor="start" x="1350" y="-996.9" font-family="Arial" font-size="14.00" fill="#000000">SalesTerritoryKey    </text>
<text text-anchor="start" x="1495.4292" y="-996.9" font-family="Arial" font-size="14.00" fill="#666666">[int]</text>
<polygon fill="none" stroke="#000000" points="1343,-955.5 1343,-985.5 1635,-985.5 1635,-955.5 1343,-955.5"/>
<text text-anchor="start" x="1350" y="-966.9" font-family="Arial" font-size="14.00" fill="#000000">SalesOrderNumber    </text>
<text text-anchor="start" x="1504.7658" y="-966.9" font-family="Arial" font-size="14.00" fill="#666666">[nvarchar(20)]</text>
<polygon fill="none" stroke="#000000" points="1343,-925.5 1343,-955.5 1635,-955.5 1635,-925.5 1343,-925.5"/>
<text text-anchor="start" x="1350" y="-936.9" font-family="Arial" font-size="14.00" fill="#000000">SalesOrderLineNumber    </text>
<text text-anchor="start" x="1531.2202" y="-936.9" font-family="Arial" font-size="14.00" fill="#666666">[tinyint]</text>
<polygon fill="none" stroke="#000000" points="1343,-895.5 1343,-925.5 1635,-925.5 1635,-895.5 1343,-895.5"/>
<text text-anchor="start" x="1350" y="-906.9" font-family="Arial" font-size="14.00" fill="#000000">RevisionNumber    </text>
<text text-anchor="start" x="1487.648" y="-906.9" font-family="Arial" font-size="14.00" fill="#666666">[tinyint]</text>
<polygon fill="none" stroke="#000000" points="1343,-865.5 1343,-895.5 1635,-895.5 1635,-865.5 1343,-865.5"/>
<text text-anchor="start" x="1350" y="-876.9" font-family="Arial" font-size="14.00" fill="#000000">OrderQuantity    </text>
<text text-anchor="start" x="1472.108" y="-876.9" font-family="Arial" font-size="14.00" fill="#666666">[smallint]</text>
<polygon fill="none" stroke="#000000" points="1343,-835.5 1343,-865.5 1635,-865.5 1635,-835.5 1343,-835.5"/>
<text text-anchor="start" x="1350" y="-846.9" font-family="Arial" font-size="14.00" fill="#000000">UnitPrice    </text>
<text text-anchor="start" x="1440.9776" y="-846.9" font-family="Arial" font-size="14.00" fill="#666666">[money]</text>
<polygon fill="none" stroke="#000000" points="1343,-805.5 1343,-835.5 1635,-835.5 1635,-805.5 1343,-805.5"/>
<text text-anchor="start" x="1350" y="-816.9" font-family="Arial" font-size="14.00" fill="#000000">ExtendedAmount    </text>
<text text-anchor="start" x="1491.5806" y="-816.9" font-family="Arial" font-size="14.00" fill="#666666">[money]</text>
<polygon fill="none" stroke="#000000" points="1343,-775.5 1343,-805.5 1635,-805.5 1635,-775.5 1343,-775.5"/>
<text text-anchor="start" x="1350" y="-786.9" font-family="Arial" font-size="14.00" fill="#000000">UnitPriceDiscountPct    </text>
<text text-anchor="start" x="1515.6564" y="-786.9" font-family="Arial" font-size="14.00" fill="#666666">[float]</text>
<polygon fill="none" stroke="#000000" points="1343,-745.5 1343,-775.5 1635,-775.5 1635,-745.5 1343,-745.5"/>
<text text-anchor="start" x="1350" y="-756.9" font-family="Arial" font-size="14.00" fill="#000000">DiscountAmount    </text>
<text text-anchor="start" x="1486.892" y="-756.9" font-family="Arial" font-size="14.00" fill="#666666">[float]</text>
<polygon fill="none" stroke="#000000" points="1343,-715.5 1343,-745.5 1635,-745.5 1635,-715.5 1343,-715.5"/>
<text text-anchor="start" x="1350" y="-726.9" font-family="Arial" font-size="14.00" fill="#000000">ProductStandardCost    </text>
<text text-anchor="start" x="1518.021" y="-726.9" font-family="Arial" font-size="14.00" fill="#666666">[money]</text>
<polygon fill="none" stroke="#000000" points="1343,-685.5 1343,-715.5 1635,-715.5 1635,-685.5 1343,-685.5"/>
<text text-anchor="start" x="1350" y="-696.9" font-family="Arial" font-size="14.00" fill="#000000">TotalProductCost    </text>
<text text-anchor="start" x="1492.3352" y="-696.9" font-family="Arial" font-size="14.00" fill="#666666">[money]</text>
<polygon fill="none" stroke="#000000" points="1343,-655.5 1343,-685.5 1635,-685.5 1635,-655.5 1343,-655.5"/>
<text text-anchor="start" x="1350" y="-666.9" font-family="Arial" font-size="14.00" fill="#000000">SalesAmount    </text>
<text text-anchor="start" x="1467.4488" y="-666.9" font-family="Arial" font-size="14.00" fill="#666666">[money]</text>
<polygon fill="none" stroke="#000000" points="1343,-625.5 1343,-655.5 1635,-655.5 1635,-625.5 1343,-625.5"/>
<text text-anchor="start" x="1350" y="-636.9" font-family="Arial" font-size="14.00" fill="#000000">TaxAmt    </text>
<text text-anchor="start" x="1432.4278" y="-636.9" font-family="Arial" font-size="14.00" fill="#666666">[money]</text>
<polygon fill="none" stroke="#000000" points="1343,-595.5 1343,-625.5 1635,-625.5 1635,-595.5 1343,-595.5"/>
<text text-anchor="start" x="1350" y="-606.9" font-family="Arial" font-size="14.00" fill="#000000">Freight    </text>
<text text-anchor="start" x="1427.763" y="-606.9" font-family="Arial" font-size="14.00" fill="#666666">[money]</text>
<polygon fill="none" stroke="#000000" points="1343,-565.5 1343,-595.5 1635,-595.5 1635,-565.5 1343,-565.5"/>
<text text-anchor="start" x="1350" y="-576.9" font-family="Arial" font-size="14.00" fill="#000000">CarrierTrackingNumber    </text>
<text text-anchor="start" x="1530.4082" y="-576.9" font-family="Arial" font-size="14.00" fill="#666666">[nvarchar(25)]</text>
<polygon fill="none" stroke="#000000" points="1343,-535.5 1343,-565.5 1635,-565.5 1635,-535.5 1343,-535.5"/>
<text text-anchor="start" x="1350" y="-546.9" font-family="Arial" font-size="14.00" fill="#000000">CustomerPONumber    </text>
<text text-anchor="start" x="1514.8738" y="-546.9" font-family="Arial" font-size="14.00" fill="#666666">[nvarchar(25)]</text>
<polygon fill="none" stroke="#000000" points="1343,-505.5 1343,-535.5 1635,-535.5 1635,-505.5 1343,-505.5"/>
<text text-anchor="start" x="1350" y="-516.9" font-family="Arial" font-size="14.00" fill="#000000">OrderDate    </text>
<text text-anchor="start" x="1449.5442" y="-516.9" font-family="Arial" font-size="14.00" fill="#666666">[datetime]</text>
<polygon fill="none" stroke="#000000" points="1343,-475.5 1343,-505.5 1635,-505.5 1635,-475.5 1343,-475.5"/>
<text text-anchor="start" x="1350" y="-486.9" font-family="Arial" font-size="14.00" fill="#000000">DueDate    </text>
<text text-anchor="start" x="1439.439" y="-486.9" font-family="Arial" font-size="14.00" fill="#666666">[datetime]</text>
<polygon fill="none" stroke="#000000" points="1343,-445.5 1343,-475.5 1635,-475.5 1635,-445.5 1343,-445.5"/>
<text text-anchor="start" x="1350" y="-456.9" font-family="Arial" font-size="14.00" fill="#000000">ShipDate    </text>
<text text-anchor="start" x="1441.7756" y="-456.9" font-family="Arial" font-size="14.00" fill="#666666">[datetime]</text>
</g>
<!-- FactResellerSales&#45;&gt;DimSalesTerritory -->
<g id="edge4" class="edge">
<title>FactResellerSales:SalesTerritoryKey&#45;&gt;DimSalesTerritory:SalesTerritoryKey</title>
<path fill="none" stroke="#000000" d="M1333.56,-996.6853C1275.2779,-945.7655 1329.5383,-401.2548 1291,-343 1220.7493,-236.8085 1164.3256,-210.5 1037,-210.5"/>
<polygon fill="#000000" stroke="#000000" points="1333.7284,-996.7533 1341.314,-1004.6722 1338.3642,-998.6267 1343,-1000.5 1343,-1000.5 1343,-1000.5 1338.3642,-998.6267 1344.686,-996.3278 1333.7284,-996.7533 1333.7284,-996.7533"/>
</g>
</g>
</svg>
