<?xml version="1.0" encoding="UTF-8" standalone="no"?>
<!DOCTYPE svg PUBLIC "-//W3C//DTD SVG 1.1//EN"
 "http://www.w3.org/Graphics/SVG/1.1/DTD/svg11.dtd">
<!-- Generated by graphviz version 2.40.1 (20161225.0304)
 -->
<!-- Title: DimScenario Pages: 1 -->
<svg width="349pt" height="592pt"
 viewBox="0.00 0.00 349.00 592.00" xmlns="http://www.w3.org/2000/svg" xmlns:xlink="http://www.w3.org/1999/xlink">
<g id="graph0" class="graph" transform="scale(1 1) rotate(0) translate(4 588)">
<title>DimScenario</title>
<polygon fill="#ffffff" stroke="transparent" points="-4,4 -4,-588 345,-588 345,4 -4,4"/>
<!-- DimScenario -->
<g id="node1" class="node">
<title>DimScenario</title>
<polygon fill="#efefef" stroke="transparent" points="46.5,-105.5 46.5,-140.5 295.5,-140.5 295.5,-105.5 46.5,-105.5"/>
<polygon fill="none" stroke="#000000" points="46.5,-105.5 46.5,-140.5 295.5,-140.5 295.5,-105.5 46.5,-105.5"/>
<text text-anchor="start" x="53.3877" y="-118.3" font-family="Arial Bold" font-size="18.00" fill="#000000">DimScenario</text>
<text text-anchor="start" x="156.3837" y="-118.3" font-family="Arial" font-size="14.00" fill="#000000">    </text>
<text text-anchor="start" x="190.5885" y="-118.3" font-family="Arial" font-size="14.00" fill="#666666">[BASIC TABLE]</text>
<polygon fill="none" stroke="#000000" points="46.5,-75.5 46.5,-105.5 295.5,-105.5 295.5,-75.5 46.5,-75.5"/>
<text text-anchor="start" x="53.5" y="-86.9" font-family="Arial" font-size="14.00" fill="#000000">ScenarioKey </text>
<text text-anchor="start" x="136.744" y="-86.9" font-family="Arial" font-size="14.00" fill="#666666">[int]</text>
<polygon fill="none" stroke="#000000" points="46.5,-45.5 46.5,-75.5 295.5,-75.5 295.5,-45.5 46.5,-45.5"/>
<text text-anchor="start" x="53.5" y="-56.9" font-family="Arial" font-size="14.00" fill="#000000">ScenarioName </text>
<text text-anchor="start" x="149.9572" y="-56.9" font-family="Arial" font-size="14.00" fill="#666666">[nvarchar(50)]</text>
<polygon fill="none" stroke="#000000" stroke-width="3" points="44.5,-44.5 44.5,-142.5 296.5,-142.5 296.5,-44.5 44.5,-44.5"/>
</g>
<!-- FactFinance -->
<g id="node2" class="node">
<title>FactFinance</title>
<polygon fill="#efefef" stroke="transparent" points="48.5,-505.5 48.5,-540.5 293.5,-540.5 293.5,-505.5 48.5,-505.5"/>
<polygon fill="none" stroke="#000000" points="48.5,-505.5 48.5,-540.5 293.5,-540.5 293.5,-505.5 48.5,-505.5"/>
<text text-anchor="start" x="55.3758" y="-518.3" font-family="Arial Bold" font-size="18.00" fill="#000000">FactFinance</text>
<text text-anchor="start" x="154.3956" y="-518.3" font-family="Arial" font-size="14.00" fill="#000000">    </text>
<text text-anchor="start" x="188.6004" y="-518.3" font-family="Arial" font-size="14.00" fill="#666666">[BASIC TABLE]</text>
<polygon fill="none" stroke="#000000" points="48.5,-475.5 48.5,-505.5 293.5,-505.5 293.5,-475.5 48.5,-475.5"/>
<text text-anchor="start" x="55.5" y="-486.9" font-family="Arial" font-size="14.00" fill="#000000">FinanceKey    </text>
<text text-anchor="start" x="163.6136" y="-486.9" font-family="Arial" font-size="14.00" fill="#666666">[int]</text>
<polygon fill="none" stroke="#000000" points="48.5,-445.5 48.5,-475.5 293.5,-475.5 293.5,-445.5 48.5,-445.5"/>
<text text-anchor="start" x="55.5" y="-456.9" font-family="Arial" font-size="14.00" fill="#000000">DateKey    </text>
<text text-anchor="start" x="143.3864" y="-456.9" font-family="Arial" font-size="14.00" fill="#666666">[int]</text>
<polygon fill="none" stroke="#000000" points="48.5,-415.5 48.5,-445.5 293.5,-445.5 293.5,-415.5 48.5,-415.5"/>
<text text-anchor="start" x="55.5" y="-426.9" font-family="Arial" font-size="14.00" fill="#000000">OrganizationKey    </text>
<text text-anchor="start" x="193.1746" y="-426.9" font-family="Arial" font-size="14.00" fill="#666666">[int]</text>
<polygon fill="none" stroke="#000000" points="48.5,-385.5 48.5,-415.5 293.5,-415.5 293.5,-385.5 48.5,-385.5"/>
<text text-anchor="start" x="55.5" y="-396.9" font-family="Arial" font-size="14.00" fill="#000000">DepartmentGroupKey    </text>
<text text-anchor="start" x="225.845" y="-396.9" font-family="Arial" font-size="14.00" fill="#666666">[int]</text>
<polygon fill="none" stroke="#000000" points="48.5,-355.5 48.5,-385.5 293.5,-385.5 293.5,-355.5 48.5,-355.5"/>
<text text-anchor="start" x="55.5" y="-366.9" font-family="Arial" font-size="14.00" fill="#000000">ScenarioKey    </text>
<text text-anchor="start" x="169.0582" y="-366.9" font-family="Arial" font-size="14.00" fill="#666666">[int]</text>
<polygon fill="none" stroke="#000000" points="48.5,-325.5 48.5,-355.5 293.5,-355.5 293.5,-325.5 48.5,-325.5"/>
<text text-anchor="start" x="55.5" y="-336.9" font-family="Arial" font-size="14.00" fill="#000000">AccountKey    </text>
<text text-anchor="start" x="164.399" y="-336.9" font-family="Arial" font-size="14.00" fill="#666666">[int]</text>
<polygon fill="none" stroke="#000000" points="48.5,-295.5 48.5,-325.5 293.5,-325.5 293.5,-295.5 48.5,-295.5"/>
<text text-anchor="start" x="55.5" y="-306.9" font-family="Arial" font-size="14.00" fill="#000000">Amount    </text>
<text text-anchor="start" x="137.9404" y="-306.9" font-family="Arial" font-size="14.00" fill="#666666">[float]</text>
<polygon fill="none" stroke="#000000" points="48.5,-265.5 48.5,-295.5 293.5,-295.5 293.5,-265.5 48.5,-265.5"/>
<text text-anchor="start" x="55.5" y="-276.9" font-family="Arial" font-size="14.00" fill="#000000">Date    </text>
<text text-anchor="start" x="119.2672" y="-276.9" font-family="Arial" font-size="14.00" fill="#666666">[datetime]</text>
</g>
<!-- FactFinance&#45;&gt;DimScenario -->
<g id="edge1" class="edge">
<title>FactFinance:ScenarioKey&#45;&gt;DimScenario:ScenarioKey</title>
<path fill="none" stroke="#000000" d="M38.5072,-367.9069C-13.7443,-339.6795 -12.1994,-90.5 46.5,-90.5"/>
<polygon fill="#000000" stroke="#000000" points="38.8206,-367.9882 47.3697,-374.8557 43.6603,-369.2441 48.5,-370.5 48.5,-370.5 48.5,-370.5 43.6603,-369.2441 49.6303,-366.1443 38.8206,-367.9882 38.8206,-367.9882"/>
</g>
</g>
</svg>
