<?xml version="1.0" encoding="UTF-8" standalone="no"?>
<!DOCTYPE svg PUBLIC "-//W3C//DTD SVG 1.1//EN"
 "http://www.w3.org/Graphics/SVG/1.1/DTD/svg11.dtd">
<!-- Generated by graphviz version 2.40.1 (20161225.0304)
 -->
<!-- Title: FactFinance Pages: 1 -->
<svg width="1958pt" height="1102pt"
 viewBox="0.00 0.00 1958.00 1102.00" xmlns="http://www.w3.org/2000/svg" xmlns:xlink="http://www.w3.org/1999/xlink">
<g id="graph0" class="graph" transform="scale(1 1) rotate(0) translate(4 1098)">
<title>FactFinance</title>
<polygon fill="#ffffff" stroke="transparent" points="-4,4 -4,-1098 1954,-1098 1954,4 -4,4"/>
<!-- FactFinance -->
<g id="node1" class="node">
<title>FactFinance</title>
<polygon fill="#efefef" stroke="transparent" points="875,-1012.5 875,-1047.5 1120,-1047.5 1120,-1012.5 875,-1012.5"/>
<polygon fill="none" stroke="#000000" points="875,-1012.5 875,-1047.5 1120,-1047.5 1120,-1012.5 875,-1012.5"/>
<text text-anchor="start" x="881.8758" y="-1025.3" font-family="Arial Bold" font-size="18.00" fill="#000000">FactFinance</text>
<text text-anchor="start" x="980.8956" y="-1025.3" font-family="Arial" font-size="14.00" fill="#000000">    </text>
<text text-anchor="start" x="1015.1004" y="-1025.3" font-family="Arial" font-size="14.00" fill="#666666">[BASIC TABLE]</text>
<polygon fill="none" stroke="#000000" points="875,-982.5 875,-1012.5 1120,-1012.5 1120,-982.5 875,-982.5"/>
<text text-anchor="start" x="882" y="-993.9" font-family="Arial" font-size="14.00" fill="#000000">FinanceKey </text>
<text text-anchor="start" x="959.7994" y="-993.9" font-family="Arial" font-size="14.00" fill="#666666">[int]</text>
<polygon fill="none" stroke="#000000" points="875,-952.5 875,-982.5 1120,-982.5 1120,-952.5 875,-952.5"/>
<text text-anchor="start" x="882" y="-963.9" font-family="Arial" font-size="14.00" fill="#000000">DateKey </text>
<text text-anchor="start" x="939.5722" y="-963.9" font-family="Arial" font-size="14.00" fill="#666666">[int]</text>
<polygon fill="none" stroke="#000000" points="875,-922.5 875,-952.5 1120,-952.5 1120,-922.5 875,-922.5"/>
<text text-anchor="start" x="882" y="-933.9" font-family="Arial" font-size="14.00" fill="#000000">OrganizationKey </text>
<text text-anchor="start" x="989.3604" y="-933.9" font-family="Arial" font-size="14.00" fill="#666666">[int]</text>
<polygon fill="none" stroke="#000000" points="875,-892.5 875,-922.5 1120,-922.5 1120,-892.5 875,-892.5"/>
<text text-anchor="start" x="882" y="-903.9" font-family="Arial" font-size="14.00" fill="#000000">DepartmentGroupKey </text>
<text text-anchor="start" x="1022.0308" y="-903.9" font-family="Arial" font-size="14.00" fill="#666666">[int]</text>
<polygon fill="none" stroke="#000000" points="875,-862.5 875,-892.5 1120,-892.5 1120,-862.5 875,-862.5"/>
<text text-anchor="start" x="882" y="-873.9" font-family="Arial" font-size="14.00" fill="#000000">ScenarioKey </text>
<text text-anchor="start" x="965.244" y="-873.9" font-family="Arial" font-size="14.00" fill="#666666">[int]</text>
<polygon fill="none" stroke="#000000" points="875,-832.5 875,-862.5 1120,-862.5 1120,-832.5 875,-832.5"/>
<text text-anchor="start" x="882" y="-843.9" font-family="Arial" font-size="14.00" fill="#000000">AccountKey </text>
<text text-anchor="start" x="960.5848" y="-843.9" font-family="Arial" font-size="14.00" fill="#666666">[int]</text>
<polygon fill="none" stroke="#000000" points="875,-802.5 875,-832.5 1120,-832.5 1120,-802.5 875,-802.5"/>
<text text-anchor="start" x="882" y="-813.9" font-family="Arial" font-size="14.00" fill="#000000">Amount </text>
<text text-anchor="start" x="934.1262" y="-813.9" font-family="Arial" font-size="14.00" fill="#666666">[float]</text>
<polygon fill="none" stroke="#000000" points="875,-772.5 875,-802.5 1120,-802.5 1120,-772.5 875,-772.5"/>
<text text-anchor="start" x="882" y="-783.9" font-family="Arial" font-size="14.00" fill="#000000">Date </text>
<text text-anchor="start" x="915.453" y="-783.9" font-family="Arial" font-size="14.00" fill="#666666">[datetime]</text>
<polygon fill="none" stroke="#000000" stroke-width="3" points="873,-771.5 873,-1049.5 1121,-1049.5 1121,-771.5 873,-771.5"/>
</g>
<!-- DimDate -->
<g id="node2" class="node">
<title>DimDate</title>
<polygon fill="#efefef" stroke="transparent" points="43,-612.5 43,-647.5 341,-647.5 341,-612.5 43,-612.5"/>
<polygon fill="none" stroke="#000000" points="43,-612.5 43,-647.5 341,-647.5 341,-612.5 43,-612.5"/>
<text text-anchor="start" x="90.891" y="-625.3" font-family="Arial Bold" font-size="18.00" fill="#000000">DimDate</text>
<text text-anchor="start" x="160.8804" y="-625.3" font-family="Arial" font-size="14.00" fill="#000000">    </text>
<text text-anchor="start" x="195.0852" y="-625.3" font-family="Arial" font-size="14.00" fill="#666666">[BASIC TABLE]</text>
<polygon fill="none" stroke="#000000" points="43,-582.5 43,-612.5 341,-612.5 341,-582.5 43,-582.5"/>
<text text-anchor="start" x="50" y="-593.9" font-family="Arial" font-size="14.00" fill="#000000">DateKey    </text>
<text text-anchor="start" x="137.8864" y="-593.9" font-family="Arial" font-size="14.00" fill="#666666">[int]</text>
<polygon fill="none" stroke="#000000" points="43,-552.5 43,-582.5 341,-582.5 341,-552.5 43,-552.5"/>
<text text-anchor="start" x="50" y="-563.9" font-family="Arial" font-size="14.00" fill="#000000">FullDateAlternateKey    </text>
<text text-anchor="start" x="216.4502" y="-563.9" font-family="Arial" font-size="14.00" fill="#666666">[date]</text>
<polygon fill="none" stroke="#000000" points="43,-522.5 43,-552.5 341,-552.5 341,-522.5 43,-522.5"/>
<text text-anchor="start" x="50" y="-533.9" font-family="Arial" font-size="14.00" fill="#000000">DayNumberOfWeek    </text>
<text text-anchor="start" x="209.4306" y="-533.9" font-family="Arial" font-size="14.00" fill="#666666">[tinyint]</text>
<polygon fill="none" stroke="#000000" points="43,-492.5 43,-522.5 341,-522.5 341,-492.5 43,-492.5"/>
<text text-anchor="start" x="50" y="-503.9" font-family="Arial" font-size="14.00" fill="#000000">EnglishDayNameOfWeek    </text>
<text text-anchor="start" x="242.885" y="-503.9" font-family="Arial" font-size="14.00" fill="#666666">[nvarchar(10)]</text>
<polygon fill="none" stroke="#000000" points="43,-462.5 43,-492.5 341,-492.5 341,-462.5 43,-462.5"/>
<text text-anchor="start" x="49.6599" y="-473.9" font-family="Arial" font-size="14.00" fill="#000000">SpanishDayNameOfWeek    </text>
<text text-anchor="start" x="247.2209" y="-473.9" font-family="Arial" font-size="14.00" fill="#666666">[nvarchar(10)]</text>
<polygon fill="none" stroke="#000000" points="43,-432.5 43,-462.5 341,-462.5 341,-432.5 43,-432.5"/>
<text text-anchor="start" x="50" y="-443.9" font-family="Arial" font-size="14.00" fill="#000000">FrenchDayNameOfWeek    </text>
<text text-anchor="start" x="240.5484" y="-443.9" font-family="Arial" font-size="14.00" fill="#666666">[nvarchar(10)]</text>
<polygon fill="none" stroke="#000000" points="43,-402.5 43,-432.5 341,-432.5 341,-402.5 43,-402.5"/>
<text text-anchor="start" x="50" y="-413.9" font-family="Arial" font-size="14.00" fill="#000000">DayNumberOfMonth    </text>
<text text-anchor="start" x="212.5498" y="-413.9" font-family="Arial" font-size="14.00" fill="#666666">[tinyint]</text>
<polygon fill="none" stroke="#000000" points="43,-372.5 43,-402.5 341,-402.5 341,-372.5 43,-372.5"/>
<text text-anchor="start" x="50" y="-383.9" font-family="Arial" font-size="14.00" fill="#000000">DayNumberOfYear    </text>
<text text-anchor="start" x="203.2132" y="-383.9" font-family="Arial" font-size="14.00" fill="#666666">[smallint]</text>
<polygon fill="none" stroke="#000000" points="43,-342.5 43,-372.5 341,-372.5 341,-342.5 43,-342.5"/>
<text text-anchor="start" x="50" y="-353.9" font-family="Arial" font-size="14.00" fill="#000000">WeekNumberOfYear    </text>
<text text-anchor="start" x="214.1038" y="-353.9" font-family="Arial" font-size="14.00" fill="#666666">[tinyint]</text>
<polygon fill="none" stroke="#000000" points="43,-312.5 43,-342.5 341,-342.5 341,-312.5 43,-312.5"/>
<text text-anchor="start" x="50" y="-323.9" font-family="Arial" font-size="14.00" fill="#000000">EnglishMonthName    </text>
<text text-anchor="start" x="206.3338" y="-323.9" font-family="Arial" font-size="14.00" fill="#666666">[nvarchar(10)]</text>
<polygon fill="none" stroke="#000000" points="43,-282.5 43,-312.5 341,-312.5 341,-282.5 43,-282.5"/>
<text text-anchor="start" x="50" y="-293.9" font-family="Arial" font-size="14.00" fill="#000000">SpanishMonthName    </text>
<text text-anchor="start" x="211.0098" y="-293.9" font-family="Arial" font-size="14.00" fill="#666666">[nvarchar(10)]</text>
<polygon fill="none" stroke="#000000" points="43,-252.5 43,-282.5 341,-282.5 341,-252.5 43,-252.5"/>
<text text-anchor="start" x="50" y="-263.9" font-family="Arial" font-size="14.00" fill="#000000">FrenchMonthName    </text>
<text text-anchor="start" x="203.9972" y="-263.9" font-family="Arial" font-size="14.00" fill="#666666">[nvarchar(10)]</text>
<polygon fill="none" stroke="#000000" points="43,-222.5 43,-252.5 341,-252.5 341,-222.5 43,-222.5"/>
<text text-anchor="start" x="50" y="-233.9" font-family="Arial" font-size="14.00" fill="#000000">MonthNumberOfYear    </text>
<text text-anchor="start" x="217.223" y="-233.9" font-family="Arial" font-size="14.00" fill="#666666">[tinyint]</text>
<polygon fill="none" stroke="#000000" points="43,-192.5 43,-222.5 341,-222.5 341,-192.5 43,-192.5"/>
<text text-anchor="start" x="50" y="-203.9" font-family="Arial" font-size="14.00" fill="#000000">CalendarQuarter    </text>
<text text-anchor="start" x="188.4418" y="-203.9" font-family="Arial" font-size="14.00" fill="#666666">[tinyint]</text>
<polygon fill="none" stroke="#000000" points="43,-162.5 43,-192.5 341,-192.5 341,-162.5 43,-162.5"/>
<text text-anchor="start" x="50" y="-173.9" font-family="Arial" font-size="14.00" fill="#000000">CalendarYear    </text>
<text text-anchor="start" x="170.554" y="-173.9" font-family="Arial" font-size="14.00" fill="#666666">[smallint]</text>
<polygon fill="none" stroke="#000000" points="43,-132.5 43,-162.5 341,-162.5 341,-132.5 43,-132.5"/>
<text text-anchor="start" x="50" y="-143.9" font-family="Arial" font-size="14.00" fill="#000000">CalendarSemester    </text>
<text text-anchor="start" x="200.8878" y="-143.9" font-family="Arial" font-size="14.00" fill="#666666">[tinyint]</text>
<polygon fill="none" stroke="#000000" points="43,-102.5 43,-132.5 341,-132.5 341,-102.5 43,-102.5"/>
<text text-anchor="start" x="50" y="-113.9" font-family="Arial" font-size="14.00" fill="#000000">FiscalQuarter    </text>
<text text-anchor="start" x="168.2034" y="-113.9" font-family="Arial" font-size="14.00" fill="#666666">[tinyint]</text>
<polygon fill="none" stroke="#000000" points="43,-72.5 43,-102.5 341,-102.5 341,-72.5 43,-72.5"/>
<text text-anchor="start" x="50" y="-83.9" font-family="Arial" font-size="14.00" fill="#000000">FiscalYear    </text>
<text text-anchor="start" x="150.3156" y="-83.9" font-family="Arial" font-size="14.00" fill="#666666">[smallint]</text>
<polygon fill="none" stroke="#000000" points="43,-42.5 43,-72.5 341,-72.5 341,-42.5 43,-42.5"/>
<text text-anchor="start" x="50" y="-53.9" font-family="Arial" font-size="14.00" fill="#000000">FiscalSemester    </text>
<text text-anchor="start" x="180.6494" y="-53.9" font-family="Arial" font-size="14.00" fill="#666666">[tinyint]</text>
</g>
<!-- FactFinance&#45;&gt;DimDate -->
<g id="edge1" class="edge">
<title>FactFinance:DateKey&#45;&gt;DimDate:DateKey</title>
<path fill="none" stroke="#000000" d="M864.9737,-967.4436C626.3284,-964.7321 564.0983,-864.3835 393,-691 359.601,-657.1549 388.5498,-597.5 341,-597.5"/>
<polygon fill="#000000" stroke="#000000" points="865.0002,-967.4436 874.9746,-971.9999 870.0001,-967.4718 875,-967.5 875,-967.5 875,-967.5 870.0001,-967.4718 875.0254,-963.0001 865.0002,-967.4436 865.0002,-967.4436"/>
</g>
<!-- DimOrganization -->
<g id="node3" class="node">
<title>DimOrganization</title>
<polygon fill="#efefef" stroke="transparent" points="445,-402.5 445,-437.5 733,-437.5 733,-402.5 445,-402.5"/>
<polygon fill="none" stroke="#000000" points="445,-402.5 445,-437.5 733,-437.5 733,-402.5 445,-402.5"/>
<text text-anchor="start" x="455.8843" y="-415.3" font-family="Arial Bold" font-size="18.00" fill="#000000">DimOrganization</text>
<text text-anchor="start" x="589.8871" y="-415.3" font-family="Arial" font-size="14.00" fill="#000000">    </text>
<text text-anchor="start" x="624.0919" y="-415.3" font-family="Arial" font-size="14.00" fill="#666666">[BASIC TABLE]</text>
<polygon fill="none" stroke="#000000" points="445,-372.5 445,-402.5 733,-402.5 733,-372.5 445,-372.5"/>
<text text-anchor="start" x="452" y="-383.9" font-family="Arial" font-size="14.00" fill="#000000">OrganizationKey    </text>
<text text-anchor="start" x="589.6746" y="-383.9" font-family="Arial" font-size="14.00" fill="#666666">[int]</text>
<polygon fill="none" stroke="#000000" points="445,-342.5 445,-372.5 733,-372.5 733,-342.5 445,-342.5"/>
<text text-anchor="start" x="452" y="-353.9" font-family="Arial" font-size="14.00" fill="#000000">ParentOrganizationKey    </text>
<text text-anchor="start" x="630.9102" y="-353.9" font-family="Arial" font-size="14.00" fill="#666666">[int]</text>
<polygon fill="none" stroke="#000000" points="445,-312.5 445,-342.5 733,-342.5 733,-312.5 445,-312.5"/>
<text text-anchor="start" x="451.7083" y="-323.9" font-family="Arial" font-size="14.00" fill="#000000">PercentageOfOwnership    </text>
<text text-anchor="start" x="639.1725" y="-323.9" font-family="Arial" font-size="14.00" fill="#666666">[nvarchar(16)]</text>
<polygon fill="none" stroke="#000000" points="445,-282.5 445,-312.5 733,-312.5 733,-282.5 445,-282.5"/>
<text text-anchor="start" x="452" y="-293.9" font-family="Arial" font-size="14.00" fill="#000000">OrganizationName    </text>
<text text-anchor="start" x="602.8878" y="-293.9" font-family="Arial" font-size="14.00" fill="#666666">[nvarchar(50)]</text>
<polygon fill="none" stroke="#000000" points="445,-252.5 445,-282.5 733,-282.5 733,-252.5 445,-252.5"/>
<text text-anchor="start" x="452" y="-263.9" font-family="Arial" font-size="14.00" fill="#000000">CurrencyKey    </text>
<text text-anchor="start" x="567.0996" y="-263.9" font-family="Arial" font-size="14.00" fill="#666666">[int]</text>
</g>
<!-- FactFinance&#45;&gt;DimOrganization -->
<g id="edge2" class="edge">
<title>FactFinance:OrganizationKey&#45;&gt;DimOrganization:OrganizationKey</title>
<path fill="none" stroke="#000000" d="M864.8768,-937.1365C761.7181,-929.4189 814.0624,-800.3009 785,-691 767.4166,-624.8705 801.4272,-387.5 733,-387.5"/>
<polygon fill="#000000" stroke="#000000" points="865.0064,-937.141 874.8385,-941.9971 870.0032,-937.3205 875,-937.5 875,-937.5 875,-937.5 870.0032,-937.3205 875.1615,-933.0029 865.0064,-937.141 865.0064,-937.141"/>
</g>
<!-- DimDepartmentGroup -->
<g id="node4" class="node">
<title>DimDepartmentGroup</title>
<polygon fill="#efefef" stroke="transparent" points="837,-372.5 837,-407.5 1159,-407.5 1159,-372.5 837,-372.5"/>
<polygon fill="none" stroke="#000000" points="837,-372.5 837,-407.5 1159,-407.5 1159,-372.5 837,-372.5"/>
<text text-anchor="start" x="843.8819" y="-385.3" font-family="Arial Bold" font-size="18.00" fill="#000000">DimDepartmentGroup</text>
<text text-anchor="start" x="1019.8895" y="-385.3" font-family="Arial" font-size="14.00" fill="#000000">    </text>
<text text-anchor="start" x="1054.0943" y="-385.3" font-family="Arial" font-size="14.00" fill="#666666">[BASIC TABLE]</text>
<polygon fill="none" stroke="#000000" points="837,-342.5 837,-372.5 1159,-372.5 1159,-342.5 837,-342.5"/>
<text text-anchor="start" x="844" y="-353.9" font-family="Arial" font-size="14.00" fill="#000000">DepartmentGroupKey    </text>
<text text-anchor="start" x="1014.345" y="-353.9" font-family="Arial" font-size="14.00" fill="#666666">[int]</text>
<polygon fill="none" stroke="#000000" points="837,-312.5 837,-342.5 1159,-342.5 1159,-312.5 837,-312.5"/>
<text text-anchor="start" x="844" y="-323.9" font-family="Arial" font-size="14.00" fill="#000000">ParentDepartmentGroupKey    </text>
<text text-anchor="start" x="1055.5806" y="-323.9" font-family="Arial" font-size="14.00" fill="#666666">[int]</text>
<polygon fill="none" stroke="#000000" points="837,-282.5 837,-312.5 1159,-312.5 1159,-282.5 837,-282.5"/>
<text text-anchor="start" x="844" y="-293.9" font-family="Arial" font-size="14.00" fill="#000000">DepartmentGroupName    </text>
<text text-anchor="start" x="1027.5582" y="-293.9" font-family="Arial" font-size="14.00" fill="#666666">[nvarchar(50)]</text>
</g>
<!-- FactFinance&#45;&gt;DimDepartmentGroup -->
<g id="edge3" class="edge">
<title>FactFinance:DepartmentGroupKey&#45;&gt;DimDepartmentGroup:DepartmentGroupKey</title>
<path fill="none" stroke="#000000" d="M1130.0419,-906.8674C1195.8507,-897.9905 1149.7632,-797.6013 1120,-727 1051.7512,-565.1072 905.2488,-612.8928 837,-451 820.8573,-412.708 795.4444,-357.5 837,-357.5"/>
<polygon fill="#000000" stroke="#000000" points="1129.9802,-906.8712 1119.717,-903.0089 1124.9901,-907.1856 1120,-907.5 1120,-907.5 1120,-907.5 1124.9901,-907.1856 1120.283,-911.9911 1129.9802,-906.8712 1129.9802,-906.8712"/>
</g>
<!-- DimScenario -->
<g id="node5" class="node">
<title>DimScenario</title>
<polygon fill="#efefef" stroke="transparent" points="1264,-357.5 1264,-392.5 1513,-392.5 1513,-357.5 1264,-357.5"/>
<polygon fill="none" stroke="#000000" points="1264,-357.5 1264,-392.5 1513,-392.5 1513,-357.5 1264,-357.5"/>
<text text-anchor="start" x="1270.8877" y="-370.3" font-family="Arial Bold" font-size="18.00" fill="#000000">DimScenario</text>
<text text-anchor="start" x="1373.8837" y="-370.3" font-family="Arial" font-size="14.00" fill="#000000">    </text>
<text text-anchor="start" x="1408.0885" y="-370.3" font-family="Arial" font-size="14.00" fill="#666666">[BASIC TABLE]</text>
<polygon fill="none" stroke="#000000" points="1264,-327.5 1264,-357.5 1513,-357.5 1513,-327.5 1264,-327.5"/>
<text text-anchor="start" x="1271" y="-338.9" font-family="Arial" font-size="14.00" fill="#000000">ScenarioKey    </text>
<text text-anchor="start" x="1384.5582" y="-338.9" font-family="Arial" font-size="14.00" fill="#666666">[int]</text>
<polygon fill="none" stroke="#000000" points="1264,-297.5 1264,-327.5 1513,-327.5 1513,-297.5 1264,-297.5"/>
<text text-anchor="start" x="1271" y="-308.9" font-family="Arial" font-size="14.00" fill="#000000">ScenarioName    </text>
<text text-anchor="start" x="1397.7714" y="-308.9" font-family="Arial" font-size="14.00" fill="#666666">[nvarchar(50)]</text>
</g>
<!-- FactFinance&#45;&gt;DimScenario -->
<g id="edge4" class="edge">
<title>FactFinance:ScenarioKey&#45;&gt;DimScenario:ScenarioKey</title>
<path fill="none" stroke="#000000" d="M1130.2652,-877.0558C1210.0732,-869.824 1184.6027,-775.6045 1211,-691 1234.3318,-616.2204 1185.6651,-342.5 1264,-342.5"/>
<polygon fill="#000000" stroke="#000000" points="1129.9907,-877.0676 1119.8054,-873.0042 1124.9953,-877.2838 1120,-877.5 1120,-877.5 1120,-877.5 1124.9953,-877.2838 1120.1946,-881.9958 1129.9907,-877.0676 1129.9907,-877.0676"/>
</g>
<!-- DimAccount -->
<g id="node6" class="node">
<title>DimAccount</title>
<polygon fill="#efefef" stroke="transparent" points="1617,-477.5 1617,-512.5 1907,-512.5 1907,-477.5 1617,-477.5"/>
<polygon fill="none" stroke="#000000" points="1617,-477.5 1617,-512.5 1907,-512.5 1907,-477.5 1617,-477.5"/>
<text text-anchor="start" x="1647.3829" y="-490.3" font-family="Arial Bold" font-size="18.00" fill="#000000">DimAccount</text>
<text text-anchor="start" x="1744.3885" y="-490.3" font-family="Arial" font-size="14.00" fill="#000000">    </text>
<text text-anchor="start" x="1778.5933" y="-490.3" font-family="Arial" font-size="14.00" fill="#666666">[BASIC TABLE]</text>
<polygon fill="none" stroke="#000000" points="1617,-447.5 1617,-477.5 1907,-477.5 1907,-447.5 1617,-447.5"/>
<text text-anchor="start" x="1624" y="-458.9" font-family="Arial" font-size="14.00" fill="#000000">AccountKey    </text>
<text text-anchor="start" x="1732.899" y="-458.9" font-family="Arial" font-size="14.00" fill="#666666">[int]</text>
<polygon fill="none" stroke="#000000" points="1617,-417.5 1617,-447.5 1907,-447.5 1907,-417.5 1617,-417.5"/>
<text text-anchor="start" x="1624" y="-428.9" font-family="Arial" font-size="14.00" fill="#000000">ParentAccountKey    </text>
<text text-anchor="start" x="1774.1346" y="-428.9" font-family="Arial" font-size="14.00" fill="#666666">[int]</text>
<polygon fill="none" stroke="#000000" points="1617,-387.5 1617,-417.5 1907,-417.5 1907,-387.5 1617,-387.5"/>
<text text-anchor="start" x="1624" y="-398.9" font-family="Arial" font-size="14.00" fill="#000000">AccountCodeAlternateKey    </text>
<text text-anchor="start" x="1822.3688" y="-398.9" font-family="Arial" font-size="14.00" fill="#666666">[int]</text>
<polygon fill="none" stroke="#000000" points="1617,-357.5 1617,-387.5 1907,-387.5 1907,-357.5 1617,-357.5"/>
<text text-anchor="start" x="1624" y="-368.9" font-family="Arial" font-size="14.00" fill="#000000">ParentAccountCodeAlternateKey    </text>
<text text-anchor="start" x="1863.6044" y="-368.9" font-family="Arial" font-size="14.00" fill="#666666">[int]</text>
<polygon fill="none" stroke="#000000" points="1617,-327.5 1617,-357.5 1907,-357.5 1907,-327.5 1617,-327.5"/>
<text text-anchor="start" x="1624" y="-338.9" font-family="Arial" font-size="14.00" fill="#000000">AccountDescription    </text>
<text text-anchor="start" x="1778.7812" y="-338.9" font-family="Arial" font-size="14.00" fill="#666666">[nvarchar(50)]</text>
<polygon fill="none" stroke="#000000" points="1617,-297.5 1617,-327.5 1907,-327.5 1907,-297.5 1617,-297.5"/>
<text text-anchor="start" x="1624" y="-308.9" font-family="Arial" font-size="14.00" fill="#000000">AccountType    </text>
<text text-anchor="start" x="1739.8976" y="-308.9" font-family="Arial" font-size="14.00" fill="#666666">[nvarchar(50)]</text>
<polygon fill="none" stroke="#000000" points="1617,-267.5 1617,-297.5 1907,-297.5 1907,-267.5 1617,-267.5"/>
<text text-anchor="start" x="1624" y="-278.9" font-family="Arial" font-size="14.00" fill="#000000">Operator    </text>
<text text-anchor="start" x="1713.4376" y="-278.9" font-family="Arial" font-size="14.00" fill="#666666">[nvarchar(50)]</text>
<polygon fill="none" stroke="#000000" points="1617,-237.5 1617,-267.5 1907,-267.5 1907,-237.5 1617,-237.5"/>
<text text-anchor="start" x="1624" y="-248.9" font-family="Arial" font-size="14.00" fill="#000000">CustomMembers    </text>
<text text-anchor="start" x="1764.7574" y="-248.9" font-family="Arial" font-size="14.00" fill="#666666">[nvarchar(300)]</text>
<polygon fill="none" stroke="#000000" points="1617,-207.5 1617,-237.5 1907,-237.5 1907,-207.5 1617,-207.5"/>
<text text-anchor="start" x="1624" y="-218.9" font-family="Arial" font-size="14.00" fill="#000000">ValueType    </text>
<text text-anchor="start" x="1725.1136" y="-218.9" font-family="Arial" font-size="14.00" fill="#666666">[nvarchar(50)]</text>
<polygon fill="none" stroke="#000000" points="1617,-177.5 1617,-207.5 1907,-207.5 1907,-177.5 1617,-177.5"/>
<text text-anchor="start" x="1623.5526" y="-188.9" font-family="Arial" font-size="14.00" fill="#000000">CustomMemberOptions    </text>
<text text-anchor="start" x="1805.5456" y="-188.9" font-family="Arial" font-size="14.00" fill="#666666">[nvarchar(200)]</text>
</g>
<!-- FactFinance&#45;&gt;DimAccount -->
<g id="edge5" class="edge">
<title>FactFinance:AccountKey&#45;&gt;DimAccount:AccountKey</title>
<path fill="none" stroke="#000000" d="M1130.0465,-847.4993C1332.7515,-847.4587 1427.7205,-844.9587 1565,-691 1634.3153,-613.263 1512.8479,-462.5 1617,-462.5"/>
<polygon fill="#000000" stroke="#000000" points="1130,-847.4992 1119.9997,-843 1125,-847.4996 1120,-847.5 1120,-847.5 1120,-847.5 1125,-847.4996 1120.0003,-852 1130,-847.4992 1130,-847.4992"/>
</g>
</g>
</svg>
