<?xml version="1.0" encoding="UTF-8" standalone="no"?>
<!DOCTYPE svg PUBLIC "-//W3C//DTD SVG 1.1//EN"
 "http://www.w3.org/Graphics/SVG/1.1/DTD/svg11.dtd">
<!-- Generated by graphviz version 2.40.1 (20161225.0304)
 -->
<!-- Title: FactSurveyResponse Pages: 1 -->
<svg width="772pt" height="1402pt"
 viewBox="0.00 0.00 772.00 1402.00" xmlns="http://www.w3.org/2000/svg" xmlns:xlink="http://www.w3.org/1999/xlink">
<g id="graph0" class="graph" transform="scale(1 1) rotate(0) translate(4 1398)">
<title>FactSurveyResponse</title>
<polygon fill="#ffffff" stroke="transparent" points="-4,4 -4,-1398 768,-1398 768,4 -4,4"/>
<!-- FactSurveyResponse -->
<g id="node1" class="node">
<title>FactSurveyResponse</title>
<polygon fill="#efefef" stroke="transparent" points="228,-1312.5 228,-1347.5 546,-1347.5 546,-1312.5 228,-1312.5"/>
<polygon fill="none" stroke="#000000" points="228,-1312.5 228,-1347.5 546,-1347.5 546,-1312.5 228,-1312.5"/>
<text text-anchor="start" x="234.8664" y="-1325.3" font-family="Arial Bold" font-size="18.00" fill="#000000">FactSurveyResponse</text>
<text text-anchor="start" x="406.905" y="-1325.3" font-family="Arial" font-size="14.00" fill="#000000">    </text>
<text text-anchor="start" x="441.1098" y="-1325.3" font-family="Arial" font-size="14.00" fill="#666666">[BASIC TABLE]</text>
<polygon fill="none" stroke="#000000" points="228,-1282.5 228,-1312.5 546,-1312.5 546,-1282.5 228,-1282.5"/>
<text text-anchor="start" x="235" y="-1293.9" font-family="Arial" font-size="14.00" fill="#000000">SurveyResponseKey </text>
<text text-anchor="start" x="369.5918" y="-1293.9" font-family="Arial" font-size="14.00" fill="#666666">[int]</text>
<polygon fill="none" stroke="#000000" points="228,-1252.5 228,-1282.5 546,-1282.5 546,-1252.5 228,-1252.5"/>
<text text-anchor="start" x="235" y="-1263.9" font-family="Arial" font-size="14.00" fill="#000000">DateKey </text>
<text text-anchor="start" x="292.5722" y="-1263.9" font-family="Arial" font-size="14.00" fill="#666666">[int]</text>
<polygon fill="none" stroke="#000000" points="228,-1222.5 228,-1252.5 546,-1252.5 546,-1222.5 228,-1222.5"/>
<text text-anchor="start" x="235" y="-1233.9" font-family="Arial" font-size="14.00" fill="#000000">CustomerKey </text>
<text text-anchor="start" x="323.676" y="-1233.9" font-family="Arial" font-size="14.00" fill="#666666">[int]</text>
<polygon fill="none" stroke="#000000" points="228,-1192.5 228,-1222.5 546,-1222.5 546,-1192.5 228,-1192.5"/>
<text text-anchor="start" x="235" y="-1203.9" font-family="Arial" font-size="14.00" fill="#000000">ProductCategoryKey </text>
<text text-anchor="start" x="368.0336" y="-1203.9" font-family="Arial" font-size="14.00" fill="#666666">[int]</text>
<polygon fill="none" stroke="#000000" points="228,-1162.5 228,-1192.5 546,-1192.5 546,-1162.5 228,-1162.5"/>
<text text-anchor="start" x="235" y="-1173.9" font-family="Arial" font-size="14.00" fill="#000000">EnglishProductCategoryName </text>
<text text-anchor="start" x="427.1444" y="-1173.9" font-family="Arial" font-size="14.00" fill="#666666">[nvarchar(50)]</text>
<polygon fill="none" stroke="#000000" points="228,-1132.5 228,-1162.5 546,-1162.5 546,-1132.5 228,-1132.5"/>
<text text-anchor="start" x="235" y="-1143.9" font-family="Arial" font-size="14.00" fill="#000000">ProductSubcategoryKey </text>
<text text-anchor="start" x="389.8288" y="-1143.9" font-family="Arial" font-size="14.00" fill="#666666">[int]</text>
<polygon fill="none" stroke="#000000" points="228,-1102.5 228,-1132.5 546,-1132.5 546,-1102.5 228,-1102.5"/>
<text text-anchor="start" x="235" y="-1113.9" font-family="Arial" font-size="14.00" fill="#000000">EnglishProductSubcategoryName </text>
<text text-anchor="start" x="448.9396" y="-1113.9" font-family="Arial" font-size="14.00" fill="#666666">[nvarchar(50)]</text>
<polygon fill="none" stroke="#000000" points="228,-1072.5 228,-1102.5 546,-1102.5 546,-1072.5 228,-1072.5"/>
<text text-anchor="start" x="235" y="-1083.9" font-family="Arial" font-size="14.00" fill="#000000">Date </text>
<text text-anchor="start" x="268.453" y="-1083.9" font-family="Arial" font-size="14.00" fill="#666666">[datetime]</text>
<polygon fill="none" stroke="#000000" stroke-width="3" points="226.5,-1071.5 226.5,-1349.5 547.5,-1349.5 547.5,-1071.5 226.5,-1071.5"/>
</g>
<!-- DimDate -->
<g id="node2" class="node">
<title>DimDate</title>
<polygon fill="#efefef" stroke="transparent" points="43,-762.5 43,-797.5 341,-797.5 341,-762.5 43,-762.5"/>
<polygon fill="none" stroke="#000000" points="43,-762.5 43,-797.5 341,-797.5 341,-762.5 43,-762.5"/>
<text text-anchor="start" x="90.891" y="-775.3" font-family="Arial Bold" font-size="18.00" fill="#000000">DimDate</text>
<text text-anchor="start" x="160.8804" y="-775.3" font-family="Arial" font-size="14.00" fill="#000000">    </text>
<text text-anchor="start" x="195.0852" y="-775.3" font-family="Arial" font-size="14.00" fill="#666666">[BASIC TABLE]</text>
<polygon fill="none" stroke="#000000" points="43,-732.5 43,-762.5 341,-762.5 341,-732.5 43,-732.5"/>
<text text-anchor="start" x="50" y="-743.9" font-family="Arial" font-size="14.00" fill="#000000">DateKey    </text>
<text text-anchor="start" x="137.8864" y="-743.9" font-family="Arial" font-size="14.00" fill="#666666">[int]</text>
<polygon fill="none" stroke="#000000" points="43,-702.5 43,-732.5 341,-732.5 341,-702.5 43,-702.5"/>
<text text-anchor="start" x="50" y="-713.9" font-family="Arial" font-size="14.00" fill="#000000">FullDateAlternateKey    </text>
<text text-anchor="start" x="216.4502" y="-713.9" font-family="Arial" font-size="14.00" fill="#666666">[date]</text>
<polygon fill="none" stroke="#000000" points="43,-672.5 43,-702.5 341,-702.5 341,-672.5 43,-672.5"/>
<text text-anchor="start" x="50" y="-683.9" font-family="Arial" font-size="14.00" fill="#000000">DayNumberOfWeek    </text>
<text text-anchor="start" x="209.4306" y="-683.9" font-family="Arial" font-size="14.00" fill="#666666">[tinyint]</text>
<polygon fill="none" stroke="#000000" points="43,-642.5 43,-672.5 341,-672.5 341,-642.5 43,-642.5"/>
<text text-anchor="start" x="50" y="-653.9" font-family="Arial" font-size="14.00" fill="#000000">EnglishDayNameOfWeek    </text>
<text text-anchor="start" x="242.885" y="-653.9" font-family="Arial" font-size="14.00" fill="#666666">[nvarchar(10)]</text>
<polygon fill="none" stroke="#000000" points="43,-612.5 43,-642.5 341,-642.5 341,-612.5 43,-612.5"/>
<text text-anchor="start" x="49.6599" y="-623.9" font-family="Arial" font-size="14.00" fill="#000000">SpanishDayNameOfWeek    </text>
<text text-anchor="start" x="247.2209" y="-623.9" font-family="Arial" font-size="14.00" fill="#666666">[nvarchar(10)]</text>
<polygon fill="none" stroke="#000000" points="43,-582.5 43,-612.5 341,-612.5 341,-582.5 43,-582.5"/>
<text text-anchor="start" x="50" y="-593.9" font-family="Arial" font-size="14.00" fill="#000000">FrenchDayNameOfWeek    </text>
<text text-anchor="start" x="240.5484" y="-593.9" font-family="Arial" font-size="14.00" fill="#666666">[nvarchar(10)]</text>
<polygon fill="none" stroke="#000000" points="43,-552.5 43,-582.5 341,-582.5 341,-552.5 43,-552.5"/>
<text text-anchor="start" x="50" y="-563.9" font-family="Arial" font-size="14.00" fill="#000000">DayNumberOfMonth    </text>
<text text-anchor="start" x="212.5498" y="-563.9" font-family="Arial" font-size="14.00" fill="#666666">[tinyint]</text>
<polygon fill="none" stroke="#000000" points="43,-522.5 43,-552.5 341,-552.5 341,-522.5 43,-522.5"/>
<text text-anchor="start" x="50" y="-533.9" font-family="Arial" font-size="14.00" fill="#000000">DayNumberOfYear    </text>
<text text-anchor="start" x="203.2132" y="-533.9" font-family="Arial" font-size="14.00" fill="#666666">[smallint]</text>
<polygon fill="none" stroke="#000000" points="43,-492.5 43,-522.5 341,-522.5 341,-492.5 43,-492.5"/>
<text text-anchor="start" x="50" y="-503.9" font-family="Arial" font-size="14.00" fill="#000000">WeekNumberOfYear    </text>
<text text-anchor="start" x="214.1038" y="-503.9" font-family="Arial" font-size="14.00" fill="#666666">[tinyint]</text>
<polygon fill="none" stroke="#000000" points="43,-462.5 43,-492.5 341,-492.5 341,-462.5 43,-462.5"/>
<text text-anchor="start" x="50" y="-473.9" font-family="Arial" font-size="14.00" fill="#000000">EnglishMonthName    </text>
<text text-anchor="start" x="206.3338" y="-473.9" font-family="Arial" font-size="14.00" fill="#666666">[nvarchar(10)]</text>
<polygon fill="none" stroke="#000000" points="43,-432.5 43,-462.5 341,-462.5 341,-432.5 43,-432.5"/>
<text text-anchor="start" x="50" y="-443.9" font-family="Arial" font-size="14.00" fill="#000000">SpanishMonthName    </text>
<text text-anchor="start" x="211.0098" y="-443.9" font-family="Arial" font-size="14.00" fill="#666666">[nvarchar(10)]</text>
<polygon fill="none" stroke="#000000" points="43,-402.5 43,-432.5 341,-432.5 341,-402.5 43,-402.5"/>
<text text-anchor="start" x="50" y="-413.9" font-family="Arial" font-size="14.00" fill="#000000">FrenchMonthName    </text>
<text text-anchor="start" x="203.9972" y="-413.9" font-family="Arial" font-size="14.00" fill="#666666">[nvarchar(10)]</text>
<polygon fill="none" stroke="#000000" points="43,-372.5 43,-402.5 341,-402.5 341,-372.5 43,-372.5"/>
<text text-anchor="start" x="50" y="-383.9" font-family="Arial" font-size="14.00" fill="#000000">MonthNumberOfYear    </text>
<text text-anchor="start" x="217.223" y="-383.9" font-family="Arial" font-size="14.00" fill="#666666">[tinyint]</text>
<polygon fill="none" stroke="#000000" points="43,-342.5 43,-372.5 341,-372.5 341,-342.5 43,-342.5"/>
<text text-anchor="start" x="50" y="-353.9" font-family="Arial" font-size="14.00" fill="#000000">CalendarQuarter    </text>
<text text-anchor="start" x="188.4418" y="-353.9" font-family="Arial" font-size="14.00" fill="#666666">[tinyint]</text>
<polygon fill="none" stroke="#000000" points="43,-312.5 43,-342.5 341,-342.5 341,-312.5 43,-312.5"/>
<text text-anchor="start" x="50" y="-323.9" font-family="Arial" font-size="14.00" fill="#000000">CalendarYear    </text>
<text text-anchor="start" x="170.554" y="-323.9" font-family="Arial" font-size="14.00" fill="#666666">[smallint]</text>
<polygon fill="none" stroke="#000000" points="43,-282.5 43,-312.5 341,-312.5 341,-282.5 43,-282.5"/>
<text text-anchor="start" x="50" y="-293.9" font-family="Arial" font-size="14.00" fill="#000000">CalendarSemester    </text>
<text text-anchor="start" x="200.8878" y="-293.9" font-family="Arial" font-size="14.00" fill="#666666">[tinyint]</text>
<polygon fill="none" stroke="#000000" points="43,-252.5 43,-282.5 341,-282.5 341,-252.5 43,-252.5"/>
<text text-anchor="start" x="50" y="-263.9" font-family="Arial" font-size="14.00" fill="#000000">FiscalQuarter    </text>
<text text-anchor="start" x="168.2034" y="-263.9" font-family="Arial" font-size="14.00" fill="#666666">[tinyint]</text>
<polygon fill="none" stroke="#000000" points="43,-222.5 43,-252.5 341,-252.5 341,-222.5 43,-222.5"/>
<text text-anchor="start" x="50" y="-233.9" font-family="Arial" font-size="14.00" fill="#000000">FiscalYear    </text>
<text text-anchor="start" x="150.3156" y="-233.9" font-family="Arial" font-size="14.00" fill="#666666">[smallint]</text>
<polygon fill="none" stroke="#000000" points="43,-192.5 43,-222.5 341,-222.5 341,-192.5 43,-192.5"/>
<text text-anchor="start" x="50" y="-203.9" font-family="Arial" font-size="14.00" fill="#000000">FiscalSemester    </text>
<text text-anchor="start" x="180.6494" y="-203.9" font-family="Arial" font-size="14.00" fill="#666666">[tinyint]</text>
</g>
<!-- FactSurveyResponse&#45;&gt;DimDate -->
<g id="edge1" class="edge">
<title>FactSurveyResponse:DateKey&#45;&gt;DimDate:DateKey</title>
<path fill="none" stroke="#000000" d="M217.8382,-1267.2525C-1.7452,-1256.2037 330.4185,-878.797 341,-841 352.203,-800.983 382.5556,-747.5 341,-747.5"/>
<polygon fill="#000000" stroke="#000000" points="218.003,-1267.2564 227.8904,-1271.9987 223.0015,-1267.3782 228,-1267.5 228,-1267.5 228,-1267.5 223.0015,-1267.3782 228.1096,-1263.0013 218.003,-1267.2564 218.003,-1267.2564"/>
</g>
<!-- DimCustomer -->
<g id="node3" class="node">
<title>DimCustomer</title>
<polygon fill="#efefef" stroke="transparent" points="445,-912.5 445,-947.5 721,-947.5 721,-912.5 445,-912.5"/>
<polygon fill="none" stroke="#000000" points="445,-912.5 445,-947.5 721,-947.5 721,-912.5 445,-912.5"/>
<text text-anchor="start" x="461.8957" y="-925.3" font-family="Arial Bold" font-size="18.00" fill="#000000">DimCustomer</text>
<text text-anchor="start" x="571.8757" y="-925.3" font-family="Arial" font-size="14.00" fill="#000000">    </text>
<text text-anchor="start" x="606.0805" y="-925.3" font-family="Arial" font-size="14.00" fill="#666666">[BASIC TABLE]</text>
<polygon fill="none" stroke="#000000" points="445,-882.5 445,-912.5 721,-912.5 721,-882.5 445,-882.5"/>
<text text-anchor="start" x="452" y="-893.9" font-family="Arial" font-size="14.00" fill="#000000">CustomerKey    </text>
<text text-anchor="start" x="570.9902" y="-893.9" font-family="Arial" font-size="14.00" fill="#666666">[int]</text>
<polygon fill="none" stroke="#000000" points="445,-852.5 445,-882.5 721,-882.5 721,-852.5 445,-852.5"/>
<text text-anchor="start" x="452" y="-863.9" font-family="Arial" font-size="14.00" fill="#000000">GeographyKey    </text>
<text text-anchor="start" x="579.5708" y="-863.9" font-family="Arial" font-size="14.00" fill="#666666">[int]</text>
<polygon fill="none" stroke="#000000" points="445,-822.5 445,-852.5 721,-852.5 721,-822.5 445,-822.5"/>
<text text-anchor="start" x="451.9376" y="-833.9" font-family="Arial" font-size="14.00" fill="#000000">CustomerAlternateKey    </text>
<text text-anchor="start" x="626.9432" y="-833.9" font-family="Arial" font-size="14.00" fill="#666666">[nvarchar(15)]</text>
<polygon fill="none" stroke="#000000" points="445,-792.5 445,-822.5 721,-822.5 721,-792.5 445,-792.5"/>
<text text-anchor="start" x="452" y="-803.9" font-family="Arial" font-size="14.00" fill="#000000">Title    </text>
<text text-anchor="start" x="512.6438" y="-803.9" font-family="Arial" font-size="14.00" fill="#666666">[nvarchar(8)]</text>
<polygon fill="none" stroke="#000000" points="445,-762.5 445,-792.5 721,-792.5 721,-762.5 445,-762.5"/>
<text text-anchor="start" x="452" y="-773.9" font-family="Arial" font-size="14.00" fill="#000000">FirstName    </text>
<text text-anchor="start" x="550.7476" y="-773.9" font-family="Arial" font-size="14.00" fill="#666666">[nvarchar(50)]</text>
<polygon fill="none" stroke="#000000" points="445,-732.5 445,-762.5 721,-762.5 721,-732.5 445,-732.5"/>
<text text-anchor="start" x="452" y="-743.9" font-family="Arial" font-size="14.00" fill="#000000">MiddleName    </text>
<text text-anchor="start" x="564.7588" y="-743.9" font-family="Arial" font-size="14.00" fill="#666666">[nvarchar(50)]</text>
<polygon fill="none" stroke="#000000" points="445,-702.5 445,-732.5 721,-732.5 721,-702.5 445,-702.5"/>
<text text-anchor="start" x="452" y="-713.9" font-family="Arial" font-size="14.00" fill="#000000">LastName    </text>
<text text-anchor="start" x="549.993" y="-713.9" font-family="Arial" font-size="14.00" fill="#666666">[nvarchar(50)]</text>
<polygon fill="none" stroke="#000000" points="445,-672.5 445,-702.5 721,-702.5 721,-672.5 445,-672.5"/>
<text text-anchor="start" x="452" y="-683.9" font-family="Arial" font-size="14.00" fill="#000000">NameStyle    </text>
<text text-anchor="start" x="554.6536" y="-683.9" font-family="Arial" font-size="14.00" fill="#666666">[bit]</text>
<polygon fill="none" stroke="#000000" points="445,-642.5 445,-672.5 721,-672.5 721,-642.5 445,-642.5"/>
<text text-anchor="start" x="452" y="-653.9" font-family="Arial" font-size="14.00" fill="#000000">BirthDate    </text>
<text text-anchor="start" x="544.5442" y="-653.9" font-family="Arial" font-size="14.00" fill="#666666">[date]</text>
<polygon fill="none" stroke="#000000" points="445,-612.5 445,-642.5 721,-642.5 721,-612.5 445,-612.5"/>
<text text-anchor="start" x="452" y="-623.9" font-family="Arial" font-size="14.00" fill="#000000">MaritalStatus    </text>
<text text-anchor="start" x="567.878" y="-623.9" font-family="Arial" font-size="14.00" fill="#666666">[nchar]</text>
<polygon fill="none" stroke="#000000" points="445,-582.5 445,-612.5 721,-612.5 721,-582.5 445,-582.5"/>
<text text-anchor="start" x="452" y="-593.9" font-family="Arial" font-size="14.00" fill="#000000">Suffix    </text>
<text text-anchor="start" x="521.2118" y="-593.9" font-family="Arial" font-size="14.00" fill="#666666">[nvarchar(10)]</text>
<polygon fill="none" stroke="#000000" points="445,-552.5 445,-582.5 721,-582.5 721,-552.5 445,-552.5"/>
<text text-anchor="start" x="452" y="-563.9" font-family="Arial" font-size="14.00" fill="#000000">Gender    </text>
<text text-anchor="start" x="532.8864" y="-563.9" font-family="Arial" font-size="14.00" fill="#666666">[nvarchar(1)]</text>
<polygon fill="none" stroke="#000000" points="445,-522.5 445,-552.5 721,-552.5 721,-522.5 445,-522.5"/>
<text text-anchor="start" x="452" y="-533.9" font-family="Arial" font-size="14.00" fill="#000000">EmailAddress    </text>
<text text-anchor="start" x="572.5428" y="-533.9" font-family="Arial" font-size="14.00" fill="#666666">[nvarchar(50)]</text>
<polygon fill="none" stroke="#000000" points="445,-492.5 445,-522.5 721,-522.5 721,-492.5 445,-492.5"/>
<text text-anchor="start" x="452" y="-503.9" font-family="Arial" font-size="14.00" fill="#000000">YearlyIncome    </text>
<text text-anchor="start" x="571.7728" y="-503.9" font-family="Arial" font-size="14.00" fill="#666666">[money]</text>
<polygon fill="none" stroke="#000000" points="445,-462.5 445,-492.5 721,-492.5 721,-462.5 445,-462.5"/>
<text text-anchor="start" x="452" y="-473.9" font-family="Arial" font-size="14.00" fill="#000000">TotalChildren    </text>
<text text-anchor="start" x="569.4306" y="-473.9" font-family="Arial" font-size="14.00" fill="#666666">[tinyint]</text>
<polygon fill="none" stroke="#000000" points="445,-432.5 445,-462.5 721,-462.5 721,-432.5 445,-432.5"/>
<text text-anchor="start" x="452" y="-443.9" font-family="Arial" font-size="14.00" fill="#000000">NumberChildrenAtHome    </text>
<text text-anchor="start" x="638.6508" y="-443.9" font-family="Arial" font-size="14.00" fill="#666666">[tinyint]</text>
<polygon fill="none" stroke="#000000" points="445,-402.5 445,-432.5 721,-432.5 721,-402.5 445,-402.5"/>
<text text-anchor="start" x="452" y="-413.9" font-family="Arial" font-size="14.00" fill="#000000">EnglishEducation    </text>
<text text-anchor="start" x="594.3492" y="-413.9" font-family="Arial" font-size="14.00" fill="#666666">[nvarchar(40)]</text>
<polygon fill="none" stroke="#000000" points="445,-372.5 445,-402.5 721,-402.5 721,-372.5 445,-372.5"/>
<text text-anchor="start" x="452" y="-383.9" font-family="Arial" font-size="14.00" fill="#000000">SpanishEducation    </text>
<text text-anchor="start" x="599.0252" y="-383.9" font-family="Arial" font-size="14.00" fill="#666666">[nvarchar(40)]</text>
<polygon fill="none" stroke="#000000" points="445,-342.5 445,-372.5 721,-372.5 721,-342.5 445,-342.5"/>
<text text-anchor="start" x="452" y="-353.9" font-family="Arial" font-size="14.00" fill="#000000">FrenchEducation    </text>
<text text-anchor="start" x="592.0126" y="-353.9" font-family="Arial" font-size="14.00" fill="#666666">[nvarchar(40)]</text>
<polygon fill="none" stroke="#000000" points="445,-312.5 445,-342.5 721,-342.5 721,-312.5 445,-312.5"/>
<text text-anchor="start" x="452" y="-323.9" font-family="Arial" font-size="14.00" fill="#000000">EnglishOccupation    </text>
<text text-anchor="start" x="602.9032" y="-323.9" font-family="Arial" font-size="14.00" fill="#666666">[nvarchar(100)]</text>
<polygon fill="none" stroke="#000000" points="445,-282.5 445,-312.5 721,-312.5 721,-282.5 445,-282.5"/>
<text text-anchor="start" x="452" y="-293.9" font-family="Arial" font-size="14.00" fill="#000000">SpanishOccupation    </text>
<text text-anchor="start" x="607.5792" y="-293.9" font-family="Arial" font-size="14.00" fill="#666666">[nvarchar(100)]</text>
<polygon fill="none" stroke="#000000" points="445,-252.5 445,-282.5 721,-282.5 721,-252.5 445,-252.5"/>
<text text-anchor="start" x="452" y="-263.9" font-family="Arial" font-size="14.00" fill="#000000">FrenchOccupation    </text>
<text text-anchor="start" x="600.5666" y="-263.9" font-family="Arial" font-size="14.00" fill="#666666">[nvarchar(100)]</text>
<polygon fill="none" stroke="#000000" points="445,-222.5 445,-252.5 721,-252.5 721,-222.5 445,-222.5"/>
<text text-anchor="start" x="452" y="-233.9" font-family="Arial" font-size="14.00" fill="#000000">HouseOwnerFlag    </text>
<text text-anchor="start" x="595.1066" y="-233.9" font-family="Arial" font-size="14.00" fill="#666666">[nchar]</text>
<polygon fill="none" stroke="#000000" points="445,-192.5 445,-222.5 721,-222.5 721,-192.5 445,-192.5"/>
<text text-anchor="start" x="452" y="-203.9" font-family="Arial" font-size="14.00" fill="#000000">NumberCarsOwned    </text>
<text text-anchor="start" x="609.8752" y="-203.9" font-family="Arial" font-size="14.00" fill="#666666">[tinyint]</text>
<polygon fill="none" stroke="#000000" points="445,-162.5 445,-192.5 721,-192.5 721,-162.5 445,-162.5"/>
<text text-anchor="start" x="452" y="-173.9" font-family="Arial" font-size="14.00" fill="#000000">AddressLine1    </text>
<text text-anchor="start" x="571.7868" y="-173.9" font-family="Arial" font-size="14.00" fill="#666666">[nvarchar(120)]</text>
<polygon fill="none" stroke="#000000" points="445,-132.5 445,-162.5 721,-162.5 721,-132.5 445,-132.5"/>
<text text-anchor="start" x="452" y="-143.9" font-family="Arial" font-size="14.00" fill="#000000">AddressLine2    </text>
<text text-anchor="start" x="571.7868" y="-143.9" font-family="Arial" font-size="14.00" fill="#666666">[nvarchar(120)]</text>
<polygon fill="none" stroke="#000000" points="445,-102.5 445,-132.5 721,-132.5 721,-102.5 445,-102.5"/>
<text text-anchor="start" x="452" y="-113.9" font-family="Arial" font-size="14.00" fill="#000000">Phone    </text>
<text text-anchor="start" x="526.6718" y="-113.9" font-family="Arial" font-size="14.00" fill="#666666">[nvarchar(20)]</text>
<polygon fill="none" stroke="#000000" points="445,-72.5 445,-102.5 721,-102.5 721,-72.5 445,-72.5"/>
<text text-anchor="start" x="452" y="-83.9" font-family="Arial" font-size="14.00" fill="#000000">DateFirstPurchase    </text>
<text text-anchor="start" x="602.1052" y="-83.9" font-family="Arial" font-size="14.00" fill="#666666">[date]</text>
<polygon fill="none" stroke="#000000" points="445,-42.5 445,-72.5 721,-72.5 721,-42.5 445,-42.5"/>
<text text-anchor="start" x="452" y="-53.9" font-family="Arial" font-size="14.00" fill="#000000">CommuteDistance    </text>
<text text-anchor="start" x="601.3226" y="-53.9" font-family="Arial" font-size="14.00" fill="#666666">[nvarchar(15)]</text>
</g>
<!-- FactSurveyResponse&#45;&gt;DimCustomer -->
<g id="edge2" class="edge">
<title>FactSurveyResponse:CustomerKey&#45;&gt;DimCustomer:CustomerKey</title>
<path fill="none" stroke="#000000" d="M556.3609,-1236.8978C636.437,-1227.1157 597.8104,-1100.4703 546,-1027 518.5361,-988.0546 472.4639,-1029.9454 445,-991 421.0513,-957.0394 403.4444,-897.5 445,-897.5"/>
<polygon fill="#000000" stroke="#000000" points="555.9832,-1236.9197 545.7389,-1233.0076 550.9916,-1237.2098 546,-1237.5 546,-1237.5 546,-1237.5 550.9916,-1237.2098 546.2611,-1241.9924 555.9832,-1236.9197 555.9832,-1236.9197"/>
</g>
</g>
</svg>
