<?xml version="1.0" encoding="UTF-8" standalone="no"?>
<!DOCTYPE svg PUBLIC "-//W3C//DTD SVG 1.1//EN"
 "http://www.w3.org/Graphics/SVG/1.1/DTD/svg11.dtd">
<!-- Generated by graphviz version 2.40.1 (20161225.0304)
 -->
<!-- Title: FactSalesQuota Pages: 1 -->
<svg width="880pt" height="1432pt"
 viewBox="0.00 0.00 880.00 1432.00" xmlns="http://www.w3.org/2000/svg" xmlns:xlink="http://www.w3.org/1999/xlink">
<g id="graph0" class="graph" transform="scale(1 1) rotate(0) translate(4 1428)">
<title>FactSalesQuota</title>
<polygon fill="#ffffff" stroke="transparent" points="-4,4 -4,-1428 876,-1428 876,4 -4,4"/>
<!-- FactSalesQuota -->
<g id="node1" class="node">
<title>FactSalesQuota</title>
<polygon fill="#efefef" stroke="transparent" points="319,-1342.5 319,-1377.5 594,-1377.5 594,-1342.5 319,-1342.5"/>
<polygon fill="none" stroke="#000000" points="319,-1342.5 319,-1377.5 594,-1377.5 594,-1342.5 319,-1342.5"/>
<text text-anchor="start" x="325.8665" y="-1355.3" font-family="Arial Bold" font-size="18.00" fill="#000000">FactSalesQuota</text>
<text text-anchor="start" x="454.9049" y="-1355.3" font-family="Arial" font-size="14.00" fill="#000000">    </text>
<text text-anchor="start" x="489.1097" y="-1355.3" font-family="Arial" font-size="14.00" fill="#666666">[BASIC TABLE]</text>
<polygon fill="none" stroke="#000000" points="319,-1312.5 319,-1342.5 594,-1342.5 594,-1312.5 319,-1312.5"/>
<text text-anchor="start" x="326" y="-1323.9" font-family="Arial" font-size="14.00" fill="#000000">SalesQuotaKey </text>
<text text-anchor="start" x="427.1472" y="-1323.9" font-family="Arial" font-size="14.00" fill="#666666">[int]</text>
<polygon fill="none" stroke="#000000" points="319,-1282.5 319,-1312.5 594,-1312.5 594,-1282.5 319,-1282.5"/>
<text text-anchor="start" x="326" y="-1293.9" font-family="Arial" font-size="14.00" fill="#000000">EmployeeKey </text>
<text text-anchor="start" x="416.244" y="-1293.9" font-family="Arial" font-size="14.00" fill="#666666">[int]</text>
<polygon fill="none" stroke="#000000" points="319,-1252.5 319,-1282.5 594,-1282.5 594,-1252.5 319,-1252.5"/>
<text text-anchor="start" x="326" y="-1263.9" font-family="Arial" font-size="14.00" fill="#000000">DateKey </text>
<text text-anchor="start" x="383.5722" y="-1263.9" font-family="Arial" font-size="14.00" fill="#666666">[int]</text>
<polygon fill="none" stroke="#000000" points="319,-1222.5 319,-1252.5 594,-1252.5 594,-1222.5 319,-1222.5"/>
<text text-anchor="start" x="326" y="-1233.9" font-family="Arial" font-size="14.00" fill="#000000">CalendarYear </text>
<text text-anchor="start" x="416.2398" y="-1233.9" font-family="Arial" font-size="14.00" fill="#666666">[smallint]</text>
<polygon fill="none" stroke="#000000" points="319,-1192.5 319,-1222.5 594,-1222.5 594,-1192.5 319,-1192.5"/>
<text text-anchor="start" x="326" y="-1203.9" font-family="Arial" font-size="14.00" fill="#000000">CalendarQuarter </text>
<text text-anchor="start" x="434.1276" y="-1203.9" font-family="Arial" font-size="14.00" fill="#666666">[tinyint]</text>
<polygon fill="none" stroke="#000000" points="319,-1162.5 319,-1192.5 594,-1192.5 594,-1162.5 319,-1162.5"/>
<text text-anchor="start" x="326" y="-1173.9" font-family="Arial" font-size="14.00" fill="#000000">SalesAmountQuota </text>
<text text-anchor="start" x="451.2636" y="-1173.9" font-family="Arial" font-size="14.00" fill="#666666">[money]</text>
<polygon fill="none" stroke="#000000" points="319,-1132.5 319,-1162.5 594,-1162.5 594,-1132.5 319,-1132.5"/>
<text text-anchor="start" x="326" y="-1143.9" font-family="Arial" font-size="14.00" fill="#000000">Date </text>
<text text-anchor="start" x="359.453" y="-1143.9" font-family="Arial" font-size="14.00" fill="#666666">[datetime]</text>
<polygon fill="none" stroke="#000000" stroke-width="3" points="317,-1131.5 317,-1379.5 595,-1379.5 595,-1131.5 317,-1131.5"/>
</g>
<!-- DimEmployee -->
<g id="node2" class="node">
<title>DimEmployee</title>
<polygon fill="#efefef" stroke="transparent" points="43,-972.5 43,-1007.5 427,-1007.5 427,-972.5 43,-972.5"/>
<polygon fill="none" stroke="#000000" points="43,-972.5 43,-1007.5 427,-1007.5 427,-972.5 43,-972.5"/>
<text text-anchor="start" x="112.8877" y="-985.3" font-family="Arial Bold" font-size="18.00" fill="#000000">DimEmployee</text>
<text text-anchor="start" x="224.8837" y="-985.3" font-family="Arial" font-size="14.00" fill="#000000">    </text>
<text text-anchor="start" x="259.0885" y="-985.3" font-family="Arial" font-size="14.00" fill="#666666">[BASIC TABLE]</text>
<polygon fill="none" stroke="#000000" points="43,-942.5 43,-972.5 427,-972.5 427,-942.5 43,-942.5"/>
<text text-anchor="start" x="50" y="-953.9" font-family="Arial" font-size="14.00" fill="#000000">EmployeeKey    </text>
<text text-anchor="start" x="170.5582" y="-953.9" font-family="Arial" font-size="14.00" fill="#666666">[int]</text>
<polygon fill="none" stroke="#000000" points="43,-912.5 43,-942.5 427,-942.5 427,-912.5 43,-912.5"/>
<text text-anchor="start" x="50" y="-923.9" font-family="Arial" font-size="14.00" fill="#000000">ParentEmployeeKey    </text>
<text text-anchor="start" x="211.7938" y="-923.9" font-family="Arial" font-size="14.00" fill="#666666">[int]</text>
<polygon fill="none" stroke="#000000" points="43,-882.5 43,-912.5 427,-912.5 427,-882.5 43,-882.5"/>
<text text-anchor="start" x="50" y="-893.9" font-family="Arial" font-size="14.00" fill="#000000">EmployeeNationalIDAlternateKey    </text>
<text text-anchor="start" x="291.9116" y="-893.9" font-family="Arial" font-size="14.00" fill="#666666">[nvarchar(15)]</text>
<polygon fill="none" stroke="#000000" points="43,-852.5 43,-882.5 427,-882.5 427,-852.5 43,-852.5"/>
<text text-anchor="start" x="49.8668" y="-863.9" font-family="Arial" font-size="14.00" fill="#000000">ParentEmployeeNationalIDAlternateKey    </text>
<text text-anchor="start" x="333.014" y="-863.9" font-family="Arial" font-size="14.00" fill="#666666">[nvarchar(15)]</text>
<polygon fill="none" stroke="#000000" points="43,-822.5 43,-852.5 427,-852.5 427,-822.5 43,-822.5"/>
<text text-anchor="start" x="50" y="-833.9" font-family="Arial" font-size="14.00" fill="#000000">SalesTerritoryKey    </text>
<text text-anchor="start" x="195.4292" y="-833.9" font-family="Arial" font-size="14.00" fill="#666666">[int]</text>
<polygon fill="none" stroke="#000000" points="43,-792.5 43,-822.5 427,-822.5 427,-792.5 43,-792.5"/>
<text text-anchor="start" x="50" y="-803.9" font-family="Arial" font-size="14.00" fill="#000000">FirstName    </text>
<text text-anchor="start" x="148.7476" y="-803.9" font-family="Arial" font-size="14.00" fill="#666666">[nvarchar(50)]</text>
<polygon fill="none" stroke="#000000" points="43,-762.5 43,-792.5 427,-792.5 427,-762.5 43,-762.5"/>
<text text-anchor="start" x="50" y="-773.9" font-family="Arial" font-size="14.00" fill="#000000">LastName    </text>
<text text-anchor="start" x="147.993" y="-773.9" font-family="Arial" font-size="14.00" fill="#666666">[nvarchar(50)]</text>
<polygon fill="none" stroke="#000000" points="43,-732.5 43,-762.5 427,-762.5 427,-732.5 43,-732.5"/>
<text text-anchor="start" x="50" y="-743.9" font-family="Arial" font-size="14.00" fill="#000000">MiddleName    </text>
<text text-anchor="start" x="162.7588" y="-743.9" font-family="Arial" font-size="14.00" fill="#666666">[nvarchar(50)]</text>
<polygon fill="none" stroke="#000000" points="43,-702.5 43,-732.5 427,-732.5 427,-702.5 43,-702.5"/>
<text text-anchor="start" x="50" y="-713.9" font-family="Arial" font-size="14.00" fill="#000000">NameStyle    </text>
<text text-anchor="start" x="152.6536" y="-713.9" font-family="Arial" font-size="14.00" fill="#666666">[bit]</text>
<polygon fill="none" stroke="#000000" points="43,-672.5 43,-702.5 427,-702.5 427,-672.5 43,-672.5"/>
<text text-anchor="start" x="50" y="-683.9" font-family="Arial" font-size="14.00" fill="#000000">Title    </text>
<text text-anchor="start" x="110.6438" y="-683.9" font-family="Arial" font-size="14.00" fill="#666666">[nvarchar(50)]</text>
<polygon fill="none" stroke="#000000" points="43,-642.5 43,-672.5 427,-672.5 427,-642.5 43,-642.5"/>
<text text-anchor="start" x="50" y="-653.9" font-family="Arial" font-size="14.00" fill="#000000">HireDate    </text>
<text text-anchor="start" x="139.4236" y="-653.9" font-family="Arial" font-size="14.00" fill="#666666">[date]</text>
<polygon fill="none" stroke="#000000" points="43,-612.5 43,-642.5 427,-642.5 427,-612.5 43,-612.5"/>
<text text-anchor="start" x="50" y="-623.9" font-family="Arial" font-size="14.00" fill="#000000">BirthDate    </text>
<text text-anchor="start" x="142.5442" y="-623.9" font-family="Arial" font-size="14.00" fill="#666666">[date]</text>
<polygon fill="none" stroke="#000000" points="43,-582.5 43,-612.5 427,-612.5 427,-582.5 43,-582.5"/>
<text text-anchor="start" x="50" y="-593.9" font-family="Arial" font-size="14.00" fill="#000000">LoginID    </text>
<text text-anchor="start" x="132.439" y="-593.9" font-family="Arial" font-size="14.00" fill="#666666">[nvarchar(256)]</text>
<polygon fill="none" stroke="#000000" points="43,-552.5 43,-582.5 427,-582.5 427,-552.5 43,-552.5"/>
<text text-anchor="start" x="50" y="-563.9" font-family="Arial" font-size="14.00" fill="#000000">EmailAddress    </text>
<text text-anchor="start" x="170.5428" y="-563.9" font-family="Arial" font-size="14.00" fill="#666666">[nvarchar(50)]</text>
<polygon fill="none" stroke="#000000" points="43,-522.5 43,-552.5 427,-552.5 427,-522.5 43,-522.5"/>
<text text-anchor="start" x="50" y="-533.9" font-family="Arial" font-size="14.00" fill="#000000">Phone    </text>
<text text-anchor="start" x="124.6718" y="-533.9" font-family="Arial" font-size="14.00" fill="#666666">[nvarchar(25)]</text>
<polygon fill="none" stroke="#000000" points="43,-492.5 43,-522.5 427,-522.5 427,-492.5 43,-492.5"/>
<text text-anchor="start" x="50" y="-503.9" font-family="Arial" font-size="14.00" fill="#000000">MaritalStatus    </text>
<text text-anchor="start" x="165.878" y="-503.9" font-family="Arial" font-size="14.00" fill="#666666">[nchar]</text>
<polygon fill="none" stroke="#000000" points="43,-462.5 43,-492.5 427,-492.5 427,-462.5 43,-462.5"/>
<text text-anchor="start" x="50" y="-473.9" font-family="Arial" font-size="14.00" fill="#000000">EmergencyContactName    </text>
<text text-anchor="start" x="240.561" y="-473.9" font-family="Arial" font-size="14.00" fill="#666666">[nvarchar(50)]</text>
<polygon fill="none" stroke="#000000" points="43,-432.5 43,-462.5 427,-462.5 427,-432.5 43,-432.5"/>
<text text-anchor="start" x="50" y="-443.9" font-family="Arial" font-size="14.00" fill="#000000">EmergencyContactPhone    </text>
<text text-anchor="start" x="243.6956" y="-443.9" font-family="Arial" font-size="14.00" fill="#666666">[nvarchar(25)]</text>
<polygon fill="none" stroke="#000000" points="43,-402.5 43,-432.5 427,-432.5 427,-402.5 43,-402.5"/>
<text text-anchor="start" x="50" y="-413.9" font-family="Arial" font-size="14.00" fill="#000000">SalariedFlag    </text>
<text text-anchor="start" x="162.77" y="-413.9" font-family="Arial" font-size="14.00" fill="#666666">[bit]</text>
<polygon fill="none" stroke="#000000" points="43,-372.5 43,-402.5 427,-402.5 427,-372.5 43,-372.5"/>
<text text-anchor="start" x="50" y="-383.9" font-family="Arial" font-size="14.00" fill="#000000">Gender    </text>
<text text-anchor="start" x="130.8864" y="-383.9" font-family="Arial" font-size="14.00" fill="#666666">[nchar]</text>
<polygon fill="none" stroke="#000000" points="43,-342.5 43,-372.5 427,-372.5 427,-342.5 43,-342.5"/>
<text text-anchor="start" x="50" y="-353.9" font-family="Arial" font-size="14.00" fill="#000000">PayFrequency    </text>
<text text-anchor="start" x="174.4502" y="-353.9" font-family="Arial" font-size="14.00" fill="#666666">[tinyint]</text>
<polygon fill="none" stroke="#000000" points="43,-312.5 43,-342.5 427,-342.5 427,-312.5 43,-312.5"/>
<text text-anchor="start" x="50" y="-323.9" font-family="Arial" font-size="14.00" fill="#000000">BaseRate    </text>
<text text-anchor="start" x="145.669" y="-323.9" font-family="Arial" font-size="14.00" fill="#666666">[money]</text>
<polygon fill="none" stroke="#000000" points="43,-282.5 43,-312.5 427,-312.5 427,-282.5 43,-282.5"/>
<text text-anchor="start" x="50" y="-293.9" font-family="Arial" font-size="14.00" fill="#000000">VacationHours    </text>
<text text-anchor="start" x="176.0014" y="-293.9" font-family="Arial" font-size="14.00" fill="#666666">[smallint]</text>
<polygon fill="none" stroke="#000000" points="43,-252.5 43,-282.5 427,-282.5 427,-252.5 43,-252.5"/>
<text text-anchor="start" x="50" y="-263.9" font-family="Arial" font-size="14.00" fill="#000000">SickLeaveHours    </text>
<text text-anchor="start" x="186.1108" y="-263.9" font-family="Arial" font-size="14.00" fill="#666666">[smallint]</text>
<polygon fill="none" stroke="#000000" points="43,-222.5 43,-252.5 427,-252.5 427,-222.5 43,-222.5"/>
<text text-anchor="start" x="50" y="-233.9" font-family="Arial" font-size="14.00" fill="#000000">CurrentFlag    </text>
<text text-anchor="start" x="158.0954" y="-233.9" font-family="Arial" font-size="14.00" fill="#666666">[bit]</text>
<polygon fill="none" stroke="#000000" points="43,-192.5 43,-222.5 427,-222.5 427,-192.5 43,-192.5"/>
<text text-anchor="start" x="50" y="-203.9" font-family="Arial" font-size="14.00" fill="#000000">SalesPersonFlag    </text>
<text text-anchor="start" x="190.7826" y="-203.9" font-family="Arial" font-size="14.00" fill="#666666">[bit]</text>
<polygon fill="none" stroke="#000000" points="43,-162.5 43,-192.5 427,-192.5 427,-162.5 43,-162.5"/>
<text text-anchor="start" x="50" y="-173.9" font-family="Arial" font-size="14.00" fill="#000000">DepartmentName    </text>
<text text-anchor="start" x="194.6592" y="-173.9" font-family="Arial" font-size="14.00" fill="#666666">[nvarchar(50)]</text>
<polygon fill="none" stroke="#000000" points="43,-132.5 43,-162.5 427,-162.5 427,-132.5 43,-132.5"/>
<text text-anchor="start" x="50" y="-143.9" font-family="Arial" font-size="14.00" fill="#000000">StartDate    </text>
<text text-anchor="start" x="143.3282" y="-143.9" font-family="Arial" font-size="14.00" fill="#666666">[date]</text>
<polygon fill="none" stroke="#000000" points="43,-102.5 43,-132.5 427,-132.5 427,-102.5 43,-102.5"/>
<text text-anchor="start" x="50" y="-113.9" font-family="Arial" font-size="14.00" fill="#000000">EndDate    </text>
<text text-anchor="start" x="138.669" y="-113.9" font-family="Arial" font-size="14.00" fill="#666666">[date]</text>
<polygon fill="none" stroke="#000000" points="43,-72.5 43,-102.5 427,-102.5 427,-72.5 43,-72.5"/>
<text text-anchor="start" x="50" y="-83.9" font-family="Arial" font-size="14.00" fill="#000000">Status    </text>
<text text-anchor="start" x="123.8878" y="-83.9" font-family="Arial" font-size="14.00" fill="#666666">[nvarchar(50)]</text>
<polygon fill="none" stroke="#000000" points="43,-42.5 43,-72.5 427,-72.5 427,-42.5 43,-42.5"/>
<text text-anchor="start" x="50" y="-53.9" font-family="Arial" font-size="14.00" fill="#000000">EmployeePhoto    </text>
<text text-anchor="start" x="183.014" y="-53.9" font-family="Arial" font-size="14.00" fill="#666666">[varbinary(MAX)]</text>
</g>
<!-- FactSalesQuota&#45;&gt;DimEmployee -->
<g id="edge1" class="edge">
<title>FactSalesQuota:EmployeeKey&#45;&gt;DimEmployee:EmployeeKey</title>
<path fill="none" stroke="#000000" d="M308.6356,-1296.8954C228.504,-1287.0737 266.4339,-1159.9315 319,-1087 348.5843,-1045.954 397.4157,-1092.046 427,-1051 451.298,-1017.2884 468.5556,-957.5 427,-957.5"/>
<polygon fill="#000000" stroke="#000000" points="309.017,-1296.9175 318.7379,-1301.9924 314.0085,-1297.2088 319,-1297.5 319,-1297.5 319,-1297.5 314.0085,-1297.2088 319.2621,-1293.0076 309.017,-1296.9175 309.017,-1296.9175"/>
</g>
<!-- DimDate -->
<g id="node3" class="node">
<title>DimDate</title>
<polygon fill="#efefef" stroke="transparent" points="531,-792.5 531,-827.5 829,-827.5 829,-792.5 531,-792.5"/>
<polygon fill="none" stroke="#000000" points="531,-792.5 531,-827.5 829,-827.5 829,-792.5 531,-792.5"/>
<text text-anchor="start" x="578.891" y="-805.3" font-family="Arial Bold" font-size="18.00" fill="#000000">DimDate</text>
<text text-anchor="start" x="648.8804" y="-805.3" font-family="Arial" font-size="14.00" fill="#000000">    </text>
<text text-anchor="start" x="683.0852" y="-805.3" font-family="Arial" font-size="14.00" fill="#666666">[BASIC TABLE]</text>
<polygon fill="none" stroke="#000000" points="531,-762.5 531,-792.5 829,-792.5 829,-762.5 531,-762.5"/>
<text text-anchor="start" x="538" y="-773.9" font-family="Arial" font-size="14.00" fill="#000000">DateKey    </text>
<text text-anchor="start" x="625.8864" y="-773.9" font-family="Arial" font-size="14.00" fill="#666666">[int]</text>
<polygon fill="none" stroke="#000000" points="531,-732.5 531,-762.5 829,-762.5 829,-732.5 531,-732.5"/>
<text text-anchor="start" x="538" y="-743.9" font-family="Arial" font-size="14.00" fill="#000000">FullDateAlternateKey    </text>
<text text-anchor="start" x="704.4502" y="-743.9" font-family="Arial" font-size="14.00" fill="#666666">[date]</text>
<polygon fill="none" stroke="#000000" points="531,-702.5 531,-732.5 829,-732.5 829,-702.5 531,-702.5"/>
<text text-anchor="start" x="538" y="-713.9" font-family="Arial" font-size="14.00" fill="#000000">DayNumberOfWeek    </text>
<text text-anchor="start" x="697.4306" y="-713.9" font-family="Arial" font-size="14.00" fill="#666666">[tinyint]</text>
<polygon fill="none" stroke="#000000" points="531,-672.5 531,-702.5 829,-702.5 829,-672.5 531,-672.5"/>
<text text-anchor="start" x="538" y="-683.9" font-family="Arial" font-size="14.00" fill="#000000">EnglishDayNameOfWeek    </text>
<text text-anchor="start" x="730.885" y="-683.9" font-family="Arial" font-size="14.00" fill="#666666">[nvarchar(10)]</text>
<polygon fill="none" stroke="#000000" points="531,-642.5 531,-672.5 829,-672.5 829,-642.5 531,-642.5"/>
<text text-anchor="start" x="537.6599" y="-653.9" font-family="Arial" font-size="14.00" fill="#000000">SpanishDayNameOfWeek    </text>
<text text-anchor="start" x="735.2209" y="-653.9" font-family="Arial" font-size="14.00" fill="#666666">[nvarchar(10)]</text>
<polygon fill="none" stroke="#000000" points="531,-612.5 531,-642.5 829,-642.5 829,-612.5 531,-612.5"/>
<text text-anchor="start" x="538" y="-623.9" font-family="Arial" font-size="14.00" fill="#000000">FrenchDayNameOfWeek    </text>
<text text-anchor="start" x="728.5484" y="-623.9" font-family="Arial" font-size="14.00" fill="#666666">[nvarchar(10)]</text>
<polygon fill="none" stroke="#000000" points="531,-582.5 531,-612.5 829,-612.5 829,-582.5 531,-582.5"/>
<text text-anchor="start" x="538" y="-593.9" font-family="Arial" font-size="14.00" fill="#000000">DayNumberOfMonth    </text>
<text text-anchor="start" x="700.5498" y="-593.9" font-family="Arial" font-size="14.00" fill="#666666">[tinyint]</text>
<polygon fill="none" stroke="#000000" points="531,-552.5 531,-582.5 829,-582.5 829,-552.5 531,-552.5"/>
<text text-anchor="start" x="538" y="-563.9" font-family="Arial" font-size="14.00" fill="#000000">DayNumberOfYear    </text>
<text text-anchor="start" x="691.2132" y="-563.9" font-family="Arial" font-size="14.00" fill="#666666">[smallint]</text>
<polygon fill="none" stroke="#000000" points="531,-522.5 531,-552.5 829,-552.5 829,-522.5 531,-522.5"/>
<text text-anchor="start" x="538" y="-533.9" font-family="Arial" font-size="14.00" fill="#000000">WeekNumberOfYear    </text>
<text text-anchor="start" x="702.1038" y="-533.9" font-family="Arial" font-size="14.00" fill="#666666">[tinyint]</text>
<polygon fill="none" stroke="#000000" points="531,-492.5 531,-522.5 829,-522.5 829,-492.5 531,-492.5"/>
<text text-anchor="start" x="538" y="-503.9" font-family="Arial" font-size="14.00" fill="#000000">EnglishMonthName    </text>
<text text-anchor="start" x="694.3338" y="-503.9" font-family="Arial" font-size="14.00" fill="#666666">[nvarchar(10)]</text>
<polygon fill="none" stroke="#000000" points="531,-462.5 531,-492.5 829,-492.5 829,-462.5 531,-462.5"/>
<text text-anchor="start" x="538" y="-473.9" font-family="Arial" font-size="14.00" fill="#000000">SpanishMonthName    </text>
<text text-anchor="start" x="699.0098" y="-473.9" font-family="Arial" font-size="14.00" fill="#666666">[nvarchar(10)]</text>
<polygon fill="none" stroke="#000000" points="531,-432.5 531,-462.5 829,-462.5 829,-432.5 531,-432.5"/>
<text text-anchor="start" x="538" y="-443.9" font-family="Arial" font-size="14.00" fill="#000000">FrenchMonthName    </text>
<text text-anchor="start" x="691.9972" y="-443.9" font-family="Arial" font-size="14.00" fill="#666666">[nvarchar(10)]</text>
<polygon fill="none" stroke="#000000" points="531,-402.5 531,-432.5 829,-432.5 829,-402.5 531,-402.5"/>
<text text-anchor="start" x="538" y="-413.9" font-family="Arial" font-size="14.00" fill="#000000">MonthNumberOfYear    </text>
<text text-anchor="start" x="705.223" y="-413.9" font-family="Arial" font-size="14.00" fill="#666666">[tinyint]</text>
<polygon fill="none" stroke="#000000" points="531,-372.5 531,-402.5 829,-402.5 829,-372.5 531,-372.5"/>
<text text-anchor="start" x="538" y="-383.9" font-family="Arial" font-size="14.00" fill="#000000">CalendarQuarter    </text>
<text text-anchor="start" x="676.4418" y="-383.9" font-family="Arial" font-size="14.00" fill="#666666">[tinyint]</text>
<polygon fill="none" stroke="#000000" points="531,-342.5 531,-372.5 829,-372.5 829,-342.5 531,-342.5"/>
<text text-anchor="start" x="538" y="-353.9" font-family="Arial" font-size="14.00" fill="#000000">CalendarYear    </text>
<text text-anchor="start" x="658.554" y="-353.9" font-family="Arial" font-size="14.00" fill="#666666">[smallint]</text>
<polygon fill="none" stroke="#000000" points="531,-312.5 531,-342.5 829,-342.5 829,-312.5 531,-312.5"/>
<text text-anchor="start" x="538" y="-323.9" font-family="Arial" font-size="14.00" fill="#000000">CalendarSemester    </text>
<text text-anchor="start" x="688.8878" y="-323.9" font-family="Arial" font-size="14.00" fill="#666666">[tinyint]</text>
<polygon fill="none" stroke="#000000" points="531,-282.5 531,-312.5 829,-312.5 829,-282.5 531,-282.5"/>
<text text-anchor="start" x="538" y="-293.9" font-family="Arial" font-size="14.00" fill="#000000">FiscalQuarter    </text>
<text text-anchor="start" x="656.2034" y="-293.9" font-family="Arial" font-size="14.00" fill="#666666">[tinyint]</text>
<polygon fill="none" stroke="#000000" points="531,-252.5 531,-282.5 829,-282.5 829,-252.5 531,-252.5"/>
<text text-anchor="start" x="538" y="-263.9" font-family="Arial" font-size="14.00" fill="#000000">FiscalYear    </text>
<text text-anchor="start" x="638.3156" y="-263.9" font-family="Arial" font-size="14.00" fill="#666666">[smallint]</text>
<polygon fill="none" stroke="#000000" points="531,-222.5 531,-252.5 829,-252.5 829,-222.5 531,-222.5"/>
<text text-anchor="start" x="538" y="-233.9" font-family="Arial" font-size="14.00" fill="#000000">FiscalSemester    </text>
<text text-anchor="start" x="668.6494" y="-233.9" font-family="Arial" font-size="14.00" fill="#666666">[tinyint]</text>
</g>
<!-- FactSalesQuota&#45;&gt;DimDate -->
<g id="edge2" class="edge">
<title>FactSalesQuota:DateKey&#45;&gt;DimDate:DateKey</title>
<path fill="none" stroke="#000000" d="M604.17,-1265.8423C674.4381,-1240.3333 539.1706,-928.1942 531,-871 525.1232,-829.8621 489.4444,-777.5 531,-777.5"/>
<polygon fill="#000000" stroke="#000000" points="603.8697,-1265.8912 593.276,-1263.0586 598.9349,-1266.6956 594,-1267.5 594,-1267.5 594,-1267.5 598.9349,-1266.6956 594.724,-1271.9414 603.8697,-1265.8912 603.8697,-1265.8912"/>
</g>
</g>
</svg>
