<?xml version="1.0" encoding="UTF-8" standalone="no"?>
<!DOCTYPE svg PUBLIC "-//W3C//DTD SVG 1.1//EN"
 "http://www.w3.org/Graphics/SVG/1.1/DTD/svg11.dtd">
<!-- Generated by graphviz version 2.40.1 (20161225.0304)
 -->
<!-- Title: FactCurrencyRate Pages: 1 -->
<svg width="748pt" height="1012pt"
 viewBox="0.00 0.00 747.50 1012.00" xmlns="http://www.w3.org/2000/svg" xmlns:xlink="http://www.w3.org/1999/xlink">
<g id="graph0" class="graph" transform="scale(1 1) rotate(0) translate(4 1008)">
<title>FactCurrencyRate</title>
<polygon fill="#ffffff" stroke="transparent" points="-4,4 -4,-1008 743.5,-1008 743.5,4 -4,4"/>
<!-- FactCurrencyRate -->
<g id="node1" class="node">
<title>FactCurrencyRate</title>
<polygon fill="#efefef" stroke="transparent" points="212.5,-922.5 212.5,-957.5 504.5,-957.5 504.5,-922.5 212.5,-922.5"/>
<polygon fill="none" stroke="#000000" points="212.5,-922.5 212.5,-957.5 504.5,-957.5 504.5,-922.5 212.5,-922.5"/>
<text text-anchor="start" x="219.3804" y="-935.3" font-family="Arial Bold" font-size="18.00" fill="#000000">FactCurrencyRate</text>
<text text-anchor="start" x="365.391" y="-935.3" font-family="Arial" font-size="14.00" fill="#000000">    </text>
<text text-anchor="start" x="399.5958" y="-935.3" font-family="Arial" font-size="14.00" fill="#666666">[BASIC TABLE]</text>
<polygon fill="none" stroke="#000000" points="212.5,-892.5 212.5,-922.5 504.5,-922.5 504.5,-892.5 212.5,-892.5"/>
<text text-anchor="start" x="219.5" y="-903.9" font-family="Arial" font-size="14.00" fill="#000000">CurrencyKey </text>
<text text-anchor="start" x="304.2854" y="-903.9" font-family="Arial" font-size="14.00" fill="#666666">[int]</text>
<polygon fill="none" stroke="#000000" points="212.5,-862.5 212.5,-892.5 504.5,-892.5 504.5,-862.5 212.5,-862.5"/>
<text text-anchor="start" x="219.5" y="-873.9" font-family="Arial" font-size="14.00" fill="#000000">DateKey </text>
<text text-anchor="start" x="277.0722" y="-873.9" font-family="Arial" font-size="14.00" fill="#666666">[int]</text>
<polygon fill="none" stroke="#000000" points="212.5,-832.5 212.5,-862.5 504.5,-862.5 504.5,-832.5 212.5,-832.5"/>
<text text-anchor="start" x="219.5" y="-843.9" font-family="Arial" font-size="14.00" fill="#000000">AverageRate </text>
<text text-anchor="start" x="305.0806" y="-843.9" font-family="Arial" font-size="14.00" fill="#666666">[float]</text>
<polygon fill="none" stroke="#000000" points="212.5,-802.5 212.5,-832.5 504.5,-832.5 504.5,-802.5 212.5,-802.5"/>
<text text-anchor="start" x="219.5" y="-813.9" font-family="Arial" font-size="14.00" fill="#000000">EndOfDayRate </text>
<text text-anchor="start" x="317.5252" y="-813.9" font-family="Arial" font-size="14.00" fill="#666666">[float]</text>
<polygon fill="none" stroke="#000000" points="212.5,-772.5 212.5,-802.5 504.5,-802.5 504.5,-772.5 212.5,-772.5"/>
<text text-anchor="start" x="219.5" y="-783.9" font-family="Arial" font-size="14.00" fill="#000000">Date </text>
<text text-anchor="start" x="252.953" y="-783.9" font-family="Arial" font-size="14.00" fill="#666666">[datetime]</text>
<polygon fill="none" stroke="#000000" stroke-width="3" points="211,-771.5 211,-959.5 506,-959.5 506,-771.5 211,-771.5"/>
</g>
<!-- DimCurrency -->
<g id="node2" class="node">
<title>DimCurrency</title>
<polygon fill="#efefef" stroke="transparent" points="43.5,-372.5 43.5,-407.5 294.5,-407.5 294.5,-372.5 43.5,-372.5"/>
<polygon fill="none" stroke="#000000" points="43.5,-372.5 43.5,-407.5 294.5,-407.5 294.5,-372.5 43.5,-372.5"/>
<text text-anchor="start" x="50.3968" y="-385.3" font-family="Arial Bold" font-size="18.00" fill="#000000">DimCurrency</text>
<text text-anchor="start" x="155.3746" y="-385.3" font-family="Arial" font-size="14.00" fill="#000000">    </text>
<text text-anchor="start" x="189.5794" y="-385.3" font-family="Arial" font-size="14.00" fill="#666666">[BASIC TABLE]</text>
<polygon fill="none" stroke="#000000" points="43.5,-342.5 43.5,-372.5 294.5,-372.5 294.5,-342.5 43.5,-342.5"/>
<text text-anchor="start" x="50.5" y="-353.9" font-family="Arial" font-size="14.00" fill="#000000">CurrencyKey    </text>
<text text-anchor="start" x="165.5996" y="-353.9" font-family="Arial" font-size="14.00" fill="#666666">[int]</text>
<polygon fill="none" stroke="#000000" points="43.5,-312.5 43.5,-342.5 294.5,-342.5 294.5,-312.5 43.5,-312.5"/>
<text text-anchor="start" x="50.5" y="-323.9" font-family="Arial" font-size="14.00" fill="#000000">CurrencyAlternateKey    </text>
<text text-anchor="start" x="221.615" y="-323.9" font-family="Arial" font-size="14.00" fill="#666666">[nchar]</text>
<polygon fill="none" stroke="#000000" points="43.5,-282.5 43.5,-312.5 294.5,-312.5 294.5,-282.5 43.5,-282.5"/>
<text text-anchor="start" x="50.5" y="-293.9" font-family="Arial" font-size="14.00" fill="#000000">CurrencyName    </text>
<text text-anchor="start" x="178.8128" y="-293.9" font-family="Arial" font-size="14.00" fill="#666666">[nvarchar(50)]</text>
</g>
<!-- FactCurrencyRate&#45;&gt;DimCurrency -->
<g id="edge1" class="edge">
<title>FactCurrencyRate:CurrencyKey&#45;&gt;DimCurrency:CurrencyKey</title>
<path fill="none" stroke="#000000" d="M202.3954,-906.0943C128.6545,-883.2772 274.5015,-588.5317 294.5,-451 300.4797,-409.8769 336.0556,-357.5 294.5,-357.5"/>
<polygon fill="#000000" stroke="#000000" points="202.5954,-906.122 211.8799,-911.9571 207.5477,-906.811 212.5,-907.5 212.5,-907.5 212.5,-907.5 207.5477,-906.811 213.1201,-903.0429 202.5954,-906.122 202.5954,-906.122"/>
</g>
<!-- DimDate -->
<g id="node3" class="node">
<title>DimDate</title>
<polygon fill="#efefef" stroke="transparent" points="398.5,-612.5 398.5,-647.5 696.5,-647.5 696.5,-612.5 398.5,-612.5"/>
<polygon fill="none" stroke="#000000" points="398.5,-612.5 398.5,-647.5 696.5,-647.5 696.5,-612.5 398.5,-612.5"/>
<text text-anchor="start" x="446.391" y="-625.3" font-family="Arial Bold" font-size="18.00" fill="#000000">DimDate</text>
<text text-anchor="start" x="516.3804" y="-625.3" font-family="Arial" font-size="14.00" fill="#000000">    </text>
<text text-anchor="start" x="550.5852" y="-625.3" font-family="Arial" font-size="14.00" fill="#666666">[BASIC TABLE]</text>
<polygon fill="none" stroke="#000000" points="398.5,-582.5 398.5,-612.5 696.5,-612.5 696.5,-582.5 398.5,-582.5"/>
<text text-anchor="start" x="405.5" y="-593.9" font-family="Arial" font-size="14.00" fill="#000000">DateKey    </text>
<text text-anchor="start" x="493.3864" y="-593.9" font-family="Arial" font-size="14.00" fill="#666666">[int]</text>
<polygon fill="none" stroke="#000000" points="398.5,-552.5 398.5,-582.5 696.5,-582.5 696.5,-552.5 398.5,-552.5"/>
<text text-anchor="start" x="405.5" y="-563.9" font-family="Arial" font-size="14.00" fill="#000000">FullDateAlternateKey    </text>
<text text-anchor="start" x="571.9502" y="-563.9" font-family="Arial" font-size="14.00" fill="#666666">[date]</text>
<polygon fill="none" stroke="#000000" points="398.5,-522.5 398.5,-552.5 696.5,-552.5 696.5,-522.5 398.5,-522.5"/>
<text text-anchor="start" x="405.5" y="-533.9" font-family="Arial" font-size="14.00" fill="#000000">DayNumberOfWeek    </text>
<text text-anchor="start" x="564.9306" y="-533.9" font-family="Arial" font-size="14.00" fill="#666666">[tinyint]</text>
<polygon fill="none" stroke="#000000" points="398.5,-492.5 398.5,-522.5 696.5,-522.5 696.5,-492.5 398.5,-492.5"/>
<text text-anchor="start" x="405.5" y="-503.9" font-family="Arial" font-size="14.00" fill="#000000">EnglishDayNameOfWeek    </text>
<text text-anchor="start" x="598.385" y="-503.9" font-family="Arial" font-size="14.00" fill="#666666">[nvarchar(10)]</text>
<polygon fill="none" stroke="#000000" points="398.5,-462.5 398.5,-492.5 696.5,-492.5 696.5,-462.5 398.5,-462.5"/>
<text text-anchor="start" x="405.1599" y="-473.9" font-family="Arial" font-size="14.00" fill="#000000">SpanishDayNameOfWeek    </text>
<text text-anchor="start" x="602.7209" y="-473.9" font-family="Arial" font-size="14.00" fill="#666666">[nvarchar(10)]</text>
<polygon fill="none" stroke="#000000" points="398.5,-432.5 398.5,-462.5 696.5,-462.5 696.5,-432.5 398.5,-432.5"/>
<text text-anchor="start" x="405.5" y="-443.9" font-family="Arial" font-size="14.00" fill="#000000">FrenchDayNameOfWeek    </text>
<text text-anchor="start" x="596.0484" y="-443.9" font-family="Arial" font-size="14.00" fill="#666666">[nvarchar(10)]</text>
<polygon fill="none" stroke="#000000" points="398.5,-402.5 398.5,-432.5 696.5,-432.5 696.5,-402.5 398.5,-402.5"/>
<text text-anchor="start" x="405.5" y="-413.9" font-family="Arial" font-size="14.00" fill="#000000">DayNumberOfMonth    </text>
<text text-anchor="start" x="568.0498" y="-413.9" font-family="Arial" font-size="14.00" fill="#666666">[tinyint]</text>
<polygon fill="none" stroke="#000000" points="398.5,-372.5 398.5,-402.5 696.5,-402.5 696.5,-372.5 398.5,-372.5"/>
<text text-anchor="start" x="405.5" y="-383.9" font-family="Arial" font-size="14.00" fill="#000000">DayNumberOfYear    </text>
<text text-anchor="start" x="558.7132" y="-383.9" font-family="Arial" font-size="14.00" fill="#666666">[smallint]</text>
<polygon fill="none" stroke="#000000" points="398.5,-342.5 398.5,-372.5 696.5,-372.5 696.5,-342.5 398.5,-342.5"/>
<text text-anchor="start" x="405.5" y="-353.9" font-family="Arial" font-size="14.00" fill="#000000">WeekNumberOfYear    </text>
<text text-anchor="start" x="569.6038" y="-353.9" font-family="Arial" font-size="14.00" fill="#666666">[tinyint]</text>
<polygon fill="none" stroke="#000000" points="398.5,-312.5 398.5,-342.5 696.5,-342.5 696.5,-312.5 398.5,-312.5"/>
<text text-anchor="start" x="405.5" y="-323.9" font-family="Arial" font-size="14.00" fill="#000000">EnglishMonthName    </text>
<text text-anchor="start" x="561.8338" y="-323.9" font-family="Arial" font-size="14.00" fill="#666666">[nvarchar(10)]</text>
<polygon fill="none" stroke="#000000" points="398.5,-282.5 398.5,-312.5 696.5,-312.5 696.5,-282.5 398.5,-282.5"/>
<text text-anchor="start" x="405.5" y="-293.9" font-family="Arial" font-size="14.00" fill="#000000">SpanishMonthName    </text>
<text text-anchor="start" x="566.5098" y="-293.9" font-family="Arial" font-size="14.00" fill="#666666">[nvarchar(10)]</text>
<polygon fill="none" stroke="#000000" points="398.5,-252.5 398.5,-282.5 696.5,-282.5 696.5,-252.5 398.5,-252.5"/>
<text text-anchor="start" x="405.5" y="-263.9" font-family="Arial" font-size="14.00" fill="#000000">FrenchMonthName    </text>
<text text-anchor="start" x="559.4972" y="-263.9" font-family="Arial" font-size="14.00" fill="#666666">[nvarchar(10)]</text>
<polygon fill="none" stroke="#000000" points="398.5,-222.5 398.5,-252.5 696.5,-252.5 696.5,-222.5 398.5,-222.5"/>
<text text-anchor="start" x="405.5" y="-233.9" font-family="Arial" font-size="14.00" fill="#000000">MonthNumberOfYear    </text>
<text text-anchor="start" x="572.723" y="-233.9" font-family="Arial" font-size="14.00" fill="#666666">[tinyint]</text>
<polygon fill="none" stroke="#000000" points="398.5,-192.5 398.5,-222.5 696.5,-222.5 696.5,-192.5 398.5,-192.5"/>
<text text-anchor="start" x="405.5" y="-203.9" font-family="Arial" font-size="14.00" fill="#000000">CalendarQuarter    </text>
<text text-anchor="start" x="543.9418" y="-203.9" font-family="Arial" font-size="14.00" fill="#666666">[tinyint]</text>
<polygon fill="none" stroke="#000000" points="398.5,-162.5 398.5,-192.5 696.5,-192.5 696.5,-162.5 398.5,-162.5"/>
<text text-anchor="start" x="405.5" y="-173.9" font-family="Arial" font-size="14.00" fill="#000000">CalendarYear    </text>
<text text-anchor="start" x="526.054" y="-173.9" font-family="Arial" font-size="14.00" fill="#666666">[smallint]</text>
<polygon fill="none" stroke="#000000" points="398.5,-132.5 398.5,-162.5 696.5,-162.5 696.5,-132.5 398.5,-132.5"/>
<text text-anchor="start" x="405.5" y="-143.9" font-family="Arial" font-size="14.00" fill="#000000">CalendarSemester    </text>
<text text-anchor="start" x="556.3878" y="-143.9" font-family="Arial" font-size="14.00" fill="#666666">[tinyint]</text>
<polygon fill="none" stroke="#000000" points="398.5,-102.5 398.5,-132.5 696.5,-132.5 696.5,-102.5 398.5,-102.5"/>
<text text-anchor="start" x="405.5" y="-113.9" font-family="Arial" font-size="14.00" fill="#000000">FiscalQuarter    </text>
<text text-anchor="start" x="523.7034" y="-113.9" font-family="Arial" font-size="14.00" fill="#666666">[tinyint]</text>
<polygon fill="none" stroke="#000000" points="398.5,-72.5 398.5,-102.5 696.5,-102.5 696.5,-72.5 398.5,-72.5"/>
<text text-anchor="start" x="405.5" y="-83.9" font-family="Arial" font-size="14.00" fill="#000000">FiscalYear    </text>
<text text-anchor="start" x="505.8156" y="-83.9" font-family="Arial" font-size="14.00" fill="#666666">[smallint]</text>
<polygon fill="none" stroke="#000000" points="398.5,-42.5 398.5,-72.5 696.5,-72.5 696.5,-42.5 398.5,-42.5"/>
<text text-anchor="start" x="405.5" y="-53.9" font-family="Arial" font-size="14.00" fill="#000000">FiscalSemester    </text>
<text text-anchor="start" x="536.1494" y="-53.9" font-family="Arial" font-size="14.00" fill="#666666">[tinyint]</text>
</g>
<!-- FactCurrencyRate&#45;&gt;DimDate -->
<g id="edge2" class="edge">
<title>FactCurrencyRate:DateKey&#45;&gt;DimDate:DateKey</title>
<path fill="none" stroke="#000000" d="M514.6369,-876.6601C568.3009,-867.111 541.3267,-778.3998 504.5,-727 475.5225,-686.5555 427.4775,-731.4445 398.5,-691 374.2974,-657.2199 356.9444,-597.5 398.5,-597.5"/>
<polygon fill="#000000" stroke="#000000" points="514.4658,-876.6742 504.1284,-873.0154 509.4829,-877.0871 504.5,-877.5 504.5,-877.5 504.5,-877.5 509.4829,-877.0871 504.8716,-881.9846 514.4658,-876.6742 514.4658,-876.6742"/>
</g>
</g>
</svg>
