<?xml version="1.0" encoding="UTF-8" standalone="no"?>
<!DOCTYPE svg PUBLIC "-//W3C//DTD SVG 1.1//EN"
 "http://www.w3.org/Graphics/SVG/1.1/DTD/svg11.dtd">
<!-- Generated by graphviz version 2.40.1 (20161225.0304)
 -->
<!-- Title: FactInternetSalesReason Pages: 1 -->
<svg width="782pt" height="1162pt"
 viewBox="0.00 0.00 782.00 1162.00" xmlns="http://www.w3.org/2000/svg" xmlns:xlink="http://www.w3.org/1999/xlink">
<g id="graph0" class="graph" transform="scale(1 1) rotate(0) translate(4 1158)">
<title>FactInternetSalesReason</title>
<polygon fill="#ffffff" stroke="transparent" points="-4,4 -4,-1158 778,-1158 778,4 -4,4"/>
<!-- FactInternetSalesReason -->
<g id="node1" class="node">
<title>FactInternetSalesReason</title>
<polygon fill="#efefef" stroke="transparent" points="210.5,-1072.5 210.5,-1107.5 559.5,-1107.5 559.5,-1072.5 210.5,-1072.5"/>
<polygon fill="none" stroke="#000000" points="210.5,-1072.5 210.5,-1107.5 559.5,-1107.5 559.5,-1072.5 210.5,-1072.5"/>
<text text-anchor="start" x="217.3567" y="-1085.3" font-family="Arial Bold" font-size="18.00" fill="#000000">FactInternetSalesReason</text>
<text text-anchor="start" x="420.4147" y="-1085.3" font-family="Arial" font-size="14.00" fill="#000000">    </text>
<text text-anchor="start" x="454.6195" y="-1085.3" font-family="Arial" font-size="14.00" fill="#666666">[BASIC TABLE]</text>
<polygon fill="none" stroke="#000000" points="210.5,-1042.5 210.5,-1072.5 559.5,-1072.5 559.5,-1042.5 210.5,-1042.5"/>
<text text-anchor="start" x="217.5" y="-1053.9" font-family="Arial" font-size="14.00" fill="#000000">SalesOrderNumber </text>
<text text-anchor="start" x="341.9516" y="-1053.9" font-family="Arial" font-size="14.00" fill="#666666">[nvarchar(20)]</text>
<polygon fill="none" stroke="#000000" points="210.5,-1012.5 210.5,-1042.5 559.5,-1042.5 559.5,-1012.5 210.5,-1012.5"/>
<text text-anchor="start" x="217.5" y="-1023.9" font-family="Arial" font-size="14.00" fill="#000000">SalesOrderLineNumber </text>
<text text-anchor="start" x="368.406" y="-1023.9" font-family="Arial" font-size="14.00" fill="#666666">[tinyint]</text>
<polygon fill="none" stroke="#000000" points="210.5,-982.5 210.5,-1012.5 559.5,-1012.5 559.5,-982.5 210.5,-982.5"/>
<text text-anchor="start" x="217.5" y="-993.9" font-family="Arial" font-size="14.00" fill="#000000">SalesReasonKey </text>
<text text-anchor="start" x="328.7552" y="-993.9" font-family="Arial" font-size="14.00" fill="#666666">[int]</text>
<polygon fill="none" stroke="#000000" stroke-width="3" points="208.5,-981.5 208.5,-1109.5 560.5,-1109.5 560.5,-981.5 208.5,-981.5"/>
</g>
<!-- FactInternetSales -->
<g id="node2" class="node">
<title>FactInternetSales</title>
<polygon fill="#efefef" stroke="transparent" points="43.5,-822.5 43.5,-857.5 330.5,-857.5 330.5,-822.5 43.5,-822.5"/>
<polygon fill="none" stroke="#000000" points="43.5,-822.5 43.5,-857.5 330.5,-857.5 330.5,-822.5 43.5,-822.5"/>
<text text-anchor="start" x="50.3662" y="-835.3" font-family="Arial Bold" font-size="18.00" fill="#000000">FactInternetSales</text>
<text text-anchor="start" x="191.4052" y="-835.3" font-family="Arial" font-size="14.00" fill="#000000">    </text>
<text text-anchor="start" x="225.61" y="-835.3" font-family="Arial" font-size="14.00" fill="#666666">[BASIC TABLE]</text>
<polygon fill="none" stroke="#000000" points="43.5,-792.5 43.5,-822.5 330.5,-822.5 330.5,-792.5 43.5,-792.5"/>
<text text-anchor="start" x="50.5" y="-803.9" font-family="Arial" font-size="14.00" fill="#000000">ProductKey    </text>
<text text-anchor="start" x="157.0596" y="-803.9" font-family="Arial" font-size="14.00" fill="#666666">[int]</text>
<polygon fill="none" stroke="#000000" points="43.5,-762.5 43.5,-792.5 330.5,-792.5 330.5,-762.5 43.5,-762.5"/>
<text text-anchor="start" x="50.5" y="-773.9" font-family="Arial" font-size="14.00" fill="#000000">OrderDateKey    </text>
<text text-anchor="start" x="174.1634" y="-773.9" font-family="Arial" font-size="14.00" fill="#666666">[int]</text>
<polygon fill="none" stroke="#000000" points="43.5,-732.5 43.5,-762.5 330.5,-762.5 330.5,-732.5 43.5,-732.5"/>
<text text-anchor="start" x="50.5" y="-743.9" font-family="Arial" font-size="14.00" fill="#000000">DueDateKey    </text>
<text text-anchor="start" x="164.0582" y="-743.9" font-family="Arial" font-size="14.00" fill="#666666">[int]</text>
<polygon fill="none" stroke="#000000" points="43.5,-702.5 43.5,-732.5 330.5,-732.5 330.5,-702.5 43.5,-702.5"/>
<text text-anchor="start" x="50.5" y="-713.9" font-family="Arial" font-size="14.00" fill="#000000">ShipDateKey    </text>
<text text-anchor="start" x="166.3948" y="-713.9" font-family="Arial" font-size="14.00" fill="#666666">[int]</text>
<polygon fill="none" stroke="#000000" points="43.5,-672.5 43.5,-702.5 330.5,-702.5 330.5,-672.5 43.5,-672.5"/>
<text text-anchor="start" x="50.5" y="-683.9" font-family="Arial" font-size="14.00" fill="#000000">CustomerKey    </text>
<text text-anchor="start" x="169.4902" y="-683.9" font-family="Arial" font-size="14.00" fill="#666666">[int]</text>
<polygon fill="none" stroke="#000000" points="43.5,-642.5 43.5,-672.5 330.5,-672.5 330.5,-642.5 43.5,-642.5"/>
<text text-anchor="start" x="50.5" y="-653.9" font-family="Arial" font-size="14.00" fill="#000000">PromotionKey    </text>
<text text-anchor="start" x="172.6094" y="-653.9" font-family="Arial" font-size="14.00" fill="#666666">[int]</text>
<polygon fill="none" stroke="#000000" points="43.5,-612.5 43.5,-642.5 330.5,-642.5 330.5,-612.5 43.5,-612.5"/>
<text text-anchor="start" x="50.5" y="-623.9" font-family="Arial" font-size="14.00" fill="#000000">CurrencyKey    </text>
<text text-anchor="start" x="165.5996" y="-623.9" font-family="Arial" font-size="14.00" fill="#666666">[int]</text>
<polygon fill="none" stroke="#000000" points="43.5,-582.5 43.5,-612.5 330.5,-612.5 330.5,-582.5 43.5,-582.5"/>
<text text-anchor="start" x="50.5" y="-593.9" font-family="Arial" font-size="14.00" fill="#000000">SalesTerritoryKey    </text>
<text text-anchor="start" x="195.9292" y="-593.9" font-family="Arial" font-size="14.00" fill="#666666">[int]</text>
<polygon fill="none" stroke="#000000" points="43.5,-552.5 43.5,-582.5 330.5,-582.5 330.5,-552.5 43.5,-552.5"/>
<text text-anchor="start" x="50.5" y="-563.9" font-family="Arial" font-size="14.00" fill="#000000">SalesOrderNumber    </text>
<text text-anchor="start" x="205.2658" y="-563.9" font-family="Arial" font-size="14.00" fill="#666666">[nvarchar(20)]</text>
<polygon fill="none" stroke="#000000" points="43.5,-522.5 43.5,-552.5 330.5,-552.5 330.5,-522.5 43.5,-522.5"/>
<text text-anchor="start" x="50.5" y="-533.9" font-family="Arial" font-size="14.00" fill="#000000">SalesOrderLineNumber    </text>
<text text-anchor="start" x="231.7202" y="-533.9" font-family="Arial" font-size="14.00" fill="#666666">[tinyint]</text>
<polygon fill="none" stroke="#000000" points="43.5,-492.5 43.5,-522.5 330.5,-522.5 330.5,-492.5 43.5,-492.5"/>
<text text-anchor="start" x="50.5" y="-503.9" font-family="Arial" font-size="14.00" fill="#000000">RevisionNumber    </text>
<text text-anchor="start" x="188.148" y="-503.9" font-family="Arial" font-size="14.00" fill="#666666">[tinyint]</text>
<polygon fill="none" stroke="#000000" points="43.5,-462.5 43.5,-492.5 330.5,-492.5 330.5,-462.5 43.5,-462.5"/>
<text text-anchor="start" x="50.5" y="-473.9" font-family="Arial" font-size="14.00" fill="#000000">OrderQuantity    </text>
<text text-anchor="start" x="172.608" y="-473.9" font-family="Arial" font-size="14.00" fill="#666666">[smallint]</text>
<polygon fill="none" stroke="#000000" points="43.5,-432.5 43.5,-462.5 330.5,-462.5 330.5,-432.5 43.5,-432.5"/>
<text text-anchor="start" x="50.5" y="-443.9" font-family="Arial" font-size="14.00" fill="#000000">UnitPrice    </text>
<text text-anchor="start" x="141.4776" y="-443.9" font-family="Arial" font-size="14.00" fill="#666666">[money]</text>
<polygon fill="none" stroke="#000000" points="43.5,-402.5 43.5,-432.5 330.5,-432.5 330.5,-402.5 43.5,-402.5"/>
<text text-anchor="start" x="50.5" y="-413.9" font-family="Arial" font-size="14.00" fill="#000000">ExtendedAmount    </text>
<text text-anchor="start" x="192.0806" y="-413.9" font-family="Arial" font-size="14.00" fill="#666666">[money]</text>
<polygon fill="none" stroke="#000000" points="43.5,-372.5 43.5,-402.5 330.5,-402.5 330.5,-372.5 43.5,-372.5"/>
<text text-anchor="start" x="50.5" y="-383.9" font-family="Arial" font-size="14.00" fill="#000000">UnitPriceDiscountPct    </text>
<text text-anchor="start" x="216.1564" y="-383.9" font-family="Arial" font-size="14.00" fill="#666666">[float]</text>
<polygon fill="none" stroke="#000000" points="43.5,-342.5 43.5,-372.5 330.5,-372.5 330.5,-342.5 43.5,-342.5"/>
<text text-anchor="start" x="50.5" y="-353.9" font-family="Arial" font-size="14.00" fill="#000000">DiscountAmount    </text>
<text text-anchor="start" x="187.392" y="-353.9" font-family="Arial" font-size="14.00" fill="#666666">[float]</text>
<polygon fill="none" stroke="#000000" points="43.5,-312.5 43.5,-342.5 330.5,-342.5 330.5,-312.5 43.5,-312.5"/>
<text text-anchor="start" x="50.5" y="-323.9" font-family="Arial" font-size="14.00" fill="#000000">ProductStandardCost    </text>
<text text-anchor="start" x="218.521" y="-323.9" font-family="Arial" font-size="14.00" fill="#666666">[money]</text>
<polygon fill="none" stroke="#000000" points="43.5,-282.5 43.5,-312.5 330.5,-312.5 330.5,-282.5 43.5,-282.5"/>
<text text-anchor="start" x="50.5" y="-293.9" font-family="Arial" font-size="14.00" fill="#000000">TotalProductCost    </text>
<text text-anchor="start" x="192.8352" y="-293.9" font-family="Arial" font-size="14.00" fill="#666666">[money]</text>
<polygon fill="none" stroke="#000000" points="43.5,-252.5 43.5,-282.5 330.5,-282.5 330.5,-252.5 43.5,-252.5"/>
<text text-anchor="start" x="50.5" y="-263.9" font-family="Arial" font-size="14.00" fill="#000000">SalesAmount    </text>
<text text-anchor="start" x="167.9488" y="-263.9" font-family="Arial" font-size="14.00" fill="#666666">[money]</text>
<polygon fill="none" stroke="#000000" points="43.5,-222.5 43.5,-252.5 330.5,-252.5 330.5,-222.5 43.5,-222.5"/>
<text text-anchor="start" x="50.5" y="-233.9" font-family="Arial" font-size="14.00" fill="#000000">TaxAmt    </text>
<text text-anchor="start" x="132.9278" y="-233.9" font-family="Arial" font-size="14.00" fill="#666666">[money]</text>
<polygon fill="none" stroke="#000000" points="43.5,-192.5 43.5,-222.5 330.5,-222.5 330.5,-192.5 43.5,-192.5"/>
<text text-anchor="start" x="50.5" y="-203.9" font-family="Arial" font-size="14.00" fill="#000000">Freight    </text>
<text text-anchor="start" x="128.263" y="-203.9" font-family="Arial" font-size="14.00" fill="#666666">[money]</text>
<polygon fill="none" stroke="#000000" points="43.5,-162.5 43.5,-192.5 330.5,-192.5 330.5,-162.5 43.5,-162.5"/>
<text text-anchor="start" x="50.5" y="-173.9" font-family="Arial" font-size="14.00" fill="#000000">CarrierTrackingNumber    </text>
<text text-anchor="start" x="230.9082" y="-173.9" font-family="Arial" font-size="14.00" fill="#666666">[nvarchar(25)]</text>
<polygon fill="none" stroke="#000000" points="43.5,-132.5 43.5,-162.5 330.5,-162.5 330.5,-132.5 43.5,-132.5"/>
<text text-anchor="start" x="50.5" y="-143.9" font-family="Arial" font-size="14.00" fill="#000000">CustomerPONumber    </text>
<text text-anchor="start" x="215.3738" y="-143.9" font-family="Arial" font-size="14.00" fill="#666666">[nvarchar(25)]</text>
<polygon fill="none" stroke="#000000" points="43.5,-102.5 43.5,-132.5 330.5,-132.5 330.5,-102.5 43.5,-102.5"/>
<text text-anchor="start" x="50.5" y="-113.9" font-family="Arial" font-size="14.00" fill="#000000">OrderDate    </text>
<text text-anchor="start" x="150.0442" y="-113.9" font-family="Arial" font-size="14.00" fill="#666666">[datetime]</text>
<polygon fill="none" stroke="#000000" points="43.5,-72.5 43.5,-102.5 330.5,-102.5 330.5,-72.5 43.5,-72.5"/>
<text text-anchor="start" x="50.5" y="-83.9" font-family="Arial" font-size="14.00" fill="#000000">DueDate    </text>
<text text-anchor="start" x="139.939" y="-83.9" font-family="Arial" font-size="14.00" fill="#666666">[datetime]</text>
<polygon fill="none" stroke="#000000" points="43.5,-42.5 43.5,-72.5 330.5,-72.5 330.5,-42.5 43.5,-42.5"/>
<text text-anchor="start" x="50.5" y="-53.9" font-family="Arial" font-size="14.00" fill="#000000">ShipDate    </text>
<text text-anchor="start" x="142.2756" y="-53.9" font-family="Arial" font-size="14.00" fill="#666666">[datetime]</text>
</g>
<!-- FactInternetSalesReason&#45;&gt;FactInternetSales -->
<g id="edge1" class="edge">
<title>FactInternetSalesReason:SalesOrderNumber&#45;&gt;FactInternetSales:SalesOrderNumber</title>
<path fill="none" stroke="#000000" d="M200.5497,-1056.4489C159.9443,-1047.0613 180.7164,-977.03 210.5,-937 243.7381,-892.327 297.2619,-945.673 330.5,-901 374.7392,-841.5412 404.6111,-567.5 330.5,-567.5"/>
<polygon fill="#000000" stroke="#000000" points="200.5553,-1056.4494 210.0272,-1061.9751 205.5277,-1056.9747 210.5,-1057.5 210.5,-1057.5 210.5,-1057.5 205.5277,-1056.9747 210.9728,-1053.0249 200.5553,-1056.4494 200.5553,-1056.4494"/>
</g>
<!-- DimSalesReason -->
<g id="node3" class="node">
<title>DimSalesReason</title>
<polygon fill="#efefef" stroke="transparent" points="434.5,-492.5 434.5,-527.5 731.5,-527.5 731.5,-492.5 434.5,-492.5"/>
<polygon fill="none" stroke="#000000" points="434.5,-492.5 434.5,-527.5 731.5,-527.5 731.5,-492.5 434.5,-492.5"/>
<text text-anchor="start" x="447.3805" y="-505.3" font-family="Arial Bold" font-size="18.00" fill="#000000">DimSalesReason</text>
<text text-anchor="start" x="586.3909" y="-505.3" font-family="Arial" font-size="14.00" fill="#000000">    </text>
<text text-anchor="start" x="620.5957" y="-505.3" font-family="Arial" font-size="14.00" fill="#666666">[BASIC TABLE]</text>
<polygon fill="none" stroke="#000000" points="434.5,-462.5 434.5,-492.5 731.5,-492.5 731.5,-462.5 434.5,-462.5"/>
<text text-anchor="start" x="441.5" y="-473.9" font-family="Arial" font-size="14.00" fill="#000000">SalesReasonKey    </text>
<text text-anchor="start" x="583.0694" y="-473.9" font-family="Arial" font-size="14.00" fill="#666666">[int]</text>
<polygon fill="none" stroke="#000000" points="434.5,-432.5 434.5,-462.5 731.5,-462.5 731.5,-432.5 434.5,-432.5"/>
<text text-anchor="start" x="441.5" y="-443.9" font-family="Arial" font-size="14.00" fill="#000000">SalesReasonAlternateKey    </text>
<text text-anchor="start" x="639.0848" y="-443.9" font-family="Arial" font-size="14.00" fill="#666666">[int]</text>
<polygon fill="none" stroke="#000000" points="434.5,-402.5 434.5,-432.5 731.5,-432.5 731.5,-402.5 434.5,-402.5"/>
<text text-anchor="start" x="441.5" y="-413.9" font-family="Arial" font-size="14.00" fill="#000000">SalesReasonName    </text>
<text text-anchor="start" x="596.2826" y="-413.9" font-family="Arial" font-size="14.00" fill="#666666">[nvarchar(50)]</text>
<polygon fill="none" stroke="#000000" points="434.5,-372.5 434.5,-402.5 731.5,-402.5 731.5,-372.5 434.5,-372.5"/>
<text text-anchor="start" x="441.0379" y="-383.9" font-family="Arial" font-size="14.00" fill="#000000">SalesReasonReasonType    </text>
<text text-anchor="start" x="637.8429" y="-383.9" font-family="Arial" font-size="14.00" fill="#666666">[nvarchar(50)]</text>
</g>
<!-- FactInternetSalesReason&#45;&gt;DimSalesReason -->
<g id="edge2" class="edge">
<title>FactInternetSalesReason:SalesReasonKey&#45;&gt;DimSalesReason:SalesReasonKey</title>
<path fill="none" stroke="#000000" d="M569.522,-995.9147C655.4706,-964.5244 319.4827,-477.5 434.5,-477.5"/>
<polygon fill="#000000" stroke="#000000" points="569.3772,-995.9375 558.7969,-993.0553 564.4386,-996.7187 559.5,-997.5 559.5,-997.5 559.5,-997.5 564.4386,-996.7187 560.2031,-1001.9447 569.3772,-995.9375 569.3772,-995.9375"/>
</g>
</g>
</svg>
