<?xml version="1.0" encoding="UTF-8" standalone="no"?>
<!DOCTYPE svg PUBLIC "-//W3C//DTD SVG 1.1//EN"
 "http://www.w3.org/Graphics/SVG/1.1/DTD/svg11.dtd">
<!-- Generated by graphviz version 2.40.1 (20161225.0304)
 -->
<!-- Title: FactProductInventory Pages: 1 -->
<svg width="770pt" height="1582pt"
 viewBox="0.00 0.00 769.50 1582.00" xmlns="http://www.w3.org/2000/svg" xmlns:xlink="http://www.w3.org/1999/xlink">
<g id="graph0" class="graph" transform="scale(1 1) rotate(0) translate(4 1578)">
<title>FactProductInventory</title>
<polygon fill="#ffffff" stroke="transparent" points="-4,4 -4,-1578 765.5,-1578 765.5,4 -4,4"/>
<!-- FactProductInventory -->
<g id="node1" class="node">
<title>FactProductInventory</title>
<polygon fill="#efefef" stroke="transparent" points="215.5,-1492.5 215.5,-1527.5 532.5,-1527.5 532.5,-1492.5 215.5,-1492.5"/>
<polygon fill="none" stroke="#000000" points="215.5,-1492.5 215.5,-1527.5 532.5,-1527.5 532.5,-1492.5 215.5,-1492.5"/>
<text text-anchor="start" x="222.3641" y="-1505.3" font-family="Arial Bold" font-size="18.00" fill="#000000">FactProductInventory</text>
<text text-anchor="start" x="393.4073" y="-1505.3" font-family="Arial" font-size="14.00" fill="#000000">    </text>
<text text-anchor="start" x="427.6121" y="-1505.3" font-family="Arial" font-size="14.00" fill="#666666">[BASIC TABLE]</text>
<polygon fill="none" stroke="#000000" points="215.5,-1462.5 215.5,-1492.5 532.5,-1492.5 532.5,-1462.5 215.5,-1462.5"/>
<text text-anchor="start" x="222.5" y="-1473.9" font-family="Arial" font-size="14.00" fill="#000000">ProductKey </text>
<text text-anchor="start" x="298.7454" y="-1473.9" font-family="Arial" font-size="14.00" fill="#666666">[int]</text>
<polygon fill="none" stroke="#000000" points="215.5,-1432.5 215.5,-1462.5 532.5,-1462.5 532.5,-1432.5 215.5,-1432.5"/>
<text text-anchor="start" x="222.5" y="-1443.9" font-family="Arial" font-size="14.00" fill="#000000">DateKey </text>
<text text-anchor="start" x="280.0722" y="-1443.9" font-family="Arial" font-size="14.00" fill="#666666">[int]</text>
<polygon fill="none" stroke="#000000" points="215.5,-1402.5 215.5,-1432.5 532.5,-1432.5 532.5,-1402.5 215.5,-1402.5"/>
<text text-anchor="start" x="222.5" y="-1413.9" font-family="Arial" font-size="14.00" fill="#000000">MovementDate </text>
<text text-anchor="start" x="321.2952" y="-1413.9" font-family="Arial" font-size="14.00" fill="#666666">[date]</text>
<polygon fill="none" stroke="#000000" points="215.5,-1372.5 215.5,-1402.5 532.5,-1402.5 532.5,-1372.5 215.5,-1372.5"/>
<text text-anchor="start" x="222.5" y="-1383.9" font-family="Arial" font-size="14.00" fill="#000000">UnitCost </text>
<text text-anchor="start" x="280.0568" y="-1383.9" font-family="Arial" font-size="14.00" fill="#666666">[money]</text>
<polygon fill="none" stroke="#000000" points="215.5,-1342.5 215.5,-1372.5 532.5,-1372.5 532.5,-1342.5 215.5,-1342.5"/>
<text text-anchor="start" x="222.5" y="-1353.9" font-family="Arial" font-size="14.00" fill="#000000">UnitsIn </text>
<text text-anchor="start" x="269.9502" y="-1353.9" font-family="Arial" font-size="14.00" fill="#666666">[int]</text>
<polygon fill="none" stroke="#000000" points="215.5,-1312.5 215.5,-1342.5 532.5,-1342.5 532.5,-1312.5 215.5,-1312.5"/>
<text text-anchor="start" x="222.5" y="-1323.9" font-family="Arial" font-size="14.00" fill="#000000">UnitsOut </text>
<text text-anchor="start" x="280.8408" y="-1323.9" font-family="Arial" font-size="14.00" fill="#666666">[int]</text>
<polygon fill="none" stroke="#000000" points="215.5,-1282.5 215.5,-1312.5 532.5,-1312.5 532.5,-1282.5 215.5,-1282.5"/>
<text text-anchor="start" x="222.5" y="-1293.9" font-family="Arial" font-size="14.00" fill="#000000">UnitsBalance </text>
<text text-anchor="start" x="308.8506" y="-1293.9" font-family="Arial" font-size="14.00" fill="#666666">[int]</text>
<polygon fill="none" stroke="#000000" stroke-width="3" points="213.5,-1281.5 213.5,-1529.5 533.5,-1529.5 533.5,-1281.5 213.5,-1281.5"/>
</g>
<!-- DimProduct -->
<g id="node2" class="node">
<title>DimProduct</title>
<polygon fill="#efefef" stroke="transparent" points="43.5,-1122.5 43.5,-1157.5 316.5,-1157.5 316.5,-1122.5 43.5,-1122.5"/>
<polygon fill="none" stroke="#000000" points="43.5,-1122.5 43.5,-1157.5 316.5,-1157.5 316.5,-1122.5 43.5,-1122.5"/>
<text text-anchor="start" x="66.8868" y="-1135.3" font-family="Arial Bold" font-size="18.00" fill="#000000">DimProduct</text>
<text text-anchor="start" x="160.8846" y="-1135.3" font-family="Arial" font-size="14.00" fill="#000000">    </text>
<text text-anchor="start" x="195.0894" y="-1135.3" font-family="Arial" font-size="14.00" fill="#666666">[BASIC TABLE]</text>
<polygon fill="none" stroke="#000000" points="43.5,-1092.5 43.5,-1122.5 316.5,-1122.5 316.5,-1092.5 43.5,-1092.5"/>
<text text-anchor="start" x="50.5" y="-1103.9" font-family="Arial" font-size="14.00" fill="#000000">ProductKey    </text>
<text text-anchor="start" x="157.0596" y="-1103.9" font-family="Arial" font-size="14.00" fill="#666666">[int]</text>
<polygon fill="none" stroke="#000000" points="43.5,-1062.5 43.5,-1092.5 316.5,-1092.5 316.5,-1062.5 43.5,-1062.5"/>
<text text-anchor="start" x="50.5" y="-1073.9" font-family="Arial" font-size="14.00" fill="#000000">ProductAlternateKey    </text>
<text text-anchor="start" x="213.075" y="-1073.9" font-family="Arial" font-size="14.00" fill="#666666">[nvarchar(25)]</text>
<polygon fill="none" stroke="#000000" points="43.5,-1032.5 43.5,-1062.5 316.5,-1062.5 316.5,-1032.5 43.5,-1032.5"/>
<text text-anchor="start" x="50.5" y="-1043.9" font-family="Arial" font-size="14.00" fill="#000000">ProductSubcategoryKey    </text>
<text text-anchor="start" x="235.643" y="-1043.9" font-family="Arial" font-size="14.00" fill="#666666">[int]</text>
<polygon fill="none" stroke="#000000" points="43.5,-1002.5 43.5,-1032.5 316.5,-1032.5 316.5,-1002.5 43.5,-1002.5"/>
<text text-anchor="start" x="50.5" y="-1013.9" font-family="Arial" font-size="14.00" fill="#000000">WeightUnitMeasureCode    </text>
<text text-anchor="start" x="241.0568" y="-1013.9" font-family="Arial" font-size="14.00" fill="#666666">[nchar]</text>
<polygon fill="none" stroke="#000000" points="43.5,-972.5 43.5,-1002.5 316.5,-1002.5 316.5,-972.5 43.5,-972.5"/>
<text text-anchor="start" x="50.5" y="-983.9" font-family="Arial" font-size="14.00" fill="#000000">SizeUnitMeasureCode    </text>
<text text-anchor="start" x="224.723" y="-983.9" font-family="Arial" font-size="14.00" fill="#666666">[nchar]</text>
<polygon fill="none" stroke="#000000" points="43.5,-942.5 43.5,-972.5 316.5,-972.5 316.5,-942.5 43.5,-942.5"/>
<text text-anchor="start" x="50.5" y="-953.9" font-family="Arial" font-size="14.00" fill="#000000">EnglishProductName    </text>
<text text-anchor="start" x="216.1704" y="-953.9" font-family="Arial" font-size="14.00" fill="#666666">[nvarchar(50)]</text>
<polygon fill="none" stroke="#000000" points="43.5,-912.5 43.5,-942.5 316.5,-942.5 316.5,-912.5 43.5,-912.5"/>
<text text-anchor="start" x="50.5" y="-923.9" font-family="Arial" font-size="14.00" fill="#000000">SpanishProductName    </text>
<text text-anchor="start" x="220.8464" y="-923.9" font-family="Arial" font-size="14.00" fill="#666666">[nvarchar(50)]</text>
<polygon fill="none" stroke="#000000" points="43.5,-882.5 43.5,-912.5 316.5,-912.5 316.5,-882.5 43.5,-882.5"/>
<text text-anchor="start" x="50.5" y="-893.9" font-family="Arial" font-size="14.00" fill="#000000">FrenchProductName    </text>
<text text-anchor="start" x="213.8338" y="-893.9" font-family="Arial" font-size="14.00" fill="#666666">[nvarchar(50)]</text>
<polygon fill="none" stroke="#000000" points="43.5,-852.5 43.5,-882.5 316.5,-882.5 316.5,-852.5 43.5,-852.5"/>
<text text-anchor="start" x="50.5" y="-863.9" font-family="Arial" font-size="14.00" fill="#000000">StandardCost    </text>
<text text-anchor="start" x="170.2854" y="-863.9" font-family="Arial" font-size="14.00" fill="#666666">[money]</text>
<polygon fill="none" stroke="#000000" points="43.5,-822.5 43.5,-852.5 316.5,-852.5 316.5,-822.5 43.5,-822.5"/>
<text text-anchor="start" x="50.5" y="-833.9" font-family="Arial" font-size="14.00" fill="#000000">FinishedGoodsFlag    </text>
<text text-anchor="start" x="206.0638" y="-833.9" font-family="Arial" font-size="14.00" fill="#666666">[bit]</text>
<polygon fill="none" stroke="#000000" points="43.5,-792.5 43.5,-822.5 316.5,-822.5 316.5,-792.5 43.5,-792.5"/>
<text text-anchor="start" x="50.5" y="-803.9" font-family="Arial" font-size="14.00" fill="#000000">Color    </text>
<text text-anchor="start" x="118.1438" y="-803.9" font-family="Arial" font-size="14.00" fill="#666666">[nvarchar(15)]</text>
<polygon fill="none" stroke="#000000" points="43.5,-762.5 43.5,-792.5 316.5,-792.5 316.5,-762.5 43.5,-762.5"/>
<text text-anchor="start" x="50.5" y="-773.9" font-family="Arial" font-size="14.00" fill="#000000">SafetyStockLevel    </text>
<text text-anchor="start" x="192.852" y="-773.9" font-family="Arial" font-size="14.00" fill="#666666">[smallint]</text>
<polygon fill="none" stroke="#000000" points="43.5,-732.5 43.5,-762.5 316.5,-762.5 316.5,-732.5 43.5,-732.5"/>
<text text-anchor="start" x="50.5" y="-743.9" font-family="Arial" font-size="14.00" fill="#000000">ReorderPoint    </text>
<text text-anchor="start" x="167.162" y="-743.9" font-family="Arial" font-size="14.00" fill="#666666">[smallint]</text>
<polygon fill="none" stroke="#000000" points="43.5,-702.5 43.5,-732.5 316.5,-732.5 316.5,-702.5 43.5,-702.5"/>
<text text-anchor="start" x="50.5" y="-713.9" font-family="Arial" font-size="14.00" fill="#000000">ListPrice    </text>
<text text-anchor="start" x="138.371" y="-713.9" font-family="Arial" font-size="14.00" fill="#666666">[money]</text>
<polygon fill="none" stroke="#000000" points="43.5,-672.5 43.5,-702.5 316.5,-702.5 316.5,-672.5 43.5,-672.5"/>
<text text-anchor="start" x="50.5" y="-683.9" font-family="Arial" font-size="14.00" fill="#000000">Size    </text>
<text text-anchor="start" x="111.9306" y="-683.9" font-family="Arial" font-size="14.00" fill="#666666">[nvarchar(50)]</text>
<polygon fill="none" stroke="#000000" points="43.5,-642.5 43.5,-672.5 316.5,-672.5 316.5,-642.5 43.5,-642.5"/>
<text text-anchor="start" x="50.5" y="-653.9" font-family="Arial" font-size="14.00" fill="#000000">SizeRange    </text>
<text text-anchor="start" x="153.1676" y="-653.9" font-family="Arial" font-size="14.00" fill="#666666">[nvarchar(50)]</text>
<polygon fill="none" stroke="#000000" points="43.5,-612.5 43.5,-642.5 316.5,-642.5 316.5,-612.5 43.5,-612.5"/>
<text text-anchor="start" x="50.5" y="-623.9" font-family="Arial" font-size="14.00" fill="#000000">Weight    </text>
<text text-anchor="start" x="128.2644" y="-623.9" font-family="Arial" font-size="14.00" fill="#666666">[float]</text>
<polygon fill="none" stroke="#000000" points="43.5,-582.5 43.5,-612.5 316.5,-612.5 316.5,-582.5 43.5,-582.5"/>
<text text-anchor="start" x="50.5" y="-593.9" font-family="Arial" font-size="14.00" fill="#000000">DaysToManufacture    </text>
<text text-anchor="start" x="210.7272" y="-593.9" font-family="Arial" font-size="14.00" fill="#666666">[int]</text>
<polygon fill="none" stroke="#000000" points="43.5,-552.5 43.5,-582.5 316.5,-582.5 316.5,-552.5 43.5,-552.5"/>
<text text-anchor="start" x="50.5" y="-563.9" font-family="Arial" font-size="14.00" fill="#000000">ProductLine    </text>
<text text-anchor="start" x="159.3948" y="-563.9" font-family="Arial" font-size="14.00" fill="#666666">[nchar]</text>
<polygon fill="none" stroke="#000000" points="43.5,-522.5 43.5,-552.5 316.5,-552.5 316.5,-522.5 43.5,-522.5"/>
<text text-anchor="start" x="50.5" y="-533.9" font-family="Arial" font-size="14.00" fill="#000000">DealerPrice    </text>
<text text-anchor="start" x="157.8128" y="-533.9" font-family="Arial" font-size="14.00" fill="#666666">[money]</text>
<polygon fill="none" stroke="#000000" points="43.5,-492.5 43.5,-522.5 316.5,-522.5 316.5,-492.5 43.5,-492.5"/>
<text text-anchor="start" x="50.5" y="-503.9" font-family="Arial" font-size="14.00" fill="#000000">Class    </text>
<text text-anchor="start" x="119.7006" y="-503.9" font-family="Arial" font-size="14.00" fill="#666666">[nchar]</text>
<polygon fill="none" stroke="#000000" points="43.5,-462.5 43.5,-492.5 316.5,-492.5 316.5,-462.5 43.5,-462.5"/>
<text text-anchor="start" x="50.5" y="-473.9" font-family="Arial" font-size="14.00" fill="#000000">Style    </text>
<text text-anchor="start" x="115.8212" y="-473.9" font-family="Arial" font-size="14.00" fill="#666666">[nchar]</text>
<polygon fill="none" stroke="#000000" points="43.5,-432.5 43.5,-462.5 316.5,-462.5 316.5,-432.5 43.5,-432.5"/>
<text text-anchor="start" x="50.5" y="-443.9" font-family="Arial" font-size="14.00" fill="#000000">ModelName    </text>
<text text-anchor="start" x="160.1522" y="-443.9" font-family="Arial" font-size="14.00" fill="#666666">[nvarchar(50)]</text>
<polygon fill="none" stroke="#000000" points="43.5,-402.5 43.5,-432.5 316.5,-432.5 316.5,-402.5 43.5,-402.5"/>
<text text-anchor="start" x="50.5" y="-413.9" font-family="Arial" font-size="14.00" fill="#000000">LargePhoto    </text>
<text text-anchor="start" x="157.0708" y="-413.9" font-family="Arial" font-size="14.00" fill="#666666">[varbinary(MAX)]</text>
<polygon fill="none" stroke="#000000" points="43.5,-372.5 43.5,-402.5 316.5,-402.5 316.5,-372.5 43.5,-372.5"/>
<text text-anchor="start" x="50.5" y="-383.9" font-family="Arial" font-size="14.00" fill="#000000">EnglishDescription    </text>
<text text-anchor="start" x="200.6038" y="-383.9" font-family="Arial" font-size="14.00" fill="#666666">[nvarchar(400)]</text>
<polygon fill="none" stroke="#000000" points="43.5,-342.5 43.5,-372.5 316.5,-372.5 316.5,-342.5 43.5,-342.5"/>
<text text-anchor="start" x="50.5" y="-353.9" font-family="Arial" font-size="14.00" fill="#000000">FrenchDescription    </text>
<text text-anchor="start" x="198.2672" y="-353.9" font-family="Arial" font-size="14.00" fill="#666666">[nvarchar(400)]</text>
<polygon fill="none" stroke="#000000" points="43.5,-312.5 43.5,-342.5 316.5,-342.5 316.5,-312.5 43.5,-312.5"/>
<text text-anchor="start" x="50.5" y="-323.9" font-family="Arial" font-size="14.00" fill="#000000">ChineseDescription    </text>
<text text-anchor="start" x="206.0498" y="-323.9" font-family="Arial" font-size="14.00" fill="#666666">[nvarchar(400)]</text>
<polygon fill="none" stroke="#000000" points="43.5,-282.5 43.5,-312.5 316.5,-312.5 316.5,-282.5 43.5,-282.5"/>
<text text-anchor="start" x="50.5" y="-293.9" font-family="Arial" font-size="14.00" fill="#000000">ArabicDescription    </text>
<text text-anchor="start" x="194.3752" y="-293.9" font-family="Arial" font-size="14.00" fill="#666666">[nvarchar(400)]</text>
<polygon fill="none" stroke="#000000" points="43.5,-252.5 43.5,-282.5 316.5,-282.5 316.5,-252.5 43.5,-252.5"/>
<text text-anchor="start" x="50.5" y="-263.9" font-family="Arial" font-size="14.00" fill="#000000">HebrewDescription    </text>
<text text-anchor="start" x="202.9278" y="-263.9" font-family="Arial" font-size="14.00" fill="#666666">[nvarchar(400)]</text>
<polygon fill="none" stroke="#000000" points="43.5,-222.5 43.5,-252.5 316.5,-252.5 316.5,-222.5 43.5,-222.5"/>
<text text-anchor="start" x="50.5" y="-233.9" font-family="Arial" font-size="14.00" fill="#000000">ThaiDescription    </text>
<text text-anchor="start" x="181.9306" y="-233.9" font-family="Arial" font-size="14.00" fill="#666666">[nvarchar(400)]</text>
<polygon fill="none" stroke="#000000" points="43.5,-192.5 43.5,-222.5 316.5,-222.5 316.5,-192.5 43.5,-192.5"/>
<text text-anchor="start" x="50.5" y="-203.9" font-family="Arial" font-size="14.00" fill="#000000">GermanDescription    </text>
<text text-anchor="start" x="205.2658" y="-203.9" font-family="Arial" font-size="14.00" fill="#666666">[nvarchar(400)]</text>
<polygon fill="none" stroke="#000000" points="43.5,-162.5 43.5,-192.5 316.5,-192.5 316.5,-162.5 43.5,-162.5"/>
<text text-anchor="start" x="50.0982" y="-173.9" font-family="Arial" font-size="14.00" fill="#000000">JapaneseDescription    </text>
<text text-anchor="start" x="215" y="-173.9" font-family="Arial" font-size="14.00" fill="#666666">[nvarchar(400)]</text>
<polygon fill="none" stroke="#000000" points="43.5,-132.5 43.5,-162.5 316.5,-162.5 316.5,-132.5 43.5,-132.5"/>
<text text-anchor="start" x="50.5" y="-143.9" font-family="Arial" font-size="14.00" fill="#000000">TurkishDescription    </text>
<text text-anchor="start" x="200.5912" y="-143.9" font-family="Arial" font-size="14.00" fill="#666666">[nvarchar(400)]</text>
<polygon fill="none" stroke="#000000" points="43.5,-102.5 43.5,-132.5 316.5,-132.5 316.5,-102.5 43.5,-102.5"/>
<text text-anchor="start" x="50.5" y="-113.9" font-family="Arial" font-size="14.00" fill="#000000">StartDate    </text>
<text text-anchor="start" x="143.8282" y="-113.9" font-family="Arial" font-size="14.00" fill="#666666">[datetime]</text>
<polygon fill="none" stroke="#000000" points="43.5,-72.5 43.5,-102.5 316.5,-102.5 316.5,-72.5 43.5,-72.5"/>
<text text-anchor="start" x="50.5" y="-83.9" font-family="Arial" font-size="14.00" fill="#000000">EndDate    </text>
<text text-anchor="start" x="139.169" y="-83.9" font-family="Arial" font-size="14.00" fill="#666666">[datetime]</text>
<polygon fill="none" stroke="#000000" points="43.5,-42.5 43.5,-72.5 316.5,-72.5 316.5,-42.5 43.5,-42.5"/>
<text text-anchor="start" x="50.5" y="-53.9" font-family="Arial" font-size="14.00" fill="#000000">Status    </text>
<text text-anchor="start" x="124.3878" y="-53.9" font-family="Arial" font-size="14.00" fill="#666666">[nvarchar(7)]</text>
</g>
<!-- FactProductInventory&#45;&gt;DimProduct -->
<g id="edge1" class="edge">
<title>FactProductInventory:ProductKey&#45;&gt;DimProduct:ProductKey</title>
<path fill="none" stroke="#000000" d="M205.3512,-1477.0015C111.6365,-1467.4026 155.9448,-1321.4529 215.5,-1237 242.9639,-1198.0546 289.0361,-1239.9454 316.5,-1201 340.4487,-1167.0394 358.0556,-1107.5 316.5,-1107.5"/>
<polygon fill="#000000" stroke="#000000" points="205.512,-1477.0093 215.2792,-1481.9946 210.506,-1477.2547 215.5,-1477.5 215.5,-1477.5 215.5,-1477.5 210.506,-1477.2547 215.7208,-1473.0054 205.512,-1477.0093 205.512,-1477.0093"/>
</g>
<!-- DimDate -->
<g id="node3" class="node">
<title>DimDate</title>
<polygon fill="#efefef" stroke="transparent" points="420.5,-867.5 420.5,-902.5 718.5,-902.5 718.5,-867.5 420.5,-867.5"/>
<polygon fill="none" stroke="#000000" points="420.5,-867.5 420.5,-902.5 718.5,-902.5 718.5,-867.5 420.5,-867.5"/>
<text text-anchor="start" x="468.391" y="-880.3" font-family="Arial Bold" font-size="18.00" fill="#000000">DimDate</text>
<text text-anchor="start" x="538.3804" y="-880.3" font-family="Arial" font-size="14.00" fill="#000000">    </text>
<text text-anchor="start" x="572.5852" y="-880.3" font-family="Arial" font-size="14.00" fill="#666666">[BASIC TABLE]</text>
<polygon fill="none" stroke="#000000" points="420.5,-837.5 420.5,-867.5 718.5,-867.5 718.5,-837.5 420.5,-837.5"/>
<text text-anchor="start" x="427.5" y="-848.9" font-family="Arial" font-size="14.00" fill="#000000">DateKey    </text>
<text text-anchor="start" x="515.3864" y="-848.9" font-family="Arial" font-size="14.00" fill="#666666">[int]</text>
<polygon fill="none" stroke="#000000" points="420.5,-807.5 420.5,-837.5 718.5,-837.5 718.5,-807.5 420.5,-807.5"/>
<text text-anchor="start" x="427.5" y="-818.9" font-family="Arial" font-size="14.00" fill="#000000">FullDateAlternateKey    </text>
<text text-anchor="start" x="593.9502" y="-818.9" font-family="Arial" font-size="14.00" fill="#666666">[date]</text>
<polygon fill="none" stroke="#000000" points="420.5,-777.5 420.5,-807.5 718.5,-807.5 718.5,-777.5 420.5,-777.5"/>
<text text-anchor="start" x="427.5" y="-788.9" font-family="Arial" font-size="14.00" fill="#000000">DayNumberOfWeek    </text>
<text text-anchor="start" x="586.9306" y="-788.9" font-family="Arial" font-size="14.00" fill="#666666">[tinyint]</text>
<polygon fill="none" stroke="#000000" points="420.5,-747.5 420.5,-777.5 718.5,-777.5 718.5,-747.5 420.5,-747.5"/>
<text text-anchor="start" x="427.5" y="-758.9" font-family="Arial" font-size="14.00" fill="#000000">EnglishDayNameOfWeek    </text>
<text text-anchor="start" x="620.385" y="-758.9" font-family="Arial" font-size="14.00" fill="#666666">[nvarchar(10)]</text>
<polygon fill="none" stroke="#000000" points="420.5,-717.5 420.5,-747.5 718.5,-747.5 718.5,-717.5 420.5,-717.5"/>
<text text-anchor="start" x="427.1599" y="-728.9" font-family="Arial" font-size="14.00" fill="#000000">SpanishDayNameOfWeek    </text>
<text text-anchor="start" x="624.7209" y="-728.9" font-family="Arial" font-size="14.00" fill="#666666">[nvarchar(10)]</text>
<polygon fill="none" stroke="#000000" points="420.5,-687.5 420.5,-717.5 718.5,-717.5 718.5,-687.5 420.5,-687.5"/>
<text text-anchor="start" x="427.5" y="-698.9" font-family="Arial" font-size="14.00" fill="#000000">FrenchDayNameOfWeek    </text>
<text text-anchor="start" x="618.0484" y="-698.9" font-family="Arial" font-size="14.00" fill="#666666">[nvarchar(10)]</text>
<polygon fill="none" stroke="#000000" points="420.5,-657.5 420.5,-687.5 718.5,-687.5 718.5,-657.5 420.5,-657.5"/>
<text text-anchor="start" x="427.5" y="-668.9" font-family="Arial" font-size="14.00" fill="#000000">DayNumberOfMonth    </text>
<text text-anchor="start" x="590.0498" y="-668.9" font-family="Arial" font-size="14.00" fill="#666666">[tinyint]</text>
<polygon fill="none" stroke="#000000" points="420.5,-627.5 420.5,-657.5 718.5,-657.5 718.5,-627.5 420.5,-627.5"/>
<text text-anchor="start" x="427.5" y="-638.9" font-family="Arial" font-size="14.00" fill="#000000">DayNumberOfYear    </text>
<text text-anchor="start" x="580.7132" y="-638.9" font-family="Arial" font-size="14.00" fill="#666666">[smallint]</text>
<polygon fill="none" stroke="#000000" points="420.5,-597.5 420.5,-627.5 718.5,-627.5 718.5,-597.5 420.5,-597.5"/>
<text text-anchor="start" x="427.5" y="-608.9" font-family="Arial" font-size="14.00" fill="#000000">WeekNumberOfYear    </text>
<text text-anchor="start" x="591.6038" y="-608.9" font-family="Arial" font-size="14.00" fill="#666666">[tinyint]</text>
<polygon fill="none" stroke="#000000" points="420.5,-567.5 420.5,-597.5 718.5,-597.5 718.5,-567.5 420.5,-567.5"/>
<text text-anchor="start" x="427.5" y="-578.9" font-family="Arial" font-size="14.00" fill="#000000">EnglishMonthName    </text>
<text text-anchor="start" x="583.8338" y="-578.9" font-family="Arial" font-size="14.00" fill="#666666">[nvarchar(10)]</text>
<polygon fill="none" stroke="#000000" points="420.5,-537.5 420.5,-567.5 718.5,-567.5 718.5,-537.5 420.5,-537.5"/>
<text text-anchor="start" x="427.5" y="-548.9" font-family="Arial" font-size="14.00" fill="#000000">SpanishMonthName    </text>
<text text-anchor="start" x="588.5098" y="-548.9" font-family="Arial" font-size="14.00" fill="#666666">[nvarchar(10)]</text>
<polygon fill="none" stroke="#000000" points="420.5,-507.5 420.5,-537.5 718.5,-537.5 718.5,-507.5 420.5,-507.5"/>
<text text-anchor="start" x="427.5" y="-518.9" font-family="Arial" font-size="14.00" fill="#000000">FrenchMonthName    </text>
<text text-anchor="start" x="581.4972" y="-518.9" font-family="Arial" font-size="14.00" fill="#666666">[nvarchar(10)]</text>
<polygon fill="none" stroke="#000000" points="420.5,-477.5 420.5,-507.5 718.5,-507.5 718.5,-477.5 420.5,-477.5"/>
<text text-anchor="start" x="427.5" y="-488.9" font-family="Arial" font-size="14.00" fill="#000000">MonthNumberOfYear    </text>
<text text-anchor="start" x="594.723" y="-488.9" font-family="Arial" font-size="14.00" fill="#666666">[tinyint]</text>
<polygon fill="none" stroke="#000000" points="420.5,-447.5 420.5,-477.5 718.5,-477.5 718.5,-447.5 420.5,-447.5"/>
<text text-anchor="start" x="427.5" y="-458.9" font-family="Arial" font-size="14.00" fill="#000000">CalendarQuarter    </text>
<text text-anchor="start" x="565.9418" y="-458.9" font-family="Arial" font-size="14.00" fill="#666666">[tinyint]</text>
<polygon fill="none" stroke="#000000" points="420.5,-417.5 420.5,-447.5 718.5,-447.5 718.5,-417.5 420.5,-417.5"/>
<text text-anchor="start" x="427.5" y="-428.9" font-family="Arial" font-size="14.00" fill="#000000">CalendarYear    </text>
<text text-anchor="start" x="548.054" y="-428.9" font-family="Arial" font-size="14.00" fill="#666666">[smallint]</text>
<polygon fill="none" stroke="#000000" points="420.5,-387.5 420.5,-417.5 718.5,-417.5 718.5,-387.5 420.5,-387.5"/>
<text text-anchor="start" x="427.5" y="-398.9" font-family="Arial" font-size="14.00" fill="#000000">CalendarSemester    </text>
<text text-anchor="start" x="578.3878" y="-398.9" font-family="Arial" font-size="14.00" fill="#666666">[tinyint]</text>
<polygon fill="none" stroke="#000000" points="420.5,-357.5 420.5,-387.5 718.5,-387.5 718.5,-357.5 420.5,-357.5"/>
<text text-anchor="start" x="427.5" y="-368.9" font-family="Arial" font-size="14.00" fill="#000000">FiscalQuarter    </text>
<text text-anchor="start" x="545.7034" y="-368.9" font-family="Arial" font-size="14.00" fill="#666666">[tinyint]</text>
<polygon fill="none" stroke="#000000" points="420.5,-327.5 420.5,-357.5 718.5,-357.5 718.5,-327.5 420.5,-327.5"/>
<text text-anchor="start" x="427.5" y="-338.9" font-family="Arial" font-size="14.00" fill="#000000">FiscalYear    </text>
<text text-anchor="start" x="527.8156" y="-338.9" font-family="Arial" font-size="14.00" fill="#666666">[smallint]</text>
<polygon fill="none" stroke="#000000" points="420.5,-297.5 420.5,-327.5 718.5,-327.5 718.5,-297.5 420.5,-297.5"/>
<text text-anchor="start" x="427.5" y="-308.9" font-family="Arial" font-size="14.00" fill="#000000">FiscalSemester    </text>
<text text-anchor="start" x="558.1494" y="-308.9" font-family="Arial" font-size="14.00" fill="#666666">[tinyint]</text>
</g>
<!-- FactProductInventory&#45;&gt;DimDate -->
<g id="edge2" class="edge">
<title>FactProductInventory:DateKey&#45;&gt;DimDate:DateKey</title>
<path fill="none" stroke="#000000" d="M542.596,-1446.8212C662.893,-1429.5681 446.8854,-1088.0124 420.5,-946 412.909,-905.1437 378.9444,-852.5 420.5,-852.5"/>
<polygon fill="#000000" stroke="#000000" points="542.4775,-1446.829 532.1981,-1443.0101 537.4887,-1447.1645 532.5,-1447.5 532.5,-1447.5 532.5,-1447.5 537.4887,-1447.1645 532.8019,-1451.9899 542.4775,-1446.829 542.4775,-1446.829"/>
</g>
</g>
</svg>
