<?xml version="1.0" encoding="UTF-8" standalone="no"?>
<!DOCTYPE svg PUBLIC "-//W3C//DTD SVG 1.1//EN"
 "http://www.w3.org/Graphics/SVG/1.1/DTD/svg11.dtd">
<!-- Generated by graphviz version 2.40.1 (20161225.0304)
 -->
<!-- Title: FactAdditionalInternationalProductDescription Pages: 1 -->
<svg width="611pt" height="225pt"
 viewBox="0.00 0.00 611.00 225.00" xmlns="http://www.w3.org/2000/svg" xmlns:xlink="http://www.w3.org/1999/xlink">
<g id="graph0" class="graph" transform="scale(1 1) rotate(0) translate(4 221)">
<title>FactAdditionalInternationalProductDescription</title>
<polygon fill="#ffffff" stroke="transparent" points="-4,4 -4,-221 607,-221 607,4 -4,4"/>
<!-- FactAdditionalInternationalProductDescription -->
<g id="node1" class="node">
<title>FactAdditionalInternationalProductDescription</title>
<polygon fill="#efefef" stroke="transparent" points="46.5,-135.5 46.5,-170.5 557.5,-170.5 557.5,-135.5 46.5,-135.5"/>
<polygon fill="none" stroke="#000000" points="46.5,-135.5 46.5,-170.5 557.5,-170.5 557.5,-135.5 46.5,-135.5"/>
<text text-anchor="start" x="53.3486" y="-148.3" font-family="Arial Bold" font-size="18.00" fill="#000000">FactAdditionalInternationalProductDescription</text>
<text text-anchor="start" x="418.4228" y="-148.3" font-family="Arial" font-size="14.00" fill="#000000">    </text>
<text text-anchor="start" x="452.6276" y="-148.3" font-family="Arial" font-size="14.00" fill="#666666">[BASIC TABLE]</text>
<polygon fill="none" stroke="#000000" points="46.5,-105.5 46.5,-135.5 557.5,-135.5 557.5,-105.5 46.5,-105.5"/>
<text text-anchor="start" x="53.5" y="-116.9" font-family="Arial" font-size="14.00" fill="#000000">ProductKey </text>
<text text-anchor="start" x="129.7454" y="-116.9" font-family="Arial" font-size="14.00" fill="#666666">[int]</text>
<polygon fill="none" stroke="#000000" points="46.5,-75.5 46.5,-105.5 557.5,-105.5 557.5,-75.5 46.5,-75.5"/>
<text text-anchor="start" x="53.5" y="-86.9" font-family="Arial" font-size="14.00" fill="#000000">CultureName </text>
<text text-anchor="start" x="139.8352" y="-86.9" font-family="Arial" font-size="14.00" fill="#666666">[nvarchar(50)]</text>
<polygon fill="none" stroke="#000000" points="46.5,-45.5 46.5,-75.5 557.5,-75.5 557.5,-45.5 46.5,-45.5"/>
<text text-anchor="start" x="53.5" y="-56.9" font-family="Arial" font-size="14.00" fill="#000000">ProductDescription </text>
<text text-anchor="start" x="175.6276" y="-56.9" font-family="Arial" font-size="14.00" fill="#666666">[nvarchar(MAX)]</text>
<polygon fill="none" stroke="#000000" stroke-width="3" points="44.5,-44.5 44.5,-172.5 558.5,-172.5 558.5,-44.5 44.5,-44.5"/>
</g>
</g>
</svg>
