<?xml version="1.0" encoding="UTF-8" standalone="no"?>
<!DOCTYPE svg PUBLIC "-//W3C//DTD SVG 1.1//EN"
 "http://www.w3.org/Graphics/SVG/1.1/DTD/svg11.dtd">
<!-- Generated by graphviz version 2.40.1 (20161225.0304)
 -->
<!-- Title: FactCallCenter Pages: 1 -->
<svg width="392pt" height="1282pt"
 viewBox="0.00 0.00 392.00 1282.00" xmlns="http://www.w3.org/2000/svg" xmlns:xlink="http://www.w3.org/1999/xlink">
<g id="graph0" class="graph" transform="scale(1 1) rotate(0) translate(4 1278)">
<title>FactCallCenter</title>
<polygon fill="#ffffff" stroke="transparent" points="-4,4 -4,-1278 388,-1278 388,4 -4,4"/>
<!-- FactCallCenter -->
<g id="node1" class="node">
<title>FactCallCenter</title>
<polygon fill="#efefef" stroke="transparent" points="59,-1192.5 59,-1227.5 325,-1227.5 325,-1192.5 59,-1192.5"/>
<polygon fill="none" stroke="#000000" points="59,-1192.5 59,-1227.5 325,-1227.5 325,-1192.5 59,-1192.5"/>
<text text-anchor="start" x="65.8854" y="-1205.3" font-family="Arial Bold" font-size="18.00" fill="#000000">FactCallCenter</text>
<text text-anchor="start" x="185.886" y="-1205.3" font-family="Arial" font-size="14.00" fill="#000000">    </text>
<text text-anchor="start" x="220.0908" y="-1205.3" font-family="Arial" font-size="14.00" fill="#666666">[BASIC TABLE]</text>
<polygon fill="none" stroke="#000000" points="59,-1162.5 59,-1192.5 325,-1192.5 325,-1162.5 59,-1162.5"/>
<text text-anchor="start" x="66" y="-1173.9" font-family="Arial" font-size="14.00" fill="#000000">FactCallCenterID </text>
<text text-anchor="start" x="177.2216" y="-1173.9" font-family="Arial" font-size="14.00" fill="#666666">[int]</text>
<polygon fill="none" stroke="#000000" points="59,-1132.5 59,-1162.5 325,-1162.5 325,-1132.5 59,-1132.5"/>
<text text-anchor="start" x="66" y="-1143.9" font-family="Arial" font-size="14.00" fill="#000000">DateKey </text>
<text text-anchor="start" x="123.5722" y="-1143.9" font-family="Arial" font-size="14.00" fill="#666666">[int]</text>
<polygon fill="none" stroke="#000000" points="59,-1102.5 59,-1132.5 325,-1132.5 325,-1102.5 59,-1102.5"/>
<text text-anchor="start" x="66" y="-1113.9" font-family="Arial" font-size="14.00" fill="#000000">WageType </text>
<text text-anchor="start" x="137.5708" y="-1113.9" font-family="Arial" font-size="14.00" fill="#666666">[nvarchar(15)]</text>
<polygon fill="none" stroke="#000000" points="59,-1072.5 59,-1102.5 325,-1102.5 325,-1072.5 59,-1072.5"/>
<text text-anchor="start" x="66" y="-1083.9" font-family="Arial" font-size="14.00" fill="#000000">Shift </text>
<text text-anchor="start" x="97.8976" y="-1083.9" font-family="Arial" font-size="14.00" fill="#666666">[nvarchar(20)]</text>
<polygon fill="none" stroke="#000000" points="59,-1042.5 59,-1072.5 325,-1072.5 325,-1042.5 59,-1042.5"/>
<text text-anchor="start" x="66" y="-1053.9" font-family="Arial" font-size="14.00" fill="#000000">LevelOneOperators </text>
<text text-anchor="start" x="192.0336" y="-1053.9" font-family="Arial" font-size="14.00" fill="#666666">[smallint]</text>
<polygon fill="none" stroke="#000000" points="59,-1012.5 59,-1042.5 325,-1042.5 325,-1012.5 59,-1012.5"/>
<text text-anchor="start" x="66" y="-1023.9" font-family="Arial" font-size="14.00" fill="#000000">LevelTwoOperators </text>
<text text-anchor="start" x="192.0196" y="-1023.9" font-family="Arial" font-size="14.00" fill="#666666">[smallint]</text>
<polygon fill="none" stroke="#000000" points="59,-982.5 59,-1012.5 325,-1012.5 325,-982.5 59,-982.5"/>
<text text-anchor="start" x="66" y="-993.9" font-family="Arial" font-size="14.00" fill="#000000">TotalOperators </text>
<text text-anchor="start" x="163.2384" y="-993.9" font-family="Arial" font-size="14.00" fill="#666666">[smallint]</text>
<polygon fill="none" stroke="#000000" points="59,-952.5 59,-982.5 325,-982.5 325,-952.5 59,-952.5"/>
<text text-anchor="start" x="66" y="-963.9" font-family="Arial" font-size="14.00" fill="#000000">Calls </text>
<text text-anchor="start" x="100.993" y="-963.9" font-family="Arial" font-size="14.00" fill="#666666">[int]</text>
<polygon fill="none" stroke="#000000" points="59,-922.5 59,-952.5 325,-952.5 325,-922.5 59,-922.5"/>
<text text-anchor="start" x="66" y="-933.9" font-family="Arial" font-size="14.00" fill="#000000">AutomaticResponses </text>
<text text-anchor="start" x="202.143" y="-933.9" font-family="Arial" font-size="14.00" fill="#666666">[int]</text>
<polygon fill="none" stroke="#000000" points="59,-892.5 59,-922.5 325,-922.5 325,-892.5 59,-892.5"/>
<text text-anchor="start" x="66" y="-903.9" font-family="Arial" font-size="14.00" fill="#000000">Orders </text>
<text text-anchor="start" x="112.6676" y="-903.9" font-family="Arial" font-size="14.00" fill="#666666">[int]</text>
<polygon fill="none" stroke="#000000" points="59,-862.5 59,-892.5 325,-892.5 325,-862.5 59,-862.5"/>
<text text-anchor="start" x="66" y="-873.9" font-family="Arial" font-size="14.00" fill="#000000">IssuesRaised </text>
<text text-anchor="start" x="153.9074" y="-873.9" font-family="Arial" font-size="14.00" fill="#666666">[smallint]</text>
<polygon fill="none" stroke="#000000" points="59,-832.5 59,-862.5 325,-862.5 325,-832.5 59,-832.5"/>
<text text-anchor="start" x="66" y="-843.9" font-family="Arial" font-size="14.00" fill="#000000">AverageTimePerIssue </text>
<text text-anchor="start" x="208.3562" y="-843.9" font-family="Arial" font-size="14.00" fill="#666666">[smallint]</text>
<polygon fill="none" stroke="#000000" points="59,-802.5 59,-832.5 325,-832.5 325,-802.5 59,-802.5"/>
<text text-anchor="start" x="66" y="-813.9" font-family="Arial" font-size="14.00" fill="#000000">ServiceGrade </text>
<text text-anchor="start" x="155.4586" y="-813.9" font-family="Arial" font-size="14.00" fill="#666666">[float]</text>
<polygon fill="none" stroke="#000000" points="59,-772.5 59,-802.5 325,-802.5 325,-772.5 59,-772.5"/>
<text text-anchor="start" x="66" y="-783.9" font-family="Arial" font-size="14.00" fill="#000000">Date </text>
<text text-anchor="start" x="99.453" y="-783.9" font-family="Arial" font-size="14.00" fill="#666666">[datetime]</text>
<polygon fill="none" stroke="#000000" stroke-width="3" points="57.5,-771.5 57.5,-1229.5 326.5,-1229.5 326.5,-771.5 57.5,-771.5"/>
</g>
<!-- DimDate -->
<g id="node2" class="node">
<title>DimDate</title>
<polygon fill="#efefef" stroke="transparent" points="43,-612.5 43,-647.5 341,-647.5 341,-612.5 43,-612.5"/>
<polygon fill="none" stroke="#000000" points="43,-612.5 43,-647.5 341,-647.5 341,-612.5 43,-612.5"/>
<text text-anchor="start" x="90.891" y="-625.3" font-family="Arial Bold" font-size="18.00" fill="#000000">DimDate</text>
<text text-anchor="start" x="160.8804" y="-625.3" font-family="Arial" font-size="14.00" fill="#000000">    </text>
<text text-anchor="start" x="195.0852" y="-625.3" font-family="Arial" font-size="14.00" fill="#666666">[BASIC TABLE]</text>
<polygon fill="none" stroke="#000000" points="43,-582.5 43,-612.5 341,-612.5 341,-582.5 43,-582.5"/>
<text text-anchor="start" x="50" y="-593.9" font-family="Arial" font-size="14.00" fill="#000000">DateKey    </text>
<text text-anchor="start" x="137.8864" y="-593.9" font-family="Arial" font-size="14.00" fill="#666666">[int]</text>
<polygon fill="none" stroke="#000000" points="43,-552.5 43,-582.5 341,-582.5 341,-552.5 43,-552.5"/>
<text text-anchor="start" x="50" y="-563.9" font-family="Arial" font-size="14.00" fill="#000000">FullDateAlternateKey    </text>
<text text-anchor="start" x="216.4502" y="-563.9" font-family="Arial" font-size="14.00" fill="#666666">[date]</text>
<polygon fill="none" stroke="#000000" points="43,-522.5 43,-552.5 341,-552.5 341,-522.5 43,-522.5"/>
<text text-anchor="start" x="50" y="-533.9" font-family="Arial" font-size="14.00" fill="#000000">DayNumberOfWeek    </text>
<text text-anchor="start" x="209.4306" y="-533.9" font-family="Arial" font-size="14.00" fill="#666666">[tinyint]</text>
<polygon fill="none" stroke="#000000" points="43,-492.5 43,-522.5 341,-522.5 341,-492.5 43,-492.5"/>
<text text-anchor="start" x="50" y="-503.9" font-family="Arial" font-size="14.00" fill="#000000">EnglishDayNameOfWeek    </text>
<text text-anchor="start" x="242.885" y="-503.9" font-family="Arial" font-size="14.00" fill="#666666">[nvarchar(10)]</text>
<polygon fill="none" stroke="#000000" points="43,-462.5 43,-492.5 341,-492.5 341,-462.5 43,-462.5"/>
<text text-anchor="start" x="49.6599" y="-473.9" font-family="Arial" font-size="14.00" fill="#000000">SpanishDayNameOfWeek    </text>
<text text-anchor="start" x="247.2209" y="-473.9" font-family="Arial" font-size="14.00" fill="#666666">[nvarchar(10)]</text>
<polygon fill="none" stroke="#000000" points="43,-432.5 43,-462.5 341,-462.5 341,-432.5 43,-432.5"/>
<text text-anchor="start" x="50" y="-443.9" font-family="Arial" font-size="14.00" fill="#000000">FrenchDayNameOfWeek    </text>
<text text-anchor="start" x="240.5484" y="-443.9" font-family="Arial" font-size="14.00" fill="#666666">[nvarchar(10)]</text>
<polygon fill="none" stroke="#000000" points="43,-402.5 43,-432.5 341,-432.5 341,-402.5 43,-402.5"/>
<text text-anchor="start" x="50" y="-413.9" font-family="Arial" font-size="14.00" fill="#000000">DayNumberOfMonth    </text>
<text text-anchor="start" x="212.5498" y="-413.9" font-family="Arial" font-size="14.00" fill="#666666">[tinyint]</text>
<polygon fill="none" stroke="#000000" points="43,-372.5 43,-402.5 341,-402.5 341,-372.5 43,-372.5"/>
<text text-anchor="start" x="50" y="-383.9" font-family="Arial" font-size="14.00" fill="#000000">DayNumberOfYear    </text>
<text text-anchor="start" x="203.2132" y="-383.9" font-family="Arial" font-size="14.00" fill="#666666">[smallint]</text>
<polygon fill="none" stroke="#000000" points="43,-342.5 43,-372.5 341,-372.5 341,-342.5 43,-342.5"/>
<text text-anchor="start" x="50" y="-353.9" font-family="Arial" font-size="14.00" fill="#000000">WeekNumberOfYear    </text>
<text text-anchor="start" x="214.1038" y="-353.9" font-family="Arial" font-size="14.00" fill="#666666">[tinyint]</text>
<polygon fill="none" stroke="#000000" points="43,-312.5 43,-342.5 341,-342.5 341,-312.5 43,-312.5"/>
<text text-anchor="start" x="50" y="-323.9" font-family="Arial" font-size="14.00" fill="#000000">EnglishMonthName    </text>
<text text-anchor="start" x="206.3338" y="-323.9" font-family="Arial" font-size="14.00" fill="#666666">[nvarchar(10)]</text>
<polygon fill="none" stroke="#000000" points="43,-282.5 43,-312.5 341,-312.5 341,-282.5 43,-282.5"/>
<text text-anchor="start" x="50" y="-293.9" font-family="Arial" font-size="14.00" fill="#000000">SpanishMonthName    </text>
<text text-anchor="start" x="211.0098" y="-293.9" font-family="Arial" font-size="14.00" fill="#666666">[nvarchar(10)]</text>
<polygon fill="none" stroke="#000000" points="43,-252.5 43,-282.5 341,-282.5 341,-252.5 43,-252.5"/>
<text text-anchor="start" x="50" y="-263.9" font-family="Arial" font-size="14.00" fill="#000000">FrenchMonthName    </text>
<text text-anchor="start" x="203.9972" y="-263.9" font-family="Arial" font-size="14.00" fill="#666666">[nvarchar(10)]</text>
<polygon fill="none" stroke="#000000" points="43,-222.5 43,-252.5 341,-252.5 341,-222.5 43,-222.5"/>
<text text-anchor="start" x="50" y="-233.9" font-family="Arial" font-size="14.00" fill="#000000">MonthNumberOfYear    </text>
<text text-anchor="start" x="217.223" y="-233.9" font-family="Arial" font-size="14.00" fill="#666666">[tinyint]</text>
<polygon fill="none" stroke="#000000" points="43,-192.5 43,-222.5 341,-222.5 341,-192.5 43,-192.5"/>
<text text-anchor="start" x="50" y="-203.9" font-family="Arial" font-size="14.00" fill="#000000">CalendarQuarter    </text>
<text text-anchor="start" x="188.4418" y="-203.9" font-family="Arial" font-size="14.00" fill="#666666">[tinyint]</text>
<polygon fill="none" stroke="#000000" points="43,-162.5 43,-192.5 341,-192.5 341,-162.5 43,-162.5"/>
<text text-anchor="start" x="50" y="-173.9" font-family="Arial" font-size="14.00" fill="#000000">CalendarYear    </text>
<text text-anchor="start" x="170.554" y="-173.9" font-family="Arial" font-size="14.00" fill="#666666">[smallint]</text>
<polygon fill="none" stroke="#000000" points="43,-132.5 43,-162.5 341,-162.5 341,-132.5 43,-132.5"/>
<text text-anchor="start" x="50" y="-143.9" font-family="Arial" font-size="14.00" fill="#000000">CalendarSemester    </text>
<text text-anchor="start" x="200.8878" y="-143.9" font-family="Arial" font-size="14.00" fill="#666666">[tinyint]</text>
<polygon fill="none" stroke="#000000" points="43,-102.5 43,-132.5 341,-132.5 341,-102.5 43,-102.5"/>
<text text-anchor="start" x="50" y="-113.9" font-family="Arial" font-size="14.00" fill="#000000">FiscalQuarter    </text>
<text text-anchor="start" x="168.2034" y="-113.9" font-family="Arial" font-size="14.00" fill="#666666">[tinyint]</text>
<polygon fill="none" stroke="#000000" points="43,-72.5 43,-102.5 341,-102.5 341,-72.5 43,-72.5"/>
<text text-anchor="start" x="50" y="-83.9" font-family="Arial" font-size="14.00" fill="#000000">FiscalYear    </text>
<text text-anchor="start" x="150.3156" y="-83.9" font-family="Arial" font-size="14.00" fill="#666666">[smallint]</text>
<polygon fill="none" stroke="#000000" points="43,-42.5 43,-72.5 341,-72.5 341,-42.5 43,-42.5"/>
<text text-anchor="start" x="50" y="-53.9" font-family="Arial" font-size="14.00" fill="#000000">FiscalSemester    </text>
<text text-anchor="start" x="180.6494" y="-53.9" font-family="Arial" font-size="14.00" fill="#666666">[tinyint]</text>
</g>
<!-- FactCallCenter&#45;&gt;DimDate -->
<g id="edge1" class="edge">
<title>FactCallCenter:DateKey&#45;&gt;DimDate:DateKey</title>
<path fill="none" stroke="#000000" d="M334.2908,-1143.0728C387.61,-1091.0217 398.9129,-597.5 341,-597.5"/>
<polygon fill="#000000" stroke="#000000" points="334.0275,-1143.1982 323.0642,-1143.4376 329.5137,-1145.3491 325,-1147.5 325,-1147.5 325,-1147.5 329.5137,-1145.3491 326.9358,-1151.5624 334.0275,-1143.1982 334.0275,-1143.1982"/>
</g>
</g>
</svg>
