<?xml version="1.0" encoding="UTF-8" standalone="no"?>
<!DOCTYPE svg PUBLIC "-//W3C//DTD SVG 1.1//EN"
 "http://www.w3.org/Graphics/SVG/1.1/DTD/svg11.dtd">
<!-- Generated by graphviz version 2.40.1 (20161225.0304)
 -->
<!-- Title: NewFactCurrencyRate Pages: 1 -->
<svg width="428pt" height="315pt"
 viewBox="0.00 0.00 428.00 315.00" xmlns="http://www.w3.org/2000/svg" xmlns:xlink="http://www.w3.org/1999/xlink">
<g id="graph0" class="graph" transform="scale(1 1) rotate(0) translate(4 311)">
<title>NewFactCurrencyRate</title>
<polygon fill="#ffffff" stroke="transparent" points="-4,4 -4,-311 424,-311 424,4 -4,4"/>
<!-- NewFactCurrencyRate -->
<g id="node1" class="node">
<title>NewFactCurrencyRate</title>
<polygon fill="#efefef" stroke="transparent" points="46,-225.5 46,-260.5 374,-260.5 374,-225.5 46,-225.5"/>
<polygon fill="none" stroke="#000000" points="46,-225.5 46,-260.5 374,-260.5 374,-225.5 46,-225.5"/>
<text text-anchor="start" x="52.8831" y="-238.3" font-family="Arial Bold" font-size="18.00" fill="#000000">NewFactCurrencyRate</text>
<text text-anchor="start" x="234.8883" y="-238.3" font-family="Arial" font-size="14.00" fill="#000000">    </text>
<text text-anchor="start" x="269.0931" y="-238.3" font-family="Arial" font-size="14.00" fill="#666666">[BASIC TABLE]</text>
<polygon fill="none" stroke="#000000" points="46,-195.5 46,-225.5 374,-225.5 374,-195.5 46,-195.5"/>
<text text-anchor="start" x="53" y="-206.9" font-family="Arial" font-size="14.00" fill="#000000">AverageRate </text>
<text text-anchor="start" x="138.5806" y="-206.9" font-family="Arial" font-size="14.00" fill="#666666">[real]</text>
<polygon fill="none" stroke="#000000" points="46,-165.5 46,-195.5 374,-195.5 374,-165.5 46,-165.5"/>
<text text-anchor="start" x="53" y="-176.9" font-family="Arial" font-size="14.00" fill="#000000">CurrencyID </text>
<text text-anchor="start" x="127.6634" y="-176.9" font-family="Arial" font-size="14.00" fill="#666666">[nvarchar(3)]</text>
<polygon fill="none" stroke="#000000" points="46,-135.5 46,-165.5 374,-165.5 374,-135.5 46,-135.5"/>
<text text-anchor="start" x="53" y="-146.9" font-family="Arial" font-size="14.00" fill="#000000">CurrencyDate </text>
<text text-anchor="start" x="143.2286" y="-146.9" font-family="Arial" font-size="14.00" fill="#666666">[date]</text>
<polygon fill="none" stroke="#000000" points="46,-105.5 46,-135.5 374,-135.5 374,-105.5 46,-105.5"/>
<text text-anchor="start" x="53" y="-116.9" font-family="Arial" font-size="14.00" fill="#000000">EndOfDayRate </text>
<text text-anchor="start" x="151.0252" y="-116.9" font-family="Arial" font-size="14.00" fill="#666666">[real]</text>
<polygon fill="none" stroke="#000000" points="46,-75.5 46,-105.5 374,-105.5 374,-75.5 46,-75.5"/>
<text text-anchor="start" x="53" y="-86.9" font-family="Arial" font-size="14.00" fill="#000000">CurrencyKey </text>
<text text-anchor="start" x="137.7854" y="-86.9" font-family="Arial" font-size="14.00" fill="#666666">[int]</text>
<polygon fill="none" stroke="#000000" points="46,-45.5 46,-75.5 374,-75.5 374,-45.5 46,-45.5"/>
<text text-anchor="start" x="53" y="-56.9" font-family="Arial" font-size="14.00" fill="#000000">DateKey </text>
<text text-anchor="start" x="110.5722" y="-56.9" font-family="Arial" font-size="14.00" fill="#666666">[int]</text>
<polygon fill="none" stroke="#000000" stroke-width="3" points="44.5,-44.5 44.5,-262.5 375.5,-262.5 375.5,-44.5 44.5,-44.5"/>
</g>
</g>
</svg>
