<?xml version="1.0" encoding="UTF-8" standalone="no"?>
<!DOCTYPE svg PUBLIC "-//W3C//DTD SVG 1.1//EN"
 "http://www.w3.org/Graphics/SVG/1.1/DTD/svg11.dtd">
<!-- Generated by graphviz version 2.40.1 (20161225.0304)
 -->
<!-- Title: ProspectiveBuyer Pages: 1 -->
<svg width="387pt" height="855pt"
 viewBox="0.00 0.00 387.00 855.00" xmlns="http://www.w3.org/2000/svg" xmlns:xlink="http://www.w3.org/1999/xlink">
<g id="graph0" class="graph" transform="scale(1 1) rotate(0) translate(4 851)">
<title>ProspectiveBuyer</title>
<polygon fill="#ffffff" stroke="transparent" points="-4,4 -4,-851 383,-851 383,4 -4,4"/>
<!-- ProspectiveBuyer -->
<g id="node1" class="node">
<title>ProspectiveBuyer</title>
<polygon fill="#efefef" stroke="transparent" points="46.5,-765.5 46.5,-800.5 333.5,-800.5 333.5,-765.5 46.5,-765.5"/>
<polygon fill="none" stroke="#000000" points="46.5,-765.5 46.5,-800.5 333.5,-800.5 333.5,-765.5 46.5,-765.5"/>
<text text-anchor="start" x="53.3725" y="-778.3" font-family="Arial Bold" font-size="18.00" fill="#000000">ProspectiveBuyer</text>
<text text-anchor="start" x="194.3989" y="-778.3" font-family="Arial" font-size="14.00" fill="#000000">    </text>
<text text-anchor="start" x="228.6037" y="-778.3" font-family="Arial" font-size="14.00" fill="#666666">[BASIC TABLE]</text>
<polygon fill="none" stroke="#000000" points="46.5,-735.5 46.5,-765.5 333.5,-765.5 333.5,-735.5 46.5,-735.5"/>
<text text-anchor="start" x="53.5" y="-746.9" font-family="Arial" font-size="14.00" fill="#000000">ProspectiveBuyerKey </text>
<text text-anchor="start" x="191.197" y="-746.9" font-family="Arial" font-size="14.00" fill="#666666">[int]</text>
<polygon fill="none" stroke="#000000" points="46.5,-705.5 46.5,-735.5 333.5,-735.5 333.5,-705.5 46.5,-705.5"/>
<text text-anchor="start" x="53.5" y="-716.9" font-family="Arial" font-size="14.00" fill="#000000">ProspectAlternateKey </text>
<text text-anchor="start" x="192.7608" y="-716.9" font-family="Arial" font-size="14.00" fill="#666666">[nvarchar(15)]</text>
<polygon fill="none" stroke="#000000" points="46.5,-675.5 46.5,-705.5 333.5,-705.5 333.5,-675.5 46.5,-675.5"/>
<text text-anchor="start" x="53.5" y="-686.9" font-family="Arial" font-size="14.00" fill="#000000">FirstName </text>
<text text-anchor="start" x="121.9334" y="-686.9" font-family="Arial" font-size="14.00" fill="#666666">[nvarchar(50)]</text>
<polygon fill="none" stroke="#000000" points="46.5,-645.5 46.5,-675.5 333.5,-675.5 333.5,-645.5 46.5,-645.5"/>
<text text-anchor="start" x="53.5" y="-656.9" font-family="Arial" font-size="14.00" fill="#000000">MiddleName </text>
<text text-anchor="start" x="135.9446" y="-656.9" font-family="Arial" font-size="14.00" fill="#666666">[nvarchar(50)]</text>
<polygon fill="none" stroke="#000000" points="46.5,-615.5 46.5,-645.5 333.5,-645.5 333.5,-615.5 46.5,-615.5"/>
<text text-anchor="start" x="53.5" y="-626.9" font-family="Arial" font-size="14.00" fill="#000000">LastName </text>
<text text-anchor="start" x="121.1788" y="-626.9" font-family="Arial" font-size="14.00" fill="#666666">[nvarchar(50)]</text>
<polygon fill="none" stroke="#000000" points="46.5,-585.5 46.5,-615.5 333.5,-615.5 333.5,-585.5 46.5,-585.5"/>
<text text-anchor="start" x="53.5" y="-596.9" font-family="Arial" font-size="14.00" fill="#000000">BirthDate </text>
<text text-anchor="start" x="115.73" y="-596.9" font-family="Arial" font-size="14.00" fill="#666666">[datetime]</text>
<polygon fill="none" stroke="#000000" points="46.5,-555.5 46.5,-585.5 333.5,-585.5 333.5,-555.5 46.5,-555.5"/>
<text text-anchor="start" x="53.5" y="-566.9" font-family="Arial" font-size="14.00" fill="#000000">MaritalStatus </text>
<text text-anchor="start" x="139.0638" y="-566.9" font-family="Arial" font-size="14.00" fill="#666666">[nchar]</text>
<polygon fill="none" stroke="#000000" points="46.5,-525.5 46.5,-555.5 333.5,-555.5 333.5,-525.5 46.5,-525.5"/>
<text text-anchor="start" x="53.5" y="-536.9" font-family="Arial" font-size="14.00" fill="#000000">Gender </text>
<text text-anchor="start" x="104.0722" y="-536.9" font-family="Arial" font-size="14.00" fill="#666666">[nvarchar(1)]</text>
<polygon fill="none" stroke="#000000" points="46.5,-495.5 46.5,-525.5 333.5,-525.5 333.5,-495.5 46.5,-495.5"/>
<text text-anchor="start" x="53.5" y="-506.9" font-family="Arial" font-size="14.00" fill="#000000">EmailAddress </text>
<text text-anchor="start" x="143.7286" y="-506.9" font-family="Arial" font-size="14.00" fill="#666666">[nvarchar(50)]</text>
<polygon fill="none" stroke="#000000" points="46.5,-465.5 46.5,-495.5 333.5,-495.5 333.5,-465.5 46.5,-465.5"/>
<text text-anchor="start" x="53.5" y="-476.9" font-family="Arial" font-size="14.00" fill="#000000">YearlyIncome </text>
<text text-anchor="start" x="142.9586" y="-476.9" font-family="Arial" font-size="14.00" fill="#666666">[money]</text>
<polygon fill="none" stroke="#000000" points="46.5,-435.5 46.5,-465.5 333.5,-465.5 333.5,-435.5 46.5,-435.5"/>
<text text-anchor="start" x="53.5" y="-446.9" font-family="Arial" font-size="14.00" fill="#000000">TotalChildren </text>
<text text-anchor="start" x="140.6164" y="-446.9" font-family="Arial" font-size="14.00" fill="#666666">[tinyint]</text>
<polygon fill="none" stroke="#000000" points="46.5,-405.5 46.5,-435.5 333.5,-435.5 333.5,-405.5 46.5,-405.5"/>
<text text-anchor="start" x="53.5" y="-416.9" font-family="Arial" font-size="14.00" fill="#000000">NumberChildrenAtHome </text>
<text text-anchor="start" x="209.8366" y="-416.9" font-family="Arial" font-size="14.00" fill="#666666">[tinyint]</text>
<polygon fill="none" stroke="#000000" points="46.5,-375.5 46.5,-405.5 333.5,-405.5 333.5,-375.5 46.5,-375.5"/>
<text text-anchor="start" x="53.5" y="-386.9" font-family="Arial" font-size="14.00" fill="#000000">Education </text>
<text text-anchor="start" x="119.6374" y="-386.9" font-family="Arial" font-size="14.00" fill="#666666">[nvarchar(40)]</text>
<polygon fill="none" stroke="#000000" points="46.5,-345.5 46.5,-375.5 333.5,-375.5 333.5,-345.5 46.5,-345.5"/>
<text text-anchor="start" x="53.5" y="-356.9" font-family="Arial" font-size="14.00" fill="#000000">Occupation </text>
<text text-anchor="start" x="128.1914" y="-356.9" font-family="Arial" font-size="14.00" fill="#666666">[nvarchar(100)]</text>
<polygon fill="none" stroke="#000000" points="46.5,-315.5 46.5,-345.5 333.5,-345.5 333.5,-315.5 46.5,-315.5"/>
<text text-anchor="start" x="53.5" y="-326.9" font-family="Arial" font-size="14.00" fill="#000000">HouseOwnerFlag </text>
<text text-anchor="start" x="166.2924" y="-326.9" font-family="Arial" font-size="14.00" fill="#666666">[nchar]</text>
<polygon fill="none" stroke="#000000" points="46.5,-285.5 46.5,-315.5 333.5,-315.5 333.5,-285.5 46.5,-285.5"/>
<text text-anchor="start" x="53.5" y="-296.9" font-family="Arial" font-size="14.00" fill="#000000">NumberCarsOwned </text>
<text text-anchor="start" x="181.061" y="-296.9" font-family="Arial" font-size="14.00" fill="#666666">[tinyint]</text>
<polygon fill="none" stroke="#000000" points="46.5,-255.5 46.5,-285.5 333.5,-285.5 333.5,-255.5 46.5,-255.5"/>
<text text-anchor="start" x="53.5" y="-266.9" font-family="Arial" font-size="14.00" fill="#000000">AddressLine1 </text>
<text text-anchor="start" x="142.9726" y="-266.9" font-family="Arial" font-size="14.00" fill="#666666">[nvarchar(120)]</text>
<polygon fill="none" stroke="#000000" points="46.5,-225.5 46.5,-255.5 333.5,-255.5 333.5,-225.5 46.5,-225.5"/>
<text text-anchor="start" x="53.5" y="-236.9" font-family="Arial" font-size="14.00" fill="#000000">AddressLine2 </text>
<text text-anchor="start" x="142.9726" y="-236.9" font-family="Arial" font-size="14.00" fill="#666666">[nvarchar(120)]</text>
<polygon fill="none" stroke="#000000" points="46.5,-195.5 46.5,-225.5 333.5,-225.5 333.5,-195.5 46.5,-195.5"/>
<text text-anchor="start" x="53.5" y="-206.9" font-family="Arial" font-size="14.00" fill="#000000">City </text>
<text text-anchor="start" x="81.4944" y="-206.9" font-family="Arial" font-size="14.00" fill="#666666">[nvarchar(30)]</text>
<polygon fill="none" stroke="#000000" points="46.5,-165.5 46.5,-195.5 333.5,-195.5 333.5,-165.5 46.5,-165.5"/>
<text text-anchor="start" x="53.5" y="-176.9" font-family="Arial" font-size="14.00" fill="#000000">StateProvinceCode </text>
<text text-anchor="start" x="177.9796" y="-176.9" font-family="Arial" font-size="14.00" fill="#666666">[nvarchar(3)]</text>
<polygon fill="none" stroke="#000000" points="46.5,-135.5 46.5,-165.5 333.5,-165.5 333.5,-135.5 46.5,-135.5"/>
<text text-anchor="start" x="53.5" y="-146.9" font-family="Arial" font-size="14.00" fill="#000000">PostalCode </text>
<text text-anchor="start" x="129.744" y="-146.9" font-family="Arial" font-size="14.00" fill="#666666">[nvarchar(15)]</text>
<polygon fill="none" stroke="#000000" points="46.5,-105.5 46.5,-135.5 333.5,-135.5 333.5,-105.5 46.5,-105.5"/>
<text text-anchor="start" x="53.5" y="-116.9" font-family="Arial" font-size="14.00" fill="#000000">Phone </text>
<text text-anchor="start" x="97.8576" y="-116.9" font-family="Arial" font-size="14.00" fill="#666666">[nvarchar(20)]</text>
<polygon fill="none" stroke="#000000" points="46.5,-75.5 46.5,-105.5 333.5,-105.5 333.5,-75.5 46.5,-75.5"/>
<text text-anchor="start" x="53.5" y="-86.9" font-family="Arial" font-size="14.00" fill="#000000">Salutation </text>
<text text-anchor="start" x="119.6346" y="-86.9" font-family="Arial" font-size="14.00" fill="#666666">[nvarchar(8)]</text>
<polygon fill="none" stroke="#000000" points="46.5,-45.5 46.5,-75.5 333.5,-75.5 333.5,-45.5 46.5,-45.5"/>
<text text-anchor="start" x="53.5" y="-56.9" font-family="Arial" font-size="14.00" fill="#000000">Unknown </text>
<text text-anchor="start" x="115.7342" y="-56.9" font-family="Arial" font-size="14.00" fill="#666666">[int]</text>
<polygon fill="none" stroke="#000000" stroke-width="3" points="44.5,-44.5 44.5,-802.5 334.5,-802.5 334.5,-44.5 44.5,-44.5"/>
</g>
</g>
</svg>
