<?xml version="1.0" encoding="UTF-8" standalone="no"?>
<!DOCTYPE svg PUBLIC "-//W3C//DTD SVG 1.1//EN"
 "http://www.w3.org/Graphics/SVG/1.1/DTD/svg11.dtd">
<!-- Generated by graphviz version 2.40.1 (20161225.0304)
 -->
<!-- Title: sysdiagrams Pages: 1 -->
<svg width="347pt" height="285pt"
 viewBox="0.00 0.00 347.00 285.00" xmlns="http://www.w3.org/2000/svg" xmlns:xlink="http://www.w3.org/1999/xlink">
<g id="graph0" class="graph" transform="scale(1 1) rotate(0) translate(4 281)">
<title>sysdiagrams</title>
<polygon fill="#ffffff" stroke="transparent" points="-4,4 -4,-281 343,-281 343,4 -4,4"/>
<!-- sysdiagrams -->
<g id="node1" class="node">
<title>sysdiagrams</title>
<polygon fill="#efefef" stroke="transparent" points="46.5,-195.5 46.5,-230.5 293.5,-230.5 293.5,-195.5 46.5,-195.5"/>
<polygon fill="none" stroke="#000000" points="46.5,-195.5 46.5,-230.5 293.5,-230.5 293.5,-195.5 46.5,-195.5"/>
<text text-anchor="start" x="53.384" y="-208.3" font-family="Arial Bold" font-size="18.00" fill="#000000">sysdiagrams</text>
<text text-anchor="start" x="154.3874" y="-208.3" font-family="Arial" font-size="14.00" fill="#000000">    </text>
<text text-anchor="start" x="188.5922" y="-208.3" font-family="Arial" font-size="14.00" fill="#666666">[BASIC TABLE]</text>
<polygon fill="none" stroke="#000000" points="46.5,-165.5 46.5,-195.5 293.5,-195.5 293.5,-165.5 46.5,-165.5"/>
<text text-anchor="start" x="53.5" y="-176.9" font-family="Arial" font-size="14.00" fill="#000000">name </text>
<text text-anchor="start" x="92.399" y="-176.9" font-family="Arial" font-size="14.00" fill="#666666">[nvarchar(128)]</text>
<polygon fill="none" stroke="#000000" points="46.5,-135.5 46.5,-165.5 293.5,-165.5 293.5,-135.5 46.5,-135.5"/>
<text text-anchor="start" x="53.5" y="-146.9" font-family="Arial" font-size="14.00" fill="#000000">principal_id </text>
<text text-anchor="start" x="128.1732" y="-146.9" font-family="Arial" font-size="14.00" fill="#666666">[int]</text>
<polygon fill="none" stroke="#000000" points="46.5,-105.5 46.5,-135.5 293.5,-135.5 293.5,-105.5 46.5,-105.5"/>
<text text-anchor="start" x="53.5" y="-116.9" font-family="Arial" font-size="14.00" fill="#000000">diagram_id </text>
<text text-anchor="start" x="126.6206" y="-116.9" font-family="Arial" font-size="14.00" fill="#666666">[int]</text>
<polygon fill="none" stroke="#000000" points="46.5,-75.5 46.5,-105.5 293.5,-105.5 293.5,-75.5 46.5,-75.5"/>
<text text-anchor="start" x="53.5" y="-86.9" font-family="Arial" font-size="14.00" fill="#000000">version </text>
<text text-anchor="start" x="102.5056" y="-86.9" font-family="Arial" font-size="14.00" fill="#666666">[int]</text>
<polygon fill="none" stroke="#000000" points="46.5,-45.5 46.5,-75.5 293.5,-75.5 293.5,-45.5 46.5,-45.5"/>
<text text-anchor="start" x="53.5" y="-56.9" font-family="Arial" font-size="14.00" fill="#000000">definition </text>
<text text-anchor="start" x="113.4046" y="-56.9" font-family="Arial" font-size="14.00" fill="#666666">[varbinary(MAX)]</text>
<polygon fill="none" stroke="#000000" stroke-width="3" points="44.5,-44.5 44.5,-232.5 294.5,-232.5 294.5,-44.5 44.5,-44.5"/>
</g>
</g>
</svg>
