<?xml version="1.0" encoding="UTF-8" standalone="no"?>
<!DOCTYPE svg PUBLIC "-//W3C//DTD SVG 1.1//EN"
 "http://www.w3.org/Graphics/SVG/1.1/DTD/svg11.dtd">
<!-- Generated by graphviz version 2.40.1 (20161225.0304)
 -->
<!-- Title: vAssocSeqLineItems Pages: 1 -->
<svg width="359pt" height="225pt"
 viewBox="0.00 0.00 359.00 225.00" xmlns="http://www.w3.org/2000/svg" xmlns:xlink="http://www.w3.org/1999/xlink">
<g id="graph0" class="graph" transform="scale(1 1) rotate(0) translate(4 221)">
<title>vAssocSeqLineItems</title>
<polygon fill="#ffffff" stroke="transparent" points="-4,4 -4,-221 355,-221 355,4 -4,4"/>
<!-- vAssocSeqLineItems -->
<g id="node1" class="node">
<title>vAssocSeqLineItems</title>
<polygon fill="#efefef" stroke="transparent" points="46.5,-135.5 46.5,-170.5 305.5,-170.5 305.5,-135.5 46.5,-135.5"/>
<polygon fill="none" stroke="#000000" points="46.5,-135.5 46.5,-170.5 305.5,-170.5 305.5,-135.5 46.5,-135.5"/>
<text text-anchor="start" x="53.0965" y="-148.3" font-family="Arial Bold" font-size="18.00" fill="#000000">vAssocSeqLineItems</text>
<text text-anchor="start" x="221.1391" y="-148.3" font-family="Arial" font-size="14.00" fill="#000000">    </text>
<text text-anchor="start" x="255.3439" y="-148.3" font-family="Arial" font-size="14.00" fill="#666666">[VIEW]</text>
<polygon fill="none" stroke="#000000" points="46.5,-105.5 46.5,-135.5 305.5,-135.5 305.5,-105.5 46.5,-105.5"/>
<text text-anchor="start" x="53.5" y="-116.9" font-family="Arial" font-size="14.00" fill="#000000">OrderNumber </text>
<text text-anchor="start" x="142.9432" y="-116.9" font-family="Arial" font-size="14.00" fill="#666666">[nvarchar(20)]</text>
<polygon fill="none" stroke="#000000" points="46.5,-75.5 46.5,-105.5 305.5,-105.5 305.5,-75.5 46.5,-75.5"/>
<text text-anchor="start" x="53.5" y="-86.9" font-family="Arial" font-size="14.00" fill="#000000">LineNumber </text>
<text text-anchor="start" x="133.6206" y="-86.9" font-family="Arial" font-size="14.00" fill="#666666">[tinyint]</text>
<polygon fill="none" stroke="#000000" points="46.5,-45.5 46.5,-75.5 305.5,-75.5 305.5,-45.5 46.5,-45.5"/>
<text text-anchor="start" x="53.5" y="-56.9" font-family="Arial" font-size="14.00" fill="#000000">Model </text>
<text text-anchor="start" x="95.5056" y="-56.9" font-family="Arial" font-size="14.00" fill="#666666">[nvarchar(50)]</text>
<polygon fill="none" stroke="#000000" stroke-width="3" points="44.5,-44.5 44.5,-172.5 306.5,-172.5 306.5,-44.5 44.5,-44.5"/>
</g>
</g>
</svg>
