<?xml version="1.0" encoding="UTF-8" standalone="no"?>
<!DOCTYPE svg PUBLIC "-//W3C//DTD SVG 1.1//EN"
 "http://www.w3.org/Graphics/SVG/1.1/DTD/svg11.dtd">
<!-- Generated by graphviz version 2.40.1 (20161225.0304)
 -->
<!-- Title: vAssocSeqOrders Pages: 1 -->
<svg width="336pt" height="255pt"
 viewBox="0.00 0.00 336.00 255.00" xmlns="http://www.w3.org/2000/svg" xmlns:xlink="http://www.w3.org/1999/xlink">
<g id="graph0" class="graph" transform="scale(1 1) rotate(0) translate(4 251)">
<title>vAssocSeqOrders</title>
<polygon fill="#ffffff" stroke="transparent" points="-4,4 -4,-251 332,-251 332,4 -4,4"/>
<!-- vAssocSeqOrders -->
<g id="node1" class="node">
<title>vAssocSeqOrders</title>
<polygon fill="#efefef" stroke="transparent" points="46,-165.5 46,-200.5 282,-200.5 282,-165.5 46,-165.5"/>
<polygon fill="none" stroke="#000000" points="46,-165.5 46,-200.5 282,-200.5 282,-165.5 46,-165.5"/>
<text text-anchor="start" x="52.6048" y="-178.3" font-family="Arial Bold" font-size="18.00" fill="#000000">vAssocSeqOrders</text>
<text text-anchor="start" x="197.6308" y="-178.3" font-family="Arial" font-size="14.00" fill="#000000">    </text>
<text text-anchor="start" x="231.8356" y="-178.3" font-family="Arial" font-size="14.00" fill="#666666">[VIEW]</text>
<polygon fill="none" stroke="#000000" points="46,-135.5 46,-165.5 282,-165.5 282,-135.5 46,-135.5"/>
<text text-anchor="start" x="53" y="-146.9" font-family="Arial" font-size="14.00" fill="#000000">OrderNumber </text>
<text text-anchor="start" x="142.4432" y="-146.9" font-family="Arial" font-size="14.00" fill="#666666">[nvarchar(20)]</text>
<polygon fill="none" stroke="#000000" points="46,-105.5 46,-135.5 282,-135.5 282,-105.5 46,-105.5"/>
<text text-anchor="start" x="53" y="-116.9" font-family="Arial" font-size="14.00" fill="#000000">CustomerKey </text>
<text text-anchor="start" x="141.676" y="-116.9" font-family="Arial" font-size="14.00" fill="#666666">[int]</text>
<polygon fill="none" stroke="#000000" points="46,-75.5 46,-105.5 282,-105.5 282,-75.5 46,-75.5"/>
<text text-anchor="start" x="53" y="-86.9" font-family="Arial" font-size="14.00" fill="#000000">Region </text>
<text text-anchor="start" x="101.2342" y="-86.9" font-family="Arial" font-size="14.00" fill="#666666">[nvarchar(50)]</text>
<polygon fill="none" stroke="#000000" points="46,-45.5 46,-75.5 282,-75.5 282,-45.5 46,-45.5"/>
<text text-anchor="start" x="53" y="-56.9" font-family="Arial" font-size="14.00" fill="#000000">IncomeGroup </text>
<text text-anchor="start" x="141.6886" y="-56.9" font-family="Arial" font-size="14.00" fill="#666666">[varchar(8)]</text>
<polygon fill="none" stroke="#000000" stroke-width="3" points="44.5,-44.5 44.5,-202.5 283.5,-202.5 283.5,-44.5 44.5,-44.5"/>
</g>
</g>
</svg>
