<?xml version="1.0" encoding="UTF-8" standalone="no"?>
<!DOCTYPE svg PUBLIC "-//W3C//DTD SVG 1.1//EN"
 "http://www.w3.org/Graphics/SVG/1.1/DTD/svg11.dtd">
<!-- Generated by graphviz version 2.40.1 (20161225.0304)
 -->
<!-- Title: vTargetMail Pages: 1 -->
<svg width="345pt" height="1095pt"
 viewBox="0.00 0.00 345.00 1095.00" xmlns="http://www.w3.org/2000/svg" xmlns:xlink="http://www.w3.org/1999/xlink">
<g id="graph0" class="graph" transform="scale(1 1) rotate(0) translate(4 1091)">
<title>vTargetMail</title>
<polygon fill="#ffffff" stroke="transparent" points="-4,4 -4,-1091 341,-1091 341,4 -4,4"/>
<!-- vTargetMail -->
<g id="node1" class="node">
<title>vTargetMail</title>
<polygon fill="#efefef" stroke="transparent" points="46.5,-1005.5 46.5,-1040.5 291.5,-1040.5 291.5,-1005.5 46.5,-1005.5"/>
<polygon fill="none" stroke="#000000" points="46.5,-1005.5 46.5,-1040.5 291.5,-1040.5 291.5,-1005.5 46.5,-1005.5"/>
<text text-anchor="start" x="83.1198" y="-1018.3" font-family="Arial Bold" font-size="18.00" fill="#000000">vTargetMail</text>
<text text-anchor="start" x="177.1158" y="-1018.3" font-family="Arial" font-size="14.00" fill="#000000">    </text>
<text text-anchor="start" x="211.3206" y="-1018.3" font-family="Arial" font-size="14.00" fill="#666666">[VIEW]</text>
<polygon fill="none" stroke="#000000" points="46.5,-975.5 46.5,-1005.5 291.5,-1005.5 291.5,-975.5 46.5,-975.5"/>
<text text-anchor="start" x="53.5" y="-986.9" font-family="Arial" font-size="14.00" fill="#000000">CustomerKey </text>
<text text-anchor="start" x="142.176" y="-986.9" font-family="Arial" font-size="14.00" fill="#666666">[int]</text>
<polygon fill="none" stroke="#000000" points="46.5,-945.5 46.5,-975.5 291.5,-975.5 291.5,-945.5 46.5,-945.5"/>
<text text-anchor="start" x="53.5" y="-956.9" font-family="Arial" font-size="14.00" fill="#000000">GeographyKey </text>
<text text-anchor="start" x="150.7566" y="-956.9" font-family="Arial" font-size="14.00" fill="#666666">[int]</text>
<polygon fill="none" stroke="#000000" points="46.5,-915.5 46.5,-945.5 291.5,-945.5 291.5,-915.5 46.5,-915.5"/>
<text text-anchor="start" x="53.0947" y="-926.9" font-family="Arial" font-size="14.00" fill="#000000">CustomerAlternateKey </text>
<text text-anchor="start" x="197.7861" y="-926.9" font-family="Arial" font-size="14.00" fill="#666666">[nvarchar(15)]</text>
<polygon fill="none" stroke="#000000" points="46.5,-885.5 46.5,-915.5 291.5,-915.5 291.5,-885.5 46.5,-885.5"/>
<text text-anchor="start" x="53.5" y="-896.9" font-family="Arial" font-size="14.00" fill="#000000">Title </text>
<text text-anchor="start" x="83.8296" y="-896.9" font-family="Arial" font-size="14.00" fill="#666666">[nvarchar(8)]</text>
<polygon fill="none" stroke="#000000" points="46.5,-855.5 46.5,-885.5 291.5,-885.5 291.5,-855.5 46.5,-855.5"/>
<text text-anchor="start" x="53.5" y="-866.9" font-family="Arial" font-size="14.00" fill="#000000">FirstName </text>
<text text-anchor="start" x="121.9334" y="-866.9" font-family="Arial" font-size="14.00" fill="#666666">[nvarchar(50)]</text>
<polygon fill="none" stroke="#000000" points="46.5,-825.5 46.5,-855.5 291.5,-855.5 291.5,-825.5 46.5,-825.5"/>
<text text-anchor="start" x="53.5" y="-836.9" font-family="Arial" font-size="14.00" fill="#000000">MiddleName </text>
<text text-anchor="start" x="135.9446" y="-836.9" font-family="Arial" font-size="14.00" fill="#666666">[nvarchar(50)]</text>
<polygon fill="none" stroke="#000000" points="46.5,-795.5 46.5,-825.5 291.5,-825.5 291.5,-795.5 46.5,-795.5"/>
<text text-anchor="start" x="53.5" y="-806.9" font-family="Arial" font-size="14.00" fill="#000000">LastName </text>
<text text-anchor="start" x="121.1788" y="-806.9" font-family="Arial" font-size="14.00" fill="#666666">[nvarchar(50)]</text>
<polygon fill="none" stroke="#000000" points="46.5,-765.5 46.5,-795.5 291.5,-795.5 291.5,-765.5 46.5,-765.5"/>
<text text-anchor="start" x="53.5" y="-776.9" font-family="Arial" font-size="14.00" fill="#000000">NameStyle </text>
<text text-anchor="start" x="125.8394" y="-776.9" font-family="Arial" font-size="14.00" fill="#666666">[bit]</text>
<polygon fill="none" stroke="#000000" points="46.5,-735.5 46.5,-765.5 291.5,-765.5 291.5,-735.5 46.5,-735.5"/>
<text text-anchor="start" x="53.5" y="-746.9" font-family="Arial" font-size="14.00" fill="#000000">BirthDate </text>
<text text-anchor="start" x="115.73" y="-746.9" font-family="Arial" font-size="14.00" fill="#666666">[date]</text>
<polygon fill="none" stroke="#000000" points="46.5,-705.5 46.5,-735.5 291.5,-735.5 291.5,-705.5 46.5,-705.5"/>
<text text-anchor="start" x="53.5" y="-716.9" font-family="Arial" font-size="14.00" fill="#000000">MaritalStatus </text>
<text text-anchor="start" x="139.0638" y="-716.9" font-family="Arial" font-size="14.00" fill="#666666">[nchar]</text>
<polygon fill="none" stroke="#000000" points="46.5,-675.5 46.5,-705.5 291.5,-705.5 291.5,-675.5 46.5,-675.5"/>
<text text-anchor="start" x="53.5" y="-686.9" font-family="Arial" font-size="14.00" fill="#000000">Suffix </text>
<text text-anchor="start" x="92.3976" y="-686.9" font-family="Arial" font-size="14.00" fill="#666666">[nvarchar(10)]</text>
<polygon fill="none" stroke="#000000" points="46.5,-645.5 46.5,-675.5 291.5,-675.5 291.5,-645.5 46.5,-645.5"/>
<text text-anchor="start" x="53.5" y="-656.9" font-family="Arial" font-size="14.00" fill="#000000">Gender </text>
<text text-anchor="start" x="104.0722" y="-656.9" font-family="Arial" font-size="14.00" fill="#666666">[nvarchar(1)]</text>
<polygon fill="none" stroke="#000000" points="46.5,-615.5 46.5,-645.5 291.5,-645.5 291.5,-615.5 46.5,-615.5"/>
<text text-anchor="start" x="53.5" y="-626.9" font-family="Arial" font-size="14.00" fill="#000000">EmailAddress </text>
<text text-anchor="start" x="143.7286" y="-626.9" font-family="Arial" font-size="14.00" fill="#666666">[nvarchar(50)]</text>
<polygon fill="none" stroke="#000000" points="46.5,-585.5 46.5,-615.5 291.5,-615.5 291.5,-585.5 46.5,-585.5"/>
<text text-anchor="start" x="53.5" y="-596.9" font-family="Arial" font-size="14.00" fill="#000000">YearlyIncome </text>
<text text-anchor="start" x="142.9586" y="-596.9" font-family="Arial" font-size="14.00" fill="#666666">[money]</text>
<polygon fill="none" stroke="#000000" points="46.5,-555.5 46.5,-585.5 291.5,-585.5 291.5,-555.5 46.5,-555.5"/>
<text text-anchor="start" x="53.5" y="-566.9" font-family="Arial" font-size="14.00" fill="#000000">TotalChildren </text>
<text text-anchor="start" x="140.6164" y="-566.9" font-family="Arial" font-size="14.00" fill="#666666">[tinyint]</text>
<polygon fill="none" stroke="#000000" points="46.5,-525.5 46.5,-555.5 291.5,-555.5 291.5,-525.5 46.5,-525.5"/>
<text text-anchor="start" x="53.5" y="-536.9" font-family="Arial" font-size="14.00" fill="#000000">NumberChildrenAtHome </text>
<text text-anchor="start" x="209.8366" y="-536.9" font-family="Arial" font-size="14.00" fill="#666666">[tinyint]</text>
<polygon fill="none" stroke="#000000" points="46.5,-495.5 46.5,-525.5 291.5,-525.5 291.5,-495.5 46.5,-495.5"/>
<text text-anchor="start" x="53.5" y="-506.9" font-family="Arial" font-size="14.00" fill="#000000">EnglishEducation </text>
<text text-anchor="start" x="165.535" y="-506.9" font-family="Arial" font-size="14.00" fill="#666666">[nvarchar(40)]</text>
<polygon fill="none" stroke="#000000" points="46.5,-465.5 46.5,-495.5 291.5,-495.5 291.5,-465.5 46.5,-465.5"/>
<text text-anchor="start" x="53.5" y="-476.9" font-family="Arial" font-size="14.00" fill="#000000">SpanishEducation </text>
<text text-anchor="start" x="170.211" y="-476.9" font-family="Arial" font-size="14.00" fill="#666666">[nvarchar(40)]</text>
<polygon fill="none" stroke="#000000" points="46.5,-435.5 46.5,-465.5 291.5,-465.5 291.5,-435.5 46.5,-435.5"/>
<text text-anchor="start" x="53.5" y="-446.9" font-family="Arial" font-size="14.00" fill="#000000">FrenchEducation </text>
<text text-anchor="start" x="163.1984" y="-446.9" font-family="Arial" font-size="14.00" fill="#666666">[nvarchar(40)]</text>
<polygon fill="none" stroke="#000000" points="46.5,-405.5 46.5,-435.5 291.5,-435.5 291.5,-405.5 46.5,-405.5"/>
<text text-anchor="start" x="53.5" y="-416.9" font-family="Arial" font-size="14.00" fill="#000000">EnglishOccupation </text>
<text text-anchor="start" x="174.089" y="-416.9" font-family="Arial" font-size="14.00" fill="#666666">[nvarchar(100)]</text>
<polygon fill="none" stroke="#000000" points="46.5,-375.5 46.5,-405.5 291.5,-405.5 291.5,-375.5 46.5,-375.5"/>
<text text-anchor="start" x="53.5" y="-386.9" font-family="Arial" font-size="14.00" fill="#000000">SpanishOccupation </text>
<text text-anchor="start" x="178.765" y="-386.9" font-family="Arial" font-size="14.00" fill="#666666">[nvarchar(100)]</text>
<polygon fill="none" stroke="#000000" points="46.5,-345.5 46.5,-375.5 291.5,-375.5 291.5,-345.5 46.5,-345.5"/>
<text text-anchor="start" x="53.5" y="-356.9" font-family="Arial" font-size="14.00" fill="#000000">FrenchOccupation </text>
<text text-anchor="start" x="171.7524" y="-356.9" font-family="Arial" font-size="14.00" fill="#666666">[nvarchar(100)]</text>
<polygon fill="none" stroke="#000000" points="46.5,-315.5 46.5,-345.5 291.5,-345.5 291.5,-315.5 46.5,-315.5"/>
<text text-anchor="start" x="53.5" y="-326.9" font-family="Arial" font-size="14.00" fill="#000000">HouseOwnerFlag </text>
<text text-anchor="start" x="166.2924" y="-326.9" font-family="Arial" font-size="14.00" fill="#666666">[nchar]</text>
<polygon fill="none" stroke="#000000" points="46.5,-285.5 46.5,-315.5 291.5,-315.5 291.5,-285.5 46.5,-285.5"/>
<text text-anchor="start" x="53.5" y="-296.9" font-family="Arial" font-size="14.00" fill="#000000">NumberCarsOwned </text>
<text text-anchor="start" x="181.061" y="-296.9" font-family="Arial" font-size="14.00" fill="#666666">[tinyint]</text>
<polygon fill="none" stroke="#000000" points="46.5,-255.5 46.5,-285.5 291.5,-285.5 291.5,-255.5 46.5,-255.5"/>
<text text-anchor="start" x="53.5" y="-266.9" font-family="Arial" font-size="14.00" fill="#000000">AddressLine1 </text>
<text text-anchor="start" x="142.9726" y="-266.9" font-family="Arial" font-size="14.00" fill="#666666">[nvarchar(120)]</text>
<polygon fill="none" stroke="#000000" points="46.5,-225.5 46.5,-255.5 291.5,-255.5 291.5,-225.5 46.5,-225.5"/>
<text text-anchor="start" x="53.5" y="-236.9" font-family="Arial" font-size="14.00" fill="#000000">AddressLine2 </text>
<text text-anchor="start" x="142.9726" y="-236.9" font-family="Arial" font-size="14.00" fill="#666666">[nvarchar(120)]</text>
<polygon fill="none" stroke="#000000" points="46.5,-195.5 46.5,-225.5 291.5,-225.5 291.5,-195.5 46.5,-195.5"/>
<text text-anchor="start" x="53.5" y="-206.9" font-family="Arial" font-size="14.00" fill="#000000">Phone </text>
<text text-anchor="start" x="97.8576" y="-206.9" font-family="Arial" font-size="14.00" fill="#666666">[nvarchar(20)]</text>
<polygon fill="none" stroke="#000000" points="46.5,-165.5 46.5,-195.5 291.5,-195.5 291.5,-165.5 46.5,-165.5"/>
<text text-anchor="start" x="53.5" y="-176.9" font-family="Arial" font-size="14.00" fill="#000000">DateFirstPurchase </text>
<text text-anchor="start" x="173.291" y="-176.9" font-family="Arial" font-size="14.00" fill="#666666">[date]</text>
<polygon fill="none" stroke="#000000" points="46.5,-135.5 46.5,-165.5 291.5,-165.5 291.5,-135.5 46.5,-135.5"/>
<text text-anchor="start" x="53.5" y="-146.9" font-family="Arial" font-size="14.00" fill="#000000">CommuteDistance </text>
<text text-anchor="start" x="172.5084" y="-146.9" font-family="Arial" font-size="14.00" fill="#666666">[nvarchar(15)]</text>
<polygon fill="none" stroke="#000000" points="46.5,-105.5 46.5,-135.5 291.5,-135.5 291.5,-105.5 46.5,-105.5"/>
<text text-anchor="start" x="53.5" y="-116.9" font-family="Arial" font-size="14.00" fill="#000000">Region </text>
<text text-anchor="start" x="101.7342" y="-116.9" font-family="Arial" font-size="14.00" fill="#666666">[nvarchar(50)]</text>
<polygon fill="none" stroke="#000000" points="46.5,-75.5 46.5,-105.5 291.5,-105.5 291.5,-75.5 46.5,-75.5"/>
<text text-anchor="start" x="53.5" y="-86.9" font-family="Arial" font-size="14.00" fill="#000000">Age </text>
<text text-anchor="start" x="82.2924" y="-86.9" font-family="Arial" font-size="14.00" fill="#666666">[int]</text>
<polygon fill="none" stroke="#000000" points="46.5,-45.5 46.5,-75.5 291.5,-75.5 291.5,-45.5 46.5,-45.5"/>
<text text-anchor="start" x="53.5" y="-56.9" font-family="Arial" font-size="14.00" fill="#000000">BikeBuyer </text>
<text text-anchor="start" x="121.1788" y="-56.9" font-family="Arial" font-size="14.00" fill="#666666">[int]</text>
<polygon fill="none" stroke="#000000" stroke-width="3" points="44.5,-44.5 44.5,-1042.5 292.5,-1042.5 292.5,-44.5 44.5,-44.5"/>
</g>
</g>
</svg>
