<?xml version="1.0" encoding="UTF-8" standalone="no"?>
<!DOCTYPE svg PUBLIC "-//W3C//DTD SVG 1.1//EN"
 "http://www.w3.org/Graphics/SVG/1.1/DTD/svg11.dtd">
<!-- Generated by graphviz version 2.40.1 (20161225.0304)
 -->
<!-- Title: vTimeSeries Pages: 1 -->
<svg width="291pt" height="345pt"
 viewBox="0.00 0.00 291.00 345.00" xmlns="http://www.w3.org/2000/svg" xmlns:xlink="http://www.w3.org/1999/xlink">
<g id="graph0" class="graph" transform="scale(1 1) rotate(0) translate(4 341)">
<title>vTimeSeries</title>
<polygon fill="#ffffff" stroke="transparent" points="-4,4 -4,-341 287,-341 287,4 -4,4"/>
<!-- vTimeSeries -->
<g id="node1" class="node">
<title>vTimeSeries</title>
<polygon fill="#efefef" stroke="transparent" points="46.5,-255.5 46.5,-290.5 237.5,-290.5 237.5,-255.5 46.5,-255.5"/>
<polygon fill="none" stroke="#000000" points="46.5,-255.5 46.5,-290.5 237.5,-290.5 237.5,-255.5 46.5,-255.5"/>
<text text-anchor="start" x="53.1219" y="-268.3" font-family="Arial Bold" font-size="18.00" fill="#000000">vTimeSeries</text>
<text text-anchor="start" x="153.1137" y="-268.3" font-family="Arial" font-size="14.00" fill="#000000">    </text>
<text text-anchor="start" x="187.3185" y="-268.3" font-family="Arial" font-size="14.00" fill="#666666">[VIEW]</text>
<polygon fill="none" stroke="#000000" points="46.5,-225.5 46.5,-255.5 237.5,-255.5 237.5,-225.5 46.5,-225.5"/>
<text text-anchor="start" x="53.5" y="-236.9" font-family="Arial" font-size="14.00" fill="#000000">ModelRegion </text>
<text text-anchor="start" x="139.8492" y="-236.9" font-family="Arial" font-size="14.00" fill="#666666">[nvarchar(56)]</text>
<polygon fill="none" stroke="#000000" points="46.5,-195.5 46.5,-225.5 237.5,-225.5 237.5,-195.5 46.5,-195.5"/>
<text text-anchor="start" x="53.5" y="-206.9" font-family="Arial" font-size="14.00" fill="#000000">TimeIndex </text>
<text text-anchor="start" x="122.7314" y="-206.9" font-family="Arial" font-size="14.00" fill="#666666">[int]</text>
<polygon fill="none" stroke="#000000" points="46.5,-165.5 46.5,-195.5 237.5,-195.5 237.5,-165.5 46.5,-165.5"/>
<text text-anchor="start" x="53.5" y="-176.9" font-family="Arial" font-size="14.00" fill="#000000">Quantity </text>
<text text-anchor="start" x="109.5168" y="-176.9" font-family="Arial" font-size="14.00" fill="#666666">[int]</text>
<polygon fill="none" stroke="#000000" points="46.5,-135.5 46.5,-165.5 237.5,-165.5 237.5,-135.5 46.5,-135.5"/>
<text text-anchor="start" x="53.5" y="-146.9" font-family="Arial" font-size="14.00" fill="#000000">Amount </text>
<text text-anchor="start" x="105.6262" y="-146.9" font-family="Arial" font-size="14.00" fill="#666666">[money]</text>
<polygon fill="none" stroke="#000000" points="46.5,-105.5 46.5,-135.5 237.5,-135.5 237.5,-105.5 46.5,-105.5"/>
<text text-anchor="start" x="53.5" y="-116.9" font-family="Arial" font-size="14.00" fill="#000000">CalendarYear </text>
<text text-anchor="start" x="143.7398" y="-116.9" font-family="Arial" font-size="14.00" fill="#666666">[smallint]</text>
<polygon fill="none" stroke="#000000" points="46.5,-75.5 46.5,-105.5 237.5,-105.5 237.5,-75.5 46.5,-75.5"/>
<text text-anchor="start" x="53.5" y="-86.9" font-family="Arial" font-size="14.00" fill="#000000">Month </text>
<text text-anchor="start" x="96.2896" y="-86.9" font-family="Arial" font-size="14.00" fill="#666666">[tinyint]</text>
<polygon fill="none" stroke="#000000" points="46.5,-45.5 46.5,-75.5 237.5,-75.5 237.5,-45.5 46.5,-45.5"/>
<text text-anchor="start" x="53.5" y="-56.9" font-family="Arial" font-size="14.00" fill="#000000">ReportingDate </text>
<text text-anchor="start" x="147.6304" y="-56.9" font-family="Arial" font-size="14.00" fill="#666666">[datetime]</text>
<polygon fill="none" stroke="#000000" stroke-width="3" points="44.5,-44.5 44.5,-292.5 238.5,-292.5 238.5,-44.5 44.5,-44.5"/>
</g>
</g>
</svg>
